%TF.GenerationSoftware,KiCad,Pcbnew,(6.0.4)*%
%TF.CreationDate,2022-05-15T18:51:46+02:00*%
%TF.ProjectId,BoostController,426f6f73-7443-46f6-9e74-726f6c6c6572,rev?*%
%TF.SameCoordinates,Original*%
%TF.FileFunction,Soldermask,Bot*%
%TF.FilePolarity,Negative*%
%FSLAX46Y46*%
G04 Gerber Fmt 4.6, Leading zero omitted, Abs format (unit mm)*
G04 Created by KiCad (PCBNEW (6.0.4)) date 2022-05-15 18:51:46*
%MOMM*%
%LPD*%
G01*
G04 APERTURE LIST*
G04 Aperture macros list*
%AMRoundRect*
0 Rectangle with rounded corners*
0 $1 Rounding radius*
0 $2 $3 $4 $5 $6 $7 $8 $9 X,Y pos of 4 corners*
0 Add a 4 corners polygon primitive as box body*
4,1,4,$2,$3,$4,$5,$6,$7,$8,$9,$2,$3,0*
0 Add four circle primitives for the rounded corners*
1,1,$1+$1,$2,$3*
1,1,$1+$1,$4,$5*
1,1,$1+$1,$6,$7*
1,1,$1+$1,$8,$9*
0 Add four rect primitives between the rounded corners*
20,1,$1+$1,$2,$3,$4,$5,0*
20,1,$1+$1,$4,$5,$6,$7,0*
20,1,$1+$1,$6,$7,$8,$9,0*
20,1,$1+$1,$8,$9,$2,$3,0*%
G04 Aperture macros list end*
%ADD10R,1.700000X1.700000*%
%ADD11O,1.700000X1.700000*%
%ADD12C,1.700000*%
%ADD13RoundRect,0.250000X-0.600000X-0.725000X0.600000X-0.725000X0.600000X0.725000X-0.600000X0.725000X0*%
%ADD14O,1.700000X1.950000*%
%ADD15R,2.200000X2.200000*%
%ADD16O,2.200000X2.200000*%
%ADD17C,1.524000*%
%ADD18R,2.000000X1.905000*%
%ADD19O,2.000000X1.905000*%
%ADD20RoundRect,0.381000X0.381000X0.619000X-0.381000X0.619000X-0.381000X-0.619000X0.381000X-0.619000X0*%
%ADD21O,1.524000X2.000000*%
%ADD22RoundRect,0.250000X0.625000X-0.400000X0.625000X0.400000X-0.625000X0.400000X-0.625000X-0.400000X0*%
%ADD23RoundRect,0.250000X-0.625000X0.400000X-0.625000X-0.400000X0.625000X-0.400000X0.625000X0.400000X0*%
%ADD24RoundRect,0.237500X-0.300000X-0.237500X0.300000X-0.237500X0.300000X0.237500X-0.300000X0.237500X0*%
G04 APERTURE END LIST*
D10*
%TO.C,J8*%
X127762000Y-76962000D03*
D11*
X127762000Y-79502000D03*
X127762000Y-82042000D03*
%TD*%
D10*
%TO.C,U1*%
X64770000Y-69342000D03*
D12*
X67310000Y-69342000D03*
X69850000Y-69342000D03*
X72390000Y-69342000D03*
X74930000Y-69342000D03*
X77470000Y-69342000D03*
X80010000Y-69342000D03*
X82550000Y-69342000D03*
X85090000Y-69342000D03*
X87630000Y-69342000D03*
X90170000Y-69342000D03*
X92710000Y-69342000D03*
X95250000Y-69342000D03*
X97790000Y-69342000D03*
X100330000Y-69342000D03*
X102870000Y-69342000D03*
X105410000Y-69342000D03*
X107950000Y-69342000D03*
X110490000Y-69342000D03*
X113030000Y-69342000D03*
X113030000Y-54102000D03*
X110490000Y-54102000D03*
X107950000Y-54102000D03*
X105410000Y-54102000D03*
X102870000Y-54102000D03*
X100330000Y-54102000D03*
X97790000Y-54102000D03*
X95250000Y-54102000D03*
X92710000Y-54102000D03*
X90170000Y-54102000D03*
X87630000Y-54102000D03*
X85090000Y-54102000D03*
X82550000Y-54102000D03*
X80010000Y-54102000D03*
X77470000Y-54102000D03*
X74930000Y-54102000D03*
X72390000Y-54102000D03*
X69850000Y-54102000D03*
X67310000Y-54102000D03*
X64770000Y-54102000D03*
X109220000Y-57912000D03*
X109220000Y-60452000D03*
X109220000Y-62992000D03*
X109220000Y-65532000D03*
%TD*%
D13*
%TO.C,J1*%
X65024000Y-116586000D03*
D14*
X67524000Y-116586000D03*
X70024000Y-116586000D03*
X72524000Y-116586000D03*
X75024000Y-116586000D03*
%TD*%
D13*
%TO.C,J2*%
X82804000Y-116586000D03*
D14*
X85304000Y-116586000D03*
X87804000Y-116586000D03*
X90304000Y-116586000D03*
X92804000Y-116586000D03*
%TD*%
D13*
%TO.C,J3*%
X100330000Y-116586000D03*
D14*
X102830000Y-116586000D03*
X105330000Y-116586000D03*
%TD*%
D13*
%TO.C,J4*%
X112776000Y-116586000D03*
D14*
X115276000Y-116586000D03*
X117776000Y-116586000D03*
X120276000Y-116586000D03*
%TD*%
D13*
%TO.C,J5*%
X127762000Y-116586000D03*
D14*
X130262000Y-116586000D03*
X132762000Y-116586000D03*
%TD*%
D15*
%TO.C,D2*%
X65024000Y-109220000D03*
D16*
X70104000Y-109220000D03*
%TD*%
D17*
%TO.C,U2*%
X72136000Y-103632000D03*
X69596000Y-103632000D03*
X67056000Y-103632000D03*
X64516000Y-103632000D03*
%TD*%
D18*
%TO.C,Q1*%
X99314000Y-96266000D03*
D19*
X99314000Y-98806000D03*
X99314000Y-101346000D03*
%TD*%
D18*
%TO.C,Q2*%
X106426000Y-96266000D03*
D19*
X106426000Y-98806000D03*
X106426000Y-101346000D03*
%TD*%
D15*
%TO.C,D4*%
X105537000Y-106573866D03*
D16*
X105537000Y-109113866D03*
%TD*%
D15*
%TO.C,D3*%
X100203000Y-106573866D03*
D16*
X100203000Y-109113866D03*
%TD*%
D20*
%TO.C,U3*%
X134112000Y-103886000D03*
D21*
X131572000Y-103886000D03*
X129032000Y-103886000D03*
X126492000Y-103886000D03*
X123952000Y-103886000D03*
X121412000Y-103886000D03*
%TD*%
D10*
%TO.C,J7*%
X135128000Y-74422000D03*
D11*
X135128000Y-76962000D03*
X135128000Y-79502000D03*
X135128000Y-82042000D03*
%TD*%
D10*
%TO.C,J6*%
X66294000Y-77216000D03*
%TD*%
D22*
%TO.C,R7*%
X88138000Y-111500000D03*
X88138000Y-108400000D03*
%TD*%
%TO.C,R8*%
X98044000Y-86164000D03*
X98044000Y-83064000D03*
%TD*%
%TO.C,R9*%
X91694000Y-111500000D03*
X91694000Y-108400000D03*
%TD*%
%TO.C,R10*%
X93726000Y-99880000D03*
X93726000Y-96780000D03*
%TD*%
%TO.C,R12*%
X89916000Y-99880000D03*
X89916000Y-96780000D03*
%TD*%
D23*
%TO.C,R13*%
X74676000Y-96748000D03*
X74676000Y-99848000D03*
%TD*%
D22*
%TO.C,R14*%
X79756000Y-99848000D03*
X79756000Y-96748000D03*
%TD*%
%TO.C,R15*%
X117856000Y-112072000D03*
X117856000Y-108972000D03*
%TD*%
D23*
%TO.C,R16*%
X121666000Y-108908000D03*
X121666000Y-112008000D03*
%TD*%
D22*
%TO.C,R17*%
X80518000Y-111532000D03*
X80518000Y-108432000D03*
%TD*%
%TO.C,R18*%
X84836000Y-99848000D03*
X84836000Y-96748000D03*
%TD*%
%TO.C,R19*%
X112268000Y-111500000D03*
X112268000Y-108400000D03*
%TD*%
D23*
%TO.C,R20*%
X108966000Y-108400000D03*
X108966000Y-111500000D03*
%TD*%
D22*
%TO.C,R11*%
X84328000Y-111500000D03*
X84328000Y-108400000D03*
%TD*%
D24*
%TO.C,C2*%
X93879500Y-86360000D03*
X95604500Y-86360000D03*
%TD*%
%TO.C,C6*%
X77445000Y-90932000D03*
X79170000Y-90932000D03*
%TD*%
M02*
