%TF.GenerationSoftware,KiCad,Pcbnew,(6.0.4)*%
%TF.CreationDate,2022-04-25T23:59:21+02:00*%
%TF.ProjectId,BoostController,426f6f73-7443-46f6-9e74-726f6c6c6572,rev?*%
%TF.SameCoordinates,Original*%
%TF.FileFunction,Legend,Bot*%
%TF.FilePolarity,Positive*%
%FSLAX46Y46*%
G04 Gerber Fmt 4.6, Leading zero omitted, Abs format (unit mm)*
G04 Created by KiCad (PCBNEW (6.0.4)) date 2022-04-25 23:59:21*
%MOMM*%
%LPD*%
G01*
G04 APERTURE LIST*
G04 Aperture macros list*
%AMRoundRect*
0 Rectangle with rounded corners*
0 $1 Rounding radius*
0 $2 $3 $4 $5 $6 $7 $8 $9 X,Y pos of 4 corners*
0 Add a 4 corners polygon primitive as box body*
4,1,4,$2,$3,$4,$5,$6,$7,$8,$9,$2,$3,0*
0 Add four circle primitives for the rounded corners*
1,1,$1+$1,$2,$3*
1,1,$1+$1,$4,$5*
1,1,$1+$1,$6,$7*
1,1,$1+$1,$8,$9*
0 Add four rect primitives between the rounded corners*
20,1,$1+$1,$2,$3,$4,$5,0*
20,1,$1+$1,$4,$5,$6,$7,0*
20,1,$1+$1,$6,$7,$8,$9,0*
20,1,$1+$1,$8,$9,$2,$3,0*%
G04 Aperture macros list end*
%ADD10C,0.150000*%
%ADD11C,0.120000*%
%ADD12R,2.700000X3.500000*%
%ADD13R,1.700000X1.700000*%
%ADD14O,1.700000X1.700000*%
%ADD15R,2.000000X1.905000*%
%ADD16O,2.000000X1.905000*%
%ADD17RoundRect,0.250000X-0.600000X-0.725000X0.600000X-0.725000X0.600000X0.725000X-0.600000X0.725000X0*%
%ADD18O,1.700000X1.950000*%
%ADD19R,2.200000X2.200000*%
%ADD20O,2.200000X2.200000*%
%ADD21RoundRect,0.250000X-0.625000X0.400000X-0.625000X-0.400000X0.625000X-0.400000X0.625000X0.400000X0*%
%ADD22RoundRect,0.250000X0.625000X-0.400000X0.625000X0.400000X-0.625000X0.400000X-0.625000X-0.400000X0*%
%ADD23C,1.700000*%
%ADD24C,1.524000*%
%ADD25RoundRect,0.381000X0.381000X0.619000X-0.381000X0.619000X-0.381000X-0.619000X0.381000X-0.619000X0*%
%ADD26O,1.524000X2.000000*%
G04 APERTURE END LIST*
D10*
X137080095Y-46950380D02*
X137080095Y-47664666D01*
X137127714Y-47807523D01*
X137222952Y-47902761D01*
X137365809Y-47950380D01*
X137461047Y-47950380D01*
X136127714Y-47950380D02*
X136603904Y-47950380D01*
X136603904Y-46950380D01*
X135222952Y-47855142D02*
X135270571Y-47902761D01*
X135413428Y-47950380D01*
X135508666Y-47950380D01*
X135651523Y-47902761D01*
X135746761Y-47807523D01*
X135794380Y-47712285D01*
X135842000Y-47521809D01*
X135842000Y-47378952D01*
X135794380Y-47188476D01*
X135746761Y-47093238D01*
X135651523Y-46998000D01*
X135508666Y-46950380D01*
X135413428Y-46950380D01*
X135270571Y-46998000D01*
X135222952Y-47045619D01*
X134508666Y-46950380D02*
X134508666Y-47664666D01*
X134556285Y-47807523D01*
X134651523Y-47902761D01*
X134794380Y-47950380D01*
X134889619Y-47950380D01*
X133556285Y-47950380D02*
X134032476Y-47950380D01*
X134032476Y-46950380D01*
X132651523Y-47855142D02*
X132699142Y-47902761D01*
X132842000Y-47950380D01*
X132937238Y-47950380D01*
X133080095Y-47902761D01*
X133175333Y-47807523D01*
X133222952Y-47712285D01*
X133270571Y-47521809D01*
X133270571Y-47378952D01*
X133222952Y-47188476D01*
X133175333Y-47093238D01*
X133080095Y-46998000D01*
X132937238Y-46950380D01*
X132842000Y-46950380D01*
X132699142Y-46998000D01*
X132651523Y-47045619D01*
X131937238Y-46950380D02*
X131937238Y-47664666D01*
X131984857Y-47807523D01*
X132080095Y-47902761D01*
X132222952Y-47950380D01*
X132318190Y-47950380D01*
X130984857Y-47950380D02*
X131461047Y-47950380D01*
X131461047Y-46950380D01*
X130080095Y-47855142D02*
X130127714Y-47902761D01*
X130270571Y-47950380D01*
X130365809Y-47950380D01*
X130508666Y-47902761D01*
X130603904Y-47807523D01*
X130651523Y-47712285D01*
X130699142Y-47521809D01*
X130699142Y-47378952D01*
X130651523Y-47188476D01*
X130603904Y-47093238D01*
X130508666Y-46998000D01*
X130365809Y-46950380D01*
X130270571Y-46950380D01*
X130127714Y-46998000D01*
X130080095Y-47045619D01*
X129365809Y-46950380D02*
X129365809Y-47664666D01*
X129413428Y-47807523D01*
X129508666Y-47902761D01*
X129651523Y-47950380D01*
X129746761Y-47950380D01*
X128413428Y-47950380D02*
X128889619Y-47950380D01*
X128889619Y-46950380D01*
X127508666Y-47855142D02*
X127556285Y-47902761D01*
X127699142Y-47950380D01*
X127794380Y-47950380D01*
X127937238Y-47902761D01*
X128032476Y-47807523D01*
X128080095Y-47712285D01*
X128127714Y-47521809D01*
X128127714Y-47378952D01*
X128080095Y-47188476D01*
X128032476Y-47093238D01*
X127937238Y-46998000D01*
X127794380Y-46950380D01*
X127699142Y-46950380D01*
X127556285Y-46998000D01*
X127508666Y-47045619D01*
%TO.C,D12*%
X111668380Y-86825714D02*
X110668380Y-86825714D01*
X110668380Y-87063809D01*
X110716000Y-87206666D01*
X110811238Y-87301904D01*
X110906476Y-87349523D01*
X111096952Y-87397142D01*
X111239809Y-87397142D01*
X111430285Y-87349523D01*
X111525523Y-87301904D01*
X111620761Y-87206666D01*
X111668380Y-87063809D01*
X111668380Y-86825714D01*
X111668380Y-88349523D02*
X111668380Y-87778095D01*
X111668380Y-88063809D02*
X110668380Y-88063809D01*
X110811238Y-87968571D01*
X110906476Y-87873333D01*
X110954095Y-87778095D01*
X110763619Y-88730476D02*
X110716000Y-88778095D01*
X110668380Y-88873333D01*
X110668380Y-89111428D01*
X110716000Y-89206666D01*
X110763619Y-89254285D01*
X110858857Y-89301904D01*
X110954095Y-89301904D01*
X111096952Y-89254285D01*
X111668380Y-88682857D01*
X111668380Y-89301904D01*
%TO.C,R20*%
X107640380Y-110609142D02*
X107164190Y-110275809D01*
X107640380Y-110037714D02*
X106640380Y-110037714D01*
X106640380Y-110418666D01*
X106688000Y-110513904D01*
X106735619Y-110561523D01*
X106830857Y-110609142D01*
X106973714Y-110609142D01*
X107068952Y-110561523D01*
X107116571Y-110513904D01*
X107164190Y-110418666D01*
X107164190Y-110037714D01*
X106735619Y-110990095D02*
X106688000Y-111037714D01*
X106640380Y-111132952D01*
X106640380Y-111371047D01*
X106688000Y-111466285D01*
X106735619Y-111513904D01*
X106830857Y-111561523D01*
X106926095Y-111561523D01*
X107068952Y-111513904D01*
X107640380Y-110942476D01*
X107640380Y-111561523D01*
X106640380Y-112180571D02*
X106640380Y-112275809D01*
X106688000Y-112371047D01*
X106735619Y-112418666D01*
X106830857Y-112466285D01*
X107021333Y-112513904D01*
X107259428Y-112513904D01*
X107449904Y-112466285D01*
X107545142Y-112418666D01*
X107592761Y-112371047D01*
X107640380Y-112275809D01*
X107640380Y-112180571D01*
X107592761Y-112085333D01*
X107545142Y-112037714D01*
X107449904Y-111990095D01*
X107259428Y-111942476D01*
X107021333Y-111942476D01*
X106830857Y-111990095D01*
X106735619Y-112037714D01*
X106688000Y-112085333D01*
X106640380Y-112180571D01*
%TO.C,R19*%
X114540380Y-109307142D02*
X114064190Y-108973809D01*
X114540380Y-108735714D02*
X113540380Y-108735714D01*
X113540380Y-109116666D01*
X113588000Y-109211904D01*
X113635619Y-109259523D01*
X113730857Y-109307142D01*
X113873714Y-109307142D01*
X113968952Y-109259523D01*
X114016571Y-109211904D01*
X114064190Y-109116666D01*
X114064190Y-108735714D01*
X114540380Y-110259523D02*
X114540380Y-109688095D01*
X114540380Y-109973809D02*
X113540380Y-109973809D01*
X113683238Y-109878571D01*
X113778476Y-109783333D01*
X113826095Y-109688095D01*
X114540380Y-110735714D02*
X114540380Y-110926190D01*
X114492761Y-111021428D01*
X114445142Y-111069047D01*
X114302285Y-111164285D01*
X114111809Y-111211904D01*
X113730857Y-111211904D01*
X113635619Y-111164285D01*
X113588000Y-111116666D01*
X113540380Y-111021428D01*
X113540380Y-110830952D01*
X113588000Y-110735714D01*
X113635619Y-110688095D01*
X113730857Y-110640476D01*
X113968952Y-110640476D01*
X114064190Y-110688095D01*
X114111809Y-110735714D01*
X114159428Y-110830952D01*
X114159428Y-111021428D01*
X114111809Y-111116666D01*
X114064190Y-111164285D01*
X113968952Y-111211904D01*
%TO.C,R18*%
X87108380Y-97655142D02*
X86632190Y-97321809D01*
X87108380Y-97083714D02*
X86108380Y-97083714D01*
X86108380Y-97464666D01*
X86156000Y-97559904D01*
X86203619Y-97607523D01*
X86298857Y-97655142D01*
X86441714Y-97655142D01*
X86536952Y-97607523D01*
X86584571Y-97559904D01*
X86632190Y-97464666D01*
X86632190Y-97083714D01*
X87108380Y-98607523D02*
X87108380Y-98036095D01*
X87108380Y-98321809D02*
X86108380Y-98321809D01*
X86251238Y-98226571D01*
X86346476Y-98131333D01*
X86394095Y-98036095D01*
X86536952Y-99178952D02*
X86489333Y-99083714D01*
X86441714Y-99036095D01*
X86346476Y-98988476D01*
X86298857Y-98988476D01*
X86203619Y-99036095D01*
X86156000Y-99083714D01*
X86108380Y-99178952D01*
X86108380Y-99369428D01*
X86156000Y-99464666D01*
X86203619Y-99512285D01*
X86298857Y-99559904D01*
X86346476Y-99559904D01*
X86441714Y-99512285D01*
X86489333Y-99464666D01*
X86536952Y-99369428D01*
X86536952Y-99178952D01*
X86584571Y-99083714D01*
X86632190Y-99036095D01*
X86727428Y-98988476D01*
X86917904Y-98988476D01*
X87013142Y-99036095D01*
X87060761Y-99083714D01*
X87108380Y-99178952D01*
X87108380Y-99369428D01*
X87060761Y-99464666D01*
X87013142Y-99512285D01*
X86917904Y-99559904D01*
X86727428Y-99559904D01*
X86632190Y-99512285D01*
X86584571Y-99464666D01*
X86536952Y-99369428D01*
%TO.C,R17*%
X82790380Y-109339142D02*
X82314190Y-109005809D01*
X82790380Y-108767714D02*
X81790380Y-108767714D01*
X81790380Y-109148666D01*
X81838000Y-109243904D01*
X81885619Y-109291523D01*
X81980857Y-109339142D01*
X82123714Y-109339142D01*
X82218952Y-109291523D01*
X82266571Y-109243904D01*
X82314190Y-109148666D01*
X82314190Y-108767714D01*
X82790380Y-110291523D02*
X82790380Y-109720095D01*
X82790380Y-110005809D02*
X81790380Y-110005809D01*
X81933238Y-109910571D01*
X82028476Y-109815333D01*
X82076095Y-109720095D01*
X81790380Y-110624857D02*
X81790380Y-111291523D01*
X82790380Y-110862952D01*
%TO.C,R16*%
X116530380Y-109847142D02*
X116054190Y-109513809D01*
X116530380Y-109275714D02*
X115530380Y-109275714D01*
X115530380Y-109656666D01*
X115578000Y-109751904D01*
X115625619Y-109799523D01*
X115720857Y-109847142D01*
X115863714Y-109847142D01*
X115958952Y-109799523D01*
X116006571Y-109751904D01*
X116054190Y-109656666D01*
X116054190Y-109275714D01*
X116530380Y-110799523D02*
X116530380Y-110228095D01*
X116530380Y-110513809D02*
X115530380Y-110513809D01*
X115673238Y-110418571D01*
X115768476Y-110323333D01*
X115816095Y-110228095D01*
X115530380Y-111656666D02*
X115530380Y-111466190D01*
X115578000Y-111370952D01*
X115625619Y-111323333D01*
X115768476Y-111228095D01*
X115958952Y-111180476D01*
X116339904Y-111180476D01*
X116435142Y-111228095D01*
X116482761Y-111275714D01*
X116530380Y-111370952D01*
X116530380Y-111561428D01*
X116482761Y-111656666D01*
X116435142Y-111704285D01*
X116339904Y-111751904D01*
X116101809Y-111751904D01*
X116006571Y-111704285D01*
X115958952Y-111656666D01*
X115911333Y-111561428D01*
X115911333Y-111370952D01*
X115958952Y-111275714D01*
X116006571Y-111228095D01*
X116101809Y-111180476D01*
%TO.C,R15*%
X120128380Y-109879142D02*
X119652190Y-109545809D01*
X120128380Y-109307714D02*
X119128380Y-109307714D01*
X119128380Y-109688666D01*
X119176000Y-109783904D01*
X119223619Y-109831523D01*
X119318857Y-109879142D01*
X119461714Y-109879142D01*
X119556952Y-109831523D01*
X119604571Y-109783904D01*
X119652190Y-109688666D01*
X119652190Y-109307714D01*
X120128380Y-110831523D02*
X120128380Y-110260095D01*
X120128380Y-110545809D02*
X119128380Y-110545809D01*
X119271238Y-110450571D01*
X119366476Y-110355333D01*
X119414095Y-110260095D01*
X119128380Y-111736285D02*
X119128380Y-111260095D01*
X119604571Y-111212476D01*
X119556952Y-111260095D01*
X119509333Y-111355333D01*
X119509333Y-111593428D01*
X119556952Y-111688666D01*
X119604571Y-111736285D01*
X119699809Y-111783904D01*
X119937904Y-111783904D01*
X120033142Y-111736285D01*
X120080761Y-111688666D01*
X120128380Y-111593428D01*
X120128380Y-111355333D01*
X120080761Y-111260095D01*
X120033142Y-111212476D01*
%TO.C,R14*%
X82028380Y-97655142D02*
X81552190Y-97321809D01*
X82028380Y-97083714D02*
X81028380Y-97083714D01*
X81028380Y-97464666D01*
X81076000Y-97559904D01*
X81123619Y-97607523D01*
X81218857Y-97655142D01*
X81361714Y-97655142D01*
X81456952Y-97607523D01*
X81504571Y-97559904D01*
X81552190Y-97464666D01*
X81552190Y-97083714D01*
X82028380Y-98607523D02*
X82028380Y-98036095D01*
X82028380Y-98321809D02*
X81028380Y-98321809D01*
X81171238Y-98226571D01*
X81266476Y-98131333D01*
X81314095Y-98036095D01*
X81361714Y-99464666D02*
X82028380Y-99464666D01*
X80980761Y-99226571D02*
X81695047Y-98988476D01*
X81695047Y-99607523D01*
%TO.C,R13*%
X73308380Y-97655142D02*
X72832190Y-97321809D01*
X73308380Y-97083714D02*
X72308380Y-97083714D01*
X72308380Y-97464666D01*
X72356000Y-97559904D01*
X72403619Y-97607523D01*
X72498857Y-97655142D01*
X72641714Y-97655142D01*
X72736952Y-97607523D01*
X72784571Y-97559904D01*
X72832190Y-97464666D01*
X72832190Y-97083714D01*
X73308380Y-98607523D02*
X73308380Y-98036095D01*
X73308380Y-98321809D02*
X72308380Y-98321809D01*
X72451238Y-98226571D01*
X72546476Y-98131333D01*
X72594095Y-98036095D01*
X72308380Y-98940857D02*
X72308380Y-99559904D01*
X72689333Y-99226571D01*
X72689333Y-99369428D01*
X72736952Y-99464666D01*
X72784571Y-99512285D01*
X72879809Y-99559904D01*
X73117904Y-99559904D01*
X73213142Y-99512285D01*
X73260761Y-99464666D01*
X73308380Y-99369428D01*
X73308380Y-99083714D01*
X73260761Y-98988476D01*
X73213142Y-98940857D01*
%TO.C,R12*%
X92188380Y-97687142D02*
X91712190Y-97353809D01*
X92188380Y-97115714D02*
X91188380Y-97115714D01*
X91188380Y-97496666D01*
X91236000Y-97591904D01*
X91283619Y-97639523D01*
X91378857Y-97687142D01*
X91521714Y-97687142D01*
X91616952Y-97639523D01*
X91664571Y-97591904D01*
X91712190Y-97496666D01*
X91712190Y-97115714D01*
X92188380Y-98639523D02*
X92188380Y-98068095D01*
X92188380Y-98353809D02*
X91188380Y-98353809D01*
X91331238Y-98258571D01*
X91426476Y-98163333D01*
X91474095Y-98068095D01*
X91283619Y-99020476D02*
X91236000Y-99068095D01*
X91188380Y-99163333D01*
X91188380Y-99401428D01*
X91236000Y-99496666D01*
X91283619Y-99544285D01*
X91378857Y-99591904D01*
X91474095Y-99591904D01*
X91616952Y-99544285D01*
X92188380Y-98972857D01*
X92188380Y-99591904D01*
%TO.C,R11*%
X86600380Y-109307142D02*
X86124190Y-108973809D01*
X86600380Y-108735714D02*
X85600380Y-108735714D01*
X85600380Y-109116666D01*
X85648000Y-109211904D01*
X85695619Y-109259523D01*
X85790857Y-109307142D01*
X85933714Y-109307142D01*
X86028952Y-109259523D01*
X86076571Y-109211904D01*
X86124190Y-109116666D01*
X86124190Y-108735714D01*
X86600380Y-110259523D02*
X86600380Y-109688095D01*
X86600380Y-109973809D02*
X85600380Y-109973809D01*
X85743238Y-109878571D01*
X85838476Y-109783333D01*
X85886095Y-109688095D01*
X86600380Y-111211904D02*
X86600380Y-110640476D01*
X86600380Y-110926190D02*
X85600380Y-110926190D01*
X85743238Y-110830952D01*
X85838476Y-110735714D01*
X85886095Y-110640476D01*
%TO.C,R10*%
X95998380Y-97687142D02*
X95522190Y-97353809D01*
X95998380Y-97115714D02*
X94998380Y-97115714D01*
X94998380Y-97496666D01*
X95046000Y-97591904D01*
X95093619Y-97639523D01*
X95188857Y-97687142D01*
X95331714Y-97687142D01*
X95426952Y-97639523D01*
X95474571Y-97591904D01*
X95522190Y-97496666D01*
X95522190Y-97115714D01*
X95998380Y-98639523D02*
X95998380Y-98068095D01*
X95998380Y-98353809D02*
X94998380Y-98353809D01*
X95141238Y-98258571D01*
X95236476Y-98163333D01*
X95284095Y-98068095D01*
X94998380Y-99258571D02*
X94998380Y-99353809D01*
X95046000Y-99449047D01*
X95093619Y-99496666D01*
X95188857Y-99544285D01*
X95379333Y-99591904D01*
X95617428Y-99591904D01*
X95807904Y-99544285D01*
X95903142Y-99496666D01*
X95950761Y-99449047D01*
X95998380Y-99353809D01*
X95998380Y-99258571D01*
X95950761Y-99163333D01*
X95903142Y-99115714D01*
X95807904Y-99068095D01*
X95617428Y-99020476D01*
X95379333Y-99020476D01*
X95188857Y-99068095D01*
X95093619Y-99115714D01*
X95046000Y-99163333D01*
X94998380Y-99258571D01*
%TO.C,R9*%
X93966380Y-109783333D02*
X93490190Y-109450000D01*
X93966380Y-109211904D02*
X92966380Y-109211904D01*
X92966380Y-109592857D01*
X93014000Y-109688095D01*
X93061619Y-109735714D01*
X93156857Y-109783333D01*
X93299714Y-109783333D01*
X93394952Y-109735714D01*
X93442571Y-109688095D01*
X93490190Y-109592857D01*
X93490190Y-109211904D01*
X93966380Y-110259523D02*
X93966380Y-110450000D01*
X93918761Y-110545238D01*
X93871142Y-110592857D01*
X93728285Y-110688095D01*
X93537809Y-110735714D01*
X93156857Y-110735714D01*
X93061619Y-110688095D01*
X93014000Y-110640476D01*
X92966380Y-110545238D01*
X92966380Y-110354761D01*
X93014000Y-110259523D01*
X93061619Y-110211904D01*
X93156857Y-110164285D01*
X93394952Y-110164285D01*
X93490190Y-110211904D01*
X93537809Y-110259523D01*
X93585428Y-110354761D01*
X93585428Y-110545238D01*
X93537809Y-110640476D01*
X93490190Y-110688095D01*
X93394952Y-110735714D01*
%TO.C,R8*%
X100316380Y-84447333D02*
X99840190Y-84114000D01*
X100316380Y-83875904D02*
X99316380Y-83875904D01*
X99316380Y-84256857D01*
X99364000Y-84352095D01*
X99411619Y-84399714D01*
X99506857Y-84447333D01*
X99649714Y-84447333D01*
X99744952Y-84399714D01*
X99792571Y-84352095D01*
X99840190Y-84256857D01*
X99840190Y-83875904D01*
X99744952Y-85018761D02*
X99697333Y-84923523D01*
X99649714Y-84875904D01*
X99554476Y-84828285D01*
X99506857Y-84828285D01*
X99411619Y-84875904D01*
X99364000Y-84923523D01*
X99316380Y-85018761D01*
X99316380Y-85209238D01*
X99364000Y-85304476D01*
X99411619Y-85352095D01*
X99506857Y-85399714D01*
X99554476Y-85399714D01*
X99649714Y-85352095D01*
X99697333Y-85304476D01*
X99744952Y-85209238D01*
X99744952Y-85018761D01*
X99792571Y-84923523D01*
X99840190Y-84875904D01*
X99935428Y-84828285D01*
X100125904Y-84828285D01*
X100221142Y-84875904D01*
X100268761Y-84923523D01*
X100316380Y-85018761D01*
X100316380Y-85209238D01*
X100268761Y-85304476D01*
X100221142Y-85352095D01*
X100125904Y-85399714D01*
X99935428Y-85399714D01*
X99840190Y-85352095D01*
X99792571Y-85304476D01*
X99744952Y-85209238D01*
%TO.C,R7*%
X90410380Y-109783333D02*
X89934190Y-109450000D01*
X90410380Y-109211904D02*
X89410380Y-109211904D01*
X89410380Y-109592857D01*
X89458000Y-109688095D01*
X89505619Y-109735714D01*
X89600857Y-109783333D01*
X89743714Y-109783333D01*
X89838952Y-109735714D01*
X89886571Y-109688095D01*
X89934190Y-109592857D01*
X89934190Y-109211904D01*
X89410380Y-110116666D02*
X89410380Y-110783333D01*
X90410380Y-110354761D01*
%TO.C,D11*%
X91348380Y-86825714D02*
X90348380Y-86825714D01*
X90348380Y-87063809D01*
X90396000Y-87206666D01*
X90491238Y-87301904D01*
X90586476Y-87349523D01*
X90776952Y-87397142D01*
X90919809Y-87397142D01*
X91110285Y-87349523D01*
X91205523Y-87301904D01*
X91300761Y-87206666D01*
X91348380Y-87063809D01*
X91348380Y-86825714D01*
X91348380Y-88349523D02*
X91348380Y-87778095D01*
X91348380Y-88063809D02*
X90348380Y-88063809D01*
X90491238Y-87968571D01*
X90586476Y-87873333D01*
X90634095Y-87778095D01*
X91348380Y-89301904D02*
X91348380Y-88730476D01*
X91348380Y-89016190D02*
X90348380Y-89016190D01*
X90491238Y-88920952D01*
X90586476Y-88825714D01*
X90634095Y-88730476D01*
%TO.C,D10*%
X117256380Y-86825714D02*
X116256380Y-86825714D01*
X116256380Y-87063809D01*
X116304000Y-87206666D01*
X116399238Y-87301904D01*
X116494476Y-87349523D01*
X116684952Y-87397142D01*
X116827809Y-87397142D01*
X117018285Y-87349523D01*
X117113523Y-87301904D01*
X117208761Y-87206666D01*
X117256380Y-87063809D01*
X117256380Y-86825714D01*
X117256380Y-88349523D02*
X117256380Y-87778095D01*
X117256380Y-88063809D02*
X116256380Y-88063809D01*
X116399238Y-87968571D01*
X116494476Y-87873333D01*
X116542095Y-87778095D01*
X116256380Y-88968571D02*
X116256380Y-89063809D01*
X116304000Y-89159047D01*
X116351619Y-89206666D01*
X116446857Y-89254285D01*
X116637333Y-89301904D01*
X116875428Y-89301904D01*
X117065904Y-89254285D01*
X117161142Y-89206666D01*
X117208761Y-89159047D01*
X117256380Y-89063809D01*
X117256380Y-88968571D01*
X117208761Y-88873333D01*
X117161142Y-88825714D01*
X117065904Y-88778095D01*
X116875428Y-88730476D01*
X116637333Y-88730476D01*
X116446857Y-88778095D01*
X116351619Y-88825714D01*
X116304000Y-88873333D01*
X116256380Y-88968571D01*
%TO.C,D9*%
X79664380Y-87301904D02*
X78664380Y-87301904D01*
X78664380Y-87540000D01*
X78712000Y-87682857D01*
X78807238Y-87778095D01*
X78902476Y-87825714D01*
X79092952Y-87873333D01*
X79235809Y-87873333D01*
X79426285Y-87825714D01*
X79521523Y-87778095D01*
X79616761Y-87682857D01*
X79664380Y-87540000D01*
X79664380Y-87301904D01*
X79664380Y-88349523D02*
X79664380Y-88540000D01*
X79616761Y-88635238D01*
X79569142Y-88682857D01*
X79426285Y-88778095D01*
X79235809Y-88825714D01*
X78854857Y-88825714D01*
X78759619Y-88778095D01*
X78712000Y-88730476D01*
X78664380Y-88635238D01*
X78664380Y-88444761D01*
X78712000Y-88349523D01*
X78759619Y-88301904D01*
X78854857Y-88254285D01*
X79092952Y-88254285D01*
X79188190Y-88301904D01*
X79235809Y-88349523D01*
X79283428Y-88444761D01*
X79283428Y-88635238D01*
X79235809Y-88730476D01*
X79188190Y-88778095D01*
X79092952Y-88825714D01*
%TO.C,D8*%
X85760380Y-87301904D02*
X84760380Y-87301904D01*
X84760380Y-87540000D01*
X84808000Y-87682857D01*
X84903238Y-87778095D01*
X84998476Y-87825714D01*
X85188952Y-87873333D01*
X85331809Y-87873333D01*
X85522285Y-87825714D01*
X85617523Y-87778095D01*
X85712761Y-87682857D01*
X85760380Y-87540000D01*
X85760380Y-87301904D01*
X85188952Y-88444761D02*
X85141333Y-88349523D01*
X85093714Y-88301904D01*
X84998476Y-88254285D01*
X84950857Y-88254285D01*
X84855619Y-88301904D01*
X84808000Y-88349523D01*
X84760380Y-88444761D01*
X84760380Y-88635238D01*
X84808000Y-88730476D01*
X84855619Y-88778095D01*
X84950857Y-88825714D01*
X84998476Y-88825714D01*
X85093714Y-88778095D01*
X85141333Y-88730476D01*
X85188952Y-88635238D01*
X85188952Y-88444761D01*
X85236571Y-88349523D01*
X85284190Y-88301904D01*
X85379428Y-88254285D01*
X85569904Y-88254285D01*
X85665142Y-88301904D01*
X85712761Y-88349523D01*
X85760380Y-88444761D01*
X85760380Y-88635238D01*
X85712761Y-88730476D01*
X85665142Y-88778095D01*
X85569904Y-88825714D01*
X85379428Y-88825714D01*
X85284190Y-88778095D01*
X85236571Y-88730476D01*
X85188952Y-88635238D01*
%TO.C,D6*%
X96174380Y-87301904D02*
X95174380Y-87301904D01*
X95174380Y-87540000D01*
X95222000Y-87682857D01*
X95317238Y-87778095D01*
X95412476Y-87825714D01*
X95602952Y-87873333D01*
X95745809Y-87873333D01*
X95936285Y-87825714D01*
X96031523Y-87778095D01*
X96126761Y-87682857D01*
X96174380Y-87540000D01*
X96174380Y-87301904D01*
X95174380Y-88730476D02*
X95174380Y-88540000D01*
X95222000Y-88444761D01*
X95269619Y-88397142D01*
X95412476Y-88301904D01*
X95602952Y-88254285D01*
X95983904Y-88254285D01*
X96079142Y-88301904D01*
X96126761Y-88349523D01*
X96174380Y-88444761D01*
X96174380Y-88635238D01*
X96126761Y-88730476D01*
X96079142Y-88778095D01*
X95983904Y-88825714D01*
X95745809Y-88825714D01*
X95650571Y-88778095D01*
X95602952Y-88730476D01*
X95555333Y-88635238D01*
X95555333Y-88444761D01*
X95602952Y-88349523D01*
X95650571Y-88301904D01*
X95745809Y-88254285D01*
%TO.C,D5*%
X105572380Y-87301904D02*
X104572380Y-87301904D01*
X104572380Y-87540000D01*
X104620000Y-87682857D01*
X104715238Y-87778095D01*
X104810476Y-87825714D01*
X105000952Y-87873333D01*
X105143809Y-87873333D01*
X105334285Y-87825714D01*
X105429523Y-87778095D01*
X105524761Y-87682857D01*
X105572380Y-87540000D01*
X105572380Y-87301904D01*
X104572380Y-88778095D02*
X104572380Y-88301904D01*
X105048571Y-88254285D01*
X105000952Y-88301904D01*
X104953333Y-88397142D01*
X104953333Y-88635238D01*
X105000952Y-88730476D01*
X105048571Y-88778095D01*
X105143809Y-88825714D01*
X105381904Y-88825714D01*
X105477142Y-88778095D01*
X105524761Y-88730476D01*
X105572380Y-88635238D01*
X105572380Y-88397142D01*
X105524761Y-88301904D01*
X105477142Y-88254285D01*
D11*
%TO.C,D12*%
X107466000Y-93340000D02*
X107466000Y-84640000D01*
X110466000Y-93340000D02*
X107466000Y-93340000D01*
X110466000Y-84640000D02*
X110466000Y-93340000D01*
%TO.C,R20*%
X109876000Y-109222936D02*
X109876000Y-110677064D01*
X108056000Y-109222936D02*
X108056000Y-110677064D01*
%TO.C,R19*%
X113178000Y-110677064D02*
X113178000Y-109222936D01*
X111358000Y-110677064D02*
X111358000Y-109222936D01*
%TO.C,R18*%
X85746000Y-99025064D02*
X85746000Y-97570936D01*
X83926000Y-99025064D02*
X83926000Y-97570936D01*
%TO.C,R17*%
X81428000Y-110709064D02*
X81428000Y-109254936D01*
X79608000Y-110709064D02*
X79608000Y-109254936D01*
%TO.C,R16*%
X120756000Y-109730936D02*
X120756000Y-111185064D01*
X122576000Y-109730936D02*
X122576000Y-111185064D01*
%TO.C,R15*%
X118766000Y-111249064D02*
X118766000Y-109794936D01*
X116946000Y-111249064D02*
X116946000Y-109794936D01*
%TO.C,R14*%
X80666000Y-99025064D02*
X80666000Y-97570936D01*
X78846000Y-99025064D02*
X78846000Y-97570936D01*
%TO.C,R13*%
X73766000Y-97570936D02*
X73766000Y-99025064D01*
X75586000Y-97570936D02*
X75586000Y-99025064D01*
%TO.C,R12*%
X90826000Y-99057064D02*
X90826000Y-97602936D01*
X89006000Y-99057064D02*
X89006000Y-97602936D01*
%TO.C,R11*%
X85238000Y-110677064D02*
X85238000Y-109222936D01*
X83418000Y-110677064D02*
X83418000Y-109222936D01*
%TO.C,R10*%
X94636000Y-99057064D02*
X94636000Y-97602936D01*
X92816000Y-99057064D02*
X92816000Y-97602936D01*
%TO.C,R9*%
X92604000Y-110677064D02*
X92604000Y-109222936D01*
X90784000Y-110677064D02*
X90784000Y-109222936D01*
%TO.C,R8*%
X98954000Y-85341064D02*
X98954000Y-83886936D01*
X97134000Y-85341064D02*
X97134000Y-83886936D01*
%TO.C,R7*%
X89048000Y-110677064D02*
X89048000Y-109222936D01*
X87228000Y-110677064D02*
X87228000Y-109222936D01*
%TO.C,D11*%
X87146000Y-93340000D02*
X87146000Y-84640000D01*
X90146000Y-93340000D02*
X87146000Y-93340000D01*
X90146000Y-84640000D02*
X90146000Y-93340000D01*
%TO.C,D10*%
X113054000Y-93340000D02*
X113054000Y-84640000D01*
X116054000Y-93340000D02*
X113054000Y-93340000D01*
X116054000Y-84640000D02*
X116054000Y-93340000D01*
%TO.C,D9*%
X75462000Y-93340000D02*
X75462000Y-84640000D01*
X78462000Y-93340000D02*
X75462000Y-93340000D01*
X78462000Y-84640000D02*
X78462000Y-93340000D01*
%TO.C,D8*%
X81558000Y-93340000D02*
X81558000Y-84640000D01*
X84558000Y-93340000D02*
X81558000Y-93340000D01*
X84558000Y-84640000D02*
X84558000Y-93340000D01*
%TO.C,D6*%
X91972000Y-93340000D02*
X91972000Y-84640000D01*
X94972000Y-93340000D02*
X91972000Y-93340000D01*
X94972000Y-84640000D02*
X94972000Y-93340000D01*
%TO.C,D5*%
X101370000Y-93340000D02*
X101370000Y-84640000D01*
X104370000Y-93340000D02*
X101370000Y-93340000D01*
X104370000Y-84640000D02*
X104370000Y-93340000D01*
%TD*%
%LPC*%
D12*
%TO.C,D12*%
X108966000Y-91440000D03*
X108966000Y-84640000D03*
%TD*%
D13*
%TO.C,J7*%
X135128000Y-74422000D03*
D14*
X135128000Y-76962000D03*
X135128000Y-79502000D03*
X135128000Y-82042000D03*
%TD*%
D15*
%TO.C,Q2*%
X106426000Y-96266000D03*
D16*
X106426000Y-98806000D03*
X106426000Y-101346000D03*
%TD*%
D15*
%TO.C,Q1*%
X99314000Y-96266000D03*
D16*
X99314000Y-98806000D03*
X99314000Y-101346000D03*
%TD*%
D17*
%TO.C,J5*%
X127762000Y-116586000D03*
D18*
X130262000Y-116586000D03*
X132762000Y-116586000D03*
%TD*%
D17*
%TO.C,J4*%
X112776000Y-116586000D03*
D18*
X115276000Y-116586000D03*
X117776000Y-116586000D03*
X120276000Y-116586000D03*
%TD*%
D17*
%TO.C,J3*%
X100330000Y-116586000D03*
D18*
X102830000Y-116586000D03*
X105330000Y-116586000D03*
%TD*%
D17*
%TO.C,J2*%
X82804000Y-116586000D03*
D18*
X85304000Y-116586000D03*
X87804000Y-116586000D03*
X90304000Y-116586000D03*
X92804000Y-116586000D03*
%TD*%
D17*
%TO.C,J1*%
X65024000Y-116586000D03*
D18*
X67524000Y-116586000D03*
X70024000Y-116586000D03*
X72524000Y-116586000D03*
X75024000Y-116586000D03*
%TD*%
D19*
%TO.C,D2*%
X65024000Y-109220000D03*
D20*
X70104000Y-109220000D03*
%TD*%
D21*
%TO.C,R20*%
X108966000Y-111500000D03*
X108966000Y-108400000D03*
%TD*%
D22*
%TO.C,R19*%
X112268000Y-111500000D03*
X112268000Y-108400000D03*
%TD*%
%TO.C,R18*%
X84836000Y-99848000D03*
X84836000Y-96748000D03*
%TD*%
%TO.C,R17*%
X80518000Y-111532000D03*
X80518000Y-108432000D03*
%TD*%
D21*
%TO.C,R16*%
X121666000Y-108908000D03*
X121666000Y-112008000D03*
%TD*%
D22*
%TO.C,R15*%
X117856000Y-112072000D03*
X117856000Y-108972000D03*
%TD*%
%TO.C,R14*%
X79756000Y-99848000D03*
X79756000Y-96748000D03*
%TD*%
D21*
%TO.C,R13*%
X74676000Y-96748000D03*
X74676000Y-99848000D03*
%TD*%
D22*
%TO.C,R12*%
X89916000Y-99880000D03*
X89916000Y-96780000D03*
%TD*%
%TO.C,R11*%
X84328000Y-111500000D03*
X84328000Y-108400000D03*
%TD*%
%TO.C,R10*%
X93726000Y-99880000D03*
X93726000Y-96780000D03*
%TD*%
%TO.C,R9*%
X91694000Y-111500000D03*
X91694000Y-108400000D03*
%TD*%
%TO.C,R8*%
X98044000Y-86164000D03*
X98044000Y-83064000D03*
%TD*%
%TO.C,R7*%
X88138000Y-111500000D03*
X88138000Y-108400000D03*
%TD*%
D12*
%TO.C,D11*%
X88646000Y-91440000D03*
X88646000Y-84640000D03*
%TD*%
%TO.C,D10*%
X114554000Y-91440000D03*
X114554000Y-84640000D03*
%TD*%
%TO.C,D9*%
X76962000Y-91440000D03*
X76962000Y-84640000D03*
%TD*%
%TO.C,D8*%
X83058000Y-91440000D03*
X83058000Y-84640000D03*
%TD*%
%TO.C,D6*%
X93472000Y-91440000D03*
X93472000Y-84640000D03*
%TD*%
%TO.C,D5*%
X102870000Y-91440000D03*
X102870000Y-84640000D03*
%TD*%
D19*
%TO.C,D4*%
X105537000Y-106573866D03*
D20*
X105537000Y-109113866D03*
%TD*%
D19*
%TO.C,D3*%
X100203000Y-106573866D03*
D20*
X100203000Y-109113866D03*
%TD*%
D13*
%TO.C,U1*%
X64770000Y-69342000D03*
D23*
X67310000Y-69342000D03*
X69850000Y-69342000D03*
X72390000Y-69342000D03*
X74930000Y-69342000D03*
X77470000Y-69342000D03*
X80010000Y-69342000D03*
X82550000Y-69342000D03*
X85090000Y-69342000D03*
X87630000Y-69342000D03*
X90170000Y-69342000D03*
X92710000Y-69342000D03*
X95250000Y-69342000D03*
X97790000Y-69342000D03*
X100330000Y-69342000D03*
X102870000Y-69342000D03*
X105410000Y-69342000D03*
X107950000Y-69342000D03*
X110490000Y-69342000D03*
X113030000Y-69342000D03*
X113030000Y-54102000D03*
X110490000Y-54102000D03*
X107950000Y-54102000D03*
X105410000Y-54102000D03*
X102870000Y-54102000D03*
X100330000Y-54102000D03*
X97790000Y-54102000D03*
X95250000Y-54102000D03*
X92710000Y-54102000D03*
X90170000Y-54102000D03*
X87630000Y-54102000D03*
X85090000Y-54102000D03*
X82550000Y-54102000D03*
X80010000Y-54102000D03*
X77470000Y-54102000D03*
X74930000Y-54102000D03*
X72390000Y-54102000D03*
X69850000Y-54102000D03*
X67310000Y-54102000D03*
X64770000Y-54102000D03*
X109220000Y-57912000D03*
X109220000Y-60452000D03*
X109220000Y-62992000D03*
X109220000Y-65532000D03*
%TD*%
D24*
%TO.C,U2*%
X72136000Y-103632000D03*
X69596000Y-103632000D03*
X67056000Y-103632000D03*
X64516000Y-103632000D03*
%TD*%
D25*
%TO.C,U3*%
X134112000Y-103886000D03*
D26*
X131572000Y-103886000D03*
X129032000Y-103886000D03*
X126492000Y-103886000D03*
X123952000Y-103886000D03*
X121412000Y-103886000D03*
%TD*%
D13*
%TO.C,J6*%
X66294000Y-77216000D03*
%TD*%
M02*
