%TF.GenerationSoftware,KiCad,Pcbnew,(6.0.4)*%
%TF.CreationDate,2022-05-02T23:04:35+02:00*%
%TF.ProjectId,BoostController,426f6f73-7443-46f6-9e74-726f6c6c6572,rev?*%
%TF.SameCoordinates,Original*%
%TF.FileFunction,AssemblyDrawing,Bot*%
%FSLAX46Y46*%
G04 Gerber Fmt 4.6, Leading zero omitted, Abs format (unit mm)*
G04 Created by KiCad (PCBNEW (6.0.4)) date 2022-05-02 23:04:35*
%MOMM*%
%LPD*%
G01*
G04 APERTURE LIST*
%ADD10C,0.150000*%
%ADD11C,0.060000*%
%ADD12C,0.120000*%
%ADD13C,0.100000*%
G04 APERTURE END LIST*
D10*
%TO.C,C6*%
X79021785Y-89954380D02*
X79593214Y-89954380D01*
X79307500Y-89954380D02*
X79307500Y-88954380D01*
X79402738Y-89097238D01*
X79497976Y-89192476D01*
X79593214Y-89240095D01*
X78402738Y-88954380D02*
X78307500Y-88954380D01*
X78212261Y-89002000D01*
X78164642Y-89049619D01*
X78117023Y-89144857D01*
X78069404Y-89335333D01*
X78069404Y-89573428D01*
X78117023Y-89763904D01*
X78164642Y-89859142D01*
X78212261Y-89906761D01*
X78307500Y-89954380D01*
X78402738Y-89954380D01*
X78497976Y-89906761D01*
X78545595Y-89859142D01*
X78593214Y-89763904D01*
X78640833Y-89573428D01*
X78640833Y-89335333D01*
X78593214Y-89144857D01*
X78545595Y-89049619D01*
X78497976Y-89002000D01*
X78402738Y-88954380D01*
X77640833Y-89287714D02*
X77640833Y-90287714D01*
X77164642Y-89811523D02*
X77117023Y-89906761D01*
X77021785Y-89954380D01*
X77640833Y-89811523D02*
X77593214Y-89906761D01*
X77497976Y-89954380D01*
X77307500Y-89954380D01*
X77212261Y-89906761D01*
X77164642Y-89811523D01*
X77164642Y-89287714D01*
D11*
X78374166Y-91074857D02*
X78393214Y-91093904D01*
X78450357Y-91112952D01*
X78488452Y-91112952D01*
X78545595Y-91093904D01*
X78583690Y-91055809D01*
X78602738Y-91017714D01*
X78621785Y-90941523D01*
X78621785Y-90884380D01*
X78602738Y-90808190D01*
X78583690Y-90770095D01*
X78545595Y-90732000D01*
X78488452Y-90712952D01*
X78450357Y-90712952D01*
X78393214Y-90732000D01*
X78374166Y-90751047D01*
X78031309Y-90712952D02*
X78107500Y-90712952D01*
X78145595Y-90732000D01*
X78164642Y-90751047D01*
X78202738Y-90808190D01*
X78221785Y-90884380D01*
X78221785Y-91036761D01*
X78202738Y-91074857D01*
X78183690Y-91093904D01*
X78145595Y-91112952D01*
X78069404Y-91112952D01*
X78031309Y-91093904D01*
X78012261Y-91074857D01*
X77993214Y-91036761D01*
X77993214Y-90941523D01*
X78012261Y-90903428D01*
X78031309Y-90884380D01*
X78069404Y-90865333D01*
X78145595Y-90865333D01*
X78183690Y-90884380D01*
X78202738Y-90903428D01*
X78221785Y-90941523D01*
D10*
%TO.C,C2*%
X95456285Y-88590380D02*
X96027714Y-88590380D01*
X95742000Y-88590380D02*
X95742000Y-87590380D01*
X95837238Y-87733238D01*
X95932476Y-87828476D01*
X96027714Y-87876095D01*
X94837238Y-87590380D02*
X94742000Y-87590380D01*
X94646761Y-87638000D01*
X94599142Y-87685619D01*
X94551523Y-87780857D01*
X94503904Y-87971333D01*
X94503904Y-88209428D01*
X94551523Y-88399904D01*
X94599142Y-88495142D01*
X94646761Y-88542761D01*
X94742000Y-88590380D01*
X94837238Y-88590380D01*
X94932476Y-88542761D01*
X94980095Y-88495142D01*
X95027714Y-88399904D01*
X95075333Y-88209428D01*
X95075333Y-87971333D01*
X95027714Y-87780857D01*
X94980095Y-87685619D01*
X94932476Y-87638000D01*
X94837238Y-87590380D01*
X94075333Y-87923714D02*
X94075333Y-88923714D01*
X93599142Y-88447523D02*
X93551523Y-88542761D01*
X93456285Y-88590380D01*
X94075333Y-88447523D02*
X94027714Y-88542761D01*
X93932476Y-88590380D01*
X93742000Y-88590380D01*
X93646761Y-88542761D01*
X93599142Y-88447523D01*
X93599142Y-87923714D01*
D11*
X94808666Y-86502857D02*
X94827714Y-86521904D01*
X94884857Y-86540952D01*
X94922952Y-86540952D01*
X94980095Y-86521904D01*
X95018190Y-86483809D01*
X95037238Y-86445714D01*
X95056285Y-86369523D01*
X95056285Y-86312380D01*
X95037238Y-86236190D01*
X95018190Y-86198095D01*
X94980095Y-86160000D01*
X94922952Y-86140952D01*
X94884857Y-86140952D01*
X94827714Y-86160000D01*
X94808666Y-86179047D01*
X94656285Y-86179047D02*
X94637238Y-86160000D01*
X94599142Y-86140952D01*
X94503904Y-86140952D01*
X94465809Y-86160000D01*
X94446761Y-86179047D01*
X94427714Y-86217142D01*
X94427714Y-86255238D01*
X94446761Y-86312380D01*
X94675333Y-86540952D01*
X94427714Y-86540952D01*
D10*
%TO.C,R7*%
X86770380Y-109116666D02*
X86770380Y-108545238D01*
X86770380Y-108830952D02*
X85770380Y-108830952D01*
X85913238Y-108735714D01*
X86008476Y-108640476D01*
X86056095Y-108545238D01*
X86675142Y-109545238D02*
X86722761Y-109592857D01*
X86770380Y-109545238D01*
X86722761Y-109497619D01*
X86675142Y-109545238D01*
X86770380Y-109545238D01*
X85865619Y-109973809D02*
X85818000Y-110021428D01*
X85770380Y-110116666D01*
X85770380Y-110354761D01*
X85818000Y-110450000D01*
X85865619Y-110497619D01*
X85960857Y-110545238D01*
X86056095Y-110545238D01*
X86198952Y-110497619D01*
X86770380Y-109926190D01*
X86770380Y-110545238D01*
X86770380Y-110973809D02*
X85770380Y-110973809D01*
X86389428Y-111069047D02*
X86770380Y-111354761D01*
X86103714Y-111354761D02*
X86484666Y-110973809D01*
D12*
X88499904Y-109816666D02*
X88118952Y-109550000D01*
X88499904Y-109359523D02*
X87699904Y-109359523D01*
X87699904Y-109664285D01*
X87738000Y-109740476D01*
X87776095Y-109778571D01*
X87852285Y-109816666D01*
X87966571Y-109816666D01*
X88042761Y-109778571D01*
X88080857Y-109740476D01*
X88118952Y-109664285D01*
X88118952Y-109359523D01*
X87699904Y-110083333D02*
X87699904Y-110616666D01*
X88499904Y-110273809D01*
D10*
%TO.C,R8*%
X100131619Y-83209238D02*
X100084000Y-83256857D01*
X100036380Y-83352095D01*
X100036380Y-83590190D01*
X100084000Y-83685428D01*
X100131619Y-83733047D01*
X100226857Y-83780666D01*
X100322095Y-83780666D01*
X100464952Y-83733047D01*
X101036380Y-83161619D01*
X101036380Y-83780666D01*
X100941142Y-84209238D02*
X100988761Y-84256857D01*
X101036380Y-84209238D01*
X100988761Y-84161619D01*
X100941142Y-84209238D01*
X101036380Y-84209238D01*
X100131619Y-84637809D02*
X100084000Y-84685428D01*
X100036380Y-84780666D01*
X100036380Y-85018761D01*
X100084000Y-85114000D01*
X100131619Y-85161619D01*
X100226857Y-85209238D01*
X100322095Y-85209238D01*
X100464952Y-85161619D01*
X101036380Y-84590190D01*
X101036380Y-85209238D01*
X101036380Y-85637809D02*
X100036380Y-85637809D01*
X100655428Y-85733047D02*
X101036380Y-86018761D01*
X100369714Y-86018761D02*
X100750666Y-85637809D01*
D12*
X98405904Y-84480666D02*
X98024952Y-84214000D01*
X98405904Y-84023523D02*
X97605904Y-84023523D01*
X97605904Y-84328285D01*
X97644000Y-84404476D01*
X97682095Y-84442571D01*
X97758285Y-84480666D01*
X97872571Y-84480666D01*
X97948761Y-84442571D01*
X97986857Y-84404476D01*
X98024952Y-84328285D01*
X98024952Y-84023523D01*
X97948761Y-84937809D02*
X97910666Y-84861619D01*
X97872571Y-84823523D01*
X97796380Y-84785428D01*
X97758285Y-84785428D01*
X97682095Y-84823523D01*
X97644000Y-84861619D01*
X97605904Y-84937809D01*
X97605904Y-85090190D01*
X97644000Y-85166380D01*
X97682095Y-85204476D01*
X97758285Y-85242571D01*
X97796380Y-85242571D01*
X97872571Y-85204476D01*
X97910666Y-85166380D01*
X97948761Y-85090190D01*
X97948761Y-84937809D01*
X97986857Y-84861619D01*
X98024952Y-84823523D01*
X98101142Y-84785428D01*
X98253523Y-84785428D01*
X98329714Y-84823523D01*
X98367809Y-84861619D01*
X98405904Y-84937809D01*
X98405904Y-85090190D01*
X98367809Y-85166380D01*
X98329714Y-85204476D01*
X98253523Y-85242571D01*
X98101142Y-85242571D01*
X98024952Y-85204476D01*
X97986857Y-85166380D01*
X97948761Y-85090190D01*
D10*
%TO.C,R9*%
X90326380Y-109116666D02*
X90326380Y-108545238D01*
X90326380Y-108830952D02*
X89326380Y-108830952D01*
X89469238Y-108735714D01*
X89564476Y-108640476D01*
X89612095Y-108545238D01*
X90231142Y-109545238D02*
X90278761Y-109592857D01*
X90326380Y-109545238D01*
X90278761Y-109497619D01*
X90231142Y-109545238D01*
X90326380Y-109545238D01*
X89421619Y-109973809D02*
X89374000Y-110021428D01*
X89326380Y-110116666D01*
X89326380Y-110354761D01*
X89374000Y-110450000D01*
X89421619Y-110497619D01*
X89516857Y-110545238D01*
X89612095Y-110545238D01*
X89754952Y-110497619D01*
X90326380Y-109926190D01*
X90326380Y-110545238D01*
X90326380Y-110973809D02*
X89326380Y-110973809D01*
X89945428Y-111069047D02*
X90326380Y-111354761D01*
X89659714Y-111354761D02*
X90040666Y-110973809D01*
D12*
X92055904Y-109816666D02*
X91674952Y-109550000D01*
X92055904Y-109359523D02*
X91255904Y-109359523D01*
X91255904Y-109664285D01*
X91294000Y-109740476D01*
X91332095Y-109778571D01*
X91408285Y-109816666D01*
X91522571Y-109816666D01*
X91598761Y-109778571D01*
X91636857Y-109740476D01*
X91674952Y-109664285D01*
X91674952Y-109359523D01*
X92055904Y-110197619D02*
X92055904Y-110350000D01*
X92017809Y-110426190D01*
X91979714Y-110464285D01*
X91865428Y-110540476D01*
X91713047Y-110578571D01*
X91408285Y-110578571D01*
X91332095Y-110540476D01*
X91294000Y-110502380D01*
X91255904Y-110426190D01*
X91255904Y-110273809D01*
X91294000Y-110197619D01*
X91332095Y-110159523D01*
X91408285Y-110121428D01*
X91598761Y-110121428D01*
X91674952Y-110159523D01*
X91713047Y-110197619D01*
X91751142Y-110273809D01*
X91751142Y-110426190D01*
X91713047Y-110502380D01*
X91674952Y-110540476D01*
X91598761Y-110578571D01*
D10*
%TO.C,R10*%
X91453619Y-96925238D02*
X91406000Y-96972857D01*
X91358380Y-97068095D01*
X91358380Y-97306190D01*
X91406000Y-97401428D01*
X91453619Y-97449047D01*
X91548857Y-97496666D01*
X91644095Y-97496666D01*
X91786952Y-97449047D01*
X92358380Y-96877619D01*
X92358380Y-97496666D01*
X92263142Y-97925238D02*
X92310761Y-97972857D01*
X92358380Y-97925238D01*
X92310761Y-97877619D01*
X92263142Y-97925238D01*
X92358380Y-97925238D01*
X91453619Y-98353809D02*
X91406000Y-98401428D01*
X91358380Y-98496666D01*
X91358380Y-98734761D01*
X91406000Y-98830000D01*
X91453619Y-98877619D01*
X91548857Y-98925238D01*
X91644095Y-98925238D01*
X91786952Y-98877619D01*
X92358380Y-98306190D01*
X92358380Y-98925238D01*
X92358380Y-99353809D02*
X91358380Y-99353809D01*
X91977428Y-99449047D02*
X92358380Y-99734761D01*
X91691714Y-99734761D02*
X92072666Y-99353809D01*
D12*
X94087904Y-97815714D02*
X93706952Y-97549047D01*
X94087904Y-97358571D02*
X93287904Y-97358571D01*
X93287904Y-97663333D01*
X93326000Y-97739523D01*
X93364095Y-97777619D01*
X93440285Y-97815714D01*
X93554571Y-97815714D01*
X93630761Y-97777619D01*
X93668857Y-97739523D01*
X93706952Y-97663333D01*
X93706952Y-97358571D01*
X94087904Y-98577619D02*
X94087904Y-98120476D01*
X94087904Y-98349047D02*
X93287904Y-98349047D01*
X93402190Y-98272857D01*
X93478380Y-98196666D01*
X93516476Y-98120476D01*
X93287904Y-99072857D02*
X93287904Y-99149047D01*
X93326000Y-99225238D01*
X93364095Y-99263333D01*
X93440285Y-99301428D01*
X93592666Y-99339523D01*
X93783142Y-99339523D01*
X93935523Y-99301428D01*
X94011714Y-99263333D01*
X94049809Y-99225238D01*
X94087904Y-99149047D01*
X94087904Y-99072857D01*
X94049809Y-98996666D01*
X94011714Y-98958571D01*
X93935523Y-98920476D01*
X93783142Y-98882380D01*
X93592666Y-98882380D01*
X93440285Y-98920476D01*
X93364095Y-98958571D01*
X93326000Y-98996666D01*
X93287904Y-99072857D01*
D10*
%TO.C,R12*%
X87643619Y-96925238D02*
X87596000Y-96972857D01*
X87548380Y-97068095D01*
X87548380Y-97306190D01*
X87596000Y-97401428D01*
X87643619Y-97449047D01*
X87738857Y-97496666D01*
X87834095Y-97496666D01*
X87976952Y-97449047D01*
X88548380Y-96877619D01*
X88548380Y-97496666D01*
X88453142Y-97925238D02*
X88500761Y-97972857D01*
X88548380Y-97925238D01*
X88500761Y-97877619D01*
X88453142Y-97925238D01*
X88548380Y-97925238D01*
X87643619Y-98353809D02*
X87596000Y-98401428D01*
X87548380Y-98496666D01*
X87548380Y-98734761D01*
X87596000Y-98830000D01*
X87643619Y-98877619D01*
X87738857Y-98925238D01*
X87834095Y-98925238D01*
X87976952Y-98877619D01*
X88548380Y-98306190D01*
X88548380Y-98925238D01*
X88548380Y-99353809D02*
X87548380Y-99353809D01*
X88167428Y-99449047D02*
X88548380Y-99734761D01*
X87881714Y-99734761D02*
X88262666Y-99353809D01*
D12*
X90277904Y-97815714D02*
X89896952Y-97549047D01*
X90277904Y-97358571D02*
X89477904Y-97358571D01*
X89477904Y-97663333D01*
X89516000Y-97739523D01*
X89554095Y-97777619D01*
X89630285Y-97815714D01*
X89744571Y-97815714D01*
X89820761Y-97777619D01*
X89858857Y-97739523D01*
X89896952Y-97663333D01*
X89896952Y-97358571D01*
X90277904Y-98577619D02*
X90277904Y-98120476D01*
X90277904Y-98349047D02*
X89477904Y-98349047D01*
X89592190Y-98272857D01*
X89668380Y-98196666D01*
X89706476Y-98120476D01*
X89554095Y-98882380D02*
X89516000Y-98920476D01*
X89477904Y-98996666D01*
X89477904Y-99187142D01*
X89516000Y-99263333D01*
X89554095Y-99301428D01*
X89630285Y-99339523D01*
X89706476Y-99339523D01*
X89820761Y-99301428D01*
X90277904Y-98844285D01*
X90277904Y-99339523D01*
D10*
%TO.C,R13*%
X76948380Y-97464666D02*
X76948380Y-96893238D01*
X76948380Y-97178952D02*
X75948380Y-97178952D01*
X76091238Y-97083714D01*
X76186476Y-96988476D01*
X76234095Y-96893238D01*
X76853142Y-97893238D02*
X76900761Y-97940857D01*
X76948380Y-97893238D01*
X76900761Y-97845619D01*
X76853142Y-97893238D01*
X76948380Y-97893238D01*
X76043619Y-98321809D02*
X75996000Y-98369428D01*
X75948380Y-98464666D01*
X75948380Y-98702761D01*
X75996000Y-98798000D01*
X76043619Y-98845619D01*
X76138857Y-98893238D01*
X76234095Y-98893238D01*
X76376952Y-98845619D01*
X76948380Y-98274190D01*
X76948380Y-98893238D01*
X76948380Y-99321809D02*
X75948380Y-99321809D01*
X76567428Y-99417047D02*
X76948380Y-99702761D01*
X76281714Y-99702761D02*
X76662666Y-99321809D01*
D12*
X75037904Y-97783714D02*
X74656952Y-97517047D01*
X75037904Y-97326571D02*
X74237904Y-97326571D01*
X74237904Y-97631333D01*
X74276000Y-97707523D01*
X74314095Y-97745619D01*
X74390285Y-97783714D01*
X74504571Y-97783714D01*
X74580761Y-97745619D01*
X74618857Y-97707523D01*
X74656952Y-97631333D01*
X74656952Y-97326571D01*
X75037904Y-98545619D02*
X75037904Y-98088476D01*
X75037904Y-98317047D02*
X74237904Y-98317047D01*
X74352190Y-98240857D01*
X74428380Y-98164666D01*
X74466476Y-98088476D01*
X74237904Y-98812285D02*
X74237904Y-99307523D01*
X74542666Y-99040857D01*
X74542666Y-99155142D01*
X74580761Y-99231333D01*
X74618857Y-99269428D01*
X74695047Y-99307523D01*
X74885523Y-99307523D01*
X74961714Y-99269428D01*
X74999809Y-99231333D01*
X75037904Y-99155142D01*
X75037904Y-98926571D01*
X74999809Y-98850380D01*
X74961714Y-98812285D01*
D10*
%TO.C,R14*%
X77483619Y-96893238D02*
X77436000Y-96940857D01*
X77388380Y-97036095D01*
X77388380Y-97274190D01*
X77436000Y-97369428D01*
X77483619Y-97417047D01*
X77578857Y-97464666D01*
X77674095Y-97464666D01*
X77816952Y-97417047D01*
X78388380Y-96845619D01*
X78388380Y-97464666D01*
X78293142Y-97893238D02*
X78340761Y-97940857D01*
X78388380Y-97893238D01*
X78340761Y-97845619D01*
X78293142Y-97893238D01*
X78388380Y-97893238D01*
X77483619Y-98321809D02*
X77436000Y-98369428D01*
X77388380Y-98464666D01*
X77388380Y-98702761D01*
X77436000Y-98798000D01*
X77483619Y-98845619D01*
X77578857Y-98893238D01*
X77674095Y-98893238D01*
X77816952Y-98845619D01*
X78388380Y-98274190D01*
X78388380Y-98893238D01*
X78388380Y-99321809D02*
X77388380Y-99321809D01*
X78007428Y-99417047D02*
X78388380Y-99702761D01*
X77721714Y-99702761D02*
X78102666Y-99321809D01*
D12*
X80117904Y-97783714D02*
X79736952Y-97517047D01*
X80117904Y-97326571D02*
X79317904Y-97326571D01*
X79317904Y-97631333D01*
X79356000Y-97707523D01*
X79394095Y-97745619D01*
X79470285Y-97783714D01*
X79584571Y-97783714D01*
X79660761Y-97745619D01*
X79698857Y-97707523D01*
X79736952Y-97631333D01*
X79736952Y-97326571D01*
X80117904Y-98545619D02*
X80117904Y-98088476D01*
X80117904Y-98317047D02*
X79317904Y-98317047D01*
X79432190Y-98240857D01*
X79508380Y-98164666D01*
X79546476Y-98088476D01*
X79584571Y-99231333D02*
X80117904Y-99231333D01*
X79279809Y-99040857D02*
X79851238Y-98850380D01*
X79851238Y-99345619D01*
D10*
%TO.C,R15*%
X116488380Y-109688666D02*
X116488380Y-109117238D01*
X116488380Y-109402952D02*
X115488380Y-109402952D01*
X115631238Y-109307714D01*
X115726476Y-109212476D01*
X115774095Y-109117238D01*
X116393142Y-110117238D02*
X116440761Y-110164857D01*
X116488380Y-110117238D01*
X116440761Y-110069619D01*
X116393142Y-110117238D01*
X116488380Y-110117238D01*
X115583619Y-110545809D02*
X115536000Y-110593428D01*
X115488380Y-110688666D01*
X115488380Y-110926761D01*
X115536000Y-111022000D01*
X115583619Y-111069619D01*
X115678857Y-111117238D01*
X115774095Y-111117238D01*
X115916952Y-111069619D01*
X116488380Y-110498190D01*
X116488380Y-111117238D01*
X116488380Y-111545809D02*
X115488380Y-111545809D01*
X116107428Y-111641047D02*
X116488380Y-111926761D01*
X115821714Y-111926761D02*
X116202666Y-111545809D01*
D12*
X118217904Y-110007714D02*
X117836952Y-109741047D01*
X118217904Y-109550571D02*
X117417904Y-109550571D01*
X117417904Y-109855333D01*
X117456000Y-109931523D01*
X117494095Y-109969619D01*
X117570285Y-110007714D01*
X117684571Y-110007714D01*
X117760761Y-109969619D01*
X117798857Y-109931523D01*
X117836952Y-109855333D01*
X117836952Y-109550571D01*
X118217904Y-110769619D02*
X118217904Y-110312476D01*
X118217904Y-110541047D02*
X117417904Y-110541047D01*
X117532190Y-110464857D01*
X117608380Y-110388666D01*
X117646476Y-110312476D01*
X117417904Y-111493428D02*
X117417904Y-111112476D01*
X117798857Y-111074380D01*
X117760761Y-111112476D01*
X117722666Y-111188666D01*
X117722666Y-111379142D01*
X117760761Y-111455333D01*
X117798857Y-111493428D01*
X117875047Y-111531523D01*
X118065523Y-111531523D01*
X118141714Y-111493428D01*
X118179809Y-111455333D01*
X118217904Y-111379142D01*
X118217904Y-111188666D01*
X118179809Y-111112476D01*
X118141714Y-111074380D01*
D10*
%TO.C,R16*%
X123033619Y-109053238D02*
X122986000Y-109100857D01*
X122938380Y-109196095D01*
X122938380Y-109434190D01*
X122986000Y-109529428D01*
X123033619Y-109577047D01*
X123128857Y-109624666D01*
X123224095Y-109624666D01*
X123366952Y-109577047D01*
X123938380Y-109005619D01*
X123938380Y-109624666D01*
X123843142Y-110053238D02*
X123890761Y-110100857D01*
X123938380Y-110053238D01*
X123890761Y-110005619D01*
X123843142Y-110053238D01*
X123938380Y-110053238D01*
X123033619Y-110481809D02*
X122986000Y-110529428D01*
X122938380Y-110624666D01*
X122938380Y-110862761D01*
X122986000Y-110958000D01*
X123033619Y-111005619D01*
X123128857Y-111053238D01*
X123224095Y-111053238D01*
X123366952Y-111005619D01*
X123938380Y-110434190D01*
X123938380Y-111053238D01*
X123938380Y-111481809D02*
X122938380Y-111481809D01*
X123557428Y-111577047D02*
X123938380Y-111862761D01*
X123271714Y-111862761D02*
X123652666Y-111481809D01*
D12*
X122027904Y-109943714D02*
X121646952Y-109677047D01*
X122027904Y-109486571D02*
X121227904Y-109486571D01*
X121227904Y-109791333D01*
X121266000Y-109867523D01*
X121304095Y-109905619D01*
X121380285Y-109943714D01*
X121494571Y-109943714D01*
X121570761Y-109905619D01*
X121608857Y-109867523D01*
X121646952Y-109791333D01*
X121646952Y-109486571D01*
X122027904Y-110705619D02*
X122027904Y-110248476D01*
X122027904Y-110477047D02*
X121227904Y-110477047D01*
X121342190Y-110400857D01*
X121418380Y-110324666D01*
X121456476Y-110248476D01*
X121227904Y-111391333D02*
X121227904Y-111238952D01*
X121266000Y-111162761D01*
X121304095Y-111124666D01*
X121418380Y-111048476D01*
X121570761Y-111010380D01*
X121875523Y-111010380D01*
X121951714Y-111048476D01*
X121989809Y-111086571D01*
X122027904Y-111162761D01*
X122027904Y-111315142D01*
X121989809Y-111391333D01*
X121951714Y-111429428D01*
X121875523Y-111467523D01*
X121685047Y-111467523D01*
X121608857Y-111429428D01*
X121570761Y-111391333D01*
X121532666Y-111315142D01*
X121532666Y-111162761D01*
X121570761Y-111086571D01*
X121608857Y-111048476D01*
X121685047Y-111010380D01*
D10*
%TO.C,R17*%
X79150380Y-109148666D02*
X79150380Y-108577238D01*
X79150380Y-108862952D02*
X78150380Y-108862952D01*
X78293238Y-108767714D01*
X78388476Y-108672476D01*
X78436095Y-108577238D01*
X79055142Y-109577238D02*
X79102761Y-109624857D01*
X79150380Y-109577238D01*
X79102761Y-109529619D01*
X79055142Y-109577238D01*
X79150380Y-109577238D01*
X78245619Y-110005809D02*
X78198000Y-110053428D01*
X78150380Y-110148666D01*
X78150380Y-110386761D01*
X78198000Y-110482000D01*
X78245619Y-110529619D01*
X78340857Y-110577238D01*
X78436095Y-110577238D01*
X78578952Y-110529619D01*
X79150380Y-109958190D01*
X79150380Y-110577238D01*
X79150380Y-111005809D02*
X78150380Y-111005809D01*
X78769428Y-111101047D02*
X79150380Y-111386761D01*
X78483714Y-111386761D02*
X78864666Y-111005809D01*
D12*
X80879904Y-109467714D02*
X80498952Y-109201047D01*
X80879904Y-109010571D02*
X80079904Y-109010571D01*
X80079904Y-109315333D01*
X80118000Y-109391523D01*
X80156095Y-109429619D01*
X80232285Y-109467714D01*
X80346571Y-109467714D01*
X80422761Y-109429619D01*
X80460857Y-109391523D01*
X80498952Y-109315333D01*
X80498952Y-109010571D01*
X80879904Y-110229619D02*
X80879904Y-109772476D01*
X80879904Y-110001047D02*
X80079904Y-110001047D01*
X80194190Y-109924857D01*
X80270380Y-109848666D01*
X80308476Y-109772476D01*
X80079904Y-110496285D02*
X80079904Y-111029619D01*
X80879904Y-110686761D01*
D10*
%TO.C,R18*%
X82563619Y-96893238D02*
X82516000Y-96940857D01*
X82468380Y-97036095D01*
X82468380Y-97274190D01*
X82516000Y-97369428D01*
X82563619Y-97417047D01*
X82658857Y-97464666D01*
X82754095Y-97464666D01*
X82896952Y-97417047D01*
X83468380Y-96845619D01*
X83468380Y-97464666D01*
X83373142Y-97893238D02*
X83420761Y-97940857D01*
X83468380Y-97893238D01*
X83420761Y-97845619D01*
X83373142Y-97893238D01*
X83468380Y-97893238D01*
X82563619Y-98321809D02*
X82516000Y-98369428D01*
X82468380Y-98464666D01*
X82468380Y-98702761D01*
X82516000Y-98798000D01*
X82563619Y-98845619D01*
X82658857Y-98893238D01*
X82754095Y-98893238D01*
X82896952Y-98845619D01*
X83468380Y-98274190D01*
X83468380Y-98893238D01*
X83468380Y-99321809D02*
X82468380Y-99321809D01*
X83087428Y-99417047D02*
X83468380Y-99702761D01*
X82801714Y-99702761D02*
X83182666Y-99321809D01*
D12*
X85197904Y-97783714D02*
X84816952Y-97517047D01*
X85197904Y-97326571D02*
X84397904Y-97326571D01*
X84397904Y-97631333D01*
X84436000Y-97707523D01*
X84474095Y-97745619D01*
X84550285Y-97783714D01*
X84664571Y-97783714D01*
X84740761Y-97745619D01*
X84778857Y-97707523D01*
X84816952Y-97631333D01*
X84816952Y-97326571D01*
X85197904Y-98545619D02*
X85197904Y-98088476D01*
X85197904Y-98317047D02*
X84397904Y-98317047D01*
X84512190Y-98240857D01*
X84588380Y-98164666D01*
X84626476Y-98088476D01*
X84740761Y-99002761D02*
X84702666Y-98926571D01*
X84664571Y-98888476D01*
X84588380Y-98850380D01*
X84550285Y-98850380D01*
X84474095Y-98888476D01*
X84436000Y-98926571D01*
X84397904Y-99002761D01*
X84397904Y-99155142D01*
X84436000Y-99231333D01*
X84474095Y-99269428D01*
X84550285Y-99307523D01*
X84588380Y-99307523D01*
X84664571Y-99269428D01*
X84702666Y-99231333D01*
X84740761Y-99155142D01*
X84740761Y-99002761D01*
X84778857Y-98926571D01*
X84816952Y-98888476D01*
X84893142Y-98850380D01*
X85045523Y-98850380D01*
X85121714Y-98888476D01*
X85159809Y-98926571D01*
X85197904Y-99002761D01*
X85197904Y-99155142D01*
X85159809Y-99231333D01*
X85121714Y-99269428D01*
X85045523Y-99307523D01*
X84893142Y-99307523D01*
X84816952Y-99269428D01*
X84778857Y-99231333D01*
X84740761Y-99155142D01*
D10*
%TO.C,R19*%
X114752380Y-109148666D02*
X114752380Y-108577238D01*
X114752380Y-108862952D02*
X113752380Y-108862952D01*
X113895238Y-108767714D01*
X113990476Y-108672476D01*
X114038095Y-108577238D01*
X114657142Y-109577238D02*
X114704761Y-109624857D01*
X114752380Y-109577238D01*
X114704761Y-109529619D01*
X114657142Y-109577238D01*
X114752380Y-109577238D01*
X113847619Y-110005809D02*
X113800000Y-110053428D01*
X113752380Y-110148666D01*
X113752380Y-110386761D01*
X113800000Y-110482000D01*
X113847619Y-110529619D01*
X113942857Y-110577238D01*
X114038095Y-110577238D01*
X114180952Y-110529619D01*
X114752380Y-109958190D01*
X114752380Y-110577238D01*
X114752380Y-111005809D02*
X113752380Y-111005809D01*
X114371428Y-111101047D02*
X114752380Y-111386761D01*
X114085714Y-111386761D02*
X114466666Y-111005809D01*
D12*
X112629904Y-109435714D02*
X112248952Y-109169047D01*
X112629904Y-108978571D02*
X111829904Y-108978571D01*
X111829904Y-109283333D01*
X111868000Y-109359523D01*
X111906095Y-109397619D01*
X111982285Y-109435714D01*
X112096571Y-109435714D01*
X112172761Y-109397619D01*
X112210857Y-109359523D01*
X112248952Y-109283333D01*
X112248952Y-108978571D01*
X112629904Y-110197619D02*
X112629904Y-109740476D01*
X112629904Y-109969047D02*
X111829904Y-109969047D01*
X111944190Y-109892857D01*
X112020380Y-109816666D01*
X112058476Y-109740476D01*
X112629904Y-110578571D02*
X112629904Y-110730952D01*
X112591809Y-110807142D01*
X112553714Y-110845238D01*
X112439428Y-110921428D01*
X112287047Y-110959523D01*
X111982285Y-110959523D01*
X111906095Y-110921428D01*
X111868000Y-110883333D01*
X111829904Y-110807142D01*
X111829904Y-110654761D01*
X111868000Y-110578571D01*
X111906095Y-110540476D01*
X111982285Y-110502380D01*
X112172761Y-110502380D01*
X112248952Y-110540476D01*
X112287047Y-110578571D01*
X112325142Y-110654761D01*
X112325142Y-110807142D01*
X112287047Y-110883333D01*
X112248952Y-110921428D01*
X112172761Y-110959523D01*
D10*
%TO.C,R20*%
X106481619Y-110609238D02*
X106434000Y-110656857D01*
X106386380Y-110752095D01*
X106386380Y-110990190D01*
X106434000Y-111085428D01*
X106481619Y-111133047D01*
X106576857Y-111180666D01*
X106672095Y-111180666D01*
X106814952Y-111133047D01*
X107386380Y-110561619D01*
X107386380Y-111180666D01*
X107291142Y-111609238D02*
X107338761Y-111656857D01*
X107386380Y-111609238D01*
X107338761Y-111561619D01*
X107291142Y-111609238D01*
X107386380Y-111609238D01*
X106481619Y-112037809D02*
X106434000Y-112085428D01*
X106386380Y-112180666D01*
X106386380Y-112418761D01*
X106434000Y-112514000D01*
X106481619Y-112561619D01*
X106576857Y-112609238D01*
X106672095Y-112609238D01*
X106814952Y-112561619D01*
X107386380Y-111990190D01*
X107386380Y-112609238D01*
X107386380Y-113037809D02*
X106386380Y-113037809D01*
X107005428Y-113133047D02*
X107386380Y-113418761D01*
X106719714Y-113418761D02*
X107100666Y-113037809D01*
D12*
X109327904Y-109435714D02*
X108946952Y-109169047D01*
X109327904Y-108978571D02*
X108527904Y-108978571D01*
X108527904Y-109283333D01*
X108566000Y-109359523D01*
X108604095Y-109397619D01*
X108680285Y-109435714D01*
X108794571Y-109435714D01*
X108870761Y-109397619D01*
X108908857Y-109359523D01*
X108946952Y-109283333D01*
X108946952Y-108978571D01*
X108604095Y-109740476D02*
X108566000Y-109778571D01*
X108527904Y-109854761D01*
X108527904Y-110045238D01*
X108566000Y-110121428D01*
X108604095Y-110159523D01*
X108680285Y-110197619D01*
X108756476Y-110197619D01*
X108870761Y-110159523D01*
X109327904Y-109702380D01*
X109327904Y-110197619D01*
X108527904Y-110692857D02*
X108527904Y-110769047D01*
X108566000Y-110845238D01*
X108604095Y-110883333D01*
X108680285Y-110921428D01*
X108832666Y-110959523D01*
X109023142Y-110959523D01*
X109175523Y-110921428D01*
X109251714Y-110883333D01*
X109289809Y-110845238D01*
X109327904Y-110769047D01*
X109327904Y-110692857D01*
X109289809Y-110616666D01*
X109251714Y-110578571D01*
X109175523Y-110540476D01*
X109023142Y-110502380D01*
X108832666Y-110502380D01*
X108680285Y-110540476D01*
X108604095Y-110578571D01*
X108566000Y-110616666D01*
X108527904Y-110692857D01*
D10*
%TO.C,R11*%
X82960380Y-109116666D02*
X82960380Y-108545238D01*
X82960380Y-108830952D02*
X81960380Y-108830952D01*
X82103238Y-108735714D01*
X82198476Y-108640476D01*
X82246095Y-108545238D01*
X82865142Y-109545238D02*
X82912761Y-109592857D01*
X82960380Y-109545238D01*
X82912761Y-109497619D01*
X82865142Y-109545238D01*
X82960380Y-109545238D01*
X82055619Y-109973809D02*
X82008000Y-110021428D01*
X81960380Y-110116666D01*
X81960380Y-110354761D01*
X82008000Y-110450000D01*
X82055619Y-110497619D01*
X82150857Y-110545238D01*
X82246095Y-110545238D01*
X82388952Y-110497619D01*
X82960380Y-109926190D01*
X82960380Y-110545238D01*
X82960380Y-110973809D02*
X81960380Y-110973809D01*
X82579428Y-111069047D02*
X82960380Y-111354761D01*
X82293714Y-111354761D02*
X82674666Y-110973809D01*
D12*
X84689904Y-109435714D02*
X84308952Y-109169047D01*
X84689904Y-108978571D02*
X83889904Y-108978571D01*
X83889904Y-109283333D01*
X83928000Y-109359523D01*
X83966095Y-109397619D01*
X84042285Y-109435714D01*
X84156571Y-109435714D01*
X84232761Y-109397619D01*
X84270857Y-109359523D01*
X84308952Y-109283333D01*
X84308952Y-108978571D01*
X84689904Y-110197619D02*
X84689904Y-109740476D01*
X84689904Y-109969047D02*
X83889904Y-109969047D01*
X84004190Y-109892857D01*
X84080380Y-109816666D01*
X84118476Y-109740476D01*
X84689904Y-110959523D02*
X84689904Y-110502380D01*
X84689904Y-110730952D02*
X83889904Y-110730952D01*
X84004190Y-110654761D01*
X84080380Y-110578571D01*
X84118476Y-110502380D01*
D13*
%TO.C,C6*%
X79107500Y-91332000D02*
X79107500Y-90532000D01*
X77507500Y-90532000D02*
X77507500Y-91332000D01*
X79107500Y-90532000D02*
X77507500Y-90532000D01*
X77507500Y-91332000D02*
X79107500Y-91332000D01*
%TO.C,C2*%
X95542000Y-86760000D02*
X95542000Y-85960000D01*
X93942000Y-85960000D02*
X93942000Y-86760000D01*
X95542000Y-85960000D02*
X93942000Y-85960000D01*
X93942000Y-86760000D02*
X95542000Y-86760000D01*
%TO.C,R7*%
X87338000Y-111550000D02*
X88938000Y-111550000D01*
X88938000Y-108350000D02*
X87338000Y-108350000D01*
X87338000Y-108350000D02*
X87338000Y-111550000D01*
X88938000Y-111550000D02*
X88938000Y-108350000D01*
%TO.C,R8*%
X98844000Y-83014000D02*
X97244000Y-83014000D01*
X98844000Y-86214000D02*
X98844000Y-83014000D01*
X97244000Y-83014000D02*
X97244000Y-86214000D01*
X97244000Y-86214000D02*
X98844000Y-86214000D01*
%TO.C,R9*%
X90894000Y-108350000D02*
X90894000Y-111550000D01*
X90894000Y-111550000D02*
X92494000Y-111550000D01*
X92494000Y-108350000D02*
X90894000Y-108350000D01*
X92494000Y-111550000D02*
X92494000Y-108350000D01*
%TO.C,R10*%
X92926000Y-99930000D02*
X94526000Y-99930000D01*
X94526000Y-99930000D02*
X94526000Y-96730000D01*
X94526000Y-96730000D02*
X92926000Y-96730000D01*
X92926000Y-96730000D02*
X92926000Y-99930000D01*
%TO.C,R12*%
X89116000Y-96730000D02*
X89116000Y-99930000D01*
X90716000Y-99930000D02*
X90716000Y-96730000D01*
X90716000Y-96730000D02*
X89116000Y-96730000D01*
X89116000Y-99930000D02*
X90716000Y-99930000D01*
%TO.C,R13*%
X75476000Y-99898000D02*
X75476000Y-96698000D01*
X75476000Y-96698000D02*
X73876000Y-96698000D01*
X73876000Y-99898000D02*
X75476000Y-99898000D01*
X73876000Y-96698000D02*
X73876000Y-99898000D01*
%TO.C,R14*%
X78956000Y-99898000D02*
X80556000Y-99898000D01*
X78956000Y-96698000D02*
X78956000Y-99898000D01*
X80556000Y-96698000D02*
X78956000Y-96698000D01*
X80556000Y-99898000D02*
X80556000Y-96698000D01*
%TO.C,R15*%
X117056000Y-112122000D02*
X118656000Y-112122000D01*
X117056000Y-108922000D02*
X117056000Y-112122000D01*
X118656000Y-112122000D02*
X118656000Y-108922000D01*
X118656000Y-108922000D02*
X117056000Y-108922000D01*
%TO.C,R16*%
X122466000Y-112058000D02*
X122466000Y-108858000D01*
X120866000Y-112058000D02*
X122466000Y-112058000D01*
X120866000Y-108858000D02*
X120866000Y-112058000D01*
X122466000Y-108858000D02*
X120866000Y-108858000D01*
%TO.C,R17*%
X79718000Y-108382000D02*
X79718000Y-111582000D01*
X81318000Y-111582000D02*
X81318000Y-108382000D01*
X79718000Y-111582000D02*
X81318000Y-111582000D01*
X81318000Y-108382000D02*
X79718000Y-108382000D01*
%TO.C,R18*%
X85636000Y-96698000D02*
X84036000Y-96698000D01*
X84036000Y-99898000D02*
X85636000Y-99898000D01*
X85636000Y-99898000D02*
X85636000Y-96698000D01*
X84036000Y-96698000D02*
X84036000Y-99898000D01*
%TO.C,R19*%
X111468000Y-108350000D02*
X111468000Y-111550000D01*
X113068000Y-111550000D02*
X113068000Y-108350000D01*
X111468000Y-111550000D02*
X113068000Y-111550000D01*
X113068000Y-108350000D02*
X111468000Y-108350000D01*
%TO.C,R20*%
X109766000Y-108350000D02*
X108166000Y-108350000D01*
X108166000Y-111550000D02*
X109766000Y-111550000D01*
X109766000Y-111550000D02*
X109766000Y-108350000D01*
X108166000Y-108350000D02*
X108166000Y-111550000D01*
%TO.C,R11*%
X83528000Y-108350000D02*
X83528000Y-111550000D01*
X83528000Y-111550000D02*
X85128000Y-111550000D01*
X85128000Y-108350000D02*
X83528000Y-108350000D01*
X85128000Y-111550000D02*
X85128000Y-108350000D01*
%TD*%
M02*
