%TF.GenerationSoftware,KiCad,Pcbnew,(6.0.4)*%
%TF.CreationDate,2022-04-25T23:59:21+02:00*%
%TF.ProjectId,BoostController,426f6f73-7443-46f6-9e74-726f6c6c6572,rev?*%
%TF.SameCoordinates,Original*%
%TF.FileFunction,Soldermask,Top*%
%TF.FilePolarity,Negative*%
%FSLAX46Y46*%
G04 Gerber Fmt 4.6, Leading zero omitted, Abs format (unit mm)*
G04 Created by KiCad (PCBNEW (6.0.4)) date 2022-04-25 23:59:21*
%MOMM*%
%LPD*%
G01*
G04 APERTURE LIST*
G04 Aperture macros list*
%AMRoundRect*
0 Rectangle with rounded corners*
0 $1 Rounding radius*
0 $2 $3 $4 $5 $6 $7 $8 $9 X,Y pos of 4 corners*
0 Add a 4 corners polygon primitive as box body*
4,1,4,$2,$3,$4,$5,$6,$7,$8,$9,$2,$3,0*
0 Add four circle primitives for the rounded corners*
1,1,$1+$1,$2,$3*
1,1,$1+$1,$4,$5*
1,1,$1+$1,$6,$7*
1,1,$1+$1,$8,$9*
0 Add four rect primitives between the rounded corners*
20,1,$1+$1,$2,$3,$4,$5,0*
20,1,$1+$1,$4,$5,$6,$7,0*
20,1,$1+$1,$6,$7,$8,$9,0*
20,1,$1+$1,$8,$9,$2,$3,0*%
G04 Aperture macros list end*
%ADD10R,1.700000X1.700000*%
%ADD11O,1.700000X1.700000*%
%ADD12R,2.000000X1.905000*%
%ADD13O,2.000000X1.905000*%
%ADD14RoundRect,0.250000X-0.600000X-0.725000X0.600000X-0.725000X0.600000X0.725000X-0.600000X0.725000X0*%
%ADD15O,1.700000X1.950000*%
%ADD16R,2.200000X2.200000*%
%ADD17O,2.200000X2.200000*%
%ADD18RoundRect,0.250000X0.625000X-0.400000X0.625000X0.400000X-0.625000X0.400000X-0.625000X-0.400000X0*%
%ADD19RoundRect,0.250000X-0.625000X0.400000X-0.625000X-0.400000X0.625000X-0.400000X0.625000X0.400000X0*%
%ADD20R,2.700000X3.500000*%
%ADD21C,1.700000*%
%ADD22C,1.524000*%
%ADD23RoundRect,0.150000X-0.587500X-0.150000X0.587500X-0.150000X0.587500X0.150000X-0.587500X0.150000X0*%
%ADD24RoundRect,0.381000X0.381000X0.619000X-0.381000X0.619000X-0.381000X-0.619000X0.381000X-0.619000X0*%
%ADD25O,1.524000X2.000000*%
%ADD26C,3.000000*%
%ADD27C,2.999999*%
G04 APERTURE END LIST*
D10*
%TO.C,J7*%
X135128000Y-74422000D03*
D11*
X135128000Y-76962000D03*
X135128000Y-79502000D03*
X135128000Y-82042000D03*
%TD*%
D12*
%TO.C,Q2*%
X106426000Y-96266000D03*
D13*
X106426000Y-98806000D03*
X106426000Y-101346000D03*
%TD*%
D12*
%TO.C,Q1*%
X99314000Y-96266000D03*
D13*
X99314000Y-98806000D03*
X99314000Y-101346000D03*
%TD*%
D14*
%TO.C,J5*%
X127762000Y-116586000D03*
D15*
X130262000Y-116586000D03*
X132762000Y-116586000D03*
%TD*%
D14*
%TO.C,J4*%
X112776000Y-116586000D03*
D15*
X115276000Y-116586000D03*
X117776000Y-116586000D03*
X120276000Y-116586000D03*
%TD*%
D14*
%TO.C,J3*%
X100330000Y-116586000D03*
D15*
X102830000Y-116586000D03*
X105330000Y-116586000D03*
%TD*%
D14*
%TO.C,J2*%
X82804000Y-116586000D03*
D15*
X85304000Y-116586000D03*
X87804000Y-116586000D03*
X90304000Y-116586000D03*
X92804000Y-116586000D03*
%TD*%
D14*
%TO.C,J1*%
X65024000Y-116586000D03*
D15*
X67524000Y-116586000D03*
X70024000Y-116586000D03*
X72524000Y-116586000D03*
X75024000Y-116586000D03*
%TD*%
D16*
%TO.C,D2*%
X65024000Y-109220000D03*
D17*
X70104000Y-109220000D03*
%TD*%
D18*
%TO.C,R6*%
X110998000Y-84640000D03*
X110998000Y-81540000D03*
%TD*%
%TO.C,R5*%
X105918000Y-84640000D03*
X105918000Y-81540000D03*
%TD*%
%TO.C,R4*%
X100838000Y-84640000D03*
X100838000Y-81540000D03*
%TD*%
%TO.C,R3*%
X96012000Y-84640000D03*
X96012000Y-81540000D03*
%TD*%
%TO.C,R2*%
X84836000Y-97594000D03*
X84836000Y-94494000D03*
%TD*%
D19*
%TO.C,R1*%
X80264000Y-94494000D03*
X80264000Y-97594000D03*
%TD*%
D20*
%TO.C,D7*%
X80772000Y-88998000D03*
X80772000Y-82198000D03*
%TD*%
D16*
%TO.C,D4*%
X105537000Y-106573866D03*
D17*
X105537000Y-109113866D03*
%TD*%
D16*
%TO.C,D3*%
X100203000Y-106573866D03*
D17*
X100203000Y-109113866D03*
%TD*%
D20*
%TO.C,D1*%
X84836000Y-88998000D03*
X84836000Y-82198000D03*
%TD*%
D10*
%TO.C,U1*%
X64770000Y-69342000D03*
D21*
X67310000Y-69342000D03*
X69850000Y-69342000D03*
X72390000Y-69342000D03*
X74930000Y-69342000D03*
X77470000Y-69342000D03*
X80010000Y-69342000D03*
X82550000Y-69342000D03*
X85090000Y-69342000D03*
X87630000Y-69342000D03*
X90170000Y-69342000D03*
X92710000Y-69342000D03*
X95250000Y-69342000D03*
X97790000Y-69342000D03*
X100330000Y-69342000D03*
X102870000Y-69342000D03*
X105410000Y-69342000D03*
X107950000Y-69342000D03*
X110490000Y-69342000D03*
X113030000Y-69342000D03*
X113030000Y-54102000D03*
X110490000Y-54102000D03*
X107950000Y-54102000D03*
X105410000Y-54102000D03*
X102870000Y-54102000D03*
X100330000Y-54102000D03*
X97790000Y-54102000D03*
X95250000Y-54102000D03*
X92710000Y-54102000D03*
X90170000Y-54102000D03*
X87630000Y-54102000D03*
X85090000Y-54102000D03*
X82550000Y-54102000D03*
X80010000Y-54102000D03*
X77470000Y-54102000D03*
X74930000Y-54102000D03*
X72390000Y-54102000D03*
X69850000Y-54102000D03*
X67310000Y-54102000D03*
X64770000Y-54102000D03*
X109220000Y-57912000D03*
X109220000Y-60452000D03*
X109220000Y-62992000D03*
X109220000Y-65532000D03*
%TD*%
D22*
%TO.C,U2*%
X72136000Y-103632000D03*
X69596000Y-103632000D03*
X67056000Y-103632000D03*
X64516000Y-103632000D03*
%TD*%
D23*
%TO.C,Q4*%
X105996500Y-89474000D03*
X105996500Y-91374000D03*
X107871500Y-90424000D03*
%TD*%
%TO.C,Q3*%
X98122500Y-89474000D03*
X98122500Y-91374000D03*
X99997500Y-90424000D03*
%TD*%
D24*
%TO.C,U3*%
X134112000Y-103886000D03*
D25*
X131572000Y-103886000D03*
X129032000Y-103886000D03*
X126492000Y-103886000D03*
X123952000Y-103886000D03*
X121412000Y-103886000D03*
%TD*%
D26*
%TO.C,TP2*%
X112268000Y-108966000D03*
%TD*%
%TO.C,TP3*%
X96012000Y-75692000D03*
%TD*%
%TO.C,TP4*%
X91694000Y-82804000D03*
%TD*%
%TO.C,TP5*%
X91694000Y-99060000D03*
%TD*%
%TO.C,TP6*%
X78232000Y-104394000D03*
%TD*%
%TO.C,TP7*%
X119126000Y-82550000D03*
%TD*%
%TO.C,TP8*%
X79502000Y-108712000D03*
%TD*%
%TO.C,TP9*%
X117094000Y-108966000D03*
%TD*%
D10*
%TO.C,J6*%
X66294000Y-77216000D03*
%TD*%
D26*
%TO.C,TP1*%
X90932000Y-108966000D03*
%TD*%
D20*
%TO.C,D13*%
X76200000Y-88998000D03*
X76200000Y-82198000D03*
%TD*%
D26*
%TO.C,TP11*%
X84582000Y-75438000D03*
%TD*%
D19*
%TO.C,R21*%
X76200000Y-94462000D03*
X76200000Y-97562000D03*
%TD*%
D27*
%TO.C,TP10*%
X79756000Y-75438000D03*
%TD*%
M02*
