%TF.GenerationSoftware,KiCad,Pcbnew,(6.0.4)*%
%TF.CreationDate,2022-04-21T00:14:10+02:00*%
%TF.ProjectId,BoostController,426f6f73-7443-46f6-9e74-726f6c6c6572,rev?*%
%TF.SameCoordinates,Original*%
%TF.FileFunction,AssemblyDrawing,Bot*%
%FSLAX46Y46*%
G04 Gerber Fmt 4.6, Leading zero omitted, Abs format (unit mm)*
G04 Created by KiCad (PCBNEW (6.0.4)) date 2022-04-21 00:14:10*
%MOMM*%
%LPD*%
G01*
G04 APERTURE LIST*
%ADD10C,0.150000*%
%ADD11C,0.105000*%
%ADD12C,0.100000*%
G04 APERTURE END LIST*
D10*
%TO.C,D5*%
X102322380Y-91233809D02*
X102322380Y-91852857D01*
X102703333Y-91519523D01*
X102703333Y-91662380D01*
X102750952Y-91757619D01*
X102798571Y-91805238D01*
X102893809Y-91852857D01*
X103131904Y-91852857D01*
X103227142Y-91805238D01*
X103274761Y-91757619D01*
X103322380Y-91662380D01*
X103322380Y-91376666D01*
X103274761Y-91281428D01*
X103227142Y-91233809D01*
X103227142Y-92281428D02*
X103274761Y-92329047D01*
X103322380Y-92281428D01*
X103274761Y-92233809D01*
X103227142Y-92281428D01*
X103322380Y-92281428D01*
X102322380Y-92662380D02*
X102322380Y-93281428D01*
X102703333Y-92948095D01*
X102703333Y-93090952D01*
X102750952Y-93186190D01*
X102798571Y-93233809D01*
X102893809Y-93281428D01*
X103131904Y-93281428D01*
X103227142Y-93233809D01*
X103274761Y-93186190D01*
X103322380Y-93090952D01*
X103322380Y-92805238D01*
X103274761Y-92710000D01*
X103227142Y-92662380D01*
X102322380Y-93567142D02*
X103322380Y-93900476D01*
X102322380Y-94233809D01*
X105572380Y-87301904D02*
X104572380Y-87301904D01*
X104572380Y-87540000D01*
X104620000Y-87682857D01*
X104715238Y-87778095D01*
X104810476Y-87825714D01*
X105000952Y-87873333D01*
X105143809Y-87873333D01*
X105334285Y-87825714D01*
X105429523Y-87778095D01*
X105524761Y-87682857D01*
X105572380Y-87540000D01*
X105572380Y-87301904D01*
X104572380Y-88778095D02*
X104572380Y-88301904D01*
X105048571Y-88254285D01*
X105000952Y-88301904D01*
X104953333Y-88397142D01*
X104953333Y-88635238D01*
X105000952Y-88730476D01*
X105048571Y-88778095D01*
X105143809Y-88825714D01*
X105381904Y-88825714D01*
X105477142Y-88778095D01*
X105524761Y-88730476D01*
X105572380Y-88635238D01*
X105572380Y-88397142D01*
X105524761Y-88301904D01*
X105477142Y-88254285D01*
%TO.C,D6*%
X93178380Y-91233809D02*
X93178380Y-91852857D01*
X93559333Y-91519523D01*
X93559333Y-91662380D01*
X93606952Y-91757619D01*
X93654571Y-91805238D01*
X93749809Y-91852857D01*
X93987904Y-91852857D01*
X94083142Y-91805238D01*
X94130761Y-91757619D01*
X94178380Y-91662380D01*
X94178380Y-91376666D01*
X94130761Y-91281428D01*
X94083142Y-91233809D01*
X94083142Y-92281428D02*
X94130761Y-92329047D01*
X94178380Y-92281428D01*
X94130761Y-92233809D01*
X94083142Y-92281428D01*
X94178380Y-92281428D01*
X93178380Y-92662380D02*
X93178380Y-93281428D01*
X93559333Y-92948095D01*
X93559333Y-93090952D01*
X93606952Y-93186190D01*
X93654571Y-93233809D01*
X93749809Y-93281428D01*
X93987904Y-93281428D01*
X94083142Y-93233809D01*
X94130761Y-93186190D01*
X94178380Y-93090952D01*
X94178380Y-92805238D01*
X94130761Y-92710000D01*
X94083142Y-92662380D01*
X93178380Y-93567142D02*
X94178380Y-93900476D01*
X93178380Y-94233809D01*
X96174380Y-87301904D02*
X95174380Y-87301904D01*
X95174380Y-87540000D01*
X95222000Y-87682857D01*
X95317238Y-87778095D01*
X95412476Y-87825714D01*
X95602952Y-87873333D01*
X95745809Y-87873333D01*
X95936285Y-87825714D01*
X96031523Y-87778095D01*
X96126761Y-87682857D01*
X96174380Y-87540000D01*
X96174380Y-87301904D01*
X95174380Y-88730476D02*
X95174380Y-88540000D01*
X95222000Y-88444761D01*
X95269619Y-88397142D01*
X95412476Y-88301904D01*
X95602952Y-88254285D01*
X95983904Y-88254285D01*
X96079142Y-88301904D01*
X96126761Y-88349523D01*
X96174380Y-88444761D01*
X96174380Y-88635238D01*
X96126761Y-88730476D01*
X96079142Y-88778095D01*
X95983904Y-88825714D01*
X95745809Y-88825714D01*
X95650571Y-88778095D01*
X95602952Y-88730476D01*
X95555333Y-88635238D01*
X95555333Y-88444761D01*
X95602952Y-88349523D01*
X95650571Y-88301904D01*
X95745809Y-88254285D01*
%TO.C,D8*%
X82510380Y-90979809D02*
X82510380Y-91598857D01*
X82891333Y-91265523D01*
X82891333Y-91408380D01*
X82938952Y-91503619D01*
X82986571Y-91551238D01*
X83081809Y-91598857D01*
X83319904Y-91598857D01*
X83415142Y-91551238D01*
X83462761Y-91503619D01*
X83510380Y-91408380D01*
X83510380Y-91122666D01*
X83462761Y-91027428D01*
X83415142Y-90979809D01*
X83415142Y-92027428D02*
X83462761Y-92075047D01*
X83510380Y-92027428D01*
X83462761Y-91979809D01*
X83415142Y-92027428D01*
X83510380Y-92027428D01*
X82510380Y-92408380D02*
X82510380Y-93027428D01*
X82891333Y-92694095D01*
X82891333Y-92836952D01*
X82938952Y-92932190D01*
X82986571Y-92979809D01*
X83081809Y-93027428D01*
X83319904Y-93027428D01*
X83415142Y-92979809D01*
X83462761Y-92932190D01*
X83510380Y-92836952D01*
X83510380Y-92551238D01*
X83462761Y-92456000D01*
X83415142Y-92408380D01*
X82510380Y-93313142D02*
X83510380Y-93646476D01*
X82510380Y-93979809D01*
X85760380Y-87301904D02*
X84760380Y-87301904D01*
X84760380Y-87540000D01*
X84808000Y-87682857D01*
X84903238Y-87778095D01*
X84998476Y-87825714D01*
X85188952Y-87873333D01*
X85331809Y-87873333D01*
X85522285Y-87825714D01*
X85617523Y-87778095D01*
X85712761Y-87682857D01*
X85760380Y-87540000D01*
X85760380Y-87301904D01*
X85188952Y-88444761D02*
X85141333Y-88349523D01*
X85093714Y-88301904D01*
X84998476Y-88254285D01*
X84950857Y-88254285D01*
X84855619Y-88301904D01*
X84808000Y-88349523D01*
X84760380Y-88444761D01*
X84760380Y-88635238D01*
X84808000Y-88730476D01*
X84855619Y-88778095D01*
X84950857Y-88825714D01*
X84998476Y-88825714D01*
X85093714Y-88778095D01*
X85141333Y-88730476D01*
X85188952Y-88635238D01*
X85188952Y-88444761D01*
X85236571Y-88349523D01*
X85284190Y-88301904D01*
X85379428Y-88254285D01*
X85569904Y-88254285D01*
X85665142Y-88301904D01*
X85712761Y-88349523D01*
X85760380Y-88444761D01*
X85760380Y-88635238D01*
X85712761Y-88730476D01*
X85665142Y-88778095D01*
X85569904Y-88825714D01*
X85379428Y-88825714D01*
X85284190Y-88778095D01*
X85236571Y-88730476D01*
X85188952Y-88635238D01*
%TO.C,D9*%
X76160380Y-90979809D02*
X76160380Y-91598857D01*
X76541333Y-91265523D01*
X76541333Y-91408380D01*
X76588952Y-91503619D01*
X76636571Y-91551238D01*
X76731809Y-91598857D01*
X76969904Y-91598857D01*
X77065142Y-91551238D01*
X77112761Y-91503619D01*
X77160380Y-91408380D01*
X77160380Y-91122666D01*
X77112761Y-91027428D01*
X77065142Y-90979809D01*
X77065142Y-92027428D02*
X77112761Y-92075047D01*
X77160380Y-92027428D01*
X77112761Y-91979809D01*
X77065142Y-92027428D01*
X77160380Y-92027428D01*
X76160380Y-92408380D02*
X76160380Y-93027428D01*
X76541333Y-92694095D01*
X76541333Y-92836952D01*
X76588952Y-92932190D01*
X76636571Y-92979809D01*
X76731809Y-93027428D01*
X76969904Y-93027428D01*
X77065142Y-92979809D01*
X77112761Y-92932190D01*
X77160380Y-92836952D01*
X77160380Y-92551238D01*
X77112761Y-92456000D01*
X77065142Y-92408380D01*
X76160380Y-93313142D02*
X77160380Y-93646476D01*
X76160380Y-93979809D01*
X79664380Y-87301904D02*
X78664380Y-87301904D01*
X78664380Y-87540000D01*
X78712000Y-87682857D01*
X78807238Y-87778095D01*
X78902476Y-87825714D01*
X79092952Y-87873333D01*
X79235809Y-87873333D01*
X79426285Y-87825714D01*
X79521523Y-87778095D01*
X79616761Y-87682857D01*
X79664380Y-87540000D01*
X79664380Y-87301904D01*
X79664380Y-88349523D02*
X79664380Y-88540000D01*
X79616761Y-88635238D01*
X79569142Y-88682857D01*
X79426285Y-88778095D01*
X79235809Y-88825714D01*
X78854857Y-88825714D01*
X78759619Y-88778095D01*
X78712000Y-88730476D01*
X78664380Y-88635238D01*
X78664380Y-88444761D01*
X78712000Y-88349523D01*
X78759619Y-88301904D01*
X78854857Y-88254285D01*
X79092952Y-88254285D01*
X79188190Y-88301904D01*
X79235809Y-88349523D01*
X79283428Y-88444761D01*
X79283428Y-88635238D01*
X79235809Y-88730476D01*
X79188190Y-88778095D01*
X79092952Y-88825714D01*
%TO.C,D10*%
X114006380Y-91233809D02*
X114006380Y-91852857D01*
X114387333Y-91519523D01*
X114387333Y-91662380D01*
X114434952Y-91757619D01*
X114482571Y-91805238D01*
X114577809Y-91852857D01*
X114815904Y-91852857D01*
X114911142Y-91805238D01*
X114958761Y-91757619D01*
X115006380Y-91662380D01*
X115006380Y-91376666D01*
X114958761Y-91281428D01*
X114911142Y-91233809D01*
X114911142Y-92281428D02*
X114958761Y-92329047D01*
X115006380Y-92281428D01*
X114958761Y-92233809D01*
X114911142Y-92281428D01*
X115006380Y-92281428D01*
X114006380Y-92662380D02*
X114006380Y-93281428D01*
X114387333Y-92948095D01*
X114387333Y-93090952D01*
X114434952Y-93186190D01*
X114482571Y-93233809D01*
X114577809Y-93281428D01*
X114815904Y-93281428D01*
X114911142Y-93233809D01*
X114958761Y-93186190D01*
X115006380Y-93090952D01*
X115006380Y-92805238D01*
X114958761Y-92710000D01*
X114911142Y-92662380D01*
X114006380Y-93567142D02*
X115006380Y-93900476D01*
X114006380Y-94233809D01*
X117256380Y-86825714D02*
X116256380Y-86825714D01*
X116256380Y-87063809D01*
X116304000Y-87206666D01*
X116399238Y-87301904D01*
X116494476Y-87349523D01*
X116684952Y-87397142D01*
X116827809Y-87397142D01*
X117018285Y-87349523D01*
X117113523Y-87301904D01*
X117208761Y-87206666D01*
X117256380Y-87063809D01*
X117256380Y-86825714D01*
X117256380Y-88349523D02*
X117256380Y-87778095D01*
X117256380Y-88063809D02*
X116256380Y-88063809D01*
X116399238Y-87968571D01*
X116494476Y-87873333D01*
X116542095Y-87778095D01*
X116256380Y-88968571D02*
X116256380Y-89063809D01*
X116304000Y-89159047D01*
X116351619Y-89206666D01*
X116446857Y-89254285D01*
X116637333Y-89301904D01*
X116875428Y-89301904D01*
X117065904Y-89254285D01*
X117161142Y-89206666D01*
X117208761Y-89159047D01*
X117256380Y-89063809D01*
X117256380Y-88968571D01*
X117208761Y-88873333D01*
X117161142Y-88825714D01*
X117065904Y-88778095D01*
X116875428Y-88730476D01*
X116637333Y-88730476D01*
X116446857Y-88778095D01*
X116351619Y-88825714D01*
X116304000Y-88873333D01*
X116256380Y-88968571D01*
%TO.C,D11*%
X88098380Y-91233809D02*
X88098380Y-91852857D01*
X88479333Y-91519523D01*
X88479333Y-91662380D01*
X88526952Y-91757619D01*
X88574571Y-91805238D01*
X88669809Y-91852857D01*
X88907904Y-91852857D01*
X89003142Y-91805238D01*
X89050761Y-91757619D01*
X89098380Y-91662380D01*
X89098380Y-91376666D01*
X89050761Y-91281428D01*
X89003142Y-91233809D01*
X89003142Y-92281428D02*
X89050761Y-92329047D01*
X89098380Y-92281428D01*
X89050761Y-92233809D01*
X89003142Y-92281428D01*
X89098380Y-92281428D01*
X88098380Y-92662380D02*
X88098380Y-93281428D01*
X88479333Y-92948095D01*
X88479333Y-93090952D01*
X88526952Y-93186190D01*
X88574571Y-93233809D01*
X88669809Y-93281428D01*
X88907904Y-93281428D01*
X89003142Y-93233809D01*
X89050761Y-93186190D01*
X89098380Y-93090952D01*
X89098380Y-92805238D01*
X89050761Y-92710000D01*
X89003142Y-92662380D01*
X88098380Y-93567142D02*
X89098380Y-93900476D01*
X88098380Y-94233809D01*
X91384380Y-87177714D02*
X90384380Y-87177714D01*
X90384380Y-87415809D01*
X90432000Y-87558666D01*
X90527238Y-87653904D01*
X90622476Y-87701523D01*
X90812952Y-87749142D01*
X90955809Y-87749142D01*
X91146285Y-87701523D01*
X91241523Y-87653904D01*
X91336761Y-87558666D01*
X91384380Y-87415809D01*
X91384380Y-87177714D01*
X91384380Y-88701523D02*
X91384380Y-88130095D01*
X91384380Y-88415809D02*
X90384380Y-88415809D01*
X90527238Y-88320571D01*
X90622476Y-88225333D01*
X90670095Y-88130095D01*
X91384380Y-89653904D02*
X91384380Y-89082476D01*
X91384380Y-89368190D02*
X90384380Y-89368190D01*
X90527238Y-89272952D01*
X90622476Y-89177714D01*
X90670095Y-89082476D01*
%TO.C,D12*%
X108418380Y-90979809D02*
X108418380Y-91598857D01*
X108799333Y-91265523D01*
X108799333Y-91408380D01*
X108846952Y-91503619D01*
X108894571Y-91551238D01*
X108989809Y-91598857D01*
X109227904Y-91598857D01*
X109323142Y-91551238D01*
X109370761Y-91503619D01*
X109418380Y-91408380D01*
X109418380Y-91122666D01*
X109370761Y-91027428D01*
X109323142Y-90979809D01*
X109323142Y-92027428D02*
X109370761Y-92075047D01*
X109418380Y-92027428D01*
X109370761Y-91979809D01*
X109323142Y-92027428D01*
X109418380Y-92027428D01*
X108418380Y-92408380D02*
X108418380Y-93027428D01*
X108799333Y-92694095D01*
X108799333Y-92836952D01*
X108846952Y-92932190D01*
X108894571Y-92979809D01*
X108989809Y-93027428D01*
X109227904Y-93027428D01*
X109323142Y-92979809D01*
X109370761Y-92932190D01*
X109418380Y-92836952D01*
X109418380Y-92551238D01*
X109370761Y-92456000D01*
X109323142Y-92408380D01*
X108418380Y-93313142D02*
X109418380Y-93646476D01*
X108418380Y-93979809D01*
X111668380Y-86825714D02*
X110668380Y-86825714D01*
X110668380Y-87063809D01*
X110716000Y-87206666D01*
X110811238Y-87301904D01*
X110906476Y-87349523D01*
X111096952Y-87397142D01*
X111239809Y-87397142D01*
X111430285Y-87349523D01*
X111525523Y-87301904D01*
X111620761Y-87206666D01*
X111668380Y-87063809D01*
X111668380Y-86825714D01*
X111668380Y-88349523D02*
X111668380Y-87778095D01*
X111668380Y-88063809D02*
X110668380Y-88063809D01*
X110811238Y-87968571D01*
X110906476Y-87873333D01*
X110954095Y-87778095D01*
X110763619Y-88730476D02*
X110716000Y-88778095D01*
X110668380Y-88873333D01*
X110668380Y-89111428D01*
X110716000Y-89206666D01*
X110763619Y-89254285D01*
X110858857Y-89301904D01*
X110954095Y-89301904D01*
X111096952Y-89254285D01*
X111668380Y-88682857D01*
X111668380Y-89301904D01*
%TO.C,R7*%
X86690380Y-109116666D02*
X86690380Y-108545238D01*
X86690380Y-108830952D02*
X85690380Y-108830952D01*
X85833238Y-108735714D01*
X85928476Y-108640476D01*
X85976095Y-108545238D01*
X86595142Y-109545238D02*
X86642761Y-109592857D01*
X86690380Y-109545238D01*
X86642761Y-109497619D01*
X86595142Y-109545238D01*
X86690380Y-109545238D01*
X85690380Y-109926190D02*
X85690380Y-110592857D01*
X86690380Y-110164285D01*
X86690380Y-110973809D02*
X85690380Y-110973809D01*
X86309428Y-111069047D02*
X86690380Y-111354761D01*
X86023714Y-111354761D02*
X86404666Y-110973809D01*
D11*
X88454666Y-109833333D02*
X88121333Y-109600000D01*
X88454666Y-109433333D02*
X87754666Y-109433333D01*
X87754666Y-109700000D01*
X87788000Y-109766666D01*
X87821333Y-109800000D01*
X87888000Y-109833333D01*
X87988000Y-109833333D01*
X88054666Y-109800000D01*
X88088000Y-109766666D01*
X88121333Y-109700000D01*
X88121333Y-109433333D01*
X87754666Y-110066666D02*
X87754666Y-110533333D01*
X88454666Y-110233333D01*
D10*
%TO.C,R8*%
X95596380Y-83161619D02*
X95596380Y-83780666D01*
X95977333Y-83447333D01*
X95977333Y-83590190D01*
X96024952Y-83685428D01*
X96072571Y-83733047D01*
X96167809Y-83780666D01*
X96405904Y-83780666D01*
X96501142Y-83733047D01*
X96548761Y-83685428D01*
X96596380Y-83590190D01*
X96596380Y-83304476D01*
X96548761Y-83209238D01*
X96501142Y-83161619D01*
X96501142Y-84209238D02*
X96548761Y-84256857D01*
X96596380Y-84209238D01*
X96548761Y-84161619D01*
X96501142Y-84209238D01*
X96596380Y-84209238D01*
X95596380Y-84590190D02*
X95596380Y-85209238D01*
X95977333Y-84875904D01*
X95977333Y-85018761D01*
X96024952Y-85114000D01*
X96072571Y-85161619D01*
X96167809Y-85209238D01*
X96405904Y-85209238D01*
X96501142Y-85161619D01*
X96548761Y-85114000D01*
X96596380Y-85018761D01*
X96596380Y-84733047D01*
X96548761Y-84637809D01*
X96501142Y-84590190D01*
X96596380Y-85637809D02*
X95596380Y-85637809D01*
X96215428Y-85733047D02*
X96596380Y-86018761D01*
X95929714Y-86018761D02*
X96310666Y-85637809D01*
D11*
X98360666Y-84497333D02*
X98027333Y-84264000D01*
X98360666Y-84097333D02*
X97660666Y-84097333D01*
X97660666Y-84364000D01*
X97694000Y-84430666D01*
X97727333Y-84464000D01*
X97794000Y-84497333D01*
X97894000Y-84497333D01*
X97960666Y-84464000D01*
X97994000Y-84430666D01*
X98027333Y-84364000D01*
X98027333Y-84097333D01*
X97960666Y-84897333D02*
X97927333Y-84830666D01*
X97894000Y-84797333D01*
X97827333Y-84764000D01*
X97794000Y-84764000D01*
X97727333Y-84797333D01*
X97694000Y-84830666D01*
X97660666Y-84897333D01*
X97660666Y-85030666D01*
X97694000Y-85097333D01*
X97727333Y-85130666D01*
X97794000Y-85164000D01*
X97827333Y-85164000D01*
X97894000Y-85130666D01*
X97927333Y-85097333D01*
X97960666Y-85030666D01*
X97960666Y-84897333D01*
X97994000Y-84830666D01*
X98027333Y-84797333D01*
X98094000Y-84764000D01*
X98227333Y-84764000D01*
X98294000Y-84797333D01*
X98327333Y-84830666D01*
X98360666Y-84897333D01*
X98360666Y-85030666D01*
X98327333Y-85097333D01*
X98294000Y-85130666D01*
X98227333Y-85164000D01*
X98094000Y-85164000D01*
X98027333Y-85130666D01*
X97994000Y-85097333D01*
X97960666Y-85030666D01*
D10*
%TO.C,R9*%
X90246380Y-109116666D02*
X90246380Y-108545238D01*
X90246380Y-108830952D02*
X89246380Y-108830952D01*
X89389238Y-108735714D01*
X89484476Y-108640476D01*
X89532095Y-108545238D01*
X90151142Y-109545238D02*
X90198761Y-109592857D01*
X90246380Y-109545238D01*
X90198761Y-109497619D01*
X90151142Y-109545238D01*
X90246380Y-109545238D01*
X89246380Y-109926190D02*
X89246380Y-110592857D01*
X90246380Y-110164285D01*
X90246380Y-110973809D02*
X89246380Y-110973809D01*
X89865428Y-111069047D02*
X90246380Y-111354761D01*
X89579714Y-111354761D02*
X89960666Y-110973809D01*
D11*
X92010666Y-109833333D02*
X91677333Y-109600000D01*
X92010666Y-109433333D02*
X91310666Y-109433333D01*
X91310666Y-109700000D01*
X91344000Y-109766666D01*
X91377333Y-109800000D01*
X91444000Y-109833333D01*
X91544000Y-109833333D01*
X91610666Y-109800000D01*
X91644000Y-109766666D01*
X91677333Y-109700000D01*
X91677333Y-109433333D01*
X92010666Y-110166666D02*
X92010666Y-110300000D01*
X91977333Y-110366666D01*
X91944000Y-110400000D01*
X91844000Y-110466666D01*
X91710666Y-110500000D01*
X91444000Y-110500000D01*
X91377333Y-110466666D01*
X91344000Y-110433333D01*
X91310666Y-110366666D01*
X91310666Y-110233333D01*
X91344000Y-110166666D01*
X91377333Y-110133333D01*
X91444000Y-110100000D01*
X91610666Y-110100000D01*
X91677333Y-110133333D01*
X91710666Y-110166666D01*
X91744000Y-110233333D01*
X91744000Y-110366666D01*
X91710666Y-110433333D01*
X91677333Y-110466666D01*
X91610666Y-110500000D01*
D10*
%TO.C,R10*%
X91278380Y-96877619D02*
X91278380Y-97496666D01*
X91659333Y-97163333D01*
X91659333Y-97306190D01*
X91706952Y-97401428D01*
X91754571Y-97449047D01*
X91849809Y-97496666D01*
X92087904Y-97496666D01*
X92183142Y-97449047D01*
X92230761Y-97401428D01*
X92278380Y-97306190D01*
X92278380Y-97020476D01*
X92230761Y-96925238D01*
X92183142Y-96877619D01*
X92183142Y-97925238D02*
X92230761Y-97972857D01*
X92278380Y-97925238D01*
X92230761Y-97877619D01*
X92183142Y-97925238D01*
X92278380Y-97925238D01*
X91278380Y-98306190D02*
X91278380Y-98925238D01*
X91659333Y-98591904D01*
X91659333Y-98734761D01*
X91706952Y-98830000D01*
X91754571Y-98877619D01*
X91849809Y-98925238D01*
X92087904Y-98925238D01*
X92183142Y-98877619D01*
X92230761Y-98830000D01*
X92278380Y-98734761D01*
X92278380Y-98449047D01*
X92230761Y-98353809D01*
X92183142Y-98306190D01*
X92278380Y-99353809D02*
X91278380Y-99353809D01*
X91897428Y-99449047D02*
X92278380Y-99734761D01*
X91611714Y-99734761D02*
X91992666Y-99353809D01*
D11*
X94042666Y-97880000D02*
X93709333Y-97646666D01*
X94042666Y-97480000D02*
X93342666Y-97480000D01*
X93342666Y-97746666D01*
X93376000Y-97813333D01*
X93409333Y-97846666D01*
X93476000Y-97880000D01*
X93576000Y-97880000D01*
X93642666Y-97846666D01*
X93676000Y-97813333D01*
X93709333Y-97746666D01*
X93709333Y-97480000D01*
X94042666Y-98546666D02*
X94042666Y-98146666D01*
X94042666Y-98346666D02*
X93342666Y-98346666D01*
X93442666Y-98280000D01*
X93509333Y-98213333D01*
X93542666Y-98146666D01*
X93342666Y-98980000D02*
X93342666Y-99046666D01*
X93376000Y-99113333D01*
X93409333Y-99146666D01*
X93476000Y-99180000D01*
X93609333Y-99213333D01*
X93776000Y-99213333D01*
X93909333Y-99180000D01*
X93976000Y-99146666D01*
X94009333Y-99113333D01*
X94042666Y-99046666D01*
X94042666Y-98980000D01*
X94009333Y-98913333D01*
X93976000Y-98880000D01*
X93909333Y-98846666D01*
X93776000Y-98813333D01*
X93609333Y-98813333D01*
X93476000Y-98846666D01*
X93409333Y-98880000D01*
X93376000Y-98913333D01*
X93342666Y-98980000D01*
D10*
%TO.C,R12*%
X87468380Y-96877619D02*
X87468380Y-97496666D01*
X87849333Y-97163333D01*
X87849333Y-97306190D01*
X87896952Y-97401428D01*
X87944571Y-97449047D01*
X88039809Y-97496666D01*
X88277904Y-97496666D01*
X88373142Y-97449047D01*
X88420761Y-97401428D01*
X88468380Y-97306190D01*
X88468380Y-97020476D01*
X88420761Y-96925238D01*
X88373142Y-96877619D01*
X88373142Y-97925238D02*
X88420761Y-97972857D01*
X88468380Y-97925238D01*
X88420761Y-97877619D01*
X88373142Y-97925238D01*
X88468380Y-97925238D01*
X87468380Y-98306190D02*
X87468380Y-98925238D01*
X87849333Y-98591904D01*
X87849333Y-98734761D01*
X87896952Y-98830000D01*
X87944571Y-98877619D01*
X88039809Y-98925238D01*
X88277904Y-98925238D01*
X88373142Y-98877619D01*
X88420761Y-98830000D01*
X88468380Y-98734761D01*
X88468380Y-98449047D01*
X88420761Y-98353809D01*
X88373142Y-98306190D01*
X88468380Y-99353809D02*
X87468380Y-99353809D01*
X88087428Y-99449047D02*
X88468380Y-99734761D01*
X87801714Y-99734761D02*
X88182666Y-99353809D01*
D11*
X90232666Y-97880000D02*
X89899333Y-97646666D01*
X90232666Y-97480000D02*
X89532666Y-97480000D01*
X89532666Y-97746666D01*
X89566000Y-97813333D01*
X89599333Y-97846666D01*
X89666000Y-97880000D01*
X89766000Y-97880000D01*
X89832666Y-97846666D01*
X89866000Y-97813333D01*
X89899333Y-97746666D01*
X89899333Y-97480000D01*
X90232666Y-98546666D02*
X90232666Y-98146666D01*
X90232666Y-98346666D02*
X89532666Y-98346666D01*
X89632666Y-98280000D01*
X89699333Y-98213333D01*
X89732666Y-98146666D01*
X89599333Y-98813333D02*
X89566000Y-98846666D01*
X89532666Y-98913333D01*
X89532666Y-99080000D01*
X89566000Y-99146666D01*
X89599333Y-99180000D01*
X89666000Y-99213333D01*
X89732666Y-99213333D01*
X89832666Y-99180000D01*
X90232666Y-98780000D01*
X90232666Y-99213333D01*
D10*
%TO.C,R13*%
X73350380Y-97464666D02*
X73350380Y-96893238D01*
X73350380Y-97178952D02*
X72350380Y-97178952D01*
X72493238Y-97083714D01*
X72588476Y-96988476D01*
X72636095Y-96893238D01*
X73255142Y-97893238D02*
X73302761Y-97940857D01*
X73350380Y-97893238D01*
X73302761Y-97845619D01*
X73255142Y-97893238D01*
X73350380Y-97893238D01*
X72350380Y-98274190D02*
X72350380Y-98940857D01*
X73350380Y-98512285D01*
X73350380Y-99321809D02*
X72350380Y-99321809D01*
X72969428Y-99417047D02*
X73350380Y-99702761D01*
X72683714Y-99702761D02*
X73064666Y-99321809D01*
D11*
X74992666Y-97848000D02*
X74659333Y-97614666D01*
X74992666Y-97448000D02*
X74292666Y-97448000D01*
X74292666Y-97714666D01*
X74326000Y-97781333D01*
X74359333Y-97814666D01*
X74426000Y-97848000D01*
X74526000Y-97848000D01*
X74592666Y-97814666D01*
X74626000Y-97781333D01*
X74659333Y-97714666D01*
X74659333Y-97448000D01*
X74992666Y-98514666D02*
X74992666Y-98114666D01*
X74992666Y-98314666D02*
X74292666Y-98314666D01*
X74392666Y-98248000D01*
X74459333Y-98181333D01*
X74492666Y-98114666D01*
X74292666Y-98748000D02*
X74292666Y-99181333D01*
X74559333Y-98948000D01*
X74559333Y-99048000D01*
X74592666Y-99114666D01*
X74626000Y-99148000D01*
X74692666Y-99181333D01*
X74859333Y-99181333D01*
X74926000Y-99148000D01*
X74959333Y-99114666D01*
X74992666Y-99048000D01*
X74992666Y-98848000D01*
X74959333Y-98781333D01*
X74926000Y-98748000D01*
D10*
%TO.C,R14*%
X77308380Y-96845619D02*
X77308380Y-97464666D01*
X77689333Y-97131333D01*
X77689333Y-97274190D01*
X77736952Y-97369428D01*
X77784571Y-97417047D01*
X77879809Y-97464666D01*
X78117904Y-97464666D01*
X78213142Y-97417047D01*
X78260761Y-97369428D01*
X78308380Y-97274190D01*
X78308380Y-96988476D01*
X78260761Y-96893238D01*
X78213142Y-96845619D01*
X78213142Y-97893238D02*
X78260761Y-97940857D01*
X78308380Y-97893238D01*
X78260761Y-97845619D01*
X78213142Y-97893238D01*
X78308380Y-97893238D01*
X77308380Y-98274190D02*
X77308380Y-98893238D01*
X77689333Y-98559904D01*
X77689333Y-98702761D01*
X77736952Y-98798000D01*
X77784571Y-98845619D01*
X77879809Y-98893238D01*
X78117904Y-98893238D01*
X78213142Y-98845619D01*
X78260761Y-98798000D01*
X78308380Y-98702761D01*
X78308380Y-98417047D01*
X78260761Y-98321809D01*
X78213142Y-98274190D01*
X78308380Y-99321809D02*
X77308380Y-99321809D01*
X77927428Y-99417047D02*
X78308380Y-99702761D01*
X77641714Y-99702761D02*
X78022666Y-99321809D01*
D11*
X80072666Y-97848000D02*
X79739333Y-97614666D01*
X80072666Y-97448000D02*
X79372666Y-97448000D01*
X79372666Y-97714666D01*
X79406000Y-97781333D01*
X79439333Y-97814666D01*
X79506000Y-97848000D01*
X79606000Y-97848000D01*
X79672666Y-97814666D01*
X79706000Y-97781333D01*
X79739333Y-97714666D01*
X79739333Y-97448000D01*
X80072666Y-98514666D02*
X80072666Y-98114666D01*
X80072666Y-98314666D02*
X79372666Y-98314666D01*
X79472666Y-98248000D01*
X79539333Y-98181333D01*
X79572666Y-98114666D01*
X79606000Y-99114666D02*
X80072666Y-99114666D01*
X79339333Y-98948000D02*
X79839333Y-98781333D01*
X79839333Y-99214666D01*
D10*
%TO.C,R15*%
X116408380Y-109688666D02*
X116408380Y-109117238D01*
X116408380Y-109402952D02*
X115408380Y-109402952D01*
X115551238Y-109307714D01*
X115646476Y-109212476D01*
X115694095Y-109117238D01*
X116313142Y-110117238D02*
X116360761Y-110164857D01*
X116408380Y-110117238D01*
X116360761Y-110069619D01*
X116313142Y-110117238D01*
X116408380Y-110117238D01*
X115408380Y-110498190D02*
X115408380Y-111164857D01*
X116408380Y-110736285D01*
X116408380Y-111545809D02*
X115408380Y-111545809D01*
X116027428Y-111641047D02*
X116408380Y-111926761D01*
X115741714Y-111926761D02*
X116122666Y-111545809D01*
D11*
X118172666Y-110072000D02*
X117839333Y-109838666D01*
X118172666Y-109672000D02*
X117472666Y-109672000D01*
X117472666Y-109938666D01*
X117506000Y-110005333D01*
X117539333Y-110038666D01*
X117606000Y-110072000D01*
X117706000Y-110072000D01*
X117772666Y-110038666D01*
X117806000Y-110005333D01*
X117839333Y-109938666D01*
X117839333Y-109672000D01*
X118172666Y-110738666D02*
X118172666Y-110338666D01*
X118172666Y-110538666D02*
X117472666Y-110538666D01*
X117572666Y-110472000D01*
X117639333Y-110405333D01*
X117672666Y-110338666D01*
X117472666Y-111372000D02*
X117472666Y-111038666D01*
X117806000Y-111005333D01*
X117772666Y-111038666D01*
X117739333Y-111105333D01*
X117739333Y-111272000D01*
X117772666Y-111338666D01*
X117806000Y-111372000D01*
X117872666Y-111405333D01*
X118039333Y-111405333D01*
X118106000Y-111372000D01*
X118139333Y-111338666D01*
X118172666Y-111272000D01*
X118172666Y-111105333D01*
X118139333Y-111038666D01*
X118106000Y-111005333D01*
D10*
%TO.C,R16*%
X123018380Y-109005619D02*
X123018380Y-109624666D01*
X123399333Y-109291333D01*
X123399333Y-109434190D01*
X123446952Y-109529428D01*
X123494571Y-109577047D01*
X123589809Y-109624666D01*
X123827904Y-109624666D01*
X123923142Y-109577047D01*
X123970761Y-109529428D01*
X124018380Y-109434190D01*
X124018380Y-109148476D01*
X123970761Y-109053238D01*
X123923142Y-109005619D01*
X123923142Y-110053238D02*
X123970761Y-110100857D01*
X124018380Y-110053238D01*
X123970761Y-110005619D01*
X123923142Y-110053238D01*
X124018380Y-110053238D01*
X123018380Y-110434190D02*
X123018380Y-111053238D01*
X123399333Y-110719904D01*
X123399333Y-110862761D01*
X123446952Y-110958000D01*
X123494571Y-111005619D01*
X123589809Y-111053238D01*
X123827904Y-111053238D01*
X123923142Y-111005619D01*
X123970761Y-110958000D01*
X124018380Y-110862761D01*
X124018380Y-110577047D01*
X123970761Y-110481809D01*
X123923142Y-110434190D01*
X124018380Y-111481809D02*
X123018380Y-111481809D01*
X123637428Y-111577047D02*
X124018380Y-111862761D01*
X123351714Y-111862761D02*
X123732666Y-111481809D01*
D11*
X121982666Y-110008000D02*
X121649333Y-109774666D01*
X121982666Y-109608000D02*
X121282666Y-109608000D01*
X121282666Y-109874666D01*
X121316000Y-109941333D01*
X121349333Y-109974666D01*
X121416000Y-110008000D01*
X121516000Y-110008000D01*
X121582666Y-109974666D01*
X121616000Y-109941333D01*
X121649333Y-109874666D01*
X121649333Y-109608000D01*
X121982666Y-110674666D02*
X121982666Y-110274666D01*
X121982666Y-110474666D02*
X121282666Y-110474666D01*
X121382666Y-110408000D01*
X121449333Y-110341333D01*
X121482666Y-110274666D01*
X121282666Y-111274666D02*
X121282666Y-111141333D01*
X121316000Y-111074666D01*
X121349333Y-111041333D01*
X121449333Y-110974666D01*
X121582666Y-110941333D01*
X121849333Y-110941333D01*
X121916000Y-110974666D01*
X121949333Y-111008000D01*
X121982666Y-111074666D01*
X121982666Y-111208000D01*
X121949333Y-111274666D01*
X121916000Y-111308000D01*
X121849333Y-111341333D01*
X121682666Y-111341333D01*
X121616000Y-111308000D01*
X121582666Y-111274666D01*
X121549333Y-111208000D01*
X121549333Y-111074666D01*
X121582666Y-111008000D01*
X121616000Y-110974666D01*
X121682666Y-110941333D01*
D10*
%TO.C,R17*%
X79070380Y-109148666D02*
X79070380Y-108577238D01*
X79070380Y-108862952D02*
X78070380Y-108862952D01*
X78213238Y-108767714D01*
X78308476Y-108672476D01*
X78356095Y-108577238D01*
X78975142Y-109577238D02*
X79022761Y-109624857D01*
X79070380Y-109577238D01*
X79022761Y-109529619D01*
X78975142Y-109577238D01*
X79070380Y-109577238D01*
X78070380Y-109958190D02*
X78070380Y-110624857D01*
X79070380Y-110196285D01*
X79070380Y-111005809D02*
X78070380Y-111005809D01*
X78689428Y-111101047D02*
X79070380Y-111386761D01*
X78403714Y-111386761D02*
X78784666Y-111005809D01*
D11*
X80834666Y-109532000D02*
X80501333Y-109298666D01*
X80834666Y-109132000D02*
X80134666Y-109132000D01*
X80134666Y-109398666D01*
X80168000Y-109465333D01*
X80201333Y-109498666D01*
X80268000Y-109532000D01*
X80368000Y-109532000D01*
X80434666Y-109498666D01*
X80468000Y-109465333D01*
X80501333Y-109398666D01*
X80501333Y-109132000D01*
X80834666Y-110198666D02*
X80834666Y-109798666D01*
X80834666Y-109998666D02*
X80134666Y-109998666D01*
X80234666Y-109932000D01*
X80301333Y-109865333D01*
X80334666Y-109798666D01*
X80134666Y-110432000D02*
X80134666Y-110898666D01*
X80834666Y-110598666D01*
D10*
%TO.C,R18*%
X82388380Y-96845619D02*
X82388380Y-97464666D01*
X82769333Y-97131333D01*
X82769333Y-97274190D01*
X82816952Y-97369428D01*
X82864571Y-97417047D01*
X82959809Y-97464666D01*
X83197904Y-97464666D01*
X83293142Y-97417047D01*
X83340761Y-97369428D01*
X83388380Y-97274190D01*
X83388380Y-96988476D01*
X83340761Y-96893238D01*
X83293142Y-96845619D01*
X83293142Y-97893238D02*
X83340761Y-97940857D01*
X83388380Y-97893238D01*
X83340761Y-97845619D01*
X83293142Y-97893238D01*
X83388380Y-97893238D01*
X82388380Y-98274190D02*
X82388380Y-98893238D01*
X82769333Y-98559904D01*
X82769333Y-98702761D01*
X82816952Y-98798000D01*
X82864571Y-98845619D01*
X82959809Y-98893238D01*
X83197904Y-98893238D01*
X83293142Y-98845619D01*
X83340761Y-98798000D01*
X83388380Y-98702761D01*
X83388380Y-98417047D01*
X83340761Y-98321809D01*
X83293142Y-98274190D01*
X83388380Y-99321809D02*
X82388380Y-99321809D01*
X83007428Y-99417047D02*
X83388380Y-99702761D01*
X82721714Y-99702761D02*
X83102666Y-99321809D01*
D11*
X85152666Y-97848000D02*
X84819333Y-97614666D01*
X85152666Y-97448000D02*
X84452666Y-97448000D01*
X84452666Y-97714666D01*
X84486000Y-97781333D01*
X84519333Y-97814666D01*
X84586000Y-97848000D01*
X84686000Y-97848000D01*
X84752666Y-97814666D01*
X84786000Y-97781333D01*
X84819333Y-97714666D01*
X84819333Y-97448000D01*
X85152666Y-98514666D02*
X85152666Y-98114666D01*
X85152666Y-98314666D02*
X84452666Y-98314666D01*
X84552666Y-98248000D01*
X84619333Y-98181333D01*
X84652666Y-98114666D01*
X84752666Y-98914666D02*
X84719333Y-98848000D01*
X84686000Y-98814666D01*
X84619333Y-98781333D01*
X84586000Y-98781333D01*
X84519333Y-98814666D01*
X84486000Y-98848000D01*
X84452666Y-98914666D01*
X84452666Y-99048000D01*
X84486000Y-99114666D01*
X84519333Y-99148000D01*
X84586000Y-99181333D01*
X84619333Y-99181333D01*
X84686000Y-99148000D01*
X84719333Y-99114666D01*
X84752666Y-99048000D01*
X84752666Y-98914666D01*
X84786000Y-98848000D01*
X84819333Y-98814666D01*
X84886000Y-98781333D01*
X85019333Y-98781333D01*
X85086000Y-98814666D01*
X85119333Y-98848000D01*
X85152666Y-98914666D01*
X85152666Y-99048000D01*
X85119333Y-99114666D01*
X85086000Y-99148000D01*
X85019333Y-99181333D01*
X84886000Y-99181333D01*
X84819333Y-99148000D01*
X84786000Y-99114666D01*
X84752666Y-99048000D01*
D10*
%TO.C,R19*%
X111196380Y-109148666D02*
X111196380Y-108577238D01*
X111196380Y-108862952D02*
X110196380Y-108862952D01*
X110339238Y-108767714D01*
X110434476Y-108672476D01*
X110482095Y-108577238D01*
X111101142Y-109577238D02*
X111148761Y-109624857D01*
X111196380Y-109577238D01*
X111148761Y-109529619D01*
X111101142Y-109577238D01*
X111196380Y-109577238D01*
X110196380Y-109958190D02*
X110196380Y-110624857D01*
X111196380Y-110196285D01*
X111196380Y-111005809D02*
X110196380Y-111005809D01*
X110815428Y-111101047D02*
X111196380Y-111386761D01*
X110529714Y-111386761D02*
X110910666Y-111005809D01*
D11*
X112584666Y-109500000D02*
X112251333Y-109266666D01*
X112584666Y-109100000D02*
X111884666Y-109100000D01*
X111884666Y-109366666D01*
X111918000Y-109433333D01*
X111951333Y-109466666D01*
X112018000Y-109500000D01*
X112118000Y-109500000D01*
X112184666Y-109466666D01*
X112218000Y-109433333D01*
X112251333Y-109366666D01*
X112251333Y-109100000D01*
X112584666Y-110166666D02*
X112584666Y-109766666D01*
X112584666Y-109966666D02*
X111884666Y-109966666D01*
X111984666Y-109900000D01*
X112051333Y-109833333D01*
X112084666Y-109766666D01*
X112584666Y-110500000D02*
X112584666Y-110633333D01*
X112551333Y-110700000D01*
X112518000Y-110733333D01*
X112418000Y-110800000D01*
X112284666Y-110833333D01*
X112018000Y-110833333D01*
X111951333Y-110800000D01*
X111918000Y-110766666D01*
X111884666Y-110700000D01*
X111884666Y-110566666D01*
X111918000Y-110500000D01*
X111951333Y-110466666D01*
X112018000Y-110433333D01*
X112184666Y-110433333D01*
X112251333Y-110466666D01*
X112284666Y-110500000D01*
X112318000Y-110566666D01*
X112318000Y-110700000D01*
X112284666Y-110766666D01*
X112251333Y-110800000D01*
X112184666Y-110833333D01*
D10*
%TO.C,R20*%
X106640380Y-108529619D02*
X106640380Y-109148666D01*
X107021333Y-108815333D01*
X107021333Y-108958190D01*
X107068952Y-109053428D01*
X107116571Y-109101047D01*
X107211809Y-109148666D01*
X107449904Y-109148666D01*
X107545142Y-109101047D01*
X107592761Y-109053428D01*
X107640380Y-108958190D01*
X107640380Y-108672476D01*
X107592761Y-108577238D01*
X107545142Y-108529619D01*
X107545142Y-109577238D02*
X107592761Y-109624857D01*
X107640380Y-109577238D01*
X107592761Y-109529619D01*
X107545142Y-109577238D01*
X107640380Y-109577238D01*
X106640380Y-109958190D02*
X106640380Y-110577238D01*
X107021333Y-110243904D01*
X107021333Y-110386761D01*
X107068952Y-110482000D01*
X107116571Y-110529619D01*
X107211809Y-110577238D01*
X107449904Y-110577238D01*
X107545142Y-110529619D01*
X107592761Y-110482000D01*
X107640380Y-110386761D01*
X107640380Y-110101047D01*
X107592761Y-110005809D01*
X107545142Y-109958190D01*
X107640380Y-111005809D02*
X106640380Y-111005809D01*
X107259428Y-111101047D02*
X107640380Y-111386761D01*
X106973714Y-111386761D02*
X107354666Y-111005809D01*
D11*
X109282666Y-109500000D02*
X108949333Y-109266666D01*
X109282666Y-109100000D02*
X108582666Y-109100000D01*
X108582666Y-109366666D01*
X108616000Y-109433333D01*
X108649333Y-109466666D01*
X108716000Y-109500000D01*
X108816000Y-109500000D01*
X108882666Y-109466666D01*
X108916000Y-109433333D01*
X108949333Y-109366666D01*
X108949333Y-109100000D01*
X108649333Y-109766666D02*
X108616000Y-109800000D01*
X108582666Y-109866666D01*
X108582666Y-110033333D01*
X108616000Y-110100000D01*
X108649333Y-110133333D01*
X108716000Y-110166666D01*
X108782666Y-110166666D01*
X108882666Y-110133333D01*
X109282666Y-109733333D01*
X109282666Y-110166666D01*
X108582666Y-110600000D02*
X108582666Y-110666666D01*
X108616000Y-110733333D01*
X108649333Y-110766666D01*
X108716000Y-110800000D01*
X108849333Y-110833333D01*
X109016000Y-110833333D01*
X109149333Y-110800000D01*
X109216000Y-110766666D01*
X109249333Y-110733333D01*
X109282666Y-110666666D01*
X109282666Y-110600000D01*
X109249333Y-110533333D01*
X109216000Y-110500000D01*
X109149333Y-110466666D01*
X109016000Y-110433333D01*
X108849333Y-110433333D01*
X108716000Y-110466666D01*
X108649333Y-110500000D01*
X108616000Y-110533333D01*
X108582666Y-110600000D01*
D10*
%TO.C,R11*%
X82880380Y-109116666D02*
X82880380Y-108545238D01*
X82880380Y-108830952D02*
X81880380Y-108830952D01*
X82023238Y-108735714D01*
X82118476Y-108640476D01*
X82166095Y-108545238D01*
X82785142Y-109545238D02*
X82832761Y-109592857D01*
X82880380Y-109545238D01*
X82832761Y-109497619D01*
X82785142Y-109545238D01*
X82880380Y-109545238D01*
X81880380Y-109926190D02*
X81880380Y-110592857D01*
X82880380Y-110164285D01*
X82880380Y-110973809D02*
X81880380Y-110973809D01*
X82499428Y-111069047D02*
X82880380Y-111354761D01*
X82213714Y-111354761D02*
X82594666Y-110973809D01*
D11*
X84644666Y-109500000D02*
X84311333Y-109266666D01*
X84644666Y-109100000D02*
X83944666Y-109100000D01*
X83944666Y-109366666D01*
X83978000Y-109433333D01*
X84011333Y-109466666D01*
X84078000Y-109500000D01*
X84178000Y-109500000D01*
X84244666Y-109466666D01*
X84278000Y-109433333D01*
X84311333Y-109366666D01*
X84311333Y-109100000D01*
X84644666Y-110166666D02*
X84644666Y-109766666D01*
X84644666Y-109966666D02*
X83944666Y-109966666D01*
X84044666Y-109900000D01*
X84111333Y-109833333D01*
X84144666Y-109766666D01*
X84644666Y-110833333D02*
X84644666Y-110433333D01*
X84644666Y-110633333D02*
X83944666Y-110633333D01*
X84044666Y-110566666D01*
X84111333Y-110500000D01*
X84144666Y-110433333D01*
D12*
%TO.C,D5*%
X102868980Y-88689440D02*
X102868980Y-89591140D01*
X102868980Y-88689440D02*
X103669080Y-87538820D01*
X103669080Y-88689440D02*
X102068880Y-88689440D01*
X104170000Y-85440000D02*
X104170000Y-90640000D01*
X102868980Y-88689440D02*
X102119680Y-87538820D01*
X101570000Y-90640000D02*
X101570000Y-85440000D01*
X104170000Y-90640000D02*
X101570000Y-90640000D01*
X102868980Y-87538820D02*
X102868980Y-86540600D01*
X101570000Y-85440000D02*
X104170000Y-85440000D01*
X102119680Y-87538820D02*
X103669080Y-87538820D01*
%TO.C,D6*%
X94772000Y-85440000D02*
X94772000Y-90640000D01*
X93470980Y-88689440D02*
X94271080Y-87538820D01*
X92172000Y-90640000D02*
X92172000Y-85440000D01*
X94271080Y-88689440D02*
X92670880Y-88689440D01*
X93470980Y-88689440D02*
X93470980Y-89591140D01*
X93470980Y-87538820D02*
X93470980Y-86540600D01*
X93470980Y-88689440D02*
X92721680Y-87538820D01*
X92172000Y-85440000D02*
X94772000Y-85440000D01*
X94772000Y-90640000D02*
X92172000Y-90640000D01*
X92721680Y-87538820D02*
X94271080Y-87538820D01*
%TO.C,D8*%
X83056980Y-88689440D02*
X83056980Y-89591140D01*
X83857080Y-88689440D02*
X82256880Y-88689440D01*
X83056980Y-87538820D02*
X83056980Y-86540600D01*
X83056980Y-88689440D02*
X82307680Y-87538820D01*
X81758000Y-85440000D02*
X84358000Y-85440000D01*
X82307680Y-87538820D02*
X83857080Y-87538820D01*
X84358000Y-85440000D02*
X84358000Y-90640000D01*
X83056980Y-88689440D02*
X83857080Y-87538820D01*
X84358000Y-90640000D02*
X81758000Y-90640000D01*
X81758000Y-90640000D02*
X81758000Y-85440000D01*
%TO.C,D9*%
X75662000Y-90640000D02*
X75662000Y-85440000D01*
X76960980Y-88689440D02*
X76960980Y-89591140D01*
X76960980Y-88689440D02*
X77761080Y-87538820D01*
X76960980Y-88689440D02*
X76211680Y-87538820D01*
X77761080Y-88689440D02*
X76160880Y-88689440D01*
X78262000Y-85440000D02*
X78262000Y-90640000D01*
X76211680Y-87538820D02*
X77761080Y-87538820D01*
X76960980Y-87538820D02*
X76960980Y-86540600D01*
X75662000Y-85440000D02*
X78262000Y-85440000D01*
X78262000Y-90640000D02*
X75662000Y-90640000D01*
%TO.C,D10*%
X113803680Y-87538820D02*
X115353080Y-87538820D01*
X113254000Y-85440000D02*
X115854000Y-85440000D01*
X114552980Y-88689440D02*
X113803680Y-87538820D01*
X114552980Y-88689440D02*
X114552980Y-89591140D01*
X114552980Y-87538820D02*
X114552980Y-86540600D01*
X115854000Y-85440000D02*
X115854000Y-90640000D01*
X115353080Y-88689440D02*
X113752880Y-88689440D01*
X114552980Y-88689440D02*
X115353080Y-87538820D01*
X115854000Y-90640000D02*
X113254000Y-90640000D01*
X113254000Y-90640000D02*
X113254000Y-85440000D01*
%TO.C,D11*%
X89946000Y-90640000D02*
X87346000Y-90640000D01*
X87346000Y-85440000D02*
X89946000Y-85440000D01*
X89946000Y-85440000D02*
X89946000Y-90640000D01*
X89445080Y-88689440D02*
X87844880Y-88689440D01*
X87895680Y-87538820D02*
X89445080Y-87538820D01*
X88644980Y-88689440D02*
X89445080Y-87538820D01*
X88644980Y-88689440D02*
X88644980Y-89591140D01*
X88644980Y-88689440D02*
X87895680Y-87538820D01*
X87346000Y-90640000D02*
X87346000Y-85440000D01*
X88644980Y-87538820D02*
X88644980Y-86540600D01*
%TO.C,D12*%
X110266000Y-90640000D02*
X107666000Y-90640000D01*
X108964980Y-88689440D02*
X108215680Y-87538820D01*
X108964980Y-88689440D02*
X109765080Y-87538820D01*
X107666000Y-90640000D02*
X107666000Y-85440000D01*
X110266000Y-85440000D02*
X110266000Y-90640000D01*
X108215680Y-87538820D02*
X109765080Y-87538820D01*
X109765080Y-88689440D02*
X108164880Y-88689440D01*
X108964980Y-87538820D02*
X108964980Y-86540600D01*
X108964980Y-88689440D02*
X108964980Y-89591140D01*
X107666000Y-85440000D02*
X110266000Y-85440000D01*
%TO.C,R7*%
X88938000Y-111550000D02*
X88938000Y-108350000D01*
X88938000Y-108350000D02*
X87338000Y-108350000D01*
X87338000Y-108350000D02*
X87338000Y-111550000D01*
X87338000Y-111550000D02*
X88938000Y-111550000D01*
%TO.C,R8*%
X97244000Y-83014000D02*
X97244000Y-86214000D01*
X98844000Y-83014000D02*
X97244000Y-83014000D01*
X98844000Y-86214000D02*
X98844000Y-83014000D01*
X97244000Y-86214000D02*
X98844000Y-86214000D01*
%TO.C,R9*%
X92494000Y-111550000D02*
X92494000Y-108350000D01*
X90894000Y-108350000D02*
X90894000Y-111550000D01*
X92494000Y-108350000D02*
X90894000Y-108350000D01*
X90894000Y-111550000D02*
X92494000Y-111550000D01*
%TO.C,R10*%
X92926000Y-99930000D02*
X94526000Y-99930000D01*
X94526000Y-99930000D02*
X94526000Y-96730000D01*
X92926000Y-96730000D02*
X92926000Y-99930000D01*
X94526000Y-96730000D02*
X92926000Y-96730000D01*
%TO.C,R12*%
X90716000Y-99930000D02*
X90716000Y-96730000D01*
X89116000Y-96730000D02*
X89116000Y-99930000D01*
X89116000Y-99930000D02*
X90716000Y-99930000D01*
X90716000Y-96730000D02*
X89116000Y-96730000D01*
%TO.C,R13*%
X75476000Y-99898000D02*
X75476000Y-96698000D01*
X75476000Y-96698000D02*
X73876000Y-96698000D01*
X73876000Y-96698000D02*
X73876000Y-99898000D01*
X73876000Y-99898000D02*
X75476000Y-99898000D01*
%TO.C,R14*%
X78956000Y-99898000D02*
X80556000Y-99898000D01*
X80556000Y-99898000D02*
X80556000Y-96698000D01*
X78956000Y-96698000D02*
X78956000Y-99898000D01*
X80556000Y-96698000D02*
X78956000Y-96698000D01*
%TO.C,R15*%
X117056000Y-112122000D02*
X118656000Y-112122000D01*
X117056000Y-108922000D02*
X117056000Y-112122000D01*
X118656000Y-108922000D02*
X117056000Y-108922000D01*
X118656000Y-112122000D02*
X118656000Y-108922000D01*
%TO.C,R16*%
X122466000Y-112058000D02*
X122466000Y-108858000D01*
X120866000Y-108858000D02*
X120866000Y-112058000D01*
X122466000Y-108858000D02*
X120866000Y-108858000D01*
X120866000Y-112058000D02*
X122466000Y-112058000D01*
%TO.C,R17*%
X81318000Y-108382000D02*
X79718000Y-108382000D01*
X81318000Y-111582000D02*
X81318000Y-108382000D01*
X79718000Y-108382000D02*
X79718000Y-111582000D01*
X79718000Y-111582000D02*
X81318000Y-111582000D01*
%TO.C,R18*%
X84036000Y-96698000D02*
X84036000Y-99898000D01*
X85636000Y-99898000D02*
X85636000Y-96698000D01*
X84036000Y-99898000D02*
X85636000Y-99898000D01*
X85636000Y-96698000D02*
X84036000Y-96698000D01*
%TO.C,R19*%
X111468000Y-108350000D02*
X111468000Y-111550000D01*
X113068000Y-108350000D02*
X111468000Y-108350000D01*
X111468000Y-111550000D02*
X113068000Y-111550000D01*
X113068000Y-111550000D02*
X113068000Y-108350000D01*
%TO.C,R20*%
X109766000Y-111550000D02*
X109766000Y-108350000D01*
X108166000Y-108350000D02*
X108166000Y-111550000D01*
X109766000Y-108350000D02*
X108166000Y-108350000D01*
X108166000Y-111550000D02*
X109766000Y-111550000D01*
%TO.C,R11*%
X85128000Y-111550000D02*
X85128000Y-108350000D01*
X83528000Y-111550000D02*
X85128000Y-111550000D01*
X83528000Y-108350000D02*
X83528000Y-111550000D01*
X85128000Y-108350000D02*
X83528000Y-108350000D01*
%TD*%
M02*
