%TF.GenerationSoftware,KiCad,Pcbnew,(6.0.4)*%
%TF.CreationDate,2022-04-25T14:52:30+02:00*%
%TF.ProjectId,BoostController,426f6f73-7443-46f6-9e74-726f6c6c6572,rev?*%
%TF.SameCoordinates,Original*%
%TF.FileFunction,AssemblyDrawing,Top*%
%FSLAX46Y46*%
G04 Gerber Fmt 4.6, Leading zero omitted, Abs format (unit mm)*
G04 Created by KiCad (PCBNEW (6.0.4)) date 2022-04-25 14:52:30*
%MOMM*%
%LPD*%
G01*
G04 APERTURE LIST*
%ADD10C,0.150000*%
%ADD11C,0.120000*%
%ADD12C,0.050000*%
%ADD13C,0.100000*%
G04 APERTURE END LIST*
D10*
%TO.C,J7*%
X133342285Y-84824380D02*
X133342285Y-83824380D01*
X133723238Y-83824380D01*
X133818476Y-83872000D01*
X133866095Y-83919619D01*
X133913714Y-84014857D01*
X133913714Y-84157714D01*
X133866095Y-84252952D01*
X133818476Y-84300571D01*
X133723238Y-84348190D01*
X133342285Y-84348190D01*
X134913714Y-84824380D02*
X134580380Y-84348190D01*
X134342285Y-84824380D02*
X134342285Y-83824380D01*
X134723238Y-83824380D01*
X134818476Y-83872000D01*
X134866095Y-83919619D01*
X134913714Y-84014857D01*
X134913714Y-84157714D01*
X134866095Y-84252952D01*
X134818476Y-84300571D01*
X134723238Y-84348190D01*
X134342285Y-84348190D01*
X135532761Y-83824380D02*
X135723238Y-83824380D01*
X135818476Y-83872000D01*
X135913714Y-83967238D01*
X135961333Y-84157714D01*
X135961333Y-84491047D01*
X135913714Y-84681523D01*
X135818476Y-84776761D01*
X135723238Y-84824380D01*
X135532761Y-84824380D01*
X135437523Y-84776761D01*
X135342285Y-84681523D01*
X135294666Y-84491047D01*
X135294666Y-84157714D01*
X135342285Y-83967238D01*
X135437523Y-83872000D01*
X135532761Y-83824380D01*
X136913714Y-83872000D02*
X136818476Y-83824380D01*
X136675619Y-83824380D01*
X136532761Y-83872000D01*
X136437523Y-83967238D01*
X136389904Y-84062476D01*
X136342285Y-84252952D01*
X136342285Y-84395809D01*
X136389904Y-84586285D01*
X136437523Y-84681523D01*
X136532761Y-84776761D01*
X136675619Y-84824380D01*
X136770857Y-84824380D01*
X136913714Y-84776761D01*
X136961333Y-84729142D01*
X136961333Y-84395809D01*
X136770857Y-84395809D01*
X134580380Y-78565333D02*
X135294666Y-78565333D01*
X135437523Y-78612952D01*
X135532761Y-78708190D01*
X135580380Y-78851047D01*
X135580380Y-78946285D01*
X134580380Y-78184380D02*
X134580380Y-77517714D01*
X135580380Y-77946285D01*
%TO.C,Q2*%
X104378380Y-101686952D02*
X103378380Y-101686952D01*
X104378380Y-100639333D02*
X103902190Y-100972666D01*
X104378380Y-101210761D02*
X103378380Y-101210761D01*
X103378380Y-100829809D01*
X103426000Y-100734571D01*
X103473619Y-100686952D01*
X103568857Y-100639333D01*
X103711714Y-100639333D01*
X103806952Y-100686952D01*
X103854571Y-100734571D01*
X103902190Y-100829809D01*
X103902190Y-101210761D01*
X103854571Y-99877428D02*
X103854571Y-100210761D01*
X104378380Y-100210761D02*
X103378380Y-100210761D01*
X103378380Y-99734571D01*
X103378380Y-98877428D02*
X103378380Y-99353619D01*
X103854571Y-99401238D01*
X103806952Y-99353619D01*
X103759333Y-99258380D01*
X103759333Y-99020285D01*
X103806952Y-98925047D01*
X103854571Y-98877428D01*
X103949809Y-98829809D01*
X104187904Y-98829809D01*
X104283142Y-98877428D01*
X104330761Y-98925047D01*
X104378380Y-99020285D01*
X104378380Y-99258380D01*
X104330761Y-99353619D01*
X104283142Y-99401238D01*
X103711714Y-97972666D02*
X104378380Y-97972666D01*
X103330761Y-98210761D02*
X104045047Y-98448857D01*
X104045047Y-97829809D01*
X103378380Y-97258380D02*
X103378380Y-97163142D01*
X103426000Y-97067904D01*
X103473619Y-97020285D01*
X103568857Y-96972666D01*
X103759333Y-96925047D01*
X103997428Y-96925047D01*
X104187904Y-96972666D01*
X104283142Y-97020285D01*
X104330761Y-97067904D01*
X104378380Y-97163142D01*
X104378380Y-97258380D01*
X104330761Y-97353619D01*
X104283142Y-97401238D01*
X104187904Y-97448857D01*
X103997428Y-97496476D01*
X103759333Y-97496476D01*
X103568857Y-97448857D01*
X103473619Y-97401238D01*
X103426000Y-97353619D01*
X103378380Y-97258380D01*
X104378380Y-96496476D02*
X103378380Y-96496476D01*
X104378380Y-95925047D01*
X103378380Y-95925047D01*
X111243619Y-98901238D02*
X111196000Y-98996476D01*
X111100761Y-99091714D01*
X110957904Y-99234571D01*
X110910285Y-99329809D01*
X110910285Y-99425047D01*
X111148380Y-99377428D02*
X111100761Y-99472666D01*
X111005523Y-99567904D01*
X110815047Y-99615523D01*
X110481714Y-99615523D01*
X110291238Y-99567904D01*
X110196000Y-99472666D01*
X110148380Y-99377428D01*
X110148380Y-99186952D01*
X110196000Y-99091714D01*
X110291238Y-98996476D01*
X110481714Y-98948857D01*
X110815047Y-98948857D01*
X111005523Y-98996476D01*
X111100761Y-99091714D01*
X111148380Y-99186952D01*
X111148380Y-99377428D01*
X110243619Y-98567904D02*
X110196000Y-98520285D01*
X110148380Y-98425047D01*
X110148380Y-98186952D01*
X110196000Y-98091714D01*
X110243619Y-98044095D01*
X110338857Y-97996476D01*
X110434095Y-97996476D01*
X110576952Y-98044095D01*
X111148380Y-98615523D01*
X111148380Y-97996476D01*
%TO.C,Q1*%
X97266380Y-101686952D02*
X96266380Y-101686952D01*
X97266380Y-100639333D02*
X96790190Y-100972666D01*
X97266380Y-101210761D02*
X96266380Y-101210761D01*
X96266380Y-100829809D01*
X96314000Y-100734571D01*
X96361619Y-100686952D01*
X96456857Y-100639333D01*
X96599714Y-100639333D01*
X96694952Y-100686952D01*
X96742571Y-100734571D01*
X96790190Y-100829809D01*
X96790190Y-101210761D01*
X96742571Y-99877428D02*
X96742571Y-100210761D01*
X97266380Y-100210761D02*
X96266380Y-100210761D01*
X96266380Y-99734571D01*
X96266380Y-98877428D02*
X96266380Y-99353619D01*
X96742571Y-99401238D01*
X96694952Y-99353619D01*
X96647333Y-99258380D01*
X96647333Y-99020285D01*
X96694952Y-98925047D01*
X96742571Y-98877428D01*
X96837809Y-98829809D01*
X97075904Y-98829809D01*
X97171142Y-98877428D01*
X97218761Y-98925047D01*
X97266380Y-99020285D01*
X97266380Y-99258380D01*
X97218761Y-99353619D01*
X97171142Y-99401238D01*
X96599714Y-97972666D02*
X97266380Y-97972666D01*
X96218761Y-98210761D02*
X96933047Y-98448857D01*
X96933047Y-97829809D01*
X96266380Y-97258380D02*
X96266380Y-97163142D01*
X96314000Y-97067904D01*
X96361619Y-97020285D01*
X96456857Y-96972666D01*
X96647333Y-96925047D01*
X96885428Y-96925047D01*
X97075904Y-96972666D01*
X97171142Y-97020285D01*
X97218761Y-97067904D01*
X97266380Y-97163142D01*
X97266380Y-97258380D01*
X97218761Y-97353619D01*
X97171142Y-97401238D01*
X97075904Y-97448857D01*
X96885428Y-97496476D01*
X96647333Y-97496476D01*
X96456857Y-97448857D01*
X96361619Y-97401238D01*
X96314000Y-97353619D01*
X96266380Y-97258380D01*
X97266380Y-96496476D02*
X96266380Y-96496476D01*
X97266380Y-95925047D01*
X96266380Y-95925047D01*
X104131619Y-98901238D02*
X104084000Y-98996476D01*
X103988761Y-99091714D01*
X103845904Y-99234571D01*
X103798285Y-99329809D01*
X103798285Y-99425047D01*
X104036380Y-99377428D02*
X103988761Y-99472666D01*
X103893523Y-99567904D01*
X103703047Y-99615523D01*
X103369714Y-99615523D01*
X103179238Y-99567904D01*
X103084000Y-99472666D01*
X103036380Y-99377428D01*
X103036380Y-99186952D01*
X103084000Y-99091714D01*
X103179238Y-98996476D01*
X103369714Y-98948857D01*
X103703047Y-98948857D01*
X103893523Y-98996476D01*
X103988761Y-99091714D01*
X104036380Y-99186952D01*
X104036380Y-99377428D01*
X104036380Y-97996476D02*
X104036380Y-98567904D01*
X104036380Y-98282190D02*
X103036380Y-98282190D01*
X103179238Y-98377428D01*
X103274476Y-98472666D01*
X103322095Y-98567904D01*
%TO.C,J5*%
X129619142Y-125743142D02*
X129571523Y-125790761D01*
X129428666Y-125838380D01*
X129333428Y-125838380D01*
X129190571Y-125790761D01*
X129095333Y-125695523D01*
X129047714Y-125600285D01*
X129000095Y-125409809D01*
X129000095Y-125266952D01*
X129047714Y-125076476D01*
X129095333Y-124981238D01*
X129190571Y-124886000D01*
X129333428Y-124838380D01*
X129428666Y-124838380D01*
X129571523Y-124886000D01*
X129619142Y-124933619D01*
X130000095Y-125552666D02*
X130476285Y-125552666D01*
X129904857Y-125838380D02*
X130238190Y-124838380D01*
X130571523Y-125838380D01*
X130904857Y-125838380D02*
X130904857Y-124838380D01*
X131476285Y-125838380D01*
X131476285Y-124838380D01*
X129928666Y-117888380D02*
X129928666Y-118602666D01*
X129881047Y-118745523D01*
X129785809Y-118840761D01*
X129642952Y-118888380D01*
X129547714Y-118888380D01*
X130881047Y-117888380D02*
X130404857Y-117888380D01*
X130357238Y-118364571D01*
X130404857Y-118316952D01*
X130500095Y-118269333D01*
X130738190Y-118269333D01*
X130833428Y-118316952D01*
X130881047Y-118364571D01*
X130928666Y-118459809D01*
X130928666Y-118697904D01*
X130881047Y-118793142D01*
X130833428Y-118840761D01*
X130738190Y-118888380D01*
X130500095Y-118888380D01*
X130404857Y-118840761D01*
X130357238Y-118793142D01*
%TO.C,J4*%
X112287904Y-125838380D02*
X112287904Y-124838380D01*
X112621238Y-125552666D01*
X112954571Y-124838380D01*
X112954571Y-125838380D01*
X113383142Y-125552666D02*
X113859333Y-125552666D01*
X113287904Y-125838380D02*
X113621238Y-124838380D01*
X113954571Y-125838380D01*
X114287904Y-125838380D02*
X114287904Y-124838380D01*
X114668857Y-124838380D01*
X114764095Y-124886000D01*
X114811714Y-124933619D01*
X114859333Y-125028857D01*
X114859333Y-125171714D01*
X114811714Y-125266952D01*
X114764095Y-125314571D01*
X114668857Y-125362190D01*
X114287904Y-125362190D01*
X115287904Y-125457428D02*
X116049809Y-125457428D01*
X116859333Y-125314571D02*
X116526000Y-125314571D01*
X116526000Y-125838380D02*
X116526000Y-124838380D01*
X117002190Y-124838380D01*
X117383142Y-125838380D02*
X117383142Y-124838380D01*
X117764095Y-124838380D01*
X117859333Y-124886000D01*
X117906952Y-124933619D01*
X117954571Y-125028857D01*
X117954571Y-125171714D01*
X117906952Y-125266952D01*
X117859333Y-125314571D01*
X117764095Y-125362190D01*
X117383142Y-125362190D01*
X118954571Y-125838380D02*
X118621238Y-125362190D01*
X118383142Y-125838380D02*
X118383142Y-124838380D01*
X118764095Y-124838380D01*
X118859333Y-124886000D01*
X118906952Y-124933619D01*
X118954571Y-125028857D01*
X118954571Y-125171714D01*
X118906952Y-125266952D01*
X118859333Y-125314571D01*
X118764095Y-125362190D01*
X118383142Y-125362190D01*
X119383142Y-125314571D02*
X119716476Y-125314571D01*
X119859333Y-125838380D02*
X119383142Y-125838380D01*
X119383142Y-124838380D01*
X119859333Y-124838380D01*
X120240285Y-125790761D02*
X120383142Y-125838380D01*
X120621238Y-125838380D01*
X120716476Y-125790761D01*
X120764095Y-125743142D01*
X120811714Y-125647904D01*
X120811714Y-125552666D01*
X120764095Y-125457428D01*
X120716476Y-125409809D01*
X120621238Y-125362190D01*
X120430761Y-125314571D01*
X120335523Y-125266952D01*
X120287904Y-125219333D01*
X120240285Y-125124095D01*
X120240285Y-125028857D01*
X120287904Y-124933619D01*
X120335523Y-124886000D01*
X120430761Y-124838380D01*
X120668857Y-124838380D01*
X120811714Y-124886000D01*
X116192666Y-117888380D02*
X116192666Y-118602666D01*
X116145047Y-118745523D01*
X116049809Y-118840761D01*
X115906952Y-118888380D01*
X115811714Y-118888380D01*
X117097428Y-118221714D02*
X117097428Y-118888380D01*
X116859333Y-117840761D02*
X116621238Y-118555047D01*
X117240285Y-118555047D01*
%TO.C,J3*%
X98758571Y-124838380D02*
X98996666Y-125838380D01*
X99187142Y-125124095D01*
X99377619Y-125838380D01*
X99615714Y-124838380D01*
X100520476Y-124886000D02*
X100425238Y-124838380D01*
X100282380Y-124838380D01*
X100139523Y-124886000D01*
X100044285Y-124981238D01*
X99996666Y-125076476D01*
X99949047Y-125266952D01*
X99949047Y-125409809D01*
X99996666Y-125600285D01*
X100044285Y-125695523D01*
X100139523Y-125790761D01*
X100282380Y-125838380D01*
X100377619Y-125838380D01*
X100520476Y-125790761D01*
X100568095Y-125743142D01*
X100568095Y-125409809D01*
X100377619Y-125409809D01*
X100996666Y-125457428D02*
X101758571Y-125457428D01*
X102568095Y-125314571D02*
X102234761Y-125314571D01*
X102234761Y-125838380D02*
X102234761Y-124838380D01*
X102710952Y-124838380D01*
X103091904Y-125838380D02*
X103091904Y-124838380D01*
X103472857Y-124838380D01*
X103568095Y-124886000D01*
X103615714Y-124933619D01*
X103663333Y-125028857D01*
X103663333Y-125171714D01*
X103615714Y-125266952D01*
X103568095Y-125314571D01*
X103472857Y-125362190D01*
X103091904Y-125362190D01*
X104091904Y-124838380D02*
X104091904Y-125647904D01*
X104139523Y-125743142D01*
X104187142Y-125790761D01*
X104282380Y-125838380D01*
X104472857Y-125838380D01*
X104568095Y-125790761D01*
X104615714Y-125743142D01*
X104663333Y-125647904D01*
X104663333Y-124838380D01*
X105139523Y-125838380D02*
X105139523Y-124838380D01*
X105472857Y-125552666D01*
X105806190Y-124838380D01*
X105806190Y-125838380D01*
X106282380Y-125838380D02*
X106282380Y-124838380D01*
X106663333Y-124838380D01*
X106758571Y-124886000D01*
X106806190Y-124933619D01*
X106853809Y-125028857D01*
X106853809Y-125171714D01*
X106806190Y-125266952D01*
X106758571Y-125314571D01*
X106663333Y-125362190D01*
X106282380Y-125362190D01*
X102496666Y-117888380D02*
X102496666Y-118602666D01*
X102449047Y-118745523D01*
X102353809Y-118840761D01*
X102210952Y-118888380D01*
X102115714Y-118888380D01*
X102877619Y-117888380D02*
X103496666Y-117888380D01*
X103163333Y-118269333D01*
X103306190Y-118269333D01*
X103401428Y-118316952D01*
X103449047Y-118364571D01*
X103496666Y-118459809D01*
X103496666Y-118697904D01*
X103449047Y-118793142D01*
X103401428Y-118840761D01*
X103306190Y-118888380D01*
X103020476Y-118888380D01*
X102925238Y-118840761D01*
X102877619Y-118793142D01*
%TO.C,J2*%
X82137333Y-124838380D02*
X82327809Y-124838380D01*
X82423047Y-124886000D01*
X82518285Y-124981238D01*
X82565904Y-125171714D01*
X82565904Y-125505047D01*
X82518285Y-125695523D01*
X82423047Y-125790761D01*
X82327809Y-125838380D01*
X82137333Y-125838380D01*
X82042095Y-125790761D01*
X81946857Y-125695523D01*
X81899238Y-125505047D01*
X81899238Y-125171714D01*
X81946857Y-124981238D01*
X82042095Y-124886000D01*
X82137333Y-124838380D01*
X82994476Y-125838380D02*
X82994476Y-124838380D01*
X83946857Y-125838380D02*
X83470666Y-125838380D01*
X83470666Y-124838380D01*
X84280190Y-125457428D02*
X85042095Y-125457428D01*
X85423047Y-124838380D02*
X85661142Y-125838380D01*
X85851619Y-125124095D01*
X86042095Y-125838380D01*
X86280190Y-124838380D01*
X86613523Y-125552666D02*
X87089714Y-125552666D01*
X86518285Y-125838380D02*
X86851619Y-124838380D01*
X87184952Y-125838380D01*
X87375428Y-124838380D02*
X87946857Y-124838380D01*
X87661142Y-125838380D02*
X87661142Y-124838380D01*
X88280190Y-125314571D02*
X88613523Y-125314571D01*
X88756380Y-125838380D02*
X88280190Y-125838380D01*
X88280190Y-124838380D01*
X88756380Y-124838380D01*
X89756380Y-125838380D02*
X89423047Y-125362190D01*
X89184952Y-125838380D02*
X89184952Y-124838380D01*
X89565904Y-124838380D01*
X89661142Y-124886000D01*
X89708761Y-124933619D01*
X89756380Y-125028857D01*
X89756380Y-125171714D01*
X89708761Y-125266952D01*
X89661142Y-125314571D01*
X89565904Y-125362190D01*
X89184952Y-125362190D01*
X90184952Y-125457428D02*
X90946857Y-125457428D01*
X91375428Y-125552666D02*
X91851619Y-125552666D01*
X91280190Y-125838380D02*
X91613523Y-124838380D01*
X91946857Y-125838380D01*
X92613523Y-125314571D02*
X92280190Y-125314571D01*
X92280190Y-125838380D02*
X92280190Y-124838380D01*
X92756380Y-124838380D01*
X93708761Y-125838380D02*
X93375428Y-125362190D01*
X93137333Y-125838380D02*
X93137333Y-124838380D01*
X93518285Y-124838380D01*
X93613523Y-124886000D01*
X93661142Y-124933619D01*
X93708761Y-125028857D01*
X93708761Y-125171714D01*
X93661142Y-125266952D01*
X93613523Y-125314571D01*
X93518285Y-125362190D01*
X93137333Y-125362190D01*
X87470666Y-117888380D02*
X87470666Y-118602666D01*
X87423047Y-118745523D01*
X87327809Y-118840761D01*
X87184952Y-118888380D01*
X87089714Y-118888380D01*
X87899238Y-117983619D02*
X87946857Y-117936000D01*
X88042095Y-117888380D01*
X88280190Y-117888380D01*
X88375428Y-117936000D01*
X88423047Y-117983619D01*
X88470666Y-118078857D01*
X88470666Y-118174095D01*
X88423047Y-118316952D01*
X87851619Y-118888380D01*
X88470666Y-118888380D01*
%TO.C,J1*%
X62928761Y-125838380D02*
X62928761Y-124838380D01*
X63309714Y-124838380D01*
X63404952Y-124886000D01*
X63452571Y-124933619D01*
X63500190Y-125028857D01*
X63500190Y-125171714D01*
X63452571Y-125266952D01*
X63404952Y-125314571D01*
X63309714Y-125362190D01*
X62928761Y-125362190D01*
X63833523Y-124838380D02*
X64071619Y-125838380D01*
X64262095Y-125124095D01*
X64452571Y-125838380D01*
X64690666Y-124838380D01*
X65071619Y-125457428D02*
X65833523Y-125457428D01*
X66881142Y-125838380D02*
X66547809Y-125362190D01*
X66309714Y-125838380D02*
X66309714Y-124838380D01*
X66690666Y-124838380D01*
X66785904Y-124886000D01*
X66833523Y-124933619D01*
X66881142Y-125028857D01*
X66881142Y-125171714D01*
X66833523Y-125266952D01*
X66785904Y-125314571D01*
X66690666Y-125362190D01*
X66309714Y-125362190D01*
X67309714Y-125838380D02*
X67309714Y-124838380D01*
X67690666Y-124838380D01*
X67785904Y-124886000D01*
X67833523Y-124933619D01*
X67881142Y-125028857D01*
X67881142Y-125171714D01*
X67833523Y-125266952D01*
X67785904Y-125314571D01*
X67690666Y-125362190D01*
X67309714Y-125362190D01*
X68309714Y-125838380D02*
X68309714Y-124838380D01*
X68643047Y-125552666D01*
X68976380Y-124838380D01*
X68976380Y-125838380D01*
X69452571Y-125457428D02*
X70214476Y-125457428D01*
X70643047Y-125790761D02*
X70785904Y-125838380D01*
X71024000Y-125838380D01*
X71119238Y-125790761D01*
X71166857Y-125743142D01*
X71214476Y-125647904D01*
X71214476Y-125552666D01*
X71166857Y-125457428D01*
X71119238Y-125409809D01*
X71024000Y-125362190D01*
X70833523Y-125314571D01*
X70738285Y-125266952D01*
X70690666Y-125219333D01*
X70643047Y-125124095D01*
X70643047Y-125028857D01*
X70690666Y-124933619D01*
X70738285Y-124886000D01*
X70833523Y-124838380D01*
X71071619Y-124838380D01*
X71214476Y-124886000D01*
X71643047Y-125838380D02*
X71643047Y-124838380D01*
X72024000Y-124838380D01*
X72119238Y-124886000D01*
X72166857Y-124933619D01*
X72214476Y-125028857D01*
X72214476Y-125171714D01*
X72166857Y-125266952D01*
X72119238Y-125314571D01*
X72024000Y-125362190D01*
X71643047Y-125362190D01*
X72643047Y-125838380D02*
X72643047Y-124838380D01*
X72881142Y-124838380D01*
X73024000Y-124886000D01*
X73119238Y-124981238D01*
X73166857Y-125076476D01*
X73214476Y-125266952D01*
X73214476Y-125409809D01*
X73166857Y-125600285D01*
X73119238Y-125695523D01*
X73024000Y-125790761D01*
X72881142Y-125838380D01*
X72643047Y-125838380D01*
X73643047Y-125457428D02*
X74404952Y-125457428D01*
X74738285Y-124838380D02*
X75309714Y-124838380D01*
X75024000Y-125838380D02*
X75024000Y-124838380D01*
X75643047Y-125838380D02*
X75643047Y-124838380D01*
X76024000Y-124838380D01*
X76119238Y-124886000D01*
X76166857Y-124933619D01*
X76214476Y-125028857D01*
X76214476Y-125171714D01*
X76166857Y-125266952D01*
X76119238Y-125314571D01*
X76024000Y-125362190D01*
X75643047Y-125362190D01*
X76595428Y-125790761D02*
X76738285Y-125838380D01*
X76976380Y-125838380D01*
X77071619Y-125790761D01*
X77119238Y-125743142D01*
X77166857Y-125647904D01*
X77166857Y-125552666D01*
X77119238Y-125457428D01*
X77071619Y-125409809D01*
X76976380Y-125362190D01*
X76785904Y-125314571D01*
X76690666Y-125266952D01*
X76643047Y-125219333D01*
X76595428Y-125124095D01*
X76595428Y-125028857D01*
X76643047Y-124933619D01*
X76690666Y-124886000D01*
X76785904Y-124838380D01*
X77024000Y-124838380D01*
X77166857Y-124886000D01*
X69690666Y-117888380D02*
X69690666Y-118602666D01*
X69643047Y-118745523D01*
X69547809Y-118840761D01*
X69404952Y-118888380D01*
X69309714Y-118888380D01*
X70690666Y-118888380D02*
X70119238Y-118888380D01*
X70404952Y-118888380D02*
X70404952Y-117888380D01*
X70309714Y-118031238D01*
X70214476Y-118126476D01*
X70119238Y-118174095D01*
%TO.C,D2*%
X64611619Y-111423015D02*
X65183047Y-111423015D01*
X64897333Y-112423015D02*
X64897333Y-111423015D01*
X65373523Y-111423015D02*
X65706857Y-112423015D01*
X66040190Y-111423015D01*
X66325904Y-112375396D02*
X66468761Y-112423015D01*
X66706857Y-112423015D01*
X66802095Y-112375396D01*
X66849714Y-112327777D01*
X66897333Y-112232539D01*
X66897333Y-112137301D01*
X66849714Y-112042063D01*
X66802095Y-111994444D01*
X66706857Y-111946825D01*
X66516380Y-111899206D01*
X66421142Y-111851587D01*
X66373523Y-111803968D01*
X66325904Y-111708730D01*
X66325904Y-111613492D01*
X66373523Y-111518254D01*
X66421142Y-111470635D01*
X66516380Y-111423015D01*
X66754476Y-111423015D01*
X66897333Y-111470635D01*
X68611619Y-112423015D02*
X68040190Y-112423015D01*
X68325904Y-112423015D02*
X68325904Y-111423015D01*
X68230666Y-111565873D01*
X68135428Y-111661111D01*
X68040190Y-111708730D01*
X69183047Y-111851587D02*
X69087809Y-111803968D01*
X69040190Y-111756349D01*
X68992571Y-111661111D01*
X68992571Y-111613492D01*
X69040190Y-111518254D01*
X69087809Y-111470635D01*
X69183047Y-111423015D01*
X69373523Y-111423015D01*
X69468761Y-111470635D01*
X69516380Y-111518254D01*
X69564000Y-111613492D01*
X69564000Y-111661111D01*
X69516380Y-111756349D01*
X69468761Y-111803968D01*
X69373523Y-111851587D01*
X69183047Y-111851587D01*
X69087809Y-111899206D01*
X69040190Y-111946825D01*
X68992571Y-112042063D01*
X68992571Y-112232539D01*
X69040190Y-112327777D01*
X69087809Y-112375396D01*
X69183047Y-112423015D01*
X69373523Y-112423015D01*
X69468761Y-112375396D01*
X69516380Y-112327777D01*
X69564000Y-112232539D01*
X69564000Y-112042063D01*
X69516380Y-111946825D01*
X69468761Y-111899206D01*
X69373523Y-111851587D01*
X69849714Y-111423015D02*
X70183047Y-112423015D01*
X70516380Y-111423015D01*
X68065904Y-110486666D02*
X68542095Y-110486666D01*
X67970666Y-110772380D02*
X68304000Y-109772380D01*
X68637333Y-110772380D01*
X66825904Y-106921745D02*
X66825904Y-105921745D01*
X67064000Y-105921745D01*
X67206857Y-105969365D01*
X67302095Y-106064603D01*
X67349714Y-106159841D01*
X67397333Y-106350317D01*
X67397333Y-106493174D01*
X67349714Y-106683650D01*
X67302095Y-106778888D01*
X67206857Y-106874126D01*
X67064000Y-106921745D01*
X66825904Y-106921745D01*
X67778285Y-106016984D02*
X67825904Y-105969365D01*
X67921142Y-105921745D01*
X68159238Y-105921745D01*
X68254476Y-105969365D01*
X68302095Y-106016984D01*
X68349714Y-106112222D01*
X68349714Y-106207460D01*
X68302095Y-106350317D01*
X67730666Y-106921745D01*
X68349714Y-106921745D01*
%TO.C,R6*%
X113270380Y-83209047D02*
X113270380Y-83780476D01*
X113270380Y-83494761D02*
X112270380Y-83494761D01*
X112413238Y-83590000D01*
X112508476Y-83685238D01*
X112556095Y-83780476D01*
X113270380Y-82780476D02*
X112270380Y-82780476D01*
X112889428Y-82685238D02*
X113270380Y-82399523D01*
X112603714Y-82399523D02*
X112984666Y-82780476D01*
D11*
X111359904Y-83223333D02*
X110978952Y-83490000D01*
X111359904Y-83680476D02*
X110559904Y-83680476D01*
X110559904Y-83375714D01*
X110598000Y-83299523D01*
X110636095Y-83261428D01*
X110712285Y-83223333D01*
X110826571Y-83223333D01*
X110902761Y-83261428D01*
X110940857Y-83299523D01*
X110978952Y-83375714D01*
X110978952Y-83680476D01*
X110559904Y-82537619D02*
X110559904Y-82690000D01*
X110598000Y-82766190D01*
X110636095Y-82804285D01*
X110750380Y-82880476D01*
X110902761Y-82918571D01*
X111207523Y-82918571D01*
X111283714Y-82880476D01*
X111321809Y-82842380D01*
X111359904Y-82766190D01*
X111359904Y-82613809D01*
X111321809Y-82537619D01*
X111283714Y-82499523D01*
X111207523Y-82461428D01*
X111017047Y-82461428D01*
X110940857Y-82499523D01*
X110902761Y-82537619D01*
X110864666Y-82613809D01*
X110864666Y-82766190D01*
X110902761Y-82842380D01*
X110940857Y-82880476D01*
X111017047Y-82918571D01*
D10*
%TO.C,R5*%
X108190380Y-83209047D02*
X108190380Y-83780476D01*
X108190380Y-83494761D02*
X107190380Y-83494761D01*
X107333238Y-83590000D01*
X107428476Y-83685238D01*
X107476095Y-83780476D01*
X108190380Y-82780476D02*
X107190380Y-82780476D01*
X107809428Y-82685238D02*
X108190380Y-82399523D01*
X107523714Y-82399523D02*
X107904666Y-82780476D01*
D11*
X106279904Y-83223333D02*
X105898952Y-83490000D01*
X106279904Y-83680476D02*
X105479904Y-83680476D01*
X105479904Y-83375714D01*
X105518000Y-83299523D01*
X105556095Y-83261428D01*
X105632285Y-83223333D01*
X105746571Y-83223333D01*
X105822761Y-83261428D01*
X105860857Y-83299523D01*
X105898952Y-83375714D01*
X105898952Y-83680476D01*
X105479904Y-82499523D02*
X105479904Y-82880476D01*
X105860857Y-82918571D01*
X105822761Y-82880476D01*
X105784666Y-82804285D01*
X105784666Y-82613809D01*
X105822761Y-82537619D01*
X105860857Y-82499523D01*
X105937047Y-82461428D01*
X106127523Y-82461428D01*
X106203714Y-82499523D01*
X106241809Y-82537619D01*
X106279904Y-82613809D01*
X106279904Y-82804285D01*
X106241809Y-82880476D01*
X106203714Y-82918571D01*
D10*
%TO.C,R4*%
X103110380Y-83209047D02*
X103110380Y-83780476D01*
X103110380Y-83494761D02*
X102110380Y-83494761D01*
X102253238Y-83590000D01*
X102348476Y-83685238D01*
X102396095Y-83780476D01*
X103110380Y-82780476D02*
X102110380Y-82780476D01*
X102729428Y-82685238D02*
X103110380Y-82399523D01*
X102443714Y-82399523D02*
X102824666Y-82780476D01*
D11*
X101199904Y-83223333D02*
X100818952Y-83490000D01*
X101199904Y-83680476D02*
X100399904Y-83680476D01*
X100399904Y-83375714D01*
X100438000Y-83299523D01*
X100476095Y-83261428D01*
X100552285Y-83223333D01*
X100666571Y-83223333D01*
X100742761Y-83261428D01*
X100780857Y-83299523D01*
X100818952Y-83375714D01*
X100818952Y-83680476D01*
X100666571Y-82537619D02*
X101199904Y-82537619D01*
X100361809Y-82728095D02*
X100933238Y-82918571D01*
X100933238Y-82423333D01*
D10*
%TO.C,R3*%
X98284380Y-83209047D02*
X98284380Y-83780476D01*
X98284380Y-83494761D02*
X97284380Y-83494761D01*
X97427238Y-83590000D01*
X97522476Y-83685238D01*
X97570095Y-83780476D01*
X98284380Y-82780476D02*
X97284380Y-82780476D01*
X97903428Y-82685238D02*
X98284380Y-82399523D01*
X97617714Y-82399523D02*
X97998666Y-82780476D01*
D11*
X96373904Y-83223333D02*
X95992952Y-83490000D01*
X96373904Y-83680476D02*
X95573904Y-83680476D01*
X95573904Y-83375714D01*
X95612000Y-83299523D01*
X95650095Y-83261428D01*
X95726285Y-83223333D01*
X95840571Y-83223333D01*
X95916761Y-83261428D01*
X95954857Y-83299523D01*
X95992952Y-83375714D01*
X95992952Y-83680476D01*
X95573904Y-82956666D02*
X95573904Y-82461428D01*
X95878666Y-82728095D01*
X95878666Y-82613809D01*
X95916761Y-82537619D01*
X95954857Y-82499523D01*
X96031047Y-82461428D01*
X96221523Y-82461428D01*
X96297714Y-82499523D01*
X96335809Y-82537619D01*
X96373904Y-82613809D01*
X96373904Y-82842380D01*
X96335809Y-82918571D01*
X96297714Y-82956666D01*
D10*
%TO.C,R2*%
X86441714Y-96972571D02*
X87108380Y-96972571D01*
X86060761Y-97210666D02*
X86775047Y-97448761D01*
X86775047Y-96829714D01*
X87013142Y-96448761D02*
X87060761Y-96401142D01*
X87108380Y-96448761D01*
X87060761Y-96496380D01*
X87013142Y-96448761D01*
X87108380Y-96448761D01*
X86108380Y-96067809D02*
X86108380Y-95401142D01*
X87108380Y-95829714D01*
X87108380Y-95020190D02*
X86108380Y-95020190D01*
X86727428Y-94924952D02*
X87108380Y-94639238D01*
X86441714Y-94639238D02*
X86822666Y-95020190D01*
D11*
X85197904Y-96177333D02*
X84816952Y-96444000D01*
X85197904Y-96634476D02*
X84397904Y-96634476D01*
X84397904Y-96329714D01*
X84436000Y-96253523D01*
X84474095Y-96215428D01*
X84550285Y-96177333D01*
X84664571Y-96177333D01*
X84740761Y-96215428D01*
X84778857Y-96253523D01*
X84816952Y-96329714D01*
X84816952Y-96634476D01*
X84474095Y-95872571D02*
X84436000Y-95834476D01*
X84397904Y-95758285D01*
X84397904Y-95567809D01*
X84436000Y-95491619D01*
X84474095Y-95453523D01*
X84550285Y-95415428D01*
X84626476Y-95415428D01*
X84740761Y-95453523D01*
X85197904Y-95910666D01*
X85197904Y-95415428D01*
D10*
%TO.C,R1*%
X78229714Y-96972571D02*
X78896380Y-96972571D01*
X77848761Y-97210666D02*
X78563047Y-97448761D01*
X78563047Y-96829714D01*
X78801142Y-96448761D02*
X78848761Y-96401142D01*
X78896380Y-96448761D01*
X78848761Y-96496380D01*
X78801142Y-96448761D01*
X78896380Y-96448761D01*
X77896380Y-96067809D02*
X77896380Y-95401142D01*
X78896380Y-95829714D01*
X78896380Y-95020190D02*
X77896380Y-95020190D01*
X78515428Y-94924952D02*
X78896380Y-94639238D01*
X78229714Y-94639238D02*
X78610666Y-95020190D01*
D11*
X80625904Y-96177333D02*
X80244952Y-96444000D01*
X80625904Y-96634476D02*
X79825904Y-96634476D01*
X79825904Y-96329714D01*
X79864000Y-96253523D01*
X79902095Y-96215428D01*
X79978285Y-96177333D01*
X80092571Y-96177333D01*
X80168761Y-96215428D01*
X80206857Y-96253523D01*
X80244952Y-96329714D01*
X80244952Y-96634476D01*
X80625904Y-95415428D02*
X80625904Y-95872571D01*
X80625904Y-95644000D02*
X79825904Y-95644000D01*
X79940190Y-95720190D01*
X80016380Y-95796380D01*
X80054476Y-95872571D01*
D10*
%TO.C,D7*%
X82474380Y-87074190D02*
X82474380Y-86455142D01*
X82855333Y-86788476D01*
X82855333Y-86645619D01*
X82902952Y-86550380D01*
X82950571Y-86502761D01*
X83045809Y-86455142D01*
X83283904Y-86455142D01*
X83379142Y-86502761D01*
X83426761Y-86550380D01*
X83474380Y-86645619D01*
X83474380Y-86931333D01*
X83426761Y-87026571D01*
X83379142Y-87074190D01*
X83379142Y-86026571D02*
X83426761Y-85978952D01*
X83474380Y-86026571D01*
X83426761Y-86074190D01*
X83379142Y-86026571D01*
X83474380Y-86026571D01*
X82474380Y-85645619D02*
X82474380Y-85026571D01*
X82855333Y-85359904D01*
X82855333Y-85217047D01*
X82902952Y-85121809D01*
X82950571Y-85074190D01*
X83045809Y-85026571D01*
X83283904Y-85026571D01*
X83379142Y-85074190D01*
X83426761Y-85121809D01*
X83474380Y-85217047D01*
X83474380Y-85502761D01*
X83426761Y-85598000D01*
X83379142Y-85645619D01*
X82474380Y-84740857D02*
X83474380Y-84407523D01*
X82474380Y-84074190D01*
X78974380Y-86336095D02*
X77974380Y-86336095D01*
X77974380Y-86098000D01*
X78022000Y-85955142D01*
X78117238Y-85859904D01*
X78212476Y-85812285D01*
X78402952Y-85764666D01*
X78545809Y-85764666D01*
X78736285Y-85812285D01*
X78831523Y-85859904D01*
X78926761Y-85955142D01*
X78974380Y-86098000D01*
X78974380Y-86336095D01*
X77974380Y-85431333D02*
X77974380Y-84764666D01*
X78974380Y-85193238D01*
%TO.C,D4*%
X102349745Y-109986723D02*
X102349745Y-110558151D01*
X102349745Y-110272437D02*
X101349745Y-110272437D01*
X101492603Y-110367675D01*
X101587841Y-110462913D01*
X101635460Y-110558151D01*
X102349745Y-109558151D02*
X101349745Y-109558151D01*
X102349745Y-108986723D01*
X101349745Y-108986723D01*
X101683079Y-108081961D02*
X102349745Y-108081961D01*
X101302126Y-108320056D02*
X102016412Y-108558151D01*
X102016412Y-107939104D01*
X101349745Y-107367675D02*
X101349745Y-107272437D01*
X101397365Y-107177199D01*
X101444984Y-107129580D01*
X101540222Y-107081961D01*
X101730698Y-107034342D01*
X101968793Y-107034342D01*
X102159269Y-107081961D01*
X102254507Y-107129580D01*
X102302126Y-107177199D01*
X102349745Y-107272437D01*
X102349745Y-107367675D01*
X102302126Y-107462913D01*
X102254507Y-107510532D01*
X102159269Y-107558151D01*
X101968793Y-107605770D01*
X101730698Y-107605770D01*
X101540222Y-107558151D01*
X101444984Y-107510532D01*
X101397365Y-107462913D01*
X101349745Y-107367675D01*
X101349745Y-106415294D02*
X101349745Y-106320056D01*
X101397365Y-106224818D01*
X101444984Y-106177199D01*
X101540222Y-106129580D01*
X101730698Y-106081961D01*
X101968793Y-106081961D01*
X102159269Y-106129580D01*
X102254507Y-106177199D01*
X102302126Y-106224818D01*
X102349745Y-106320056D01*
X102349745Y-106415294D01*
X102302126Y-106510532D01*
X102254507Y-106558151D01*
X102159269Y-106605770D01*
X101968793Y-106653389D01*
X101730698Y-106653389D01*
X101540222Y-106605770D01*
X101444984Y-106558151D01*
X101397365Y-106510532D01*
X101349745Y-106415294D01*
X102349745Y-105129580D02*
X102349745Y-105701008D01*
X102349745Y-105415294D02*
X101349745Y-105415294D01*
X101492603Y-105510532D01*
X101587841Y-105605770D01*
X101635460Y-105701008D01*
X105703666Y-111451961D02*
X105703666Y-110975770D01*
X105989380Y-111547199D02*
X104989380Y-111213866D01*
X105989380Y-110880532D01*
X108740015Y-108581961D02*
X107740015Y-108581961D01*
X107740015Y-108343866D01*
X107787635Y-108201008D01*
X107882873Y-108105770D01*
X107978111Y-108058151D01*
X108168587Y-108010532D01*
X108311444Y-108010532D01*
X108501920Y-108058151D01*
X108597158Y-108105770D01*
X108692396Y-108201008D01*
X108740015Y-108343866D01*
X108740015Y-108581961D01*
X108073349Y-107153389D02*
X108740015Y-107153389D01*
X107692396Y-107391485D02*
X108406682Y-107629580D01*
X108406682Y-107010532D01*
%TO.C,D3*%
X97015745Y-109986723D02*
X97015745Y-110558151D01*
X97015745Y-110272437D02*
X96015745Y-110272437D01*
X96158603Y-110367675D01*
X96253841Y-110462913D01*
X96301460Y-110558151D01*
X97015745Y-109558151D02*
X96015745Y-109558151D01*
X97015745Y-108986723D01*
X96015745Y-108986723D01*
X96349079Y-108081961D02*
X97015745Y-108081961D01*
X95968126Y-108320056D02*
X96682412Y-108558151D01*
X96682412Y-107939104D01*
X96015745Y-107367675D02*
X96015745Y-107272437D01*
X96063365Y-107177199D01*
X96110984Y-107129580D01*
X96206222Y-107081961D01*
X96396698Y-107034342D01*
X96634793Y-107034342D01*
X96825269Y-107081961D01*
X96920507Y-107129580D01*
X96968126Y-107177199D01*
X97015745Y-107272437D01*
X97015745Y-107367675D01*
X96968126Y-107462913D01*
X96920507Y-107510532D01*
X96825269Y-107558151D01*
X96634793Y-107605770D01*
X96396698Y-107605770D01*
X96206222Y-107558151D01*
X96110984Y-107510532D01*
X96063365Y-107462913D01*
X96015745Y-107367675D01*
X96015745Y-106415294D02*
X96015745Y-106320056D01*
X96063365Y-106224818D01*
X96110984Y-106177199D01*
X96206222Y-106129580D01*
X96396698Y-106081961D01*
X96634793Y-106081961D01*
X96825269Y-106129580D01*
X96920507Y-106177199D01*
X96968126Y-106224818D01*
X97015745Y-106320056D01*
X97015745Y-106415294D01*
X96968126Y-106510532D01*
X96920507Y-106558151D01*
X96825269Y-106605770D01*
X96634793Y-106653389D01*
X96396698Y-106653389D01*
X96206222Y-106605770D01*
X96110984Y-106558151D01*
X96063365Y-106510532D01*
X96015745Y-106415294D01*
X97015745Y-105129580D02*
X97015745Y-105701008D01*
X97015745Y-105415294D02*
X96015745Y-105415294D01*
X96158603Y-105510532D01*
X96253841Y-105605770D01*
X96301460Y-105701008D01*
X100369666Y-111451961D02*
X100369666Y-110975770D01*
X100655380Y-111547199D02*
X99655380Y-111213866D01*
X100655380Y-110880532D01*
X103406015Y-108581961D02*
X102406015Y-108581961D01*
X102406015Y-108343866D01*
X102453635Y-108201008D01*
X102548873Y-108105770D01*
X102644111Y-108058151D01*
X102834587Y-108010532D01*
X102977444Y-108010532D01*
X103167920Y-108058151D01*
X103263158Y-108105770D01*
X103358396Y-108201008D01*
X103406015Y-108343866D01*
X103406015Y-108581961D01*
X102406015Y-107677199D02*
X102406015Y-107058151D01*
X102786968Y-107391485D01*
X102786968Y-107248627D01*
X102834587Y-107153389D01*
X102882206Y-107105770D01*
X102977444Y-107058151D01*
X103215539Y-107058151D01*
X103310777Y-107105770D01*
X103358396Y-107153389D01*
X103406015Y-107248627D01*
X103406015Y-107534342D01*
X103358396Y-107629580D01*
X103310777Y-107677199D01*
%TO.C,D1*%
X86538380Y-87074190D02*
X86538380Y-86455142D01*
X86919333Y-86788476D01*
X86919333Y-86645619D01*
X86966952Y-86550380D01*
X87014571Y-86502761D01*
X87109809Y-86455142D01*
X87347904Y-86455142D01*
X87443142Y-86502761D01*
X87490761Y-86550380D01*
X87538380Y-86645619D01*
X87538380Y-86931333D01*
X87490761Y-87026571D01*
X87443142Y-87074190D01*
X87443142Y-86026571D02*
X87490761Y-85978952D01*
X87538380Y-86026571D01*
X87490761Y-86074190D01*
X87443142Y-86026571D01*
X87538380Y-86026571D01*
X86538380Y-85645619D02*
X86538380Y-85026571D01*
X86919333Y-85359904D01*
X86919333Y-85217047D01*
X86966952Y-85121809D01*
X87014571Y-85074190D01*
X87109809Y-85026571D01*
X87347904Y-85026571D01*
X87443142Y-85074190D01*
X87490761Y-85121809D01*
X87538380Y-85217047D01*
X87538380Y-85502761D01*
X87490761Y-85598000D01*
X87443142Y-85645619D01*
X86538380Y-84740857D02*
X87538380Y-84407523D01*
X86538380Y-84074190D01*
X83038380Y-86336095D02*
X82038380Y-86336095D01*
X82038380Y-86098000D01*
X82086000Y-85955142D01*
X82181238Y-85859904D01*
X82276476Y-85812285D01*
X82466952Y-85764666D01*
X82609809Y-85764666D01*
X82800285Y-85812285D01*
X82895523Y-85859904D01*
X82990761Y-85955142D01*
X83038380Y-86098000D01*
X83038380Y-86336095D01*
X83038380Y-84812285D02*
X83038380Y-85383714D01*
X83038380Y-85098000D02*
X82038380Y-85098000D01*
X82181238Y-85193238D01*
X82276476Y-85288476D01*
X82324095Y-85383714D01*
%TO.C,U1*%
X87566666Y-62174380D02*
X87233333Y-61698190D01*
X86995238Y-62174380D02*
X86995238Y-61174380D01*
X87376190Y-61174380D01*
X87471428Y-61222000D01*
X87519047Y-61269619D01*
X87566666Y-61364857D01*
X87566666Y-61507714D01*
X87519047Y-61602952D01*
X87471428Y-61650571D01*
X87376190Y-61698190D01*
X86995238Y-61698190D01*
X87995238Y-61650571D02*
X88328571Y-61650571D01*
X88471428Y-62174380D02*
X87995238Y-62174380D01*
X87995238Y-61174380D01*
X88471428Y-61174380D01*
X89233333Y-61650571D02*
X88900000Y-61650571D01*
X88900000Y-62174380D02*
X88900000Y-61174380D01*
X89376190Y-61174380D01*
X89900000Y-61174380D02*
X89900000Y-61412476D01*
X89661904Y-61317238D02*
X89900000Y-61412476D01*
X90138095Y-61317238D01*
X89757142Y-61602952D02*
X89900000Y-61412476D01*
X90042857Y-61602952D01*
X90661904Y-61174380D02*
X90661904Y-61412476D01*
X90423809Y-61317238D02*
X90661904Y-61412476D01*
X90900000Y-61317238D01*
X90519047Y-61602952D02*
X90661904Y-61412476D01*
X90804761Y-61602952D01*
%TO.C,U2*%
X64825809Y-96464380D02*
X64825809Y-95464380D01*
X65206761Y-95464380D01*
X65302000Y-95512000D01*
X65349619Y-95559619D01*
X65397238Y-95654857D01*
X65397238Y-95797714D01*
X65349619Y-95892952D01*
X65302000Y-95940571D01*
X65206761Y-95988190D01*
X64825809Y-95988190D01*
X65968666Y-96464380D02*
X65873428Y-96416761D01*
X65825809Y-96369142D01*
X65778190Y-96273904D01*
X65778190Y-95988190D01*
X65825809Y-95892952D01*
X65873428Y-95845333D01*
X65968666Y-95797714D01*
X66111523Y-95797714D01*
X66206761Y-95845333D01*
X66254380Y-95892952D01*
X66302000Y-95988190D01*
X66302000Y-96273904D01*
X66254380Y-96369142D01*
X66206761Y-96416761D01*
X66111523Y-96464380D01*
X65968666Y-96464380D01*
X66635333Y-95797714D02*
X66825809Y-96464380D01*
X67016285Y-95988190D01*
X67206761Y-96464380D01*
X67397238Y-95797714D01*
X68159142Y-96416761D02*
X68063904Y-96464380D01*
X67873428Y-96464380D01*
X67778190Y-96416761D01*
X67730571Y-96321523D01*
X67730571Y-95940571D01*
X67778190Y-95845333D01*
X67873428Y-95797714D01*
X68063904Y-95797714D01*
X68159142Y-95845333D01*
X68206761Y-95940571D01*
X68206761Y-96035809D01*
X67730571Y-96131047D01*
X68635333Y-96464380D02*
X68635333Y-95797714D01*
X68635333Y-95988190D02*
X68682952Y-95892952D01*
X68730571Y-95845333D01*
X68825809Y-95797714D01*
X68921047Y-95797714D01*
%TO.C,Q4*%
X104743523Y-93228761D02*
X104886380Y-93276380D01*
X105124476Y-93276380D01*
X105219714Y-93228761D01*
X105267333Y-93181142D01*
X105314952Y-93085904D01*
X105314952Y-92990666D01*
X105267333Y-92895428D01*
X105219714Y-92847809D01*
X105124476Y-92800190D01*
X104934000Y-92752571D01*
X104838761Y-92704952D01*
X104791142Y-92657333D01*
X104743523Y-92562095D01*
X104743523Y-92466857D01*
X104791142Y-92371619D01*
X104838761Y-92324000D01*
X104934000Y-92276380D01*
X105172095Y-92276380D01*
X105314952Y-92324000D01*
X105791142Y-93276380D02*
X105981619Y-93276380D01*
X106076857Y-93228761D01*
X106124476Y-93181142D01*
X106219714Y-93038285D01*
X106267333Y-92847809D01*
X106267333Y-92466857D01*
X106219714Y-92371619D01*
X106172095Y-92324000D01*
X106076857Y-92276380D01*
X105886380Y-92276380D01*
X105791142Y-92324000D01*
X105743523Y-92371619D01*
X105695904Y-92466857D01*
X105695904Y-92704952D01*
X105743523Y-92800190D01*
X105791142Y-92847809D01*
X105886380Y-92895428D01*
X106076857Y-92895428D01*
X106172095Y-92847809D01*
X106219714Y-92800190D01*
X106267333Y-92704952D01*
X106886380Y-92276380D02*
X106981619Y-92276380D01*
X107076857Y-92324000D01*
X107124476Y-92371619D01*
X107172095Y-92466857D01*
X107219714Y-92657333D01*
X107219714Y-92895428D01*
X107172095Y-93085904D01*
X107124476Y-93181142D01*
X107076857Y-93228761D01*
X106981619Y-93276380D01*
X106886380Y-93276380D01*
X106791142Y-93228761D01*
X106743523Y-93181142D01*
X106695904Y-93085904D01*
X106648285Y-92895428D01*
X106648285Y-92657333D01*
X106695904Y-92466857D01*
X106743523Y-92371619D01*
X106791142Y-92324000D01*
X106886380Y-92276380D01*
X108172095Y-93276380D02*
X107600666Y-93276380D01*
X107886380Y-93276380D02*
X107886380Y-92276380D01*
X107791142Y-92419238D01*
X107695904Y-92514476D01*
X107600666Y-92562095D01*
X108505428Y-92276380D02*
X109124476Y-92276380D01*
X108791142Y-92657333D01*
X108934000Y-92657333D01*
X109029238Y-92704952D01*
X109076857Y-92752571D01*
X109124476Y-92847809D01*
X109124476Y-93085904D01*
X109076857Y-93181142D01*
X109029238Y-93228761D01*
X108934000Y-93276380D01*
X108648285Y-93276380D01*
X108553047Y-93228761D01*
X108505428Y-93181142D01*
D12*
X106903523Y-90599238D02*
X106873047Y-90584000D01*
X106842571Y-90553523D01*
X106796857Y-90507809D01*
X106766380Y-90492571D01*
X106735904Y-90492571D01*
X106751142Y-90568761D02*
X106720666Y-90553523D01*
X106690190Y-90523047D01*
X106674952Y-90462095D01*
X106674952Y-90355428D01*
X106690190Y-90294476D01*
X106720666Y-90264000D01*
X106751142Y-90248761D01*
X106812095Y-90248761D01*
X106842571Y-90264000D01*
X106873047Y-90294476D01*
X106888285Y-90355428D01*
X106888285Y-90462095D01*
X106873047Y-90523047D01*
X106842571Y-90553523D01*
X106812095Y-90568761D01*
X106751142Y-90568761D01*
X107162571Y-90355428D02*
X107162571Y-90568761D01*
X107086380Y-90233523D02*
X107010190Y-90462095D01*
X107208285Y-90462095D01*
D10*
%TO.C,Q3*%
X96869523Y-93228761D02*
X97012380Y-93276380D01*
X97250476Y-93276380D01*
X97345714Y-93228761D01*
X97393333Y-93181142D01*
X97440952Y-93085904D01*
X97440952Y-92990666D01*
X97393333Y-92895428D01*
X97345714Y-92847809D01*
X97250476Y-92800190D01*
X97060000Y-92752571D01*
X96964761Y-92704952D01*
X96917142Y-92657333D01*
X96869523Y-92562095D01*
X96869523Y-92466857D01*
X96917142Y-92371619D01*
X96964761Y-92324000D01*
X97060000Y-92276380D01*
X97298095Y-92276380D01*
X97440952Y-92324000D01*
X97917142Y-93276380D02*
X98107619Y-93276380D01*
X98202857Y-93228761D01*
X98250476Y-93181142D01*
X98345714Y-93038285D01*
X98393333Y-92847809D01*
X98393333Y-92466857D01*
X98345714Y-92371619D01*
X98298095Y-92324000D01*
X98202857Y-92276380D01*
X98012380Y-92276380D01*
X97917142Y-92324000D01*
X97869523Y-92371619D01*
X97821904Y-92466857D01*
X97821904Y-92704952D01*
X97869523Y-92800190D01*
X97917142Y-92847809D01*
X98012380Y-92895428D01*
X98202857Y-92895428D01*
X98298095Y-92847809D01*
X98345714Y-92800190D01*
X98393333Y-92704952D01*
X99012380Y-92276380D02*
X99107619Y-92276380D01*
X99202857Y-92324000D01*
X99250476Y-92371619D01*
X99298095Y-92466857D01*
X99345714Y-92657333D01*
X99345714Y-92895428D01*
X99298095Y-93085904D01*
X99250476Y-93181142D01*
X99202857Y-93228761D01*
X99107619Y-93276380D01*
X99012380Y-93276380D01*
X98917142Y-93228761D01*
X98869523Y-93181142D01*
X98821904Y-93085904D01*
X98774285Y-92895428D01*
X98774285Y-92657333D01*
X98821904Y-92466857D01*
X98869523Y-92371619D01*
X98917142Y-92324000D01*
X99012380Y-92276380D01*
X100298095Y-93276380D02*
X99726666Y-93276380D01*
X100012380Y-93276380D02*
X100012380Y-92276380D01*
X99917142Y-92419238D01*
X99821904Y-92514476D01*
X99726666Y-92562095D01*
X100631428Y-92276380D02*
X101250476Y-92276380D01*
X100917142Y-92657333D01*
X101060000Y-92657333D01*
X101155238Y-92704952D01*
X101202857Y-92752571D01*
X101250476Y-92847809D01*
X101250476Y-93085904D01*
X101202857Y-93181142D01*
X101155238Y-93228761D01*
X101060000Y-93276380D01*
X100774285Y-93276380D01*
X100679047Y-93228761D01*
X100631428Y-93181142D01*
D12*
X99029523Y-90599238D02*
X98999047Y-90584000D01*
X98968571Y-90553523D01*
X98922857Y-90507809D01*
X98892380Y-90492571D01*
X98861904Y-90492571D01*
X98877142Y-90568761D02*
X98846666Y-90553523D01*
X98816190Y-90523047D01*
X98800952Y-90462095D01*
X98800952Y-90355428D01*
X98816190Y-90294476D01*
X98846666Y-90264000D01*
X98877142Y-90248761D01*
X98938095Y-90248761D01*
X98968571Y-90264000D01*
X98999047Y-90294476D01*
X99014285Y-90355428D01*
X99014285Y-90462095D01*
X98999047Y-90523047D01*
X98968571Y-90553523D01*
X98938095Y-90568761D01*
X98877142Y-90568761D01*
X99120952Y-90248761D02*
X99319047Y-90248761D01*
X99212380Y-90370666D01*
X99258095Y-90370666D01*
X99288571Y-90385904D01*
X99303809Y-90401142D01*
X99319047Y-90431619D01*
X99319047Y-90507809D01*
X99303809Y-90538285D01*
X99288571Y-90553523D01*
X99258095Y-90568761D01*
X99166666Y-90568761D01*
X99136190Y-90553523D01*
X99120952Y-90538285D01*
D10*
%TO.C,U3*%
X121166761Y-95702380D02*
X121166761Y-94702380D01*
X121500095Y-95416666D01*
X121833428Y-94702380D01*
X121833428Y-95702380D01*
X122881047Y-95607142D02*
X122833428Y-95654761D01*
X122690571Y-95702380D01*
X122595333Y-95702380D01*
X122452476Y-95654761D01*
X122357238Y-95559523D01*
X122309619Y-95464285D01*
X122262000Y-95273809D01*
X122262000Y-95130952D01*
X122309619Y-94940476D01*
X122357238Y-94845238D01*
X122452476Y-94750000D01*
X122595333Y-94702380D01*
X122690571Y-94702380D01*
X122833428Y-94750000D01*
X122881047Y-94797619D01*
X123309619Y-95702380D02*
X123309619Y-94702380D01*
X123690571Y-94702380D01*
X123785809Y-94750000D01*
X123833428Y-94797619D01*
X123881047Y-94892857D01*
X123881047Y-95035714D01*
X123833428Y-95130952D01*
X123785809Y-95178571D01*
X123690571Y-95226190D01*
X123309619Y-95226190D01*
X124262000Y-94797619D02*
X124309619Y-94750000D01*
X124404857Y-94702380D01*
X124642952Y-94702380D01*
X124738190Y-94750000D01*
X124785809Y-94797619D01*
X124833428Y-94892857D01*
X124833428Y-94988095D01*
X124785809Y-95130952D01*
X124214380Y-95702380D01*
X124833428Y-95702380D01*
X125738190Y-94702380D02*
X125262000Y-94702380D01*
X125214380Y-95178571D01*
X125262000Y-95130952D01*
X125357238Y-95083333D01*
X125595333Y-95083333D01*
X125690571Y-95130952D01*
X125738190Y-95178571D01*
X125785809Y-95273809D01*
X125785809Y-95511904D01*
X125738190Y-95607142D01*
X125690571Y-95654761D01*
X125595333Y-95702380D01*
X125357238Y-95702380D01*
X125262000Y-95654761D01*
X125214380Y-95607142D01*
X126690571Y-94702380D02*
X126214380Y-94702380D01*
X126166761Y-95178571D01*
X126214380Y-95130952D01*
X126309619Y-95083333D01*
X126547714Y-95083333D01*
X126642952Y-95130952D01*
X126690571Y-95178571D01*
X126738190Y-95273809D01*
X126738190Y-95511904D01*
X126690571Y-95607142D01*
X126642952Y-95654761D01*
X126547714Y-95702380D01*
X126309619Y-95702380D01*
X126214380Y-95654761D01*
X126166761Y-95607142D01*
X127690571Y-95702380D02*
X127119142Y-95702380D01*
X127404857Y-95702380D02*
X127404857Y-94702380D01*
X127309619Y-94845238D01*
X127214380Y-94940476D01*
X127119142Y-94988095D01*
X127881047Y-95797619D02*
X128642952Y-95797619D01*
X128881047Y-95702380D02*
X128881047Y-94702380D01*
X129214380Y-95416666D01*
X129547714Y-94702380D01*
X129547714Y-95702380D01*
X130214380Y-94702380D02*
X130404857Y-94702380D01*
X130500095Y-94750000D01*
X130595333Y-94845238D01*
X130642952Y-95035714D01*
X130642952Y-95369047D01*
X130595333Y-95559523D01*
X130500095Y-95654761D01*
X130404857Y-95702380D01*
X130214380Y-95702380D01*
X130119142Y-95654761D01*
X130023904Y-95559523D01*
X129976285Y-95369047D01*
X129976285Y-95035714D01*
X130023904Y-94845238D01*
X130119142Y-94750000D01*
X130214380Y-94702380D01*
X131071523Y-95702380D02*
X131071523Y-94702380D01*
X131309619Y-94702380D01*
X131452476Y-94750000D01*
X131547714Y-94845238D01*
X131595333Y-94940476D01*
X131642952Y-95130952D01*
X131642952Y-95273809D01*
X131595333Y-95464285D01*
X131547714Y-95559523D01*
X131452476Y-95654761D01*
X131309619Y-95702380D01*
X131071523Y-95702380D01*
X132071523Y-94702380D02*
X132071523Y-95511904D01*
X132119142Y-95607142D01*
X132166761Y-95654761D01*
X132262000Y-95702380D01*
X132452476Y-95702380D01*
X132547714Y-95654761D01*
X132595333Y-95607142D01*
X132642952Y-95511904D01*
X132642952Y-94702380D01*
X133595333Y-95702380D02*
X133119142Y-95702380D01*
X133119142Y-94702380D01*
X133928666Y-95178571D02*
X134262000Y-95178571D01*
X134404857Y-95702380D02*
X133928666Y-95702380D01*
X133928666Y-94702380D01*
X134404857Y-94702380D01*
%TO.C,J6*%
X65746380Y-77549333D02*
X66460666Y-77549333D01*
X66603523Y-77596952D01*
X66698761Y-77692190D01*
X66746380Y-77835047D01*
X66746380Y-77930285D01*
X65746380Y-76644571D02*
X65746380Y-76835047D01*
X65794000Y-76930285D01*
X65841619Y-76977904D01*
X65984476Y-77073142D01*
X66174952Y-77120761D01*
X66555904Y-77120761D01*
X66651142Y-77073142D01*
X66698761Y-77025523D01*
X66746380Y-76930285D01*
X66746380Y-76739809D01*
X66698761Y-76644571D01*
X66651142Y-76596952D01*
X66555904Y-76549333D01*
X66317809Y-76549333D01*
X66222571Y-76596952D01*
X66174952Y-76644571D01*
X66127333Y-76739809D01*
X66127333Y-76930285D01*
X66174952Y-77025523D01*
X66222571Y-77073142D01*
X66317809Y-77120761D01*
%TO.C,TP1*%
X88217714Y-111418380D02*
X88455809Y-112418380D01*
X88646285Y-111704095D01*
X88836761Y-112418380D01*
X89074857Y-111418380D01*
X89979619Y-111466000D02*
X89884380Y-111418380D01*
X89741523Y-111418380D01*
X89598666Y-111466000D01*
X89503428Y-111561238D01*
X89455809Y-111656476D01*
X89408190Y-111846952D01*
X89408190Y-111989809D01*
X89455809Y-112180285D01*
X89503428Y-112275523D01*
X89598666Y-112370761D01*
X89741523Y-112418380D01*
X89836761Y-112418380D01*
X89979619Y-112370761D01*
X90027238Y-112323142D01*
X90027238Y-111989809D01*
X89836761Y-111989809D01*
X90217714Y-112513619D02*
X90979619Y-112513619D01*
X91170095Y-112370761D02*
X91312952Y-112418380D01*
X91551047Y-112418380D01*
X91646285Y-112370761D01*
X91693904Y-112323142D01*
X91741523Y-112227904D01*
X91741523Y-112132666D01*
X91693904Y-112037428D01*
X91646285Y-111989809D01*
X91551047Y-111942190D01*
X91360571Y-111894571D01*
X91265333Y-111846952D01*
X91217714Y-111799333D01*
X91170095Y-111704095D01*
X91170095Y-111608857D01*
X91217714Y-111513619D01*
X91265333Y-111466000D01*
X91360571Y-111418380D01*
X91598666Y-111418380D01*
X91741523Y-111466000D01*
X92360571Y-111418380D02*
X92551047Y-111418380D01*
X92646285Y-111466000D01*
X92741523Y-111561238D01*
X92789142Y-111751714D01*
X92789142Y-112085047D01*
X92741523Y-112275523D01*
X92646285Y-112370761D01*
X92551047Y-112418380D01*
X92360571Y-112418380D01*
X92265333Y-112370761D01*
X92170095Y-112275523D01*
X92122476Y-112085047D01*
X92122476Y-111751714D01*
X92170095Y-111561238D01*
X92265333Y-111466000D01*
X92360571Y-111418380D01*
X93693904Y-112418380D02*
X93217714Y-112418380D01*
X93217714Y-111418380D01*
%TO.C,D13*%
X77902380Y-87074190D02*
X77902380Y-86455142D01*
X78283333Y-86788476D01*
X78283333Y-86645619D01*
X78330952Y-86550380D01*
X78378571Y-86502761D01*
X78473809Y-86455142D01*
X78711904Y-86455142D01*
X78807142Y-86502761D01*
X78854761Y-86550380D01*
X78902380Y-86645619D01*
X78902380Y-86931333D01*
X78854761Y-87026571D01*
X78807142Y-87074190D01*
X78807142Y-86026571D02*
X78854761Y-85978952D01*
X78902380Y-86026571D01*
X78854761Y-86074190D01*
X78807142Y-86026571D01*
X78902380Y-86026571D01*
X77902380Y-85645619D02*
X77902380Y-85026571D01*
X78283333Y-85359904D01*
X78283333Y-85217047D01*
X78330952Y-85121809D01*
X78378571Y-85074190D01*
X78473809Y-85026571D01*
X78711904Y-85026571D01*
X78807142Y-85074190D01*
X78854761Y-85121809D01*
X78902380Y-85217047D01*
X78902380Y-85502761D01*
X78854761Y-85598000D01*
X78807142Y-85645619D01*
X77902380Y-84740857D02*
X78902380Y-84407523D01*
X77902380Y-84074190D01*
X74402380Y-86812285D02*
X73402380Y-86812285D01*
X73402380Y-86574190D01*
X73450000Y-86431333D01*
X73545238Y-86336095D01*
X73640476Y-86288476D01*
X73830952Y-86240857D01*
X73973809Y-86240857D01*
X74164285Y-86288476D01*
X74259523Y-86336095D01*
X74354761Y-86431333D01*
X74402380Y-86574190D01*
X74402380Y-86812285D01*
X74402380Y-85288476D02*
X74402380Y-85859904D01*
X74402380Y-85574190D02*
X73402380Y-85574190D01*
X73545238Y-85669428D01*
X73640476Y-85764666D01*
X73688095Y-85859904D01*
X73402380Y-84955142D02*
X73402380Y-84336095D01*
X73783333Y-84669428D01*
X73783333Y-84526571D01*
X73830952Y-84431333D01*
X73878571Y-84383714D01*
X73973809Y-84336095D01*
X74211904Y-84336095D01*
X74307142Y-84383714D01*
X74354761Y-84431333D01*
X74402380Y-84526571D01*
X74402380Y-84812285D01*
X74354761Y-84907523D01*
X74307142Y-84955142D01*
%TO.C,TP11*%
X82843904Y-72490380D02*
X83415333Y-72490380D01*
X83129619Y-73490380D02*
X83129619Y-72490380D01*
X83748666Y-73490380D02*
X83748666Y-72490380D01*
X84129619Y-72490380D01*
X84224857Y-72538000D01*
X84272476Y-72585619D01*
X84320095Y-72680857D01*
X84320095Y-72823714D01*
X84272476Y-72918952D01*
X84224857Y-72966571D01*
X84129619Y-73014190D01*
X83748666Y-73014190D01*
X85272476Y-73490380D02*
X84701047Y-73490380D01*
X84986761Y-73490380D02*
X84986761Y-72490380D01*
X84891523Y-72633238D01*
X84796285Y-72728476D01*
X84701047Y-72776095D01*
X86224857Y-73490380D02*
X85653428Y-73490380D01*
X85939142Y-73490380D02*
X85939142Y-72490380D01*
X85843904Y-72633238D01*
X85748666Y-72728476D01*
X85653428Y-72776095D01*
%TO.C,R21*%
X74165714Y-96940571D02*
X74832380Y-96940571D01*
X73784761Y-97178666D02*
X74499047Y-97416761D01*
X74499047Y-96797714D01*
X74737142Y-96416761D02*
X74784761Y-96369142D01*
X74832380Y-96416761D01*
X74784761Y-96464380D01*
X74737142Y-96416761D01*
X74832380Y-96416761D01*
X73832380Y-96035809D02*
X73832380Y-95369142D01*
X74832380Y-95797714D01*
X74832380Y-94988190D02*
X73832380Y-94988190D01*
X74451428Y-94892952D02*
X74832380Y-94607238D01*
X74165714Y-94607238D02*
X74546666Y-94988190D01*
D11*
X76561904Y-96526285D02*
X76180952Y-96792952D01*
X76561904Y-96983428D02*
X75761904Y-96983428D01*
X75761904Y-96678666D01*
X75800000Y-96602476D01*
X75838095Y-96564380D01*
X75914285Y-96526285D01*
X76028571Y-96526285D01*
X76104761Y-96564380D01*
X76142857Y-96602476D01*
X76180952Y-96678666D01*
X76180952Y-96983428D01*
X75838095Y-96221523D02*
X75800000Y-96183428D01*
X75761904Y-96107238D01*
X75761904Y-95916761D01*
X75800000Y-95840571D01*
X75838095Y-95802476D01*
X75914285Y-95764380D01*
X75990476Y-95764380D01*
X76104761Y-95802476D01*
X76561904Y-96259619D01*
X76561904Y-95764380D01*
X76561904Y-95002476D02*
X76561904Y-95459619D01*
X76561904Y-95231047D02*
X75761904Y-95231047D01*
X75876190Y-95307238D01*
X75952380Y-95383428D01*
X75990476Y-95459619D01*
D10*
%TO.C,TP10*%
X78017904Y-72490380D02*
X78589333Y-72490380D01*
X78303619Y-73490380D02*
X78303619Y-72490380D01*
X78922666Y-73490380D02*
X78922666Y-72490380D01*
X79303619Y-72490380D01*
X79398857Y-72538000D01*
X79446476Y-72585619D01*
X79494095Y-72680857D01*
X79494095Y-72823714D01*
X79446476Y-72918952D01*
X79398857Y-72966571D01*
X79303619Y-73014190D01*
X78922666Y-73014190D01*
X80446476Y-73490380D02*
X79875047Y-73490380D01*
X80160761Y-73490380D02*
X80160761Y-72490380D01*
X80065523Y-72633238D01*
X79970285Y-72728476D01*
X79875047Y-72776095D01*
X81065523Y-72490380D02*
X81160761Y-72490380D01*
X81256000Y-72538000D01*
X81303619Y-72585619D01*
X81351238Y-72680857D01*
X81398857Y-72871333D01*
X81398857Y-73109428D01*
X81351238Y-73299904D01*
X81303619Y-73395142D01*
X81256000Y-73442761D01*
X81160761Y-73490380D01*
X81065523Y-73490380D01*
X80970285Y-73442761D01*
X80922666Y-73395142D01*
X80875047Y-73299904D01*
X80827428Y-73109428D01*
X80827428Y-72871333D01*
X80875047Y-72680857D01*
X80922666Y-72585619D01*
X80970285Y-72538000D01*
X81065523Y-72490380D01*
D13*
%TO.C,J7*%
X134493000Y-73152000D02*
X136398000Y-73152000D01*
X136398000Y-83312000D02*
X133858000Y-83312000D01*
X133858000Y-83312000D02*
X133858000Y-73787000D01*
X136398000Y-73152000D02*
X136398000Y-83312000D01*
X133858000Y-73787000D02*
X134493000Y-73152000D01*
%TO.C,Q2*%
X105176000Y-103806000D02*
X109576000Y-103806000D01*
X109576000Y-100656000D02*
X108306000Y-100656000D01*
X108306000Y-93806000D02*
X108306000Y-103806000D01*
X109576000Y-103806000D02*
X109576000Y-93806000D01*
X105176000Y-93806000D02*
X105176000Y-103806000D01*
X109576000Y-96956000D02*
X108306000Y-96956000D01*
X109576000Y-93806000D02*
X105176000Y-93806000D01*
%TO.C,Q1*%
X98064000Y-103806000D02*
X102464000Y-103806000D01*
X102464000Y-100656000D02*
X101194000Y-100656000D01*
X101194000Y-93806000D02*
X101194000Y-103806000D01*
X102464000Y-103806000D02*
X102464000Y-93806000D01*
X98064000Y-93806000D02*
X98064000Y-103806000D01*
X102464000Y-96956000D02*
X101194000Y-96956000D01*
X102464000Y-93806000D02*
X98064000Y-93806000D01*
%TO.C,J5*%
X130262000Y-124186000D02*
X125312000Y-124186000D01*
X125312000Y-124186000D02*
X125312000Y-112686000D01*
X126512000Y-112686000D02*
X126512000Y-117186000D01*
X135212000Y-112686000D02*
X134012000Y-112686000D01*
X125312000Y-112686000D02*
X126512000Y-112686000D01*
X126512000Y-117186000D02*
X130262000Y-117186000D01*
X130262000Y-124186000D02*
X135212000Y-124186000D01*
X134012000Y-112686000D02*
X134012000Y-117186000D01*
X127762000Y-116186000D02*
X128387000Y-117186000D01*
X127137000Y-117186000D02*
X127762000Y-116186000D01*
X134012000Y-117186000D02*
X130262000Y-117186000D01*
X135212000Y-124186000D02*
X135212000Y-112686000D01*
%TO.C,J4*%
X122726000Y-112686000D02*
X121526000Y-112686000D01*
X110326000Y-112686000D02*
X111526000Y-112686000D01*
X116526000Y-124186000D02*
X110326000Y-124186000D01*
X122726000Y-124186000D02*
X122726000Y-112686000D01*
X112776000Y-116186000D02*
X113401000Y-117186000D01*
X121526000Y-112686000D02*
X121526000Y-117186000D01*
X116526000Y-124186000D02*
X122726000Y-124186000D01*
X112151000Y-117186000D02*
X112776000Y-116186000D01*
X121526000Y-117186000D02*
X116526000Y-117186000D01*
X111526000Y-117186000D02*
X116526000Y-117186000D01*
X111526000Y-112686000D02*
X111526000Y-117186000D01*
X110326000Y-124186000D02*
X110326000Y-112686000D01*
%TO.C,J3*%
X102830000Y-124186000D02*
X97880000Y-124186000D01*
X97880000Y-124186000D02*
X97880000Y-112686000D01*
X99080000Y-112686000D02*
X99080000Y-117186000D01*
X107780000Y-112686000D02*
X106580000Y-112686000D01*
X97880000Y-112686000D02*
X99080000Y-112686000D01*
X99080000Y-117186000D02*
X102830000Y-117186000D01*
X102830000Y-124186000D02*
X107780000Y-124186000D01*
X106580000Y-112686000D02*
X106580000Y-117186000D01*
X100330000Y-116186000D02*
X100955000Y-117186000D01*
X99705000Y-117186000D02*
X100330000Y-116186000D01*
X106580000Y-117186000D02*
X102830000Y-117186000D01*
X107780000Y-124186000D02*
X107780000Y-112686000D01*
%TO.C,J2*%
X81554000Y-117186000D02*
X87804000Y-117186000D01*
X94054000Y-117186000D02*
X87804000Y-117186000D01*
X94054000Y-112686000D02*
X94054000Y-117186000D01*
X82804000Y-116186000D02*
X83429000Y-117186000D01*
X80354000Y-112686000D02*
X81554000Y-112686000D01*
X87804000Y-124186000D02*
X95254000Y-124186000D01*
X80354000Y-124186000D02*
X80354000Y-112686000D01*
X82179000Y-117186000D02*
X82804000Y-116186000D01*
X95254000Y-112686000D02*
X94054000Y-112686000D01*
X95254000Y-124186000D02*
X95254000Y-112686000D01*
X81554000Y-112686000D02*
X81554000Y-117186000D01*
X87804000Y-124186000D02*
X80354000Y-124186000D01*
%TO.C,J1*%
X63774000Y-117186000D02*
X70024000Y-117186000D01*
X76274000Y-117186000D02*
X70024000Y-117186000D01*
X76274000Y-112686000D02*
X76274000Y-117186000D01*
X65024000Y-116186000D02*
X65649000Y-117186000D01*
X62574000Y-112686000D02*
X63774000Y-112686000D01*
X70024000Y-124186000D02*
X77474000Y-124186000D01*
X62574000Y-124186000D02*
X62574000Y-112686000D01*
X64399000Y-117186000D02*
X65024000Y-116186000D01*
X77474000Y-112686000D02*
X76274000Y-112686000D01*
X77474000Y-124186000D02*
X77474000Y-112686000D01*
X63774000Y-112686000D02*
X63774000Y-117186000D01*
X70024000Y-124186000D02*
X62574000Y-124186000D01*
%TO.C,D2*%
X65024000Y-109220000D02*
X70104000Y-109220000D01*
X66374000Y-109220000D02*
G75*
G03*
X66374000Y-109220000I-1350000J0D01*
G01*
%TO.C,R6*%
X110198000Y-81490000D02*
X111798000Y-81490000D01*
X111798000Y-84690000D02*
X110198000Y-84690000D01*
X110198000Y-84690000D02*
X110198000Y-81490000D01*
X111798000Y-81490000D02*
X111798000Y-84690000D01*
%TO.C,R5*%
X105118000Y-81490000D02*
X106718000Y-81490000D01*
X106718000Y-84690000D02*
X105118000Y-84690000D01*
X105118000Y-84690000D02*
X105118000Y-81490000D01*
X106718000Y-81490000D02*
X106718000Y-84690000D01*
%TO.C,R4*%
X100038000Y-81490000D02*
X101638000Y-81490000D01*
X101638000Y-84690000D02*
X100038000Y-84690000D01*
X100038000Y-84690000D02*
X100038000Y-81490000D01*
X101638000Y-81490000D02*
X101638000Y-84690000D01*
%TO.C,R3*%
X95212000Y-81490000D02*
X96812000Y-81490000D01*
X96812000Y-84690000D02*
X95212000Y-84690000D01*
X95212000Y-84690000D02*
X95212000Y-81490000D01*
X96812000Y-81490000D02*
X96812000Y-84690000D01*
%TO.C,R2*%
X84036000Y-94444000D02*
X85636000Y-94444000D01*
X85636000Y-97644000D02*
X84036000Y-97644000D01*
X84036000Y-97644000D02*
X84036000Y-94444000D01*
X85636000Y-94444000D02*
X85636000Y-97644000D01*
%TO.C,R1*%
X81064000Y-97644000D02*
X79464000Y-97644000D01*
X79464000Y-94444000D02*
X81064000Y-94444000D01*
X81064000Y-94444000D02*
X81064000Y-97644000D01*
X79464000Y-97644000D02*
X79464000Y-94444000D01*
%TO.C,D7*%
X82072000Y-88198000D02*
X82072000Y-82998000D01*
X81522320Y-85096820D02*
X79972920Y-85096820D01*
X79972920Y-86247440D02*
X81573120Y-86247440D01*
X79472000Y-82998000D02*
X79472000Y-88198000D01*
X80773020Y-85096820D02*
X80773020Y-84098600D01*
X82072000Y-82998000D02*
X79472000Y-82998000D01*
X79472000Y-88198000D02*
X82072000Y-88198000D01*
X80773020Y-86247440D02*
X79972920Y-85096820D01*
X80773020Y-86247440D02*
X80773020Y-87149140D01*
X80773020Y-86247440D02*
X81522320Y-85096820D01*
%TO.C,D4*%
X105537000Y-106573866D02*
X105537000Y-109113866D01*
X106887000Y-106573866D02*
G75*
G03*
X106887000Y-106573866I-1350000J0D01*
G01*
%TO.C,D3*%
X100203000Y-106573866D02*
X100203000Y-109113866D01*
X101553000Y-106573866D02*
G75*
G03*
X101553000Y-106573866I-1350000J0D01*
G01*
%TO.C,D1*%
X86136000Y-88198000D02*
X86136000Y-82998000D01*
X85586320Y-85096820D02*
X84036920Y-85096820D01*
X84036920Y-86247440D02*
X85637120Y-86247440D01*
X83536000Y-82998000D02*
X83536000Y-88198000D01*
X84837020Y-85096820D02*
X84837020Y-84098600D01*
X86136000Y-82998000D02*
X83536000Y-82998000D01*
X83536000Y-88198000D02*
X86136000Y-88198000D01*
X84837020Y-86247440D02*
X84036920Y-85096820D01*
X84837020Y-86247440D02*
X84837020Y-87149140D01*
X84837020Y-86247440D02*
X85586320Y-85096820D01*
%TO.C,U1*%
X68250000Y-57822000D02*
X62450000Y-57822000D01*
X114300000Y-55372000D02*
X63500000Y-55372000D01*
X63500000Y-68072000D02*
X114300000Y-68072000D01*
D11*
X115400000Y-73022000D02*
X115400000Y-50422000D01*
D13*
X110490000Y-66802000D02*
X107950000Y-66802000D01*
D11*
X62400000Y-73022000D02*
X62400000Y-50422000D01*
D13*
X64135000Y-70612000D02*
X63500000Y-69977000D01*
X68250000Y-65622000D02*
X68250000Y-57822000D01*
X107950000Y-56642000D02*
X110490000Y-56642000D01*
X114300000Y-68072000D02*
X114300000Y-70612000D01*
X63500000Y-52832000D02*
X114300000Y-52832000D01*
X63500000Y-69977000D02*
X63500000Y-68072000D01*
X63500000Y-55372000D02*
X63500000Y-52832000D01*
X114300000Y-70612000D02*
X64135000Y-70612000D01*
D11*
X115400000Y-73022000D02*
X62450000Y-73022000D01*
D13*
X110490000Y-56642000D02*
X110490000Y-66802000D01*
X114300000Y-52832000D02*
X114300000Y-55372000D01*
X68250000Y-65622000D02*
X62450000Y-65622000D01*
D11*
X62400000Y-50422000D02*
X115400000Y-50422000D01*
D13*
X107950000Y-66802000D02*
X107950000Y-56642000D01*
%TO.C,Q4*%
X106609000Y-88974000D02*
X107584000Y-88974000D01*
X106284000Y-91874000D02*
X106284000Y-89299000D01*
X106284000Y-89299000D02*
X106609000Y-88974000D01*
X107584000Y-88974000D02*
X107584000Y-91874000D01*
X107584000Y-91874000D02*
X106284000Y-91874000D01*
%TO.C,Q3*%
X98410000Y-91874000D02*
X98410000Y-89299000D01*
X99710000Y-91874000D02*
X98410000Y-91874000D01*
X99710000Y-88974000D02*
X99710000Y-91874000D01*
X98410000Y-89299000D02*
X98735000Y-88974000D01*
X98735000Y-88974000D02*
X99710000Y-88974000D01*
%TO.C,J6*%
X65659000Y-75946000D02*
X67564000Y-75946000D01*
X65024000Y-78486000D02*
X65024000Y-76581000D01*
X67564000Y-78486000D02*
X65024000Y-78486000D01*
X67564000Y-75946000D02*
X67564000Y-78486000D01*
X65024000Y-76581000D02*
X65659000Y-75946000D01*
%TO.C,D13*%
X74900000Y-82998000D02*
X74900000Y-88198000D01*
X76201020Y-85096820D02*
X76201020Y-84098600D01*
X76201020Y-86247440D02*
X76950320Y-85096820D01*
X77500000Y-88198000D02*
X77500000Y-82998000D01*
X76201020Y-86247440D02*
X75400920Y-85096820D01*
X77500000Y-82998000D02*
X74900000Y-82998000D01*
X74900000Y-88198000D02*
X77500000Y-88198000D01*
X75400920Y-86247440D02*
X77001120Y-86247440D01*
X76201020Y-86247440D02*
X76201020Y-87149140D01*
X76950320Y-85096820D02*
X75400920Y-85096820D01*
%TO.C,R21*%
X77000000Y-97612000D02*
X75400000Y-97612000D01*
X75400000Y-94412000D02*
X77000000Y-94412000D01*
X77000000Y-94412000D02*
X77000000Y-97612000D01*
X75400000Y-97612000D02*
X75400000Y-94412000D01*
%TD*%
M02*
