%TF.GenerationSoftware,KiCad,Pcbnew,(6.0.4)*%
%TF.CreationDate,2022-05-15T18:51:46+02:00*%
%TF.ProjectId,BoostController,426f6f73-7443-46f6-9e74-726f6c6c6572,rev?*%
%TF.SameCoordinates,Original*%
%TF.FileFunction,AssemblyDrawing,Top*%
%FSLAX46Y46*%
G04 Gerber Fmt 4.6, Leading zero omitted, Abs format (unit mm)*
G04 Created by KiCad (PCBNEW (6.0.4)) date 2022-05-15 18:51:46*
%MOMM*%
%LPD*%
G01*
G04 APERTURE LIST*
%ADD10C,0.150000*%
%ADD11C,0.120000*%
%ADD12C,0.050000*%
%ADD13C,0.060000*%
%ADD14C,0.100000*%
G04 APERTURE END LIST*
D10*
%TO.C,J8*%
X125452476Y-84776761D02*
X125595333Y-84824380D01*
X125833428Y-84824380D01*
X125928666Y-84776761D01*
X125976285Y-84729142D01*
X126023904Y-84633904D01*
X126023904Y-84538666D01*
X125976285Y-84443428D01*
X125928666Y-84395809D01*
X125833428Y-84348190D01*
X125642952Y-84300571D01*
X125547714Y-84252952D01*
X125500095Y-84205333D01*
X125452476Y-84110095D01*
X125452476Y-84014857D01*
X125500095Y-83919619D01*
X125547714Y-83872000D01*
X125642952Y-83824380D01*
X125881047Y-83824380D01*
X126023904Y-83872000D01*
X126452476Y-84300571D02*
X126785809Y-84300571D01*
X126928666Y-84824380D02*
X126452476Y-84824380D01*
X126452476Y-83824380D01*
X126928666Y-83824380D01*
X127928666Y-84824380D02*
X127595333Y-84348190D01*
X127357238Y-84824380D02*
X127357238Y-83824380D01*
X127738190Y-83824380D01*
X127833428Y-83872000D01*
X127881047Y-83919619D01*
X127928666Y-84014857D01*
X127928666Y-84157714D01*
X127881047Y-84252952D01*
X127833428Y-84300571D01*
X127738190Y-84348190D01*
X127357238Y-84348190D01*
X128357238Y-84824380D02*
X128357238Y-83824380D01*
X128785809Y-84538666D02*
X129262000Y-84538666D01*
X128690571Y-84824380D02*
X129023904Y-83824380D01*
X129357238Y-84824380D01*
X130166761Y-84824380D02*
X129690571Y-84824380D01*
X129690571Y-83824380D01*
X127214380Y-79835333D02*
X127928666Y-79835333D01*
X128071523Y-79882952D01*
X128166761Y-79978190D01*
X128214380Y-80121047D01*
X128214380Y-80216285D01*
X127642952Y-79216285D02*
X127595333Y-79311523D01*
X127547714Y-79359142D01*
X127452476Y-79406761D01*
X127404857Y-79406761D01*
X127309619Y-79359142D01*
X127262000Y-79311523D01*
X127214380Y-79216285D01*
X127214380Y-79025809D01*
X127262000Y-78930571D01*
X127309619Y-78882952D01*
X127404857Y-78835333D01*
X127452476Y-78835333D01*
X127547714Y-78882952D01*
X127595333Y-78930571D01*
X127642952Y-79025809D01*
X127642952Y-79216285D01*
X127690571Y-79311523D01*
X127738190Y-79359142D01*
X127833428Y-79406761D01*
X128023904Y-79406761D01*
X128119142Y-79359142D01*
X128166761Y-79311523D01*
X128214380Y-79216285D01*
X128214380Y-79025809D01*
X128166761Y-78930571D01*
X128119142Y-78882952D01*
X128023904Y-78835333D01*
X127833428Y-78835333D01*
X127738190Y-78882952D01*
X127690571Y-78930571D01*
X127642952Y-79025809D01*
%TO.C,U1*%
X87566666Y-62174380D02*
X87233333Y-61698190D01*
X86995238Y-62174380D02*
X86995238Y-61174380D01*
X87376190Y-61174380D01*
X87471428Y-61222000D01*
X87519047Y-61269619D01*
X87566666Y-61364857D01*
X87566666Y-61507714D01*
X87519047Y-61602952D01*
X87471428Y-61650571D01*
X87376190Y-61698190D01*
X86995238Y-61698190D01*
X87995238Y-61650571D02*
X88328571Y-61650571D01*
X88471428Y-62174380D02*
X87995238Y-62174380D01*
X87995238Y-61174380D01*
X88471428Y-61174380D01*
X89233333Y-61650571D02*
X88900000Y-61650571D01*
X88900000Y-62174380D02*
X88900000Y-61174380D01*
X89376190Y-61174380D01*
X89900000Y-61174380D02*
X89900000Y-61412476D01*
X89661904Y-61317238D02*
X89900000Y-61412476D01*
X90138095Y-61317238D01*
X89757142Y-61602952D02*
X89900000Y-61412476D01*
X90042857Y-61602952D01*
X90661904Y-61174380D02*
X90661904Y-61412476D01*
X90423809Y-61317238D02*
X90661904Y-61412476D01*
X90900000Y-61317238D01*
X90519047Y-61602952D02*
X90661904Y-61412476D01*
X90804761Y-61602952D01*
%TO.C,R1*%
X78896380Y-96877333D02*
X78896380Y-97448761D01*
X78896380Y-97163047D02*
X77896380Y-97163047D01*
X78039238Y-97258285D01*
X78134476Y-97353523D01*
X78182095Y-97448761D01*
X78801142Y-96448761D02*
X78848761Y-96401142D01*
X78896380Y-96448761D01*
X78848761Y-96496380D01*
X78801142Y-96448761D01*
X78896380Y-96448761D01*
X77991619Y-96020190D02*
X77944000Y-95972571D01*
X77896380Y-95877333D01*
X77896380Y-95639238D01*
X77944000Y-95544000D01*
X77991619Y-95496380D01*
X78086857Y-95448761D01*
X78182095Y-95448761D01*
X78324952Y-95496380D01*
X78896380Y-96067809D01*
X78896380Y-95448761D01*
X78896380Y-95020190D02*
X77896380Y-95020190D01*
X78515428Y-94924952D02*
X78896380Y-94639238D01*
X78229714Y-94639238D02*
X78610666Y-95020190D01*
D11*
X80625904Y-96177333D02*
X80244952Y-96444000D01*
X80625904Y-96634476D02*
X79825904Y-96634476D01*
X79825904Y-96329714D01*
X79864000Y-96253523D01*
X79902095Y-96215428D01*
X79978285Y-96177333D01*
X80092571Y-96177333D01*
X80168761Y-96215428D01*
X80206857Y-96253523D01*
X80244952Y-96329714D01*
X80244952Y-96634476D01*
X80625904Y-95415428D02*
X80625904Y-95872571D01*
X80625904Y-95644000D02*
X79825904Y-95644000D01*
X79940190Y-95720190D01*
X80016380Y-95796380D01*
X80054476Y-95872571D01*
D10*
%TO.C,J1*%
X62928761Y-125838380D02*
X62928761Y-124838380D01*
X63309714Y-124838380D01*
X63404952Y-124886000D01*
X63452571Y-124933619D01*
X63500190Y-125028857D01*
X63500190Y-125171714D01*
X63452571Y-125266952D01*
X63404952Y-125314571D01*
X63309714Y-125362190D01*
X62928761Y-125362190D01*
X63833523Y-124838380D02*
X64071619Y-125838380D01*
X64262095Y-125124095D01*
X64452571Y-125838380D01*
X64690666Y-124838380D01*
X65071619Y-125457428D02*
X65833523Y-125457428D01*
X66881142Y-125838380D02*
X66547809Y-125362190D01*
X66309714Y-125838380D02*
X66309714Y-124838380D01*
X66690666Y-124838380D01*
X66785904Y-124886000D01*
X66833523Y-124933619D01*
X66881142Y-125028857D01*
X66881142Y-125171714D01*
X66833523Y-125266952D01*
X66785904Y-125314571D01*
X66690666Y-125362190D01*
X66309714Y-125362190D01*
X67309714Y-125838380D02*
X67309714Y-124838380D01*
X67690666Y-124838380D01*
X67785904Y-124886000D01*
X67833523Y-124933619D01*
X67881142Y-125028857D01*
X67881142Y-125171714D01*
X67833523Y-125266952D01*
X67785904Y-125314571D01*
X67690666Y-125362190D01*
X67309714Y-125362190D01*
X68309714Y-125838380D02*
X68309714Y-124838380D01*
X68643047Y-125552666D01*
X68976380Y-124838380D01*
X68976380Y-125838380D01*
X69452571Y-125457428D02*
X70214476Y-125457428D01*
X70643047Y-125790761D02*
X70785904Y-125838380D01*
X71024000Y-125838380D01*
X71119238Y-125790761D01*
X71166857Y-125743142D01*
X71214476Y-125647904D01*
X71214476Y-125552666D01*
X71166857Y-125457428D01*
X71119238Y-125409809D01*
X71024000Y-125362190D01*
X70833523Y-125314571D01*
X70738285Y-125266952D01*
X70690666Y-125219333D01*
X70643047Y-125124095D01*
X70643047Y-125028857D01*
X70690666Y-124933619D01*
X70738285Y-124886000D01*
X70833523Y-124838380D01*
X71071619Y-124838380D01*
X71214476Y-124886000D01*
X71643047Y-125838380D02*
X71643047Y-124838380D01*
X72024000Y-124838380D01*
X72119238Y-124886000D01*
X72166857Y-124933619D01*
X72214476Y-125028857D01*
X72214476Y-125171714D01*
X72166857Y-125266952D01*
X72119238Y-125314571D01*
X72024000Y-125362190D01*
X71643047Y-125362190D01*
X72643047Y-125838380D02*
X72643047Y-124838380D01*
X72881142Y-124838380D01*
X73024000Y-124886000D01*
X73119238Y-124981238D01*
X73166857Y-125076476D01*
X73214476Y-125266952D01*
X73214476Y-125409809D01*
X73166857Y-125600285D01*
X73119238Y-125695523D01*
X73024000Y-125790761D01*
X72881142Y-125838380D01*
X72643047Y-125838380D01*
X73643047Y-125457428D02*
X74404952Y-125457428D01*
X74738285Y-124838380D02*
X75309714Y-124838380D01*
X75024000Y-125838380D02*
X75024000Y-124838380D01*
X75643047Y-125838380D02*
X75643047Y-124838380D01*
X76024000Y-124838380D01*
X76119238Y-124886000D01*
X76166857Y-124933619D01*
X76214476Y-125028857D01*
X76214476Y-125171714D01*
X76166857Y-125266952D01*
X76119238Y-125314571D01*
X76024000Y-125362190D01*
X75643047Y-125362190D01*
X76595428Y-125790761D02*
X76738285Y-125838380D01*
X76976380Y-125838380D01*
X77071619Y-125790761D01*
X77119238Y-125743142D01*
X77166857Y-125647904D01*
X77166857Y-125552666D01*
X77119238Y-125457428D01*
X77071619Y-125409809D01*
X76976380Y-125362190D01*
X76785904Y-125314571D01*
X76690666Y-125266952D01*
X76643047Y-125219333D01*
X76595428Y-125124095D01*
X76595428Y-125028857D01*
X76643047Y-124933619D01*
X76690666Y-124886000D01*
X76785904Y-124838380D01*
X77024000Y-124838380D01*
X77166857Y-124886000D01*
X69690666Y-117888380D02*
X69690666Y-118602666D01*
X69643047Y-118745523D01*
X69547809Y-118840761D01*
X69404952Y-118888380D01*
X69309714Y-118888380D01*
X70690666Y-118888380D02*
X70119238Y-118888380D01*
X70404952Y-118888380D02*
X70404952Y-117888380D01*
X70309714Y-118031238D01*
X70214476Y-118126476D01*
X70119238Y-118174095D01*
%TO.C,R2*%
X83002380Y-96877333D02*
X83002380Y-97448761D01*
X83002380Y-97163047D02*
X82002380Y-97163047D01*
X82145238Y-97258285D01*
X82240476Y-97353523D01*
X82288095Y-97448761D01*
X82907142Y-96448761D02*
X82954761Y-96401142D01*
X83002380Y-96448761D01*
X82954761Y-96496380D01*
X82907142Y-96448761D01*
X83002380Y-96448761D01*
X82097619Y-96020190D02*
X82050000Y-95972571D01*
X82002380Y-95877333D01*
X82002380Y-95639238D01*
X82050000Y-95544000D01*
X82097619Y-95496380D01*
X82192857Y-95448761D01*
X82288095Y-95448761D01*
X82430952Y-95496380D01*
X83002380Y-96067809D01*
X83002380Y-95448761D01*
X83002380Y-95020190D02*
X82002380Y-95020190D01*
X82621428Y-94924952D02*
X83002380Y-94639238D01*
X82335714Y-94639238D02*
X82716666Y-95020190D01*
D11*
X85197904Y-96177333D02*
X84816952Y-96444000D01*
X85197904Y-96634476D02*
X84397904Y-96634476D01*
X84397904Y-96329714D01*
X84436000Y-96253523D01*
X84474095Y-96215428D01*
X84550285Y-96177333D01*
X84664571Y-96177333D01*
X84740761Y-96215428D01*
X84778857Y-96253523D01*
X84816952Y-96329714D01*
X84816952Y-96634476D01*
X84474095Y-95872571D02*
X84436000Y-95834476D01*
X84397904Y-95758285D01*
X84397904Y-95567809D01*
X84436000Y-95491619D01*
X84474095Y-95453523D01*
X84550285Y-95415428D01*
X84626476Y-95415428D01*
X84740761Y-95453523D01*
X85197904Y-95910666D01*
X85197904Y-95415428D01*
D10*
%TO.C,J2*%
X82137333Y-124838380D02*
X82327809Y-124838380D01*
X82423047Y-124886000D01*
X82518285Y-124981238D01*
X82565904Y-125171714D01*
X82565904Y-125505047D01*
X82518285Y-125695523D01*
X82423047Y-125790761D01*
X82327809Y-125838380D01*
X82137333Y-125838380D01*
X82042095Y-125790761D01*
X81946857Y-125695523D01*
X81899238Y-125505047D01*
X81899238Y-125171714D01*
X81946857Y-124981238D01*
X82042095Y-124886000D01*
X82137333Y-124838380D01*
X82994476Y-125838380D02*
X82994476Y-124838380D01*
X83946857Y-125838380D02*
X83470666Y-125838380D01*
X83470666Y-124838380D01*
X84280190Y-125457428D02*
X85042095Y-125457428D01*
X85423047Y-124838380D02*
X85661142Y-125838380D01*
X85851619Y-125124095D01*
X86042095Y-125838380D01*
X86280190Y-124838380D01*
X86613523Y-125552666D02*
X87089714Y-125552666D01*
X86518285Y-125838380D02*
X86851619Y-124838380D01*
X87184952Y-125838380D01*
X87375428Y-124838380D02*
X87946857Y-124838380D01*
X87661142Y-125838380D02*
X87661142Y-124838380D01*
X88280190Y-125314571D02*
X88613523Y-125314571D01*
X88756380Y-125838380D02*
X88280190Y-125838380D01*
X88280190Y-124838380D01*
X88756380Y-124838380D01*
X89756380Y-125838380D02*
X89423047Y-125362190D01*
X89184952Y-125838380D02*
X89184952Y-124838380D01*
X89565904Y-124838380D01*
X89661142Y-124886000D01*
X89708761Y-124933619D01*
X89756380Y-125028857D01*
X89756380Y-125171714D01*
X89708761Y-125266952D01*
X89661142Y-125314571D01*
X89565904Y-125362190D01*
X89184952Y-125362190D01*
X90184952Y-125457428D02*
X90946857Y-125457428D01*
X91375428Y-125552666D02*
X91851619Y-125552666D01*
X91280190Y-125838380D02*
X91613523Y-124838380D01*
X91946857Y-125838380D01*
X92613523Y-125314571D02*
X92280190Y-125314571D01*
X92280190Y-125838380D02*
X92280190Y-124838380D01*
X92756380Y-124838380D01*
X93708761Y-125838380D02*
X93375428Y-125362190D01*
X93137333Y-125838380D02*
X93137333Y-124838380D01*
X93518285Y-124838380D01*
X93613523Y-124886000D01*
X93661142Y-124933619D01*
X93708761Y-125028857D01*
X93708761Y-125171714D01*
X93661142Y-125266952D01*
X93613523Y-125314571D01*
X93518285Y-125362190D01*
X93137333Y-125362190D01*
X87470666Y-117888380D02*
X87470666Y-118602666D01*
X87423047Y-118745523D01*
X87327809Y-118840761D01*
X87184952Y-118888380D01*
X87089714Y-118888380D01*
X87899238Y-117983619D02*
X87946857Y-117936000D01*
X88042095Y-117888380D01*
X88280190Y-117888380D01*
X88375428Y-117936000D01*
X88423047Y-117983619D01*
X88470666Y-118078857D01*
X88470666Y-118174095D01*
X88423047Y-118316952D01*
X87851619Y-118888380D01*
X88470666Y-118888380D01*
%TO.C,J3*%
X98758571Y-124838380D02*
X98996666Y-125838380D01*
X99187142Y-125124095D01*
X99377619Y-125838380D01*
X99615714Y-124838380D01*
X100520476Y-124886000D02*
X100425238Y-124838380D01*
X100282380Y-124838380D01*
X100139523Y-124886000D01*
X100044285Y-124981238D01*
X99996666Y-125076476D01*
X99949047Y-125266952D01*
X99949047Y-125409809D01*
X99996666Y-125600285D01*
X100044285Y-125695523D01*
X100139523Y-125790761D01*
X100282380Y-125838380D01*
X100377619Y-125838380D01*
X100520476Y-125790761D01*
X100568095Y-125743142D01*
X100568095Y-125409809D01*
X100377619Y-125409809D01*
X100996666Y-125457428D02*
X101758571Y-125457428D01*
X102568095Y-125314571D02*
X102234761Y-125314571D01*
X102234761Y-125838380D02*
X102234761Y-124838380D01*
X102710952Y-124838380D01*
X103091904Y-125838380D02*
X103091904Y-124838380D01*
X103472857Y-124838380D01*
X103568095Y-124886000D01*
X103615714Y-124933619D01*
X103663333Y-125028857D01*
X103663333Y-125171714D01*
X103615714Y-125266952D01*
X103568095Y-125314571D01*
X103472857Y-125362190D01*
X103091904Y-125362190D01*
X104091904Y-124838380D02*
X104091904Y-125647904D01*
X104139523Y-125743142D01*
X104187142Y-125790761D01*
X104282380Y-125838380D01*
X104472857Y-125838380D01*
X104568095Y-125790761D01*
X104615714Y-125743142D01*
X104663333Y-125647904D01*
X104663333Y-124838380D01*
X105139523Y-125838380D02*
X105139523Y-124838380D01*
X105472857Y-125552666D01*
X105806190Y-124838380D01*
X105806190Y-125838380D01*
X106282380Y-125838380D02*
X106282380Y-124838380D01*
X106663333Y-124838380D01*
X106758571Y-124886000D01*
X106806190Y-124933619D01*
X106853809Y-125028857D01*
X106853809Y-125171714D01*
X106806190Y-125266952D01*
X106758571Y-125314571D01*
X106663333Y-125362190D01*
X106282380Y-125362190D01*
X102496666Y-117888380D02*
X102496666Y-118602666D01*
X102449047Y-118745523D01*
X102353809Y-118840761D01*
X102210952Y-118888380D01*
X102115714Y-118888380D01*
X102877619Y-117888380D02*
X103496666Y-117888380D01*
X103163333Y-118269333D01*
X103306190Y-118269333D01*
X103401428Y-118316952D01*
X103449047Y-118364571D01*
X103496666Y-118459809D01*
X103496666Y-118697904D01*
X103449047Y-118793142D01*
X103401428Y-118840761D01*
X103306190Y-118888380D01*
X103020476Y-118888380D01*
X102925238Y-118840761D01*
X102877619Y-118793142D01*
%TO.C,J4*%
X112287904Y-125838380D02*
X112287904Y-124838380D01*
X112621238Y-125552666D01*
X112954571Y-124838380D01*
X112954571Y-125838380D01*
X113383142Y-125552666D02*
X113859333Y-125552666D01*
X113287904Y-125838380D02*
X113621238Y-124838380D01*
X113954571Y-125838380D01*
X114287904Y-125838380D02*
X114287904Y-124838380D01*
X114668857Y-124838380D01*
X114764095Y-124886000D01*
X114811714Y-124933619D01*
X114859333Y-125028857D01*
X114859333Y-125171714D01*
X114811714Y-125266952D01*
X114764095Y-125314571D01*
X114668857Y-125362190D01*
X114287904Y-125362190D01*
X115287904Y-125457428D02*
X116049809Y-125457428D01*
X116859333Y-125314571D02*
X116526000Y-125314571D01*
X116526000Y-125838380D02*
X116526000Y-124838380D01*
X117002190Y-124838380D01*
X117383142Y-125838380D02*
X117383142Y-124838380D01*
X117764095Y-124838380D01*
X117859333Y-124886000D01*
X117906952Y-124933619D01*
X117954571Y-125028857D01*
X117954571Y-125171714D01*
X117906952Y-125266952D01*
X117859333Y-125314571D01*
X117764095Y-125362190D01*
X117383142Y-125362190D01*
X118954571Y-125838380D02*
X118621238Y-125362190D01*
X118383142Y-125838380D02*
X118383142Y-124838380D01*
X118764095Y-124838380D01*
X118859333Y-124886000D01*
X118906952Y-124933619D01*
X118954571Y-125028857D01*
X118954571Y-125171714D01*
X118906952Y-125266952D01*
X118859333Y-125314571D01*
X118764095Y-125362190D01*
X118383142Y-125362190D01*
X119383142Y-125314571D02*
X119716476Y-125314571D01*
X119859333Y-125838380D02*
X119383142Y-125838380D01*
X119383142Y-124838380D01*
X119859333Y-124838380D01*
X120240285Y-125790761D02*
X120383142Y-125838380D01*
X120621238Y-125838380D01*
X120716476Y-125790761D01*
X120764095Y-125743142D01*
X120811714Y-125647904D01*
X120811714Y-125552666D01*
X120764095Y-125457428D01*
X120716476Y-125409809D01*
X120621238Y-125362190D01*
X120430761Y-125314571D01*
X120335523Y-125266952D01*
X120287904Y-125219333D01*
X120240285Y-125124095D01*
X120240285Y-125028857D01*
X120287904Y-124933619D01*
X120335523Y-124886000D01*
X120430761Y-124838380D01*
X120668857Y-124838380D01*
X120811714Y-124886000D01*
X116192666Y-117888380D02*
X116192666Y-118602666D01*
X116145047Y-118745523D01*
X116049809Y-118840761D01*
X115906952Y-118888380D01*
X115811714Y-118888380D01*
X117097428Y-118221714D02*
X117097428Y-118888380D01*
X116859333Y-117840761D02*
X116621238Y-118555047D01*
X117240285Y-118555047D01*
%TO.C,J5*%
X129619142Y-125743142D02*
X129571523Y-125790761D01*
X129428666Y-125838380D01*
X129333428Y-125838380D01*
X129190571Y-125790761D01*
X129095333Y-125695523D01*
X129047714Y-125600285D01*
X129000095Y-125409809D01*
X129000095Y-125266952D01*
X129047714Y-125076476D01*
X129095333Y-124981238D01*
X129190571Y-124886000D01*
X129333428Y-124838380D01*
X129428666Y-124838380D01*
X129571523Y-124886000D01*
X129619142Y-124933619D01*
X130000095Y-125552666D02*
X130476285Y-125552666D01*
X129904857Y-125838380D02*
X130238190Y-124838380D01*
X130571523Y-125838380D01*
X130904857Y-125838380D02*
X130904857Y-124838380D01*
X131476285Y-125838380D01*
X131476285Y-124838380D01*
X129928666Y-117888380D02*
X129928666Y-118602666D01*
X129881047Y-118745523D01*
X129785809Y-118840761D01*
X129642952Y-118888380D01*
X129547714Y-118888380D01*
X130881047Y-117888380D02*
X130404857Y-117888380D01*
X130357238Y-118364571D01*
X130404857Y-118316952D01*
X130500095Y-118269333D01*
X130738190Y-118269333D01*
X130833428Y-118316952D01*
X130881047Y-118364571D01*
X130928666Y-118459809D01*
X130928666Y-118697904D01*
X130881047Y-118793142D01*
X130833428Y-118840761D01*
X130738190Y-118888380D01*
X130500095Y-118888380D01*
X130404857Y-118840761D01*
X130357238Y-118793142D01*
%TO.C,D2*%
X64611619Y-111423015D02*
X65183047Y-111423015D01*
X64897333Y-112423015D02*
X64897333Y-111423015D01*
X65373523Y-111423015D02*
X65706857Y-112423015D01*
X66040190Y-111423015D01*
X66325904Y-112375396D02*
X66468761Y-112423015D01*
X66706857Y-112423015D01*
X66802095Y-112375396D01*
X66849714Y-112327777D01*
X66897333Y-112232539D01*
X66897333Y-112137301D01*
X66849714Y-112042063D01*
X66802095Y-111994444D01*
X66706857Y-111946825D01*
X66516380Y-111899206D01*
X66421142Y-111851587D01*
X66373523Y-111803968D01*
X66325904Y-111708730D01*
X66325904Y-111613492D01*
X66373523Y-111518254D01*
X66421142Y-111470635D01*
X66516380Y-111423015D01*
X66754476Y-111423015D01*
X66897333Y-111470635D01*
X68611619Y-112423015D02*
X68040190Y-112423015D01*
X68325904Y-112423015D02*
X68325904Y-111423015D01*
X68230666Y-111565873D01*
X68135428Y-111661111D01*
X68040190Y-111708730D01*
X69183047Y-111851587D02*
X69087809Y-111803968D01*
X69040190Y-111756349D01*
X68992571Y-111661111D01*
X68992571Y-111613492D01*
X69040190Y-111518254D01*
X69087809Y-111470635D01*
X69183047Y-111423015D01*
X69373523Y-111423015D01*
X69468761Y-111470635D01*
X69516380Y-111518254D01*
X69564000Y-111613492D01*
X69564000Y-111661111D01*
X69516380Y-111756349D01*
X69468761Y-111803968D01*
X69373523Y-111851587D01*
X69183047Y-111851587D01*
X69087809Y-111899206D01*
X69040190Y-111946825D01*
X68992571Y-112042063D01*
X68992571Y-112232539D01*
X69040190Y-112327777D01*
X69087809Y-112375396D01*
X69183047Y-112423015D01*
X69373523Y-112423015D01*
X69468761Y-112375396D01*
X69516380Y-112327777D01*
X69564000Y-112232539D01*
X69564000Y-112042063D01*
X69516380Y-111946825D01*
X69468761Y-111899206D01*
X69373523Y-111851587D01*
X69849714Y-111423015D02*
X70183047Y-112423015D01*
X70516380Y-111423015D01*
X66825904Y-106921745D02*
X66825904Y-105921745D01*
X67064000Y-105921745D01*
X67206857Y-105969365D01*
X67302095Y-106064603D01*
X67349714Y-106159841D01*
X67397333Y-106350317D01*
X67397333Y-106493174D01*
X67349714Y-106683650D01*
X67302095Y-106778888D01*
X67206857Y-106874126D01*
X67064000Y-106921745D01*
X66825904Y-106921745D01*
X67778285Y-106016984D02*
X67825904Y-105969365D01*
X67921142Y-105921745D01*
X68159238Y-105921745D01*
X68254476Y-105969365D01*
X68302095Y-106016984D01*
X68349714Y-106112222D01*
X68349714Y-106207460D01*
X68302095Y-106350317D01*
X67730666Y-106921745D01*
X68349714Y-106921745D01*
X68065904Y-110486666D02*
X68542095Y-110486666D01*
X67970666Y-110772380D02*
X68304000Y-109772380D01*
X68637333Y-110772380D01*
%TO.C,U2*%
X64825809Y-96464380D02*
X64825809Y-95464380D01*
X65206761Y-95464380D01*
X65302000Y-95512000D01*
X65349619Y-95559619D01*
X65397238Y-95654857D01*
X65397238Y-95797714D01*
X65349619Y-95892952D01*
X65302000Y-95940571D01*
X65206761Y-95988190D01*
X64825809Y-95988190D01*
X65968666Y-96464380D02*
X65873428Y-96416761D01*
X65825809Y-96369142D01*
X65778190Y-96273904D01*
X65778190Y-95988190D01*
X65825809Y-95892952D01*
X65873428Y-95845333D01*
X65968666Y-95797714D01*
X66111523Y-95797714D01*
X66206761Y-95845333D01*
X66254380Y-95892952D01*
X66302000Y-95988190D01*
X66302000Y-96273904D01*
X66254380Y-96369142D01*
X66206761Y-96416761D01*
X66111523Y-96464380D01*
X65968666Y-96464380D01*
X66635333Y-95797714D02*
X66825809Y-96464380D01*
X67016285Y-95988190D01*
X67206761Y-96464380D01*
X67397238Y-95797714D01*
X68159142Y-96416761D02*
X68063904Y-96464380D01*
X67873428Y-96464380D01*
X67778190Y-96416761D01*
X67730571Y-96321523D01*
X67730571Y-95940571D01*
X67778190Y-95845333D01*
X67873428Y-95797714D01*
X68063904Y-95797714D01*
X68159142Y-95845333D01*
X68206761Y-95940571D01*
X68206761Y-96035809D01*
X67730571Y-96131047D01*
X68635333Y-96464380D02*
X68635333Y-95797714D01*
X68635333Y-95988190D02*
X68682952Y-95892952D01*
X68730571Y-95845333D01*
X68825809Y-95797714D01*
X68921047Y-95797714D01*
%TO.C,Q1*%
X97266380Y-101639333D02*
X96266380Y-101639333D01*
X97266380Y-100591714D02*
X96790190Y-100925047D01*
X97266380Y-101163142D02*
X96266380Y-101163142D01*
X96266380Y-100782190D01*
X96314000Y-100686952D01*
X96361619Y-100639333D01*
X96456857Y-100591714D01*
X96599714Y-100591714D01*
X96694952Y-100639333D01*
X96742571Y-100686952D01*
X96790190Y-100782190D01*
X96790190Y-101163142D01*
X96742571Y-99829809D02*
X96742571Y-100163142D01*
X97266380Y-100163142D02*
X96266380Y-100163142D01*
X96266380Y-99686952D01*
X96266380Y-99401238D02*
X96266380Y-98782190D01*
X96647333Y-99115523D01*
X96647333Y-98972666D01*
X96694952Y-98877428D01*
X96742571Y-98829809D01*
X96837809Y-98782190D01*
X97075904Y-98782190D01*
X97171142Y-98829809D01*
X97218761Y-98877428D01*
X97266380Y-98972666D01*
X97266380Y-99258380D01*
X97218761Y-99353619D01*
X97171142Y-99401238D01*
X96361619Y-98401238D02*
X96314000Y-98353619D01*
X96266380Y-98258380D01*
X96266380Y-98020285D01*
X96314000Y-97925047D01*
X96361619Y-97877428D01*
X96456857Y-97829809D01*
X96552095Y-97829809D01*
X96694952Y-97877428D01*
X97266380Y-98448857D01*
X97266380Y-97829809D01*
X96266380Y-97210761D02*
X96266380Y-97115523D01*
X96314000Y-97020285D01*
X96361619Y-96972666D01*
X96456857Y-96925047D01*
X96647333Y-96877428D01*
X96885428Y-96877428D01*
X97075904Y-96925047D01*
X97171142Y-96972666D01*
X97218761Y-97020285D01*
X97266380Y-97115523D01*
X97266380Y-97210761D01*
X97218761Y-97306000D01*
X97171142Y-97353619D01*
X97075904Y-97401238D01*
X96885428Y-97448857D01*
X96647333Y-97448857D01*
X96456857Y-97401238D01*
X96361619Y-97353619D01*
X96314000Y-97306000D01*
X96266380Y-97210761D01*
X96266380Y-95972666D02*
X96266380Y-96448857D01*
X96742571Y-96496476D01*
X96694952Y-96448857D01*
X96647333Y-96353619D01*
X96647333Y-96115523D01*
X96694952Y-96020285D01*
X96742571Y-95972666D01*
X96837809Y-95925047D01*
X97075904Y-95925047D01*
X97171142Y-95972666D01*
X97218761Y-96020285D01*
X97266380Y-96115523D01*
X97266380Y-96353619D01*
X97218761Y-96448857D01*
X97171142Y-96496476D01*
X104131619Y-103219238D02*
X104084000Y-103314476D01*
X103988761Y-103409714D01*
X103845904Y-103552571D01*
X103798285Y-103647809D01*
X103798285Y-103743047D01*
X104036380Y-103695428D02*
X103988761Y-103790666D01*
X103893523Y-103885904D01*
X103703047Y-103933523D01*
X103369714Y-103933523D01*
X103179238Y-103885904D01*
X103084000Y-103790666D01*
X103036380Y-103695428D01*
X103036380Y-103504952D01*
X103084000Y-103409714D01*
X103179238Y-103314476D01*
X103369714Y-103266857D01*
X103703047Y-103266857D01*
X103893523Y-103314476D01*
X103988761Y-103409714D01*
X104036380Y-103504952D01*
X104036380Y-103695428D01*
X104036380Y-102314476D02*
X104036380Y-102885904D01*
X104036380Y-102600190D02*
X103036380Y-102600190D01*
X103179238Y-102695428D01*
X103274476Y-102790666D01*
X103322095Y-102885904D01*
%TO.C,Q2*%
X104378380Y-101639333D02*
X103378380Y-101639333D01*
X104378380Y-100591714D02*
X103902190Y-100925047D01*
X104378380Y-101163142D02*
X103378380Y-101163142D01*
X103378380Y-100782190D01*
X103426000Y-100686952D01*
X103473619Y-100639333D01*
X103568857Y-100591714D01*
X103711714Y-100591714D01*
X103806952Y-100639333D01*
X103854571Y-100686952D01*
X103902190Y-100782190D01*
X103902190Y-101163142D01*
X103854571Y-99829809D02*
X103854571Y-100163142D01*
X104378380Y-100163142D02*
X103378380Y-100163142D01*
X103378380Y-99686952D01*
X103378380Y-99401238D02*
X103378380Y-98782190D01*
X103759333Y-99115523D01*
X103759333Y-98972666D01*
X103806952Y-98877428D01*
X103854571Y-98829809D01*
X103949809Y-98782190D01*
X104187904Y-98782190D01*
X104283142Y-98829809D01*
X104330761Y-98877428D01*
X104378380Y-98972666D01*
X104378380Y-99258380D01*
X104330761Y-99353619D01*
X104283142Y-99401238D01*
X103473619Y-98401238D02*
X103426000Y-98353619D01*
X103378380Y-98258380D01*
X103378380Y-98020285D01*
X103426000Y-97925047D01*
X103473619Y-97877428D01*
X103568857Y-97829809D01*
X103664095Y-97829809D01*
X103806952Y-97877428D01*
X104378380Y-98448857D01*
X104378380Y-97829809D01*
X103378380Y-97210761D02*
X103378380Y-97115523D01*
X103426000Y-97020285D01*
X103473619Y-96972666D01*
X103568857Y-96925047D01*
X103759333Y-96877428D01*
X103997428Y-96877428D01*
X104187904Y-96925047D01*
X104283142Y-96972666D01*
X104330761Y-97020285D01*
X104378380Y-97115523D01*
X104378380Y-97210761D01*
X104330761Y-97306000D01*
X104283142Y-97353619D01*
X104187904Y-97401238D01*
X103997428Y-97448857D01*
X103759333Y-97448857D01*
X103568857Y-97401238D01*
X103473619Y-97353619D01*
X103426000Y-97306000D01*
X103378380Y-97210761D01*
X103378380Y-95972666D02*
X103378380Y-96448857D01*
X103854571Y-96496476D01*
X103806952Y-96448857D01*
X103759333Y-96353619D01*
X103759333Y-96115523D01*
X103806952Y-96020285D01*
X103854571Y-95972666D01*
X103949809Y-95925047D01*
X104187904Y-95925047D01*
X104283142Y-95972666D01*
X104330761Y-96020285D01*
X104378380Y-96115523D01*
X104378380Y-96353619D01*
X104330761Y-96448857D01*
X104283142Y-96496476D01*
X111037619Y-102965238D02*
X110990000Y-103060476D01*
X110894761Y-103155714D01*
X110751904Y-103298571D01*
X110704285Y-103393809D01*
X110704285Y-103489047D01*
X110942380Y-103441428D02*
X110894761Y-103536666D01*
X110799523Y-103631904D01*
X110609047Y-103679523D01*
X110275714Y-103679523D01*
X110085238Y-103631904D01*
X109990000Y-103536666D01*
X109942380Y-103441428D01*
X109942380Y-103250952D01*
X109990000Y-103155714D01*
X110085238Y-103060476D01*
X110275714Y-103012857D01*
X110609047Y-103012857D01*
X110799523Y-103060476D01*
X110894761Y-103155714D01*
X110942380Y-103250952D01*
X110942380Y-103441428D01*
X110037619Y-102631904D02*
X109990000Y-102584285D01*
X109942380Y-102489047D01*
X109942380Y-102250952D01*
X109990000Y-102155714D01*
X110037619Y-102108095D01*
X110132857Y-102060476D01*
X110228095Y-102060476D01*
X110370952Y-102108095D01*
X110942380Y-102679523D01*
X110942380Y-102060476D01*
%TO.C,R3*%
X98284380Y-83209047D02*
X98284380Y-83780476D01*
X98284380Y-83494761D02*
X97284380Y-83494761D01*
X97427238Y-83590000D01*
X97522476Y-83685238D01*
X97570095Y-83780476D01*
X98284380Y-82780476D02*
X97284380Y-82780476D01*
X97903428Y-82685238D02*
X98284380Y-82399523D01*
X97617714Y-82399523D02*
X97998666Y-82780476D01*
D11*
X96373904Y-83223333D02*
X95992952Y-83490000D01*
X96373904Y-83680476D02*
X95573904Y-83680476D01*
X95573904Y-83375714D01*
X95612000Y-83299523D01*
X95650095Y-83261428D01*
X95726285Y-83223333D01*
X95840571Y-83223333D01*
X95916761Y-83261428D01*
X95954857Y-83299523D01*
X95992952Y-83375714D01*
X95992952Y-83680476D01*
X95573904Y-82956666D02*
X95573904Y-82461428D01*
X95878666Y-82728095D01*
X95878666Y-82613809D01*
X95916761Y-82537619D01*
X95954857Y-82499523D01*
X96031047Y-82461428D01*
X96221523Y-82461428D01*
X96297714Y-82499523D01*
X96335809Y-82537619D01*
X96373904Y-82613809D01*
X96373904Y-82842380D01*
X96335809Y-82918571D01*
X96297714Y-82956666D01*
D10*
%TO.C,R4*%
X103110380Y-83209047D02*
X103110380Y-83780476D01*
X103110380Y-83494761D02*
X102110380Y-83494761D01*
X102253238Y-83590000D01*
X102348476Y-83685238D01*
X102396095Y-83780476D01*
X103110380Y-82780476D02*
X102110380Y-82780476D01*
X102729428Y-82685238D02*
X103110380Y-82399523D01*
X102443714Y-82399523D02*
X102824666Y-82780476D01*
D11*
X101199904Y-83223333D02*
X100818952Y-83490000D01*
X101199904Y-83680476D02*
X100399904Y-83680476D01*
X100399904Y-83375714D01*
X100438000Y-83299523D01*
X100476095Y-83261428D01*
X100552285Y-83223333D01*
X100666571Y-83223333D01*
X100742761Y-83261428D01*
X100780857Y-83299523D01*
X100818952Y-83375714D01*
X100818952Y-83680476D01*
X100666571Y-82537619D02*
X101199904Y-82537619D01*
X100361809Y-82728095D02*
X100933238Y-82918571D01*
X100933238Y-82423333D01*
D10*
%TO.C,R5*%
X108190380Y-83209047D02*
X108190380Y-83780476D01*
X108190380Y-83494761D02*
X107190380Y-83494761D01*
X107333238Y-83590000D01*
X107428476Y-83685238D01*
X107476095Y-83780476D01*
X108190380Y-82780476D02*
X107190380Y-82780476D01*
X107809428Y-82685238D02*
X108190380Y-82399523D01*
X107523714Y-82399523D02*
X107904666Y-82780476D01*
D11*
X106279904Y-83223333D02*
X105898952Y-83490000D01*
X106279904Y-83680476D02*
X105479904Y-83680476D01*
X105479904Y-83375714D01*
X105518000Y-83299523D01*
X105556095Y-83261428D01*
X105632285Y-83223333D01*
X105746571Y-83223333D01*
X105822761Y-83261428D01*
X105860857Y-83299523D01*
X105898952Y-83375714D01*
X105898952Y-83680476D01*
X105479904Y-82499523D02*
X105479904Y-82880476D01*
X105860857Y-82918571D01*
X105822761Y-82880476D01*
X105784666Y-82804285D01*
X105784666Y-82613809D01*
X105822761Y-82537619D01*
X105860857Y-82499523D01*
X105937047Y-82461428D01*
X106127523Y-82461428D01*
X106203714Y-82499523D01*
X106241809Y-82537619D01*
X106279904Y-82613809D01*
X106279904Y-82804285D01*
X106241809Y-82880476D01*
X106203714Y-82918571D01*
D10*
%TO.C,R6*%
X113270380Y-83209047D02*
X113270380Y-83780476D01*
X113270380Y-83494761D02*
X112270380Y-83494761D01*
X112413238Y-83590000D01*
X112508476Y-83685238D01*
X112556095Y-83780476D01*
X113270380Y-82780476D02*
X112270380Y-82780476D01*
X112889428Y-82685238D02*
X113270380Y-82399523D01*
X112603714Y-82399523D02*
X112984666Y-82780476D01*
D11*
X111359904Y-83223333D02*
X110978952Y-83490000D01*
X111359904Y-83680476D02*
X110559904Y-83680476D01*
X110559904Y-83375714D01*
X110598000Y-83299523D01*
X110636095Y-83261428D01*
X110712285Y-83223333D01*
X110826571Y-83223333D01*
X110902761Y-83261428D01*
X110940857Y-83299523D01*
X110978952Y-83375714D01*
X110978952Y-83680476D01*
X110559904Y-82537619D02*
X110559904Y-82690000D01*
X110598000Y-82766190D01*
X110636095Y-82804285D01*
X110750380Y-82880476D01*
X110902761Y-82918571D01*
X111207523Y-82918571D01*
X111283714Y-82880476D01*
X111321809Y-82842380D01*
X111359904Y-82766190D01*
X111359904Y-82613809D01*
X111321809Y-82537619D01*
X111283714Y-82499523D01*
X111207523Y-82461428D01*
X111017047Y-82461428D01*
X110940857Y-82499523D01*
X110902761Y-82537619D01*
X110864666Y-82613809D01*
X110864666Y-82766190D01*
X110902761Y-82842380D01*
X110940857Y-82880476D01*
X111017047Y-82918571D01*
D10*
%TO.C,D4*%
X108402380Y-111616857D02*
X108402380Y-112188285D01*
X108402380Y-111902571D02*
X107402380Y-111902571D01*
X107545238Y-111997809D01*
X107640476Y-112093047D01*
X107688095Y-112188285D01*
X108402380Y-111188285D02*
X107402380Y-111188285D01*
X108402380Y-110616857D01*
X107402380Y-110616857D01*
X107735714Y-109712095D02*
X108402380Y-109712095D01*
X107354761Y-109950190D02*
X108069047Y-110188285D01*
X108069047Y-109569238D01*
X107402380Y-108997809D02*
X107402380Y-108902571D01*
X107450000Y-108807333D01*
X107497619Y-108759714D01*
X107592857Y-108712095D01*
X107783333Y-108664476D01*
X108021428Y-108664476D01*
X108211904Y-108712095D01*
X108307142Y-108759714D01*
X108354761Y-108807333D01*
X108402380Y-108902571D01*
X108402380Y-108997809D01*
X108354761Y-109093047D01*
X108307142Y-109140666D01*
X108211904Y-109188285D01*
X108021428Y-109235904D01*
X107783333Y-109235904D01*
X107592857Y-109188285D01*
X107497619Y-109140666D01*
X107450000Y-109093047D01*
X107402380Y-108997809D01*
X107402380Y-108045428D02*
X107402380Y-107950190D01*
X107450000Y-107854952D01*
X107497619Y-107807333D01*
X107592857Y-107759714D01*
X107783333Y-107712095D01*
X108021428Y-107712095D01*
X108211904Y-107759714D01*
X108307142Y-107807333D01*
X108354761Y-107854952D01*
X108402380Y-107950190D01*
X108402380Y-108045428D01*
X108354761Y-108140666D01*
X108307142Y-108188285D01*
X108211904Y-108235904D01*
X108021428Y-108283523D01*
X107783333Y-108283523D01*
X107592857Y-108235904D01*
X107497619Y-108188285D01*
X107450000Y-108140666D01*
X107402380Y-108045428D01*
X108402380Y-106759714D02*
X108402380Y-107331142D01*
X108402380Y-107045428D02*
X107402380Y-107045428D01*
X107545238Y-107140666D01*
X107640476Y-107235904D01*
X107688095Y-107331142D01*
X105703666Y-111451961D02*
X105703666Y-110975770D01*
X105989380Y-111547199D02*
X104989380Y-111213866D01*
X105989380Y-110880532D01*
X108402380Y-105894095D02*
X107402380Y-105894095D01*
X107402380Y-105656000D01*
X107450000Y-105513142D01*
X107545238Y-105417904D01*
X107640476Y-105370285D01*
X107830952Y-105322666D01*
X107973809Y-105322666D01*
X108164285Y-105370285D01*
X108259523Y-105417904D01*
X108354761Y-105513142D01*
X108402380Y-105656000D01*
X108402380Y-105894095D01*
X107735714Y-104465523D02*
X108402380Y-104465523D01*
X107354761Y-104703619D02*
X108069047Y-104941714D01*
X108069047Y-104322666D01*
%TO.C,D3*%
X103068380Y-111362857D02*
X103068380Y-111934285D01*
X103068380Y-111648571D02*
X102068380Y-111648571D01*
X102211238Y-111743809D01*
X102306476Y-111839047D01*
X102354095Y-111934285D01*
X103068380Y-110934285D02*
X102068380Y-110934285D01*
X103068380Y-110362857D01*
X102068380Y-110362857D01*
X102401714Y-109458095D02*
X103068380Y-109458095D01*
X102020761Y-109696190D02*
X102735047Y-109934285D01*
X102735047Y-109315238D01*
X102068380Y-108743809D02*
X102068380Y-108648571D01*
X102116000Y-108553333D01*
X102163619Y-108505714D01*
X102258857Y-108458095D01*
X102449333Y-108410476D01*
X102687428Y-108410476D01*
X102877904Y-108458095D01*
X102973142Y-108505714D01*
X103020761Y-108553333D01*
X103068380Y-108648571D01*
X103068380Y-108743809D01*
X103020761Y-108839047D01*
X102973142Y-108886666D01*
X102877904Y-108934285D01*
X102687428Y-108981904D01*
X102449333Y-108981904D01*
X102258857Y-108934285D01*
X102163619Y-108886666D01*
X102116000Y-108839047D01*
X102068380Y-108743809D01*
X102068380Y-107791428D02*
X102068380Y-107696190D01*
X102116000Y-107600952D01*
X102163619Y-107553333D01*
X102258857Y-107505714D01*
X102449333Y-107458095D01*
X102687428Y-107458095D01*
X102877904Y-107505714D01*
X102973142Y-107553333D01*
X103020761Y-107600952D01*
X103068380Y-107696190D01*
X103068380Y-107791428D01*
X103020761Y-107886666D01*
X102973142Y-107934285D01*
X102877904Y-107981904D01*
X102687428Y-108029523D01*
X102449333Y-108029523D01*
X102258857Y-107981904D01*
X102163619Y-107934285D01*
X102116000Y-107886666D01*
X102068380Y-107791428D01*
X103068380Y-106505714D02*
X103068380Y-107077142D01*
X103068380Y-106791428D02*
X102068380Y-106791428D01*
X102211238Y-106886666D01*
X102306476Y-106981904D01*
X102354095Y-107077142D01*
X103068380Y-105894095D02*
X102068380Y-105894095D01*
X102068380Y-105656000D01*
X102116000Y-105513142D01*
X102211238Y-105417904D01*
X102306476Y-105370285D01*
X102496952Y-105322666D01*
X102639809Y-105322666D01*
X102830285Y-105370285D01*
X102925523Y-105417904D01*
X103020761Y-105513142D01*
X103068380Y-105656000D01*
X103068380Y-105894095D01*
X102068380Y-104989333D02*
X102068380Y-104370285D01*
X102449333Y-104703619D01*
X102449333Y-104560761D01*
X102496952Y-104465523D01*
X102544571Y-104417904D01*
X102639809Y-104370285D01*
X102877904Y-104370285D01*
X102973142Y-104417904D01*
X103020761Y-104465523D01*
X103068380Y-104560761D01*
X103068380Y-104846476D01*
X103020761Y-104941714D01*
X102973142Y-104989333D01*
X100369666Y-111451961D02*
X100369666Y-110975770D01*
X100655380Y-111547199D02*
X99655380Y-111213866D01*
X100655380Y-110880532D01*
%TO.C,Q4*%
X104743523Y-93228761D02*
X104886380Y-93276380D01*
X105124476Y-93276380D01*
X105219714Y-93228761D01*
X105267333Y-93181142D01*
X105314952Y-93085904D01*
X105314952Y-92990666D01*
X105267333Y-92895428D01*
X105219714Y-92847809D01*
X105124476Y-92800190D01*
X104934000Y-92752571D01*
X104838761Y-92704952D01*
X104791142Y-92657333D01*
X104743523Y-92562095D01*
X104743523Y-92466857D01*
X104791142Y-92371619D01*
X104838761Y-92324000D01*
X104934000Y-92276380D01*
X105172095Y-92276380D01*
X105314952Y-92324000D01*
X105791142Y-93276380D02*
X105981619Y-93276380D01*
X106076857Y-93228761D01*
X106124476Y-93181142D01*
X106219714Y-93038285D01*
X106267333Y-92847809D01*
X106267333Y-92466857D01*
X106219714Y-92371619D01*
X106172095Y-92324000D01*
X106076857Y-92276380D01*
X105886380Y-92276380D01*
X105791142Y-92324000D01*
X105743523Y-92371619D01*
X105695904Y-92466857D01*
X105695904Y-92704952D01*
X105743523Y-92800190D01*
X105791142Y-92847809D01*
X105886380Y-92895428D01*
X106076857Y-92895428D01*
X106172095Y-92847809D01*
X106219714Y-92800190D01*
X106267333Y-92704952D01*
X106886380Y-92276380D02*
X106981619Y-92276380D01*
X107076857Y-92324000D01*
X107124476Y-92371619D01*
X107172095Y-92466857D01*
X107219714Y-92657333D01*
X107219714Y-92895428D01*
X107172095Y-93085904D01*
X107124476Y-93181142D01*
X107076857Y-93228761D01*
X106981619Y-93276380D01*
X106886380Y-93276380D01*
X106791142Y-93228761D01*
X106743523Y-93181142D01*
X106695904Y-93085904D01*
X106648285Y-92895428D01*
X106648285Y-92657333D01*
X106695904Y-92466857D01*
X106743523Y-92371619D01*
X106791142Y-92324000D01*
X106886380Y-92276380D01*
X108172095Y-93276380D02*
X107600666Y-93276380D01*
X107886380Y-93276380D02*
X107886380Y-92276380D01*
X107791142Y-92419238D01*
X107695904Y-92514476D01*
X107600666Y-92562095D01*
X108505428Y-92276380D02*
X109124476Y-92276380D01*
X108791142Y-92657333D01*
X108934000Y-92657333D01*
X109029238Y-92704952D01*
X109076857Y-92752571D01*
X109124476Y-92847809D01*
X109124476Y-93085904D01*
X109076857Y-93181142D01*
X109029238Y-93228761D01*
X108934000Y-93276380D01*
X108648285Y-93276380D01*
X108553047Y-93228761D01*
X108505428Y-93181142D01*
D12*
X106903523Y-90599238D02*
X106873047Y-90584000D01*
X106842571Y-90553523D01*
X106796857Y-90507809D01*
X106766380Y-90492571D01*
X106735904Y-90492571D01*
X106751142Y-90568761D02*
X106720666Y-90553523D01*
X106690190Y-90523047D01*
X106674952Y-90462095D01*
X106674952Y-90355428D01*
X106690190Y-90294476D01*
X106720666Y-90264000D01*
X106751142Y-90248761D01*
X106812095Y-90248761D01*
X106842571Y-90264000D01*
X106873047Y-90294476D01*
X106888285Y-90355428D01*
X106888285Y-90462095D01*
X106873047Y-90523047D01*
X106842571Y-90553523D01*
X106812095Y-90568761D01*
X106751142Y-90568761D01*
X107162571Y-90355428D02*
X107162571Y-90568761D01*
X107086380Y-90233523D02*
X107010190Y-90462095D01*
X107208285Y-90462095D01*
D10*
%TO.C,Q3*%
X96869523Y-93228761D02*
X97012380Y-93276380D01*
X97250476Y-93276380D01*
X97345714Y-93228761D01*
X97393333Y-93181142D01*
X97440952Y-93085904D01*
X97440952Y-92990666D01*
X97393333Y-92895428D01*
X97345714Y-92847809D01*
X97250476Y-92800190D01*
X97060000Y-92752571D01*
X96964761Y-92704952D01*
X96917142Y-92657333D01*
X96869523Y-92562095D01*
X96869523Y-92466857D01*
X96917142Y-92371619D01*
X96964761Y-92324000D01*
X97060000Y-92276380D01*
X97298095Y-92276380D01*
X97440952Y-92324000D01*
X97917142Y-93276380D02*
X98107619Y-93276380D01*
X98202857Y-93228761D01*
X98250476Y-93181142D01*
X98345714Y-93038285D01*
X98393333Y-92847809D01*
X98393333Y-92466857D01*
X98345714Y-92371619D01*
X98298095Y-92324000D01*
X98202857Y-92276380D01*
X98012380Y-92276380D01*
X97917142Y-92324000D01*
X97869523Y-92371619D01*
X97821904Y-92466857D01*
X97821904Y-92704952D01*
X97869523Y-92800190D01*
X97917142Y-92847809D01*
X98012380Y-92895428D01*
X98202857Y-92895428D01*
X98298095Y-92847809D01*
X98345714Y-92800190D01*
X98393333Y-92704952D01*
X99012380Y-92276380D02*
X99107619Y-92276380D01*
X99202857Y-92324000D01*
X99250476Y-92371619D01*
X99298095Y-92466857D01*
X99345714Y-92657333D01*
X99345714Y-92895428D01*
X99298095Y-93085904D01*
X99250476Y-93181142D01*
X99202857Y-93228761D01*
X99107619Y-93276380D01*
X99012380Y-93276380D01*
X98917142Y-93228761D01*
X98869523Y-93181142D01*
X98821904Y-93085904D01*
X98774285Y-92895428D01*
X98774285Y-92657333D01*
X98821904Y-92466857D01*
X98869523Y-92371619D01*
X98917142Y-92324000D01*
X99012380Y-92276380D01*
X100298095Y-93276380D02*
X99726666Y-93276380D01*
X100012380Y-93276380D02*
X100012380Y-92276380D01*
X99917142Y-92419238D01*
X99821904Y-92514476D01*
X99726666Y-92562095D01*
X100631428Y-92276380D02*
X101250476Y-92276380D01*
X100917142Y-92657333D01*
X101060000Y-92657333D01*
X101155238Y-92704952D01*
X101202857Y-92752571D01*
X101250476Y-92847809D01*
X101250476Y-93085904D01*
X101202857Y-93181142D01*
X101155238Y-93228761D01*
X101060000Y-93276380D01*
X100774285Y-93276380D01*
X100679047Y-93228761D01*
X100631428Y-93181142D01*
D12*
X99029523Y-90599238D02*
X98999047Y-90584000D01*
X98968571Y-90553523D01*
X98922857Y-90507809D01*
X98892380Y-90492571D01*
X98861904Y-90492571D01*
X98877142Y-90568761D02*
X98846666Y-90553523D01*
X98816190Y-90523047D01*
X98800952Y-90462095D01*
X98800952Y-90355428D01*
X98816190Y-90294476D01*
X98846666Y-90264000D01*
X98877142Y-90248761D01*
X98938095Y-90248761D01*
X98968571Y-90264000D01*
X98999047Y-90294476D01*
X99014285Y-90355428D01*
X99014285Y-90462095D01*
X98999047Y-90523047D01*
X98968571Y-90553523D01*
X98938095Y-90568761D01*
X98877142Y-90568761D01*
X99120952Y-90248761D02*
X99319047Y-90248761D01*
X99212380Y-90370666D01*
X99258095Y-90370666D01*
X99288571Y-90385904D01*
X99303809Y-90401142D01*
X99319047Y-90431619D01*
X99319047Y-90507809D01*
X99303809Y-90538285D01*
X99288571Y-90553523D01*
X99258095Y-90568761D01*
X99166666Y-90568761D01*
X99136190Y-90553523D01*
X99120952Y-90538285D01*
D10*
%TO.C,U3*%
X121166761Y-95702380D02*
X121166761Y-94702380D01*
X121500095Y-95416666D01*
X121833428Y-94702380D01*
X121833428Y-95702380D01*
X122881047Y-95607142D02*
X122833428Y-95654761D01*
X122690571Y-95702380D01*
X122595333Y-95702380D01*
X122452476Y-95654761D01*
X122357238Y-95559523D01*
X122309619Y-95464285D01*
X122262000Y-95273809D01*
X122262000Y-95130952D01*
X122309619Y-94940476D01*
X122357238Y-94845238D01*
X122452476Y-94750000D01*
X122595333Y-94702380D01*
X122690571Y-94702380D01*
X122833428Y-94750000D01*
X122881047Y-94797619D01*
X123309619Y-95702380D02*
X123309619Y-94702380D01*
X123690571Y-94702380D01*
X123785809Y-94750000D01*
X123833428Y-94797619D01*
X123881047Y-94892857D01*
X123881047Y-95035714D01*
X123833428Y-95130952D01*
X123785809Y-95178571D01*
X123690571Y-95226190D01*
X123309619Y-95226190D01*
X124262000Y-94797619D02*
X124309619Y-94750000D01*
X124404857Y-94702380D01*
X124642952Y-94702380D01*
X124738190Y-94750000D01*
X124785809Y-94797619D01*
X124833428Y-94892857D01*
X124833428Y-94988095D01*
X124785809Y-95130952D01*
X124214380Y-95702380D01*
X124833428Y-95702380D01*
X125738190Y-94702380D02*
X125262000Y-94702380D01*
X125214380Y-95178571D01*
X125262000Y-95130952D01*
X125357238Y-95083333D01*
X125595333Y-95083333D01*
X125690571Y-95130952D01*
X125738190Y-95178571D01*
X125785809Y-95273809D01*
X125785809Y-95511904D01*
X125738190Y-95607142D01*
X125690571Y-95654761D01*
X125595333Y-95702380D01*
X125357238Y-95702380D01*
X125262000Y-95654761D01*
X125214380Y-95607142D01*
X126690571Y-94702380D02*
X126214380Y-94702380D01*
X126166761Y-95178571D01*
X126214380Y-95130952D01*
X126309619Y-95083333D01*
X126547714Y-95083333D01*
X126642952Y-95130952D01*
X126690571Y-95178571D01*
X126738190Y-95273809D01*
X126738190Y-95511904D01*
X126690571Y-95607142D01*
X126642952Y-95654761D01*
X126547714Y-95702380D01*
X126309619Y-95702380D01*
X126214380Y-95654761D01*
X126166761Y-95607142D01*
X127690571Y-95702380D02*
X127119142Y-95702380D01*
X127404857Y-95702380D02*
X127404857Y-94702380D01*
X127309619Y-94845238D01*
X127214380Y-94940476D01*
X127119142Y-94988095D01*
X127881047Y-95797619D02*
X128642952Y-95797619D01*
X128881047Y-95702380D02*
X128881047Y-94702380D01*
X129214380Y-95416666D01*
X129547714Y-94702380D01*
X129547714Y-95702380D01*
X130214380Y-94702380D02*
X130404857Y-94702380D01*
X130500095Y-94750000D01*
X130595333Y-94845238D01*
X130642952Y-95035714D01*
X130642952Y-95369047D01*
X130595333Y-95559523D01*
X130500095Y-95654761D01*
X130404857Y-95702380D01*
X130214380Y-95702380D01*
X130119142Y-95654761D01*
X130023904Y-95559523D01*
X129976285Y-95369047D01*
X129976285Y-95035714D01*
X130023904Y-94845238D01*
X130119142Y-94750000D01*
X130214380Y-94702380D01*
X131071523Y-95702380D02*
X131071523Y-94702380D01*
X131309619Y-94702380D01*
X131452476Y-94750000D01*
X131547714Y-94845238D01*
X131595333Y-94940476D01*
X131642952Y-95130952D01*
X131642952Y-95273809D01*
X131595333Y-95464285D01*
X131547714Y-95559523D01*
X131452476Y-95654761D01*
X131309619Y-95702380D01*
X131071523Y-95702380D01*
X132071523Y-94702380D02*
X132071523Y-95511904D01*
X132119142Y-95607142D01*
X132166761Y-95654761D01*
X132262000Y-95702380D01*
X132452476Y-95702380D01*
X132547714Y-95654761D01*
X132595333Y-95607142D01*
X132642952Y-95511904D01*
X132642952Y-94702380D01*
X133595333Y-95702380D02*
X133119142Y-95702380D01*
X133119142Y-94702380D01*
X133928666Y-95178571D02*
X134262000Y-95178571D01*
X134404857Y-95702380D02*
X133928666Y-95702380D01*
X133928666Y-94702380D01*
X134404857Y-94702380D01*
%TO.C,J7*%
X133342285Y-84824380D02*
X133342285Y-83824380D01*
X133723238Y-83824380D01*
X133818476Y-83872000D01*
X133866095Y-83919619D01*
X133913714Y-84014857D01*
X133913714Y-84157714D01*
X133866095Y-84252952D01*
X133818476Y-84300571D01*
X133723238Y-84348190D01*
X133342285Y-84348190D01*
X134913714Y-84824380D02*
X134580380Y-84348190D01*
X134342285Y-84824380D02*
X134342285Y-83824380D01*
X134723238Y-83824380D01*
X134818476Y-83872000D01*
X134866095Y-83919619D01*
X134913714Y-84014857D01*
X134913714Y-84157714D01*
X134866095Y-84252952D01*
X134818476Y-84300571D01*
X134723238Y-84348190D01*
X134342285Y-84348190D01*
X135532761Y-83824380D02*
X135723238Y-83824380D01*
X135818476Y-83872000D01*
X135913714Y-83967238D01*
X135961333Y-84157714D01*
X135961333Y-84491047D01*
X135913714Y-84681523D01*
X135818476Y-84776761D01*
X135723238Y-84824380D01*
X135532761Y-84824380D01*
X135437523Y-84776761D01*
X135342285Y-84681523D01*
X135294666Y-84491047D01*
X135294666Y-84157714D01*
X135342285Y-83967238D01*
X135437523Y-83872000D01*
X135532761Y-83824380D01*
X136913714Y-83872000D02*
X136818476Y-83824380D01*
X136675619Y-83824380D01*
X136532761Y-83872000D01*
X136437523Y-83967238D01*
X136389904Y-84062476D01*
X136342285Y-84252952D01*
X136342285Y-84395809D01*
X136389904Y-84586285D01*
X136437523Y-84681523D01*
X136532761Y-84776761D01*
X136675619Y-84824380D01*
X136770857Y-84824380D01*
X136913714Y-84776761D01*
X136961333Y-84729142D01*
X136961333Y-84395809D01*
X136770857Y-84395809D01*
X134580380Y-78565333D02*
X135294666Y-78565333D01*
X135437523Y-78612952D01*
X135532761Y-78708190D01*
X135580380Y-78851047D01*
X135580380Y-78946285D01*
X134580380Y-78184380D02*
X134580380Y-77517714D01*
X135580380Y-77946285D01*
%TO.C,J6*%
X65746380Y-77549333D02*
X66460666Y-77549333D01*
X66603523Y-77596952D01*
X66698761Y-77692190D01*
X66746380Y-77835047D01*
X66746380Y-77930285D01*
X65746380Y-76644571D02*
X65746380Y-76835047D01*
X65794000Y-76930285D01*
X65841619Y-76977904D01*
X65984476Y-77073142D01*
X66174952Y-77120761D01*
X66555904Y-77120761D01*
X66651142Y-77073142D01*
X66698761Y-77025523D01*
X66746380Y-76930285D01*
X66746380Y-76739809D01*
X66698761Y-76644571D01*
X66651142Y-76596952D01*
X66555904Y-76549333D01*
X66317809Y-76549333D01*
X66222571Y-76596952D01*
X66174952Y-76644571D01*
X66127333Y-76739809D01*
X66127333Y-76930285D01*
X66174952Y-77025523D01*
X66222571Y-77073142D01*
X66317809Y-77120761D01*
%TO.C,C5*%
X82588380Y-92408285D02*
X82588380Y-92979714D01*
X82588380Y-92694000D02*
X81588380Y-92694000D01*
X81731238Y-92789238D01*
X81826476Y-92884476D01*
X81874095Y-92979714D01*
X81588380Y-91789238D02*
X81588380Y-91694000D01*
X81636000Y-91598761D01*
X81683619Y-91551142D01*
X81778857Y-91503523D01*
X81969333Y-91455904D01*
X82207428Y-91455904D01*
X82397904Y-91503523D01*
X82493142Y-91551142D01*
X82540761Y-91598761D01*
X82588380Y-91694000D01*
X82588380Y-91789238D01*
X82540761Y-91884476D01*
X82493142Y-91932095D01*
X82397904Y-91979714D01*
X82207428Y-92027333D01*
X81969333Y-92027333D01*
X81778857Y-91979714D01*
X81683619Y-91932095D01*
X81636000Y-91884476D01*
X81588380Y-91789238D01*
X81921714Y-91027333D02*
X82921714Y-91027333D01*
X82445523Y-90551142D02*
X82540761Y-90503523D01*
X82588380Y-90408285D01*
X82445523Y-91027333D02*
X82540761Y-90979714D01*
X82588380Y-90884476D01*
X82588380Y-90694000D01*
X82540761Y-90598761D01*
X82445523Y-90551142D01*
X81921714Y-90551142D01*
D13*
X83708857Y-91760666D02*
X83727904Y-91779714D01*
X83746952Y-91836857D01*
X83746952Y-91874952D01*
X83727904Y-91932095D01*
X83689809Y-91970190D01*
X83651714Y-91989238D01*
X83575523Y-92008285D01*
X83518380Y-92008285D01*
X83442190Y-91989238D01*
X83404095Y-91970190D01*
X83366000Y-91932095D01*
X83346952Y-91874952D01*
X83346952Y-91836857D01*
X83366000Y-91779714D01*
X83385047Y-91760666D01*
X83346952Y-91398761D02*
X83346952Y-91589238D01*
X83537428Y-91608285D01*
X83518380Y-91589238D01*
X83499333Y-91551142D01*
X83499333Y-91455904D01*
X83518380Y-91417809D01*
X83537428Y-91398761D01*
X83575523Y-91379714D01*
X83670761Y-91379714D01*
X83708857Y-91398761D01*
X83727904Y-91417809D01*
X83746952Y-91455904D01*
X83746952Y-91551142D01*
X83727904Y-91589238D01*
X83708857Y-91608285D01*
D10*
%TO.C,TP11*%
X82843904Y-72490380D02*
X83415333Y-72490380D01*
X83129619Y-73490380D02*
X83129619Y-72490380D01*
X83748666Y-73490380D02*
X83748666Y-72490380D01*
X84129619Y-72490380D01*
X84224857Y-72538000D01*
X84272476Y-72585619D01*
X84320095Y-72680857D01*
X84320095Y-72823714D01*
X84272476Y-72918952D01*
X84224857Y-72966571D01*
X84129619Y-73014190D01*
X83748666Y-73014190D01*
X85272476Y-73490380D02*
X84701047Y-73490380D01*
X84986761Y-73490380D02*
X84986761Y-72490380D01*
X84891523Y-72633238D01*
X84796285Y-72728476D01*
X84701047Y-72776095D01*
X86224857Y-73490380D02*
X85653428Y-73490380D01*
X85939142Y-73490380D02*
X85939142Y-72490380D01*
X85843904Y-72633238D01*
X85748666Y-72728476D01*
X85653428Y-72776095D01*
%TO.C,R24*%
X81801619Y-84462761D02*
X81754000Y-84415142D01*
X81706380Y-84319904D01*
X81706380Y-84081809D01*
X81754000Y-83986571D01*
X81801619Y-83938952D01*
X81896857Y-83891333D01*
X81992095Y-83891333D01*
X82134952Y-83938952D01*
X82706380Y-84510380D01*
X82706380Y-83891333D01*
X82611142Y-83462761D02*
X82658761Y-83415142D01*
X82706380Y-83462761D01*
X82658761Y-83510380D01*
X82611142Y-83462761D01*
X82706380Y-83462761D01*
X81801619Y-83034190D02*
X81754000Y-82986571D01*
X81706380Y-82891333D01*
X81706380Y-82653238D01*
X81754000Y-82558000D01*
X81801619Y-82510380D01*
X81896857Y-82462761D01*
X81992095Y-82462761D01*
X82134952Y-82510380D01*
X82706380Y-83081809D01*
X82706380Y-82462761D01*
X82706380Y-82034190D02*
X81706380Y-82034190D01*
X82325428Y-81938952D02*
X82706380Y-81653238D01*
X82039714Y-81653238D02*
X82420666Y-82034190D01*
D11*
X84435904Y-83572285D02*
X84054952Y-83838952D01*
X84435904Y-84029428D02*
X83635904Y-84029428D01*
X83635904Y-83724666D01*
X83674000Y-83648476D01*
X83712095Y-83610380D01*
X83788285Y-83572285D01*
X83902571Y-83572285D01*
X83978761Y-83610380D01*
X84016857Y-83648476D01*
X84054952Y-83724666D01*
X84054952Y-84029428D01*
X83712095Y-83267523D02*
X83674000Y-83229428D01*
X83635904Y-83153238D01*
X83635904Y-82962761D01*
X83674000Y-82886571D01*
X83712095Y-82848476D01*
X83788285Y-82810380D01*
X83864476Y-82810380D01*
X83978761Y-82848476D01*
X84435904Y-83305619D01*
X84435904Y-82810380D01*
X83902571Y-82124666D02*
X84435904Y-82124666D01*
X83597809Y-82315142D02*
X84169238Y-82505619D01*
X84169238Y-82010380D01*
D10*
%TO.C,C4*%
X79540380Y-92336857D02*
X79540380Y-92908285D01*
X79540380Y-92622571D02*
X78540380Y-92622571D01*
X78683238Y-92717809D01*
X78778476Y-92813047D01*
X78826095Y-92908285D01*
X78540380Y-91717809D02*
X78540380Y-91622571D01*
X78588000Y-91527333D01*
X78635619Y-91479714D01*
X78730857Y-91432095D01*
X78921333Y-91384476D01*
X79159428Y-91384476D01*
X79349904Y-91432095D01*
X79445142Y-91479714D01*
X79492761Y-91527333D01*
X79540380Y-91622571D01*
X79540380Y-91717809D01*
X79492761Y-91813047D01*
X79445142Y-91860666D01*
X79349904Y-91908285D01*
X79159428Y-91955904D01*
X78921333Y-91955904D01*
X78730857Y-91908285D01*
X78635619Y-91860666D01*
X78588000Y-91813047D01*
X78540380Y-91717809D01*
X78873714Y-90955904D02*
X79540380Y-90955904D01*
X78968952Y-90955904D02*
X78921333Y-90908285D01*
X78873714Y-90813047D01*
X78873714Y-90670190D01*
X78921333Y-90574952D01*
X79016571Y-90527333D01*
X79540380Y-90527333D01*
D13*
X80660857Y-91760666D02*
X80679904Y-91779714D01*
X80698952Y-91836857D01*
X80698952Y-91874952D01*
X80679904Y-91932095D01*
X80641809Y-91970190D01*
X80603714Y-91989238D01*
X80527523Y-92008285D01*
X80470380Y-92008285D01*
X80394190Y-91989238D01*
X80356095Y-91970190D01*
X80318000Y-91932095D01*
X80298952Y-91874952D01*
X80298952Y-91836857D01*
X80318000Y-91779714D01*
X80337047Y-91760666D01*
X80432285Y-91417809D02*
X80698952Y-91417809D01*
X80279904Y-91513047D02*
X80565619Y-91608285D01*
X80565619Y-91360666D01*
D10*
%TO.C,R22*%
X73673619Y-84462761D02*
X73626000Y-84415142D01*
X73578380Y-84319904D01*
X73578380Y-84081809D01*
X73626000Y-83986571D01*
X73673619Y-83938952D01*
X73768857Y-83891333D01*
X73864095Y-83891333D01*
X74006952Y-83938952D01*
X74578380Y-84510380D01*
X74578380Y-83891333D01*
X74483142Y-83462761D02*
X74530761Y-83415142D01*
X74578380Y-83462761D01*
X74530761Y-83510380D01*
X74483142Y-83462761D01*
X74578380Y-83462761D01*
X73673619Y-83034190D02*
X73626000Y-82986571D01*
X73578380Y-82891333D01*
X73578380Y-82653238D01*
X73626000Y-82558000D01*
X73673619Y-82510380D01*
X73768857Y-82462761D01*
X73864095Y-82462761D01*
X74006952Y-82510380D01*
X74578380Y-83081809D01*
X74578380Y-82462761D01*
X74578380Y-82034190D02*
X73578380Y-82034190D01*
X74197428Y-81938952D02*
X74578380Y-81653238D01*
X73911714Y-81653238D02*
X74292666Y-82034190D01*
D11*
X76307904Y-83572285D02*
X75926952Y-83838952D01*
X76307904Y-84029428D02*
X75507904Y-84029428D01*
X75507904Y-83724666D01*
X75546000Y-83648476D01*
X75584095Y-83610380D01*
X75660285Y-83572285D01*
X75774571Y-83572285D01*
X75850761Y-83610380D01*
X75888857Y-83648476D01*
X75926952Y-83724666D01*
X75926952Y-84029428D01*
X75584095Y-83267523D02*
X75546000Y-83229428D01*
X75507904Y-83153238D01*
X75507904Y-82962761D01*
X75546000Y-82886571D01*
X75584095Y-82848476D01*
X75660285Y-82810380D01*
X75736476Y-82810380D01*
X75850761Y-82848476D01*
X76307904Y-83305619D01*
X76307904Y-82810380D01*
X75584095Y-82505619D02*
X75546000Y-82467523D01*
X75507904Y-82391333D01*
X75507904Y-82200857D01*
X75546000Y-82124666D01*
X75584095Y-82086571D01*
X75660285Y-82048476D01*
X75736476Y-82048476D01*
X75850761Y-82086571D01*
X76307904Y-82543714D01*
X76307904Y-82048476D01*
D10*
%TO.C,C8*%
X106972380Y-78946285D02*
X106972380Y-79517714D01*
X106972380Y-79232000D02*
X105972380Y-79232000D01*
X106115238Y-79327238D01*
X106210476Y-79422476D01*
X106258095Y-79517714D01*
X105972380Y-78327238D02*
X105972380Y-78232000D01*
X106020000Y-78136761D01*
X106067619Y-78089142D01*
X106162857Y-78041523D01*
X106353333Y-77993904D01*
X106591428Y-77993904D01*
X106781904Y-78041523D01*
X106877142Y-78089142D01*
X106924761Y-78136761D01*
X106972380Y-78232000D01*
X106972380Y-78327238D01*
X106924761Y-78422476D01*
X106877142Y-78470095D01*
X106781904Y-78517714D01*
X106591428Y-78565333D01*
X106353333Y-78565333D01*
X106162857Y-78517714D01*
X106067619Y-78470095D01*
X106020000Y-78422476D01*
X105972380Y-78327238D01*
X106305714Y-77565333D02*
X107305714Y-77565333D01*
X106829523Y-77089142D02*
X106924761Y-77041523D01*
X106972380Y-76946285D01*
X106829523Y-77565333D02*
X106924761Y-77517714D01*
X106972380Y-77422476D01*
X106972380Y-77232000D01*
X106924761Y-77136761D01*
X106829523Y-77089142D01*
X106305714Y-77089142D01*
D13*
X108092857Y-78298666D02*
X108111904Y-78317714D01*
X108130952Y-78374857D01*
X108130952Y-78412952D01*
X108111904Y-78470095D01*
X108073809Y-78508190D01*
X108035714Y-78527238D01*
X107959523Y-78546285D01*
X107902380Y-78546285D01*
X107826190Y-78527238D01*
X107788095Y-78508190D01*
X107750000Y-78470095D01*
X107730952Y-78412952D01*
X107730952Y-78374857D01*
X107750000Y-78317714D01*
X107769047Y-78298666D01*
X107902380Y-78070095D02*
X107883333Y-78108190D01*
X107864285Y-78127238D01*
X107826190Y-78146285D01*
X107807142Y-78146285D01*
X107769047Y-78127238D01*
X107750000Y-78108190D01*
X107730952Y-78070095D01*
X107730952Y-77993904D01*
X107750000Y-77955809D01*
X107769047Y-77936761D01*
X107807142Y-77917714D01*
X107826190Y-77917714D01*
X107864285Y-77936761D01*
X107883333Y-77955809D01*
X107902380Y-77993904D01*
X107902380Y-78070095D01*
X107921428Y-78108190D01*
X107940476Y-78127238D01*
X107978571Y-78146285D01*
X108054761Y-78146285D01*
X108092857Y-78127238D01*
X108111904Y-78108190D01*
X108130952Y-78070095D01*
X108130952Y-77993904D01*
X108111904Y-77955809D01*
X108092857Y-77936761D01*
X108054761Y-77917714D01*
X107978571Y-77917714D01*
X107940476Y-77936761D01*
X107921428Y-77955809D01*
X107902380Y-77993904D01*
D10*
%TO.C,C3*%
X96116380Y-104346285D02*
X96116380Y-104917714D01*
X96116380Y-104632000D02*
X95116380Y-104632000D01*
X95259238Y-104727238D01*
X95354476Y-104822476D01*
X95402095Y-104917714D01*
X95116380Y-103727238D02*
X95116380Y-103632000D01*
X95164000Y-103536761D01*
X95211619Y-103489142D01*
X95306857Y-103441523D01*
X95497333Y-103393904D01*
X95735428Y-103393904D01*
X95925904Y-103441523D01*
X96021142Y-103489142D01*
X96068761Y-103536761D01*
X96116380Y-103632000D01*
X96116380Y-103727238D01*
X96068761Y-103822476D01*
X96021142Y-103870095D01*
X95925904Y-103917714D01*
X95735428Y-103965333D01*
X95497333Y-103965333D01*
X95306857Y-103917714D01*
X95211619Y-103870095D01*
X95164000Y-103822476D01*
X95116380Y-103727238D01*
X95449714Y-102965333D02*
X96449714Y-102965333D01*
X95973523Y-102489142D02*
X96068761Y-102441523D01*
X96116380Y-102346285D01*
X95973523Y-102965333D02*
X96068761Y-102917714D01*
X96116380Y-102822476D01*
X96116380Y-102632000D01*
X96068761Y-102536761D01*
X95973523Y-102489142D01*
X95449714Y-102489142D01*
D13*
X94376857Y-103698666D02*
X94395904Y-103717714D01*
X94414952Y-103774857D01*
X94414952Y-103812952D01*
X94395904Y-103870095D01*
X94357809Y-103908190D01*
X94319714Y-103927238D01*
X94243523Y-103946285D01*
X94186380Y-103946285D01*
X94110190Y-103927238D01*
X94072095Y-103908190D01*
X94034000Y-103870095D01*
X94014952Y-103812952D01*
X94014952Y-103774857D01*
X94034000Y-103717714D01*
X94053047Y-103698666D01*
X94014952Y-103565333D02*
X94014952Y-103317714D01*
X94167333Y-103451047D01*
X94167333Y-103393904D01*
X94186380Y-103355809D01*
X94205428Y-103336761D01*
X94243523Y-103317714D01*
X94338761Y-103317714D01*
X94376857Y-103336761D01*
X94395904Y-103355809D01*
X94414952Y-103393904D01*
X94414952Y-103508190D01*
X94395904Y-103546285D01*
X94376857Y-103565333D01*
D10*
%TO.C,C7*%
X82415142Y-86652380D02*
X81843714Y-86652380D01*
X82129428Y-86652380D02*
X82129428Y-85652380D01*
X82034190Y-85795238D01*
X81938952Y-85890476D01*
X81843714Y-85938095D01*
X83034190Y-85652380D02*
X83129428Y-85652380D01*
X83224666Y-85700000D01*
X83272285Y-85747619D01*
X83319904Y-85842857D01*
X83367523Y-86033333D01*
X83367523Y-86271428D01*
X83319904Y-86461904D01*
X83272285Y-86557142D01*
X83224666Y-86604761D01*
X83129428Y-86652380D01*
X83034190Y-86652380D01*
X82938952Y-86604761D01*
X82891333Y-86557142D01*
X82843714Y-86461904D01*
X82796095Y-86271428D01*
X82796095Y-86033333D01*
X82843714Y-85842857D01*
X82891333Y-85747619D01*
X82938952Y-85700000D01*
X83034190Y-85652380D01*
X83796095Y-85985714D02*
X83796095Y-86652380D01*
X83796095Y-86080952D02*
X83843714Y-86033333D01*
X83938952Y-85985714D01*
X84081809Y-85985714D01*
X84177047Y-86033333D01*
X84224666Y-86128571D01*
X84224666Y-86652380D01*
D13*
X82991333Y-87772857D02*
X82972285Y-87791904D01*
X82915142Y-87810952D01*
X82877047Y-87810952D01*
X82819904Y-87791904D01*
X82781809Y-87753809D01*
X82762761Y-87715714D01*
X82743714Y-87639523D01*
X82743714Y-87582380D01*
X82762761Y-87506190D01*
X82781809Y-87468095D01*
X82819904Y-87430000D01*
X82877047Y-87410952D01*
X82915142Y-87410952D01*
X82972285Y-87430000D01*
X82991333Y-87449047D01*
X83124666Y-87410952D02*
X83391333Y-87410952D01*
X83219904Y-87810952D01*
D10*
%TO.C,C9*%
X92748380Y-92561785D02*
X92748380Y-93133214D01*
X92748380Y-92847500D02*
X91748380Y-92847500D01*
X91891238Y-92942738D01*
X91986476Y-93037976D01*
X92034095Y-93133214D01*
X91748380Y-91942738D02*
X91748380Y-91847500D01*
X91796000Y-91752261D01*
X91843619Y-91704642D01*
X91938857Y-91657023D01*
X92129333Y-91609404D01*
X92367428Y-91609404D01*
X92557904Y-91657023D01*
X92653142Y-91704642D01*
X92700761Y-91752261D01*
X92748380Y-91847500D01*
X92748380Y-91942738D01*
X92700761Y-92037976D01*
X92653142Y-92085595D01*
X92557904Y-92133214D01*
X92367428Y-92180833D01*
X92129333Y-92180833D01*
X91938857Y-92133214D01*
X91843619Y-92085595D01*
X91796000Y-92037976D01*
X91748380Y-91942738D01*
X92081714Y-91180833D02*
X93081714Y-91180833D01*
X92605523Y-90704642D02*
X92700761Y-90657023D01*
X92748380Y-90561785D01*
X92605523Y-91180833D02*
X92700761Y-91133214D01*
X92748380Y-91037976D01*
X92748380Y-90847500D01*
X92700761Y-90752261D01*
X92605523Y-90704642D01*
X92081714Y-90704642D01*
D13*
X93868857Y-91914166D02*
X93887904Y-91933214D01*
X93906952Y-91990357D01*
X93906952Y-92028452D01*
X93887904Y-92085595D01*
X93849809Y-92123690D01*
X93811714Y-92142738D01*
X93735523Y-92161785D01*
X93678380Y-92161785D01*
X93602190Y-92142738D01*
X93564095Y-92123690D01*
X93526000Y-92085595D01*
X93506952Y-92028452D01*
X93506952Y-91990357D01*
X93526000Y-91933214D01*
X93545047Y-91914166D01*
X93906952Y-91723690D02*
X93906952Y-91647500D01*
X93887904Y-91609404D01*
X93868857Y-91590357D01*
X93811714Y-91552261D01*
X93735523Y-91533214D01*
X93583142Y-91533214D01*
X93545047Y-91552261D01*
X93526000Y-91571309D01*
X93506952Y-91609404D01*
X93506952Y-91685595D01*
X93526000Y-91723690D01*
X93545047Y-91742738D01*
X93583142Y-91761785D01*
X93678380Y-91761785D01*
X93716476Y-91742738D01*
X93735523Y-91723690D01*
X93754571Y-91685595D01*
X93754571Y-91609404D01*
X93735523Y-91571309D01*
X93716476Y-91552261D01*
X93678380Y-91533214D01*
D10*
%TO.C,TP12*%
X86907904Y-88746380D02*
X87479333Y-88746380D01*
X87193619Y-89746380D02*
X87193619Y-88746380D01*
X87812666Y-89746380D02*
X87812666Y-88746380D01*
X88193619Y-88746380D01*
X88288857Y-88794000D01*
X88336476Y-88841619D01*
X88384095Y-88936857D01*
X88384095Y-89079714D01*
X88336476Y-89174952D01*
X88288857Y-89222571D01*
X88193619Y-89270190D01*
X87812666Y-89270190D01*
X89336476Y-89746380D02*
X88765047Y-89746380D01*
X89050761Y-89746380D02*
X89050761Y-88746380D01*
X88955523Y-88889238D01*
X88860285Y-88984476D01*
X88765047Y-89032095D01*
X89717428Y-88841619D02*
X89765047Y-88794000D01*
X89860285Y-88746380D01*
X90098380Y-88746380D01*
X90193619Y-88794000D01*
X90241238Y-88841619D01*
X90288857Y-88936857D01*
X90288857Y-89032095D01*
X90241238Y-89174952D01*
X89669809Y-89746380D01*
X90288857Y-89746380D01*
%TO.C,R21*%
X74832380Y-96845333D02*
X74832380Y-97416761D01*
X74832380Y-97131047D02*
X73832380Y-97131047D01*
X73975238Y-97226285D01*
X74070476Y-97321523D01*
X74118095Y-97416761D01*
X74737142Y-96416761D02*
X74784761Y-96369142D01*
X74832380Y-96416761D01*
X74784761Y-96464380D01*
X74737142Y-96416761D01*
X74832380Y-96416761D01*
X73927619Y-95988190D02*
X73880000Y-95940571D01*
X73832380Y-95845333D01*
X73832380Y-95607238D01*
X73880000Y-95512000D01*
X73927619Y-95464380D01*
X74022857Y-95416761D01*
X74118095Y-95416761D01*
X74260952Y-95464380D01*
X74832380Y-96035809D01*
X74832380Y-95416761D01*
X74832380Y-94988190D02*
X73832380Y-94988190D01*
X74451428Y-94892952D02*
X74832380Y-94607238D01*
X74165714Y-94607238D02*
X74546666Y-94988190D01*
D11*
X76561904Y-96526285D02*
X76180952Y-96792952D01*
X76561904Y-96983428D02*
X75761904Y-96983428D01*
X75761904Y-96678666D01*
X75800000Y-96602476D01*
X75838095Y-96564380D01*
X75914285Y-96526285D01*
X76028571Y-96526285D01*
X76104761Y-96564380D01*
X76142857Y-96602476D01*
X76180952Y-96678666D01*
X76180952Y-96983428D01*
X75838095Y-96221523D02*
X75800000Y-96183428D01*
X75761904Y-96107238D01*
X75761904Y-95916761D01*
X75800000Y-95840571D01*
X75838095Y-95802476D01*
X75914285Y-95764380D01*
X75990476Y-95764380D01*
X76104761Y-95802476D01*
X76561904Y-96259619D01*
X76561904Y-95764380D01*
X76561904Y-95002476D02*
X76561904Y-95459619D01*
X76561904Y-95231047D02*
X75761904Y-95231047D01*
X75876190Y-95307238D01*
X75952380Y-95383428D01*
X75990476Y-95459619D01*
D10*
%TO.C,C10*%
X113896380Y-104092285D02*
X113896380Y-104663714D01*
X113896380Y-104378000D02*
X112896380Y-104378000D01*
X113039238Y-104473238D01*
X113134476Y-104568476D01*
X113182095Y-104663714D01*
X112896380Y-103473238D02*
X112896380Y-103378000D01*
X112944000Y-103282761D01*
X112991619Y-103235142D01*
X113086857Y-103187523D01*
X113277333Y-103139904D01*
X113515428Y-103139904D01*
X113705904Y-103187523D01*
X113801142Y-103235142D01*
X113848761Y-103282761D01*
X113896380Y-103378000D01*
X113896380Y-103473238D01*
X113848761Y-103568476D01*
X113801142Y-103616095D01*
X113705904Y-103663714D01*
X113515428Y-103711333D01*
X113277333Y-103711333D01*
X113086857Y-103663714D01*
X112991619Y-103616095D01*
X112944000Y-103568476D01*
X112896380Y-103473238D01*
X113229714Y-102711333D02*
X114229714Y-102711333D01*
X113753523Y-102235142D02*
X113848761Y-102187523D01*
X113896380Y-102092285D01*
X113753523Y-102711333D02*
X113848761Y-102663714D01*
X113896380Y-102568476D01*
X113896380Y-102378000D01*
X113848761Y-102282761D01*
X113753523Y-102235142D01*
X113229714Y-102235142D01*
D13*
X112156857Y-103635142D02*
X112175904Y-103654190D01*
X112194952Y-103711333D01*
X112194952Y-103749428D01*
X112175904Y-103806571D01*
X112137809Y-103844666D01*
X112099714Y-103863714D01*
X112023523Y-103882761D01*
X111966380Y-103882761D01*
X111890190Y-103863714D01*
X111852095Y-103844666D01*
X111814000Y-103806571D01*
X111794952Y-103749428D01*
X111794952Y-103711333D01*
X111814000Y-103654190D01*
X111833047Y-103635142D01*
X112194952Y-103254190D02*
X112194952Y-103482761D01*
X112194952Y-103368476D02*
X111794952Y-103368476D01*
X111852095Y-103406571D01*
X111890190Y-103444666D01*
X111909238Y-103482761D01*
X111794952Y-103006571D02*
X111794952Y-102968476D01*
X111814000Y-102930380D01*
X111833047Y-102911333D01*
X111871142Y-102892285D01*
X111947333Y-102873238D01*
X112042571Y-102873238D01*
X112118761Y-102892285D01*
X112156857Y-102911333D01*
X112175904Y-102930380D01*
X112194952Y-102968476D01*
X112194952Y-103006571D01*
X112175904Y-103044666D01*
X112156857Y-103063714D01*
X112118761Y-103082761D01*
X112042571Y-103101809D01*
X111947333Y-103101809D01*
X111871142Y-103082761D01*
X111833047Y-103063714D01*
X111814000Y-103044666D01*
X111794952Y-103006571D01*
D10*
%TO.C,TP10*%
X78017904Y-72490380D02*
X78589333Y-72490380D01*
X78303619Y-73490380D02*
X78303619Y-72490380D01*
X78922666Y-73490380D02*
X78922666Y-72490380D01*
X79303619Y-72490380D01*
X79398857Y-72538000D01*
X79446476Y-72585619D01*
X79494095Y-72680857D01*
X79494095Y-72823714D01*
X79446476Y-72918952D01*
X79398857Y-72966571D01*
X79303619Y-73014190D01*
X78922666Y-73014190D01*
X80446476Y-73490380D02*
X79875047Y-73490380D01*
X80160761Y-73490380D02*
X80160761Y-72490380D01*
X80065523Y-72633238D01*
X79970285Y-72728476D01*
X79875047Y-72776095D01*
X81065523Y-72490380D02*
X81160761Y-72490380D01*
X81256000Y-72538000D01*
X81303619Y-72585619D01*
X81351238Y-72680857D01*
X81398857Y-72871333D01*
X81398857Y-73109428D01*
X81351238Y-73299904D01*
X81303619Y-73395142D01*
X81256000Y-73442761D01*
X81160761Y-73490380D01*
X81065523Y-73490380D01*
X80970285Y-73442761D01*
X80922666Y-73395142D01*
X80875047Y-73299904D01*
X80827428Y-73109428D01*
X80827428Y-72871333D01*
X80875047Y-72680857D01*
X80922666Y-72585619D01*
X80970285Y-72538000D01*
X81065523Y-72490380D01*
%TO.C,C1*%
X76492380Y-92336857D02*
X76492380Y-92908285D01*
X76492380Y-92622571D02*
X75492380Y-92622571D01*
X75635238Y-92717809D01*
X75730476Y-92813047D01*
X75778095Y-92908285D01*
X75492380Y-91717809D02*
X75492380Y-91622571D01*
X75540000Y-91527333D01*
X75587619Y-91479714D01*
X75682857Y-91432095D01*
X75873333Y-91384476D01*
X76111428Y-91384476D01*
X76301904Y-91432095D01*
X76397142Y-91479714D01*
X76444761Y-91527333D01*
X76492380Y-91622571D01*
X76492380Y-91717809D01*
X76444761Y-91813047D01*
X76397142Y-91860666D01*
X76301904Y-91908285D01*
X76111428Y-91955904D01*
X75873333Y-91955904D01*
X75682857Y-91908285D01*
X75587619Y-91860666D01*
X75540000Y-91813047D01*
X75492380Y-91717809D01*
X75825714Y-90955904D02*
X76492380Y-90955904D01*
X75920952Y-90955904D02*
X75873333Y-90908285D01*
X75825714Y-90813047D01*
X75825714Y-90670190D01*
X75873333Y-90574952D01*
X75968571Y-90527333D01*
X76492380Y-90527333D01*
D13*
X77612857Y-91760666D02*
X77631904Y-91779714D01*
X77650952Y-91836857D01*
X77650952Y-91874952D01*
X77631904Y-91932095D01*
X77593809Y-91970190D01*
X77555714Y-91989238D01*
X77479523Y-92008285D01*
X77422380Y-92008285D01*
X77346190Y-91989238D01*
X77308095Y-91970190D01*
X77270000Y-91932095D01*
X77250952Y-91874952D01*
X77250952Y-91836857D01*
X77270000Y-91779714D01*
X77289047Y-91760666D01*
X77650952Y-91379714D02*
X77650952Y-91608285D01*
X77650952Y-91494000D02*
X77250952Y-91494000D01*
X77308095Y-91532095D01*
X77346190Y-91570190D01*
X77365238Y-91608285D01*
D10*
%TO.C,R23*%
X77737619Y-84462761D02*
X77690000Y-84415142D01*
X77642380Y-84319904D01*
X77642380Y-84081809D01*
X77690000Y-83986571D01*
X77737619Y-83938952D01*
X77832857Y-83891333D01*
X77928095Y-83891333D01*
X78070952Y-83938952D01*
X78642380Y-84510380D01*
X78642380Y-83891333D01*
X78547142Y-83462761D02*
X78594761Y-83415142D01*
X78642380Y-83462761D01*
X78594761Y-83510380D01*
X78547142Y-83462761D01*
X78642380Y-83462761D01*
X77737619Y-83034190D02*
X77690000Y-82986571D01*
X77642380Y-82891333D01*
X77642380Y-82653238D01*
X77690000Y-82558000D01*
X77737619Y-82510380D01*
X77832857Y-82462761D01*
X77928095Y-82462761D01*
X78070952Y-82510380D01*
X78642380Y-83081809D01*
X78642380Y-82462761D01*
X78642380Y-82034190D02*
X77642380Y-82034190D01*
X78261428Y-81938952D02*
X78642380Y-81653238D01*
X77975714Y-81653238D02*
X78356666Y-82034190D01*
D11*
X80371904Y-83572285D02*
X79990952Y-83838952D01*
X80371904Y-84029428D02*
X79571904Y-84029428D01*
X79571904Y-83724666D01*
X79610000Y-83648476D01*
X79648095Y-83610380D01*
X79724285Y-83572285D01*
X79838571Y-83572285D01*
X79914761Y-83610380D01*
X79952857Y-83648476D01*
X79990952Y-83724666D01*
X79990952Y-84029428D01*
X79648095Y-83267523D02*
X79610000Y-83229428D01*
X79571904Y-83153238D01*
X79571904Y-82962761D01*
X79610000Y-82886571D01*
X79648095Y-82848476D01*
X79724285Y-82810380D01*
X79800476Y-82810380D01*
X79914761Y-82848476D01*
X80371904Y-83305619D01*
X80371904Y-82810380D01*
X79571904Y-82543714D02*
X79571904Y-82048476D01*
X79876666Y-82315142D01*
X79876666Y-82200857D01*
X79914761Y-82124666D01*
X79952857Y-82086571D01*
X80029047Y-82048476D01*
X80219523Y-82048476D01*
X80295714Y-82086571D01*
X80333809Y-82124666D01*
X80371904Y-82200857D01*
X80371904Y-82429428D01*
X80333809Y-82505619D01*
X80295714Y-82543714D01*
D14*
%TO.C,J8*%
X129032000Y-83312000D02*
X126492000Y-83312000D01*
X127127000Y-75692000D02*
X129032000Y-75692000D01*
X126492000Y-76327000D02*
X127127000Y-75692000D01*
X129032000Y-75692000D02*
X129032000Y-83312000D01*
X126492000Y-83312000D02*
X126492000Y-76327000D01*
%TO.C,U1*%
X68250000Y-57822000D02*
X62450000Y-57822000D01*
X114300000Y-55372000D02*
X63500000Y-55372000D01*
X63500000Y-68072000D02*
X114300000Y-68072000D01*
D11*
X115400000Y-73022000D02*
X115400000Y-50422000D01*
D14*
X110490000Y-66802000D02*
X107950000Y-66802000D01*
D11*
X62400000Y-73022000D02*
X62400000Y-50422000D01*
D14*
X64135000Y-70612000D02*
X63500000Y-69977000D01*
X68250000Y-65622000D02*
X68250000Y-57822000D01*
X107950000Y-56642000D02*
X110490000Y-56642000D01*
X114300000Y-68072000D02*
X114300000Y-70612000D01*
X63500000Y-52832000D02*
X114300000Y-52832000D01*
X63500000Y-69977000D02*
X63500000Y-68072000D01*
X63500000Y-55372000D02*
X63500000Y-52832000D01*
X114300000Y-70612000D02*
X64135000Y-70612000D01*
D11*
X115400000Y-73022000D02*
X62450000Y-73022000D01*
D14*
X110490000Y-56642000D02*
X110490000Y-66802000D01*
X114300000Y-52832000D02*
X114300000Y-55372000D01*
X68250000Y-65622000D02*
X62450000Y-65622000D01*
D11*
X62400000Y-50422000D02*
X115400000Y-50422000D01*
D14*
X107950000Y-66802000D02*
X107950000Y-56642000D01*
%TO.C,R1*%
X81064000Y-94444000D02*
X81064000Y-97644000D01*
X81064000Y-97644000D02*
X79464000Y-97644000D01*
X79464000Y-94444000D02*
X81064000Y-94444000D01*
X79464000Y-97644000D02*
X79464000Y-94444000D01*
%TO.C,J1*%
X76274000Y-112686000D02*
X76274000Y-117186000D01*
X63774000Y-117186000D02*
X70024000Y-117186000D01*
X70024000Y-124186000D02*
X62574000Y-124186000D01*
X77474000Y-112686000D02*
X76274000Y-112686000D01*
X76274000Y-117186000D02*
X70024000Y-117186000D01*
X62574000Y-124186000D02*
X62574000Y-112686000D01*
X62574000Y-112686000D02*
X63774000Y-112686000D01*
X63774000Y-112686000D02*
X63774000Y-117186000D01*
X77474000Y-124186000D02*
X77474000Y-112686000D01*
X70024000Y-124186000D02*
X77474000Y-124186000D01*
X65024000Y-116186000D02*
X65649000Y-117186000D01*
X64399000Y-117186000D02*
X65024000Y-116186000D01*
%TO.C,R2*%
X84036000Y-94444000D02*
X85636000Y-94444000D01*
X85636000Y-97644000D02*
X84036000Y-97644000D01*
X85636000Y-94444000D02*
X85636000Y-97644000D01*
X84036000Y-97644000D02*
X84036000Y-94444000D01*
%TO.C,J2*%
X81554000Y-112686000D02*
X81554000Y-117186000D01*
X87804000Y-124186000D02*
X80354000Y-124186000D01*
X95254000Y-112686000D02*
X94054000Y-112686000D01*
X80354000Y-124186000D02*
X80354000Y-112686000D01*
X82179000Y-117186000D02*
X82804000Y-116186000D01*
X94054000Y-112686000D02*
X94054000Y-117186000D01*
X95254000Y-124186000D02*
X95254000Y-112686000D01*
X94054000Y-117186000D02*
X87804000Y-117186000D01*
X87804000Y-124186000D02*
X95254000Y-124186000D01*
X82804000Y-116186000D02*
X83429000Y-117186000D01*
X81554000Y-117186000D02*
X87804000Y-117186000D01*
X80354000Y-112686000D02*
X81554000Y-112686000D01*
%TO.C,J3*%
X107780000Y-124186000D02*
X107780000Y-112686000D01*
X107780000Y-112686000D02*
X106580000Y-112686000D01*
X99080000Y-112686000D02*
X99080000Y-117186000D01*
X97880000Y-124186000D02*
X97880000Y-112686000D01*
X99080000Y-117186000D02*
X102830000Y-117186000D01*
X102830000Y-124186000D02*
X97880000Y-124186000D01*
X102830000Y-124186000D02*
X107780000Y-124186000D01*
X97880000Y-112686000D02*
X99080000Y-112686000D01*
X106580000Y-112686000D02*
X106580000Y-117186000D01*
X106580000Y-117186000D02*
X102830000Y-117186000D01*
X99705000Y-117186000D02*
X100330000Y-116186000D01*
X100330000Y-116186000D02*
X100955000Y-117186000D01*
%TO.C,J4*%
X112151000Y-117186000D02*
X112776000Y-116186000D01*
X110326000Y-112686000D02*
X111526000Y-112686000D01*
X116526000Y-124186000D02*
X110326000Y-124186000D01*
X111526000Y-112686000D02*
X111526000Y-117186000D01*
X121526000Y-117186000D02*
X116526000Y-117186000D01*
X116526000Y-124186000D02*
X122726000Y-124186000D01*
X121526000Y-112686000D02*
X121526000Y-117186000D01*
X111526000Y-117186000D02*
X116526000Y-117186000D01*
X112776000Y-116186000D02*
X113401000Y-117186000D01*
X122726000Y-112686000D02*
X121526000Y-112686000D01*
X122726000Y-124186000D02*
X122726000Y-112686000D01*
X110326000Y-124186000D02*
X110326000Y-112686000D01*
%TO.C,J5*%
X125312000Y-124186000D02*
X125312000Y-112686000D01*
X135212000Y-112686000D02*
X134012000Y-112686000D01*
X135212000Y-124186000D02*
X135212000Y-112686000D01*
X126512000Y-117186000D02*
X130262000Y-117186000D01*
X125312000Y-112686000D02*
X126512000Y-112686000D01*
X134012000Y-112686000D02*
X134012000Y-117186000D01*
X127137000Y-117186000D02*
X127762000Y-116186000D01*
X134012000Y-117186000D02*
X130262000Y-117186000D01*
X126512000Y-112686000D02*
X126512000Y-117186000D01*
X130262000Y-124186000D02*
X125312000Y-124186000D01*
X127762000Y-116186000D02*
X128387000Y-117186000D01*
X130262000Y-124186000D02*
X135212000Y-124186000D01*
%TO.C,D2*%
X65024000Y-109220000D02*
X70104000Y-109220000D01*
X66374000Y-109220000D02*
G75*
G03*
X66374000Y-109220000I-1350000J0D01*
G01*
%TO.C,Q1*%
X102464000Y-100656000D02*
X101194000Y-100656000D01*
X102464000Y-103806000D02*
X102464000Y-93806000D01*
X102464000Y-96956000D02*
X101194000Y-96956000D01*
X101194000Y-93806000D02*
X101194000Y-103806000D01*
X102464000Y-93806000D02*
X98064000Y-93806000D01*
X98064000Y-93806000D02*
X98064000Y-103806000D01*
X98064000Y-103806000D02*
X102464000Y-103806000D01*
%TO.C,Q2*%
X108306000Y-93806000D02*
X108306000Y-103806000D01*
X109576000Y-103806000D02*
X109576000Y-93806000D01*
X109576000Y-93806000D02*
X105176000Y-93806000D01*
X109576000Y-96956000D02*
X108306000Y-96956000D01*
X105176000Y-93806000D02*
X105176000Y-103806000D01*
X109576000Y-100656000D02*
X108306000Y-100656000D01*
X105176000Y-103806000D02*
X109576000Y-103806000D01*
%TO.C,R3*%
X95212000Y-84690000D02*
X95212000Y-81490000D01*
X95212000Y-81490000D02*
X96812000Y-81490000D01*
X96812000Y-81490000D02*
X96812000Y-84690000D01*
X96812000Y-84690000D02*
X95212000Y-84690000D01*
%TO.C,R4*%
X100038000Y-84690000D02*
X100038000Y-81490000D01*
X100038000Y-81490000D02*
X101638000Y-81490000D01*
X101638000Y-81490000D02*
X101638000Y-84690000D01*
X101638000Y-84690000D02*
X100038000Y-84690000D01*
%TO.C,R5*%
X106718000Y-84690000D02*
X105118000Y-84690000D01*
X105118000Y-84690000D02*
X105118000Y-81490000D01*
X106718000Y-81490000D02*
X106718000Y-84690000D01*
X105118000Y-81490000D02*
X106718000Y-81490000D01*
%TO.C,R6*%
X111798000Y-81490000D02*
X111798000Y-84690000D01*
X111798000Y-84690000D02*
X110198000Y-84690000D01*
X110198000Y-84690000D02*
X110198000Y-81490000D01*
X110198000Y-81490000D02*
X111798000Y-81490000D01*
%TO.C,D4*%
X105537000Y-106573866D02*
X105537000Y-109113866D01*
X106887000Y-106573866D02*
G75*
G03*
X106887000Y-106573866I-1350000J0D01*
G01*
%TO.C,D3*%
X100203000Y-106573866D02*
X100203000Y-109113866D01*
X101553000Y-106573866D02*
G75*
G03*
X101553000Y-106573866I-1350000J0D01*
G01*
%TO.C,Q4*%
X106609000Y-88974000D02*
X107584000Y-88974000D01*
X106284000Y-91874000D02*
X106284000Y-89299000D01*
X106284000Y-89299000D02*
X106609000Y-88974000D01*
X107584000Y-88974000D02*
X107584000Y-91874000D01*
X107584000Y-91874000D02*
X106284000Y-91874000D01*
%TO.C,Q3*%
X98410000Y-91874000D02*
X98410000Y-89299000D01*
X99710000Y-91874000D02*
X98410000Y-91874000D01*
X99710000Y-88974000D02*
X99710000Y-91874000D01*
X98410000Y-89299000D02*
X98735000Y-88974000D01*
X98735000Y-88974000D02*
X99710000Y-88974000D01*
%TO.C,J7*%
X133858000Y-73787000D02*
X134493000Y-73152000D01*
X136398000Y-83312000D02*
X133858000Y-83312000D01*
X133858000Y-83312000D02*
X133858000Y-73787000D01*
X136398000Y-73152000D02*
X136398000Y-83312000D01*
X134493000Y-73152000D02*
X136398000Y-73152000D01*
%TO.C,J6*%
X65659000Y-75946000D02*
X67564000Y-75946000D01*
X65024000Y-78486000D02*
X65024000Y-76581000D01*
X67564000Y-78486000D02*
X65024000Y-78486000D01*
X67564000Y-75946000D02*
X67564000Y-78486000D01*
X65024000Y-76581000D02*
X65659000Y-75946000D01*
%TO.C,C5*%
X83966000Y-92494000D02*
X83166000Y-92494000D01*
X83166000Y-90894000D02*
X83966000Y-90894000D01*
X83166000Y-92494000D02*
X83166000Y-90894000D01*
X83966000Y-90894000D02*
X83966000Y-92494000D01*
%TO.C,R24*%
X84874000Y-84658000D02*
X83274000Y-84658000D01*
X83274000Y-81458000D02*
X84874000Y-81458000D01*
X84874000Y-81458000D02*
X84874000Y-84658000D01*
X83274000Y-84658000D02*
X83274000Y-81458000D01*
%TO.C,C4*%
X80918000Y-92494000D02*
X80118000Y-92494000D01*
X80118000Y-90894000D02*
X80918000Y-90894000D01*
X80118000Y-92494000D02*
X80118000Y-90894000D01*
X80918000Y-90894000D02*
X80918000Y-92494000D01*
%TO.C,R22*%
X75146000Y-84658000D02*
X75146000Y-81458000D01*
X75146000Y-81458000D02*
X76746000Y-81458000D01*
X76746000Y-84658000D02*
X75146000Y-84658000D01*
X76746000Y-81458000D02*
X76746000Y-84658000D01*
%TO.C,C8*%
X108350000Y-77432000D02*
X108350000Y-79032000D01*
X108350000Y-79032000D02*
X107550000Y-79032000D01*
X107550000Y-77432000D02*
X108350000Y-77432000D01*
X107550000Y-79032000D02*
X107550000Y-77432000D01*
%TO.C,C3*%
X94634000Y-102832000D02*
X94634000Y-104432000D01*
X94634000Y-104432000D02*
X93834000Y-104432000D01*
X93834000Y-102832000D02*
X94634000Y-102832000D01*
X93834000Y-104432000D02*
X93834000Y-102832000D01*
%TO.C,C7*%
X82258000Y-87230000D02*
X83858000Y-87230000D01*
X83858000Y-87230000D02*
X83858000Y-88030000D01*
X82258000Y-88030000D02*
X82258000Y-87230000D01*
X83858000Y-88030000D02*
X82258000Y-88030000D01*
%TO.C,C9*%
X94126000Y-91047500D02*
X94126000Y-92647500D01*
X93326000Y-92647500D02*
X93326000Y-91047500D01*
X94126000Y-92647500D02*
X93326000Y-92647500D01*
X93326000Y-91047500D02*
X94126000Y-91047500D01*
%TO.C,R21*%
X77000000Y-97612000D02*
X75400000Y-97612000D01*
X75400000Y-94412000D02*
X77000000Y-94412000D01*
X77000000Y-94412000D02*
X77000000Y-97612000D01*
X75400000Y-97612000D02*
X75400000Y-94412000D01*
%TO.C,C10*%
X111614000Y-102578000D02*
X112414000Y-102578000D01*
X112414000Y-104178000D02*
X111614000Y-104178000D01*
X112414000Y-102578000D02*
X112414000Y-104178000D01*
X111614000Y-104178000D02*
X111614000Y-102578000D01*
%TO.C,C1*%
X77070000Y-92494000D02*
X77070000Y-90894000D01*
X77870000Y-90894000D02*
X77870000Y-92494000D01*
X77870000Y-92494000D02*
X77070000Y-92494000D01*
X77070000Y-90894000D02*
X77870000Y-90894000D01*
%TO.C,R23*%
X80810000Y-84658000D02*
X79210000Y-84658000D01*
X79210000Y-84658000D02*
X79210000Y-81458000D01*
X80810000Y-81458000D02*
X80810000Y-84658000D01*
X79210000Y-81458000D02*
X80810000Y-81458000D01*
%TD*%
M02*
