%TF.GenerationSoftware,KiCad,Pcbnew,(5.1.10)-1*%
%TF.CreationDate,2021-11-27T11:32:15+01:00*%
%TF.ProjectId,BoostController,426f6f73-7443-46f6-9e74-726f6c6c6572,rev?*%
%TF.SameCoordinates,Original*%
%TF.FileFunction,Legend,Bot*%
%TF.FilePolarity,Positive*%
%FSLAX46Y46*%
G04 Gerber Fmt 4.6, Leading zero omitted, Abs format (unit mm)*
G04 Created by KiCad (PCBNEW (5.1.10)-1) date 2021-11-27 11:32:15*
%MOMM*%
%LPD*%
G01*
G04 APERTURE LIST*
%ADD10C,0.150000*%
%ADD11C,0.120000*%
%ADD12R,1.700000X1.700000*%
%ADD13O,1.700000X1.700000*%
%ADD14R,2.400000X2.400000*%
%ADD15O,2.400000X2.400000*%
%ADD16R,1.700000X2.000000*%
%ADD17R,2.700000X3.500000*%
%ADD18R,2.200000X2.200000*%
%ADD19O,2.200000X2.200000*%
%ADD20R,1.800000X1.800000*%
%ADD21O,1.800000X1.800000*%
%ADD22C,1.524000*%
%ADD23O,1.524000X2.000000*%
%ADD24R,1.750000X1.750000*%
%ADD25C,1.750000*%
%ADD26C,1.700000*%
G04 APERTURE END LIST*
D10*
X137080095Y-46950380D02*
X137080095Y-47664666D01*
X137127714Y-47807523D01*
X137222952Y-47902761D01*
X137365809Y-47950380D01*
X137461047Y-47950380D01*
X136127714Y-47950380D02*
X136603904Y-47950380D01*
X136603904Y-46950380D01*
X135222952Y-47855142D02*
X135270571Y-47902761D01*
X135413428Y-47950380D01*
X135508666Y-47950380D01*
X135651523Y-47902761D01*
X135746761Y-47807523D01*
X135794380Y-47712285D01*
X135842000Y-47521809D01*
X135842000Y-47378952D01*
X135794380Y-47188476D01*
X135746761Y-47093238D01*
X135651523Y-46998000D01*
X135508666Y-46950380D01*
X135413428Y-46950380D01*
X135270571Y-46998000D01*
X135222952Y-47045619D01*
X134508666Y-46950380D02*
X134508666Y-47664666D01*
X134556285Y-47807523D01*
X134651523Y-47902761D01*
X134794380Y-47950380D01*
X134889619Y-47950380D01*
X133556285Y-47950380D02*
X134032476Y-47950380D01*
X134032476Y-46950380D01*
X132651523Y-47855142D02*
X132699142Y-47902761D01*
X132842000Y-47950380D01*
X132937238Y-47950380D01*
X133080095Y-47902761D01*
X133175333Y-47807523D01*
X133222952Y-47712285D01*
X133270571Y-47521809D01*
X133270571Y-47378952D01*
X133222952Y-47188476D01*
X133175333Y-47093238D01*
X133080095Y-46998000D01*
X132937238Y-46950380D01*
X132842000Y-46950380D01*
X132699142Y-46998000D01*
X132651523Y-47045619D01*
X131937238Y-46950380D02*
X131937238Y-47664666D01*
X131984857Y-47807523D01*
X132080095Y-47902761D01*
X132222952Y-47950380D01*
X132318190Y-47950380D01*
X130984857Y-47950380D02*
X131461047Y-47950380D01*
X131461047Y-46950380D01*
X130080095Y-47855142D02*
X130127714Y-47902761D01*
X130270571Y-47950380D01*
X130365809Y-47950380D01*
X130508666Y-47902761D01*
X130603904Y-47807523D01*
X130651523Y-47712285D01*
X130699142Y-47521809D01*
X130699142Y-47378952D01*
X130651523Y-47188476D01*
X130603904Y-47093238D01*
X130508666Y-46998000D01*
X130365809Y-46950380D01*
X130270571Y-46950380D01*
X130127714Y-46998000D01*
X130080095Y-47045619D01*
X129365809Y-46950380D02*
X129365809Y-47664666D01*
X129413428Y-47807523D01*
X129508666Y-47902761D01*
X129651523Y-47950380D01*
X129746761Y-47950380D01*
X128413428Y-47950380D02*
X128889619Y-47950380D01*
X128889619Y-46950380D01*
X127508666Y-47855142D02*
X127556285Y-47902761D01*
X127699142Y-47950380D01*
X127794380Y-47950380D01*
X127937238Y-47902761D01*
X128032476Y-47807523D01*
X128080095Y-47712285D01*
X128127714Y-47521809D01*
X128127714Y-47378952D01*
X128080095Y-47188476D01*
X128032476Y-47093238D01*
X127937238Y-46998000D01*
X127794380Y-46950380D01*
X127699142Y-46950380D01*
X127556285Y-46998000D01*
X127508666Y-47045619D01*
D11*
%TO.C,R20*%
X107896000Y-108950000D02*
X107896000Y-110950000D01*
X110036000Y-110950000D02*
X110036000Y-108950000D01*
%TO.C,R19*%
X113338000Y-110950000D02*
X113338000Y-108950000D01*
X111198000Y-108950000D02*
X111198000Y-110950000D01*
%TO.C,R18*%
X85906000Y-99298000D02*
X85906000Y-97298000D01*
X83766000Y-97298000D02*
X83766000Y-99298000D01*
%TO.C,R17*%
X81588000Y-110982000D02*
X81588000Y-108982000D01*
X79448000Y-108982000D02*
X79448000Y-110982000D01*
%TO.C,R16*%
X120596000Y-109458000D02*
X120596000Y-111458000D01*
X122736000Y-111458000D02*
X122736000Y-109458000D01*
%TO.C,R15*%
X118926000Y-111522000D02*
X118926000Y-109522000D01*
X116786000Y-109522000D02*
X116786000Y-111522000D01*
%TO.C,R14*%
X80826000Y-99298000D02*
X80826000Y-97298000D01*
X78686000Y-97298000D02*
X78686000Y-99298000D01*
%TO.C,R13*%
X73606000Y-97298000D02*
X73606000Y-99298000D01*
X75746000Y-99298000D02*
X75746000Y-97298000D01*
%TO.C,R12*%
X90986000Y-99330000D02*
X90986000Y-97330000D01*
X88846000Y-97330000D02*
X88846000Y-99330000D01*
%TO.C,R11*%
X85398000Y-110950000D02*
X85398000Y-108950000D01*
X83258000Y-108950000D02*
X83258000Y-110950000D01*
%TO.C,R10*%
X94796000Y-99330000D02*
X94796000Y-97330000D01*
X92656000Y-97330000D02*
X92656000Y-99330000D01*
%TO.C,R9*%
X92764000Y-110950000D02*
X92764000Y-108950000D01*
X90624000Y-108950000D02*
X90624000Y-110950000D01*
%TO.C,R8*%
X99114000Y-85614000D02*
X99114000Y-83614000D01*
X96974000Y-83614000D02*
X96974000Y-85614000D01*
%TO.C,R7*%
X89208000Y-110950000D02*
X89208000Y-108950000D01*
X87068000Y-108950000D02*
X87068000Y-110950000D01*
%TO.C,D12*%
X107466000Y-93340000D02*
X107466000Y-84640000D01*
X110466000Y-93340000D02*
X107466000Y-93340000D01*
X110466000Y-84640000D02*
X110466000Y-93340000D01*
%TO.C,D11*%
X87146000Y-93340000D02*
X87146000Y-84640000D01*
X90146000Y-93340000D02*
X87146000Y-93340000D01*
X90146000Y-84640000D02*
X90146000Y-93340000D01*
%TO.C,D10*%
X113054000Y-93340000D02*
X113054000Y-84640000D01*
X116054000Y-93340000D02*
X113054000Y-93340000D01*
X116054000Y-84640000D02*
X116054000Y-93340000D01*
%TO.C,D9*%
X75462000Y-93340000D02*
X75462000Y-84640000D01*
X78462000Y-93340000D02*
X75462000Y-93340000D01*
X78462000Y-84640000D02*
X78462000Y-93340000D01*
%TO.C,D8*%
X81558000Y-93340000D02*
X81558000Y-84640000D01*
X84558000Y-93340000D02*
X81558000Y-93340000D01*
X84558000Y-84640000D02*
X84558000Y-93340000D01*
%TO.C,D6*%
X91972000Y-93340000D02*
X91972000Y-84640000D01*
X94972000Y-93340000D02*
X91972000Y-93340000D01*
X94972000Y-84640000D02*
X94972000Y-93340000D01*
%TO.C,D5*%
X101370000Y-93340000D02*
X101370000Y-84640000D01*
X104370000Y-93340000D02*
X101370000Y-93340000D01*
X104370000Y-84640000D02*
X104370000Y-93340000D01*
%TO.C,R20*%
D10*
X107568380Y-109307142D02*
X107092190Y-108973809D01*
X107568380Y-108735714D02*
X106568380Y-108735714D01*
X106568380Y-109116666D01*
X106616000Y-109211904D01*
X106663619Y-109259523D01*
X106758857Y-109307142D01*
X106901714Y-109307142D01*
X106996952Y-109259523D01*
X107044571Y-109211904D01*
X107092190Y-109116666D01*
X107092190Y-108735714D01*
X106663619Y-109688095D02*
X106616000Y-109735714D01*
X106568380Y-109830952D01*
X106568380Y-110069047D01*
X106616000Y-110164285D01*
X106663619Y-110211904D01*
X106758857Y-110259523D01*
X106854095Y-110259523D01*
X106996952Y-110211904D01*
X107568380Y-109640476D01*
X107568380Y-110259523D01*
X106568380Y-110878571D02*
X106568380Y-110973809D01*
X106616000Y-111069047D01*
X106663619Y-111116666D01*
X106758857Y-111164285D01*
X106949333Y-111211904D01*
X107187428Y-111211904D01*
X107377904Y-111164285D01*
X107473142Y-111116666D01*
X107520761Y-111069047D01*
X107568380Y-110973809D01*
X107568380Y-110878571D01*
X107520761Y-110783333D01*
X107473142Y-110735714D01*
X107377904Y-110688095D01*
X107187428Y-110640476D01*
X106949333Y-110640476D01*
X106758857Y-110688095D01*
X106663619Y-110735714D01*
X106616000Y-110783333D01*
X106568380Y-110878571D01*
%TO.C,R19*%
X114570380Y-109307142D02*
X114094190Y-108973809D01*
X114570380Y-108735714D02*
X113570380Y-108735714D01*
X113570380Y-109116666D01*
X113618000Y-109211904D01*
X113665619Y-109259523D01*
X113760857Y-109307142D01*
X113903714Y-109307142D01*
X113998952Y-109259523D01*
X114046571Y-109211904D01*
X114094190Y-109116666D01*
X114094190Y-108735714D01*
X114570380Y-110259523D02*
X114570380Y-109688095D01*
X114570380Y-109973809D02*
X113570380Y-109973809D01*
X113713238Y-109878571D01*
X113808476Y-109783333D01*
X113856095Y-109688095D01*
X114570380Y-110735714D02*
X114570380Y-110926190D01*
X114522761Y-111021428D01*
X114475142Y-111069047D01*
X114332285Y-111164285D01*
X114141809Y-111211904D01*
X113760857Y-111211904D01*
X113665619Y-111164285D01*
X113618000Y-111116666D01*
X113570380Y-111021428D01*
X113570380Y-110830952D01*
X113618000Y-110735714D01*
X113665619Y-110688095D01*
X113760857Y-110640476D01*
X113998952Y-110640476D01*
X114094190Y-110688095D01*
X114141809Y-110735714D01*
X114189428Y-110830952D01*
X114189428Y-111021428D01*
X114141809Y-111116666D01*
X114094190Y-111164285D01*
X113998952Y-111211904D01*
%TO.C,R18*%
X87138380Y-97655142D02*
X86662190Y-97321809D01*
X87138380Y-97083714D02*
X86138380Y-97083714D01*
X86138380Y-97464666D01*
X86186000Y-97559904D01*
X86233619Y-97607523D01*
X86328857Y-97655142D01*
X86471714Y-97655142D01*
X86566952Y-97607523D01*
X86614571Y-97559904D01*
X86662190Y-97464666D01*
X86662190Y-97083714D01*
X87138380Y-98607523D02*
X87138380Y-98036095D01*
X87138380Y-98321809D02*
X86138380Y-98321809D01*
X86281238Y-98226571D01*
X86376476Y-98131333D01*
X86424095Y-98036095D01*
X86566952Y-99178952D02*
X86519333Y-99083714D01*
X86471714Y-99036095D01*
X86376476Y-98988476D01*
X86328857Y-98988476D01*
X86233619Y-99036095D01*
X86186000Y-99083714D01*
X86138380Y-99178952D01*
X86138380Y-99369428D01*
X86186000Y-99464666D01*
X86233619Y-99512285D01*
X86328857Y-99559904D01*
X86376476Y-99559904D01*
X86471714Y-99512285D01*
X86519333Y-99464666D01*
X86566952Y-99369428D01*
X86566952Y-99178952D01*
X86614571Y-99083714D01*
X86662190Y-99036095D01*
X86757428Y-98988476D01*
X86947904Y-98988476D01*
X87043142Y-99036095D01*
X87090761Y-99083714D01*
X87138380Y-99178952D01*
X87138380Y-99369428D01*
X87090761Y-99464666D01*
X87043142Y-99512285D01*
X86947904Y-99559904D01*
X86757428Y-99559904D01*
X86662190Y-99512285D01*
X86614571Y-99464666D01*
X86566952Y-99369428D01*
%TO.C,R17*%
X82820380Y-109339142D02*
X82344190Y-109005809D01*
X82820380Y-108767714D02*
X81820380Y-108767714D01*
X81820380Y-109148666D01*
X81868000Y-109243904D01*
X81915619Y-109291523D01*
X82010857Y-109339142D01*
X82153714Y-109339142D01*
X82248952Y-109291523D01*
X82296571Y-109243904D01*
X82344190Y-109148666D01*
X82344190Y-108767714D01*
X82820380Y-110291523D02*
X82820380Y-109720095D01*
X82820380Y-110005809D02*
X81820380Y-110005809D01*
X81963238Y-109910571D01*
X82058476Y-109815333D01*
X82106095Y-109720095D01*
X81820380Y-110624857D02*
X81820380Y-111291523D01*
X82820380Y-110862952D01*
%TO.C,R16*%
X124150380Y-109815142D02*
X123674190Y-109481809D01*
X124150380Y-109243714D02*
X123150380Y-109243714D01*
X123150380Y-109624666D01*
X123198000Y-109719904D01*
X123245619Y-109767523D01*
X123340857Y-109815142D01*
X123483714Y-109815142D01*
X123578952Y-109767523D01*
X123626571Y-109719904D01*
X123674190Y-109624666D01*
X123674190Y-109243714D01*
X124150380Y-110767523D02*
X124150380Y-110196095D01*
X124150380Y-110481809D02*
X123150380Y-110481809D01*
X123293238Y-110386571D01*
X123388476Y-110291333D01*
X123436095Y-110196095D01*
X123150380Y-111624666D02*
X123150380Y-111434190D01*
X123198000Y-111338952D01*
X123245619Y-111291333D01*
X123388476Y-111196095D01*
X123578952Y-111148476D01*
X123959904Y-111148476D01*
X124055142Y-111196095D01*
X124102761Y-111243714D01*
X124150380Y-111338952D01*
X124150380Y-111529428D01*
X124102761Y-111624666D01*
X124055142Y-111672285D01*
X123959904Y-111719904D01*
X123721809Y-111719904D01*
X123626571Y-111672285D01*
X123578952Y-111624666D01*
X123531333Y-111529428D01*
X123531333Y-111338952D01*
X123578952Y-111243714D01*
X123626571Y-111196095D01*
X123721809Y-111148476D01*
%TO.C,R15*%
X120158380Y-109879142D02*
X119682190Y-109545809D01*
X120158380Y-109307714D02*
X119158380Y-109307714D01*
X119158380Y-109688666D01*
X119206000Y-109783904D01*
X119253619Y-109831523D01*
X119348857Y-109879142D01*
X119491714Y-109879142D01*
X119586952Y-109831523D01*
X119634571Y-109783904D01*
X119682190Y-109688666D01*
X119682190Y-109307714D01*
X120158380Y-110831523D02*
X120158380Y-110260095D01*
X120158380Y-110545809D02*
X119158380Y-110545809D01*
X119301238Y-110450571D01*
X119396476Y-110355333D01*
X119444095Y-110260095D01*
X119158380Y-111736285D02*
X119158380Y-111260095D01*
X119634571Y-111212476D01*
X119586952Y-111260095D01*
X119539333Y-111355333D01*
X119539333Y-111593428D01*
X119586952Y-111688666D01*
X119634571Y-111736285D01*
X119729809Y-111783904D01*
X119967904Y-111783904D01*
X120063142Y-111736285D01*
X120110761Y-111688666D01*
X120158380Y-111593428D01*
X120158380Y-111355333D01*
X120110761Y-111260095D01*
X120063142Y-111212476D01*
%TO.C,R14*%
X82058380Y-97655142D02*
X81582190Y-97321809D01*
X82058380Y-97083714D02*
X81058380Y-97083714D01*
X81058380Y-97464666D01*
X81106000Y-97559904D01*
X81153619Y-97607523D01*
X81248857Y-97655142D01*
X81391714Y-97655142D01*
X81486952Y-97607523D01*
X81534571Y-97559904D01*
X81582190Y-97464666D01*
X81582190Y-97083714D01*
X82058380Y-98607523D02*
X82058380Y-98036095D01*
X82058380Y-98321809D02*
X81058380Y-98321809D01*
X81201238Y-98226571D01*
X81296476Y-98131333D01*
X81344095Y-98036095D01*
X81391714Y-99464666D02*
X82058380Y-99464666D01*
X81010761Y-99226571D02*
X81725047Y-98988476D01*
X81725047Y-99607523D01*
%TO.C,R13*%
X73278380Y-97655142D02*
X72802190Y-97321809D01*
X73278380Y-97083714D02*
X72278380Y-97083714D01*
X72278380Y-97464666D01*
X72326000Y-97559904D01*
X72373619Y-97607523D01*
X72468857Y-97655142D01*
X72611714Y-97655142D01*
X72706952Y-97607523D01*
X72754571Y-97559904D01*
X72802190Y-97464666D01*
X72802190Y-97083714D01*
X73278380Y-98607523D02*
X73278380Y-98036095D01*
X73278380Y-98321809D02*
X72278380Y-98321809D01*
X72421238Y-98226571D01*
X72516476Y-98131333D01*
X72564095Y-98036095D01*
X72278380Y-98940857D02*
X72278380Y-99559904D01*
X72659333Y-99226571D01*
X72659333Y-99369428D01*
X72706952Y-99464666D01*
X72754571Y-99512285D01*
X72849809Y-99559904D01*
X73087904Y-99559904D01*
X73183142Y-99512285D01*
X73230761Y-99464666D01*
X73278380Y-99369428D01*
X73278380Y-99083714D01*
X73230761Y-98988476D01*
X73183142Y-98940857D01*
%TO.C,R12*%
X92218380Y-97687142D02*
X91742190Y-97353809D01*
X92218380Y-97115714D02*
X91218380Y-97115714D01*
X91218380Y-97496666D01*
X91266000Y-97591904D01*
X91313619Y-97639523D01*
X91408857Y-97687142D01*
X91551714Y-97687142D01*
X91646952Y-97639523D01*
X91694571Y-97591904D01*
X91742190Y-97496666D01*
X91742190Y-97115714D01*
X92218380Y-98639523D02*
X92218380Y-98068095D01*
X92218380Y-98353809D02*
X91218380Y-98353809D01*
X91361238Y-98258571D01*
X91456476Y-98163333D01*
X91504095Y-98068095D01*
X91313619Y-99020476D02*
X91266000Y-99068095D01*
X91218380Y-99163333D01*
X91218380Y-99401428D01*
X91266000Y-99496666D01*
X91313619Y-99544285D01*
X91408857Y-99591904D01*
X91504095Y-99591904D01*
X91646952Y-99544285D01*
X92218380Y-98972857D01*
X92218380Y-99591904D01*
%TO.C,R11*%
X86630380Y-109307142D02*
X86154190Y-108973809D01*
X86630380Y-108735714D02*
X85630380Y-108735714D01*
X85630380Y-109116666D01*
X85678000Y-109211904D01*
X85725619Y-109259523D01*
X85820857Y-109307142D01*
X85963714Y-109307142D01*
X86058952Y-109259523D01*
X86106571Y-109211904D01*
X86154190Y-109116666D01*
X86154190Y-108735714D01*
X86630380Y-110259523D02*
X86630380Y-109688095D01*
X86630380Y-109973809D02*
X85630380Y-109973809D01*
X85773238Y-109878571D01*
X85868476Y-109783333D01*
X85916095Y-109688095D01*
X86630380Y-111211904D02*
X86630380Y-110640476D01*
X86630380Y-110926190D02*
X85630380Y-110926190D01*
X85773238Y-110830952D01*
X85868476Y-110735714D01*
X85916095Y-110640476D01*
%TO.C,R10*%
X96028380Y-97687142D02*
X95552190Y-97353809D01*
X96028380Y-97115714D02*
X95028380Y-97115714D01*
X95028380Y-97496666D01*
X95076000Y-97591904D01*
X95123619Y-97639523D01*
X95218857Y-97687142D01*
X95361714Y-97687142D01*
X95456952Y-97639523D01*
X95504571Y-97591904D01*
X95552190Y-97496666D01*
X95552190Y-97115714D01*
X96028380Y-98639523D02*
X96028380Y-98068095D01*
X96028380Y-98353809D02*
X95028380Y-98353809D01*
X95171238Y-98258571D01*
X95266476Y-98163333D01*
X95314095Y-98068095D01*
X95028380Y-99258571D02*
X95028380Y-99353809D01*
X95076000Y-99449047D01*
X95123619Y-99496666D01*
X95218857Y-99544285D01*
X95409333Y-99591904D01*
X95647428Y-99591904D01*
X95837904Y-99544285D01*
X95933142Y-99496666D01*
X95980761Y-99449047D01*
X96028380Y-99353809D01*
X96028380Y-99258571D01*
X95980761Y-99163333D01*
X95933142Y-99115714D01*
X95837904Y-99068095D01*
X95647428Y-99020476D01*
X95409333Y-99020476D01*
X95218857Y-99068095D01*
X95123619Y-99115714D01*
X95076000Y-99163333D01*
X95028380Y-99258571D01*
%TO.C,R9*%
X93996380Y-109783333D02*
X93520190Y-109450000D01*
X93996380Y-109211904D02*
X92996380Y-109211904D01*
X92996380Y-109592857D01*
X93044000Y-109688095D01*
X93091619Y-109735714D01*
X93186857Y-109783333D01*
X93329714Y-109783333D01*
X93424952Y-109735714D01*
X93472571Y-109688095D01*
X93520190Y-109592857D01*
X93520190Y-109211904D01*
X93996380Y-110259523D02*
X93996380Y-110450000D01*
X93948761Y-110545238D01*
X93901142Y-110592857D01*
X93758285Y-110688095D01*
X93567809Y-110735714D01*
X93186857Y-110735714D01*
X93091619Y-110688095D01*
X93044000Y-110640476D01*
X92996380Y-110545238D01*
X92996380Y-110354761D01*
X93044000Y-110259523D01*
X93091619Y-110211904D01*
X93186857Y-110164285D01*
X93424952Y-110164285D01*
X93520190Y-110211904D01*
X93567809Y-110259523D01*
X93615428Y-110354761D01*
X93615428Y-110545238D01*
X93567809Y-110640476D01*
X93520190Y-110688095D01*
X93424952Y-110735714D01*
%TO.C,R8*%
X100346380Y-84447333D02*
X99870190Y-84114000D01*
X100346380Y-83875904D02*
X99346380Y-83875904D01*
X99346380Y-84256857D01*
X99394000Y-84352095D01*
X99441619Y-84399714D01*
X99536857Y-84447333D01*
X99679714Y-84447333D01*
X99774952Y-84399714D01*
X99822571Y-84352095D01*
X99870190Y-84256857D01*
X99870190Y-83875904D01*
X99774952Y-85018761D02*
X99727333Y-84923523D01*
X99679714Y-84875904D01*
X99584476Y-84828285D01*
X99536857Y-84828285D01*
X99441619Y-84875904D01*
X99394000Y-84923523D01*
X99346380Y-85018761D01*
X99346380Y-85209238D01*
X99394000Y-85304476D01*
X99441619Y-85352095D01*
X99536857Y-85399714D01*
X99584476Y-85399714D01*
X99679714Y-85352095D01*
X99727333Y-85304476D01*
X99774952Y-85209238D01*
X99774952Y-85018761D01*
X99822571Y-84923523D01*
X99870190Y-84875904D01*
X99965428Y-84828285D01*
X100155904Y-84828285D01*
X100251142Y-84875904D01*
X100298761Y-84923523D01*
X100346380Y-85018761D01*
X100346380Y-85209238D01*
X100298761Y-85304476D01*
X100251142Y-85352095D01*
X100155904Y-85399714D01*
X99965428Y-85399714D01*
X99870190Y-85352095D01*
X99822571Y-85304476D01*
X99774952Y-85209238D01*
%TO.C,R7*%
X90440380Y-109783333D02*
X89964190Y-109450000D01*
X90440380Y-109211904D02*
X89440380Y-109211904D01*
X89440380Y-109592857D01*
X89488000Y-109688095D01*
X89535619Y-109735714D01*
X89630857Y-109783333D01*
X89773714Y-109783333D01*
X89868952Y-109735714D01*
X89916571Y-109688095D01*
X89964190Y-109592857D01*
X89964190Y-109211904D01*
X89440380Y-110116666D02*
X89440380Y-110783333D01*
X90440380Y-110354761D01*
%TO.C,D12*%
X111668380Y-86825714D02*
X110668380Y-86825714D01*
X110668380Y-87063809D01*
X110716000Y-87206666D01*
X110811238Y-87301904D01*
X110906476Y-87349523D01*
X111096952Y-87397142D01*
X111239809Y-87397142D01*
X111430285Y-87349523D01*
X111525523Y-87301904D01*
X111620761Y-87206666D01*
X111668380Y-87063809D01*
X111668380Y-86825714D01*
X111668380Y-88349523D02*
X111668380Y-87778095D01*
X111668380Y-88063809D02*
X110668380Y-88063809D01*
X110811238Y-87968571D01*
X110906476Y-87873333D01*
X110954095Y-87778095D01*
X110763619Y-88730476D02*
X110716000Y-88778095D01*
X110668380Y-88873333D01*
X110668380Y-89111428D01*
X110716000Y-89206666D01*
X110763619Y-89254285D01*
X110858857Y-89301904D01*
X110954095Y-89301904D01*
X111096952Y-89254285D01*
X111668380Y-88682857D01*
X111668380Y-89301904D01*
%TO.C,D11*%
X91348380Y-86825714D02*
X90348380Y-86825714D01*
X90348380Y-87063809D01*
X90396000Y-87206666D01*
X90491238Y-87301904D01*
X90586476Y-87349523D01*
X90776952Y-87397142D01*
X90919809Y-87397142D01*
X91110285Y-87349523D01*
X91205523Y-87301904D01*
X91300761Y-87206666D01*
X91348380Y-87063809D01*
X91348380Y-86825714D01*
X91348380Y-88349523D02*
X91348380Y-87778095D01*
X91348380Y-88063809D02*
X90348380Y-88063809D01*
X90491238Y-87968571D01*
X90586476Y-87873333D01*
X90634095Y-87778095D01*
X91348380Y-89301904D02*
X91348380Y-88730476D01*
X91348380Y-89016190D02*
X90348380Y-89016190D01*
X90491238Y-88920952D01*
X90586476Y-88825714D01*
X90634095Y-88730476D01*
%TO.C,D10*%
X117256380Y-86825714D02*
X116256380Y-86825714D01*
X116256380Y-87063809D01*
X116304000Y-87206666D01*
X116399238Y-87301904D01*
X116494476Y-87349523D01*
X116684952Y-87397142D01*
X116827809Y-87397142D01*
X117018285Y-87349523D01*
X117113523Y-87301904D01*
X117208761Y-87206666D01*
X117256380Y-87063809D01*
X117256380Y-86825714D01*
X117256380Y-88349523D02*
X117256380Y-87778095D01*
X117256380Y-88063809D02*
X116256380Y-88063809D01*
X116399238Y-87968571D01*
X116494476Y-87873333D01*
X116542095Y-87778095D01*
X116256380Y-88968571D02*
X116256380Y-89063809D01*
X116304000Y-89159047D01*
X116351619Y-89206666D01*
X116446857Y-89254285D01*
X116637333Y-89301904D01*
X116875428Y-89301904D01*
X117065904Y-89254285D01*
X117161142Y-89206666D01*
X117208761Y-89159047D01*
X117256380Y-89063809D01*
X117256380Y-88968571D01*
X117208761Y-88873333D01*
X117161142Y-88825714D01*
X117065904Y-88778095D01*
X116875428Y-88730476D01*
X116637333Y-88730476D01*
X116446857Y-88778095D01*
X116351619Y-88825714D01*
X116304000Y-88873333D01*
X116256380Y-88968571D01*
%TO.C,D9*%
X79664380Y-87301904D02*
X78664380Y-87301904D01*
X78664380Y-87540000D01*
X78712000Y-87682857D01*
X78807238Y-87778095D01*
X78902476Y-87825714D01*
X79092952Y-87873333D01*
X79235809Y-87873333D01*
X79426285Y-87825714D01*
X79521523Y-87778095D01*
X79616761Y-87682857D01*
X79664380Y-87540000D01*
X79664380Y-87301904D01*
X79664380Y-88349523D02*
X79664380Y-88540000D01*
X79616761Y-88635238D01*
X79569142Y-88682857D01*
X79426285Y-88778095D01*
X79235809Y-88825714D01*
X78854857Y-88825714D01*
X78759619Y-88778095D01*
X78712000Y-88730476D01*
X78664380Y-88635238D01*
X78664380Y-88444761D01*
X78712000Y-88349523D01*
X78759619Y-88301904D01*
X78854857Y-88254285D01*
X79092952Y-88254285D01*
X79188190Y-88301904D01*
X79235809Y-88349523D01*
X79283428Y-88444761D01*
X79283428Y-88635238D01*
X79235809Y-88730476D01*
X79188190Y-88778095D01*
X79092952Y-88825714D01*
%TO.C,D8*%
X85760380Y-87301904D02*
X84760380Y-87301904D01*
X84760380Y-87540000D01*
X84808000Y-87682857D01*
X84903238Y-87778095D01*
X84998476Y-87825714D01*
X85188952Y-87873333D01*
X85331809Y-87873333D01*
X85522285Y-87825714D01*
X85617523Y-87778095D01*
X85712761Y-87682857D01*
X85760380Y-87540000D01*
X85760380Y-87301904D01*
X85188952Y-88444761D02*
X85141333Y-88349523D01*
X85093714Y-88301904D01*
X84998476Y-88254285D01*
X84950857Y-88254285D01*
X84855619Y-88301904D01*
X84808000Y-88349523D01*
X84760380Y-88444761D01*
X84760380Y-88635238D01*
X84808000Y-88730476D01*
X84855619Y-88778095D01*
X84950857Y-88825714D01*
X84998476Y-88825714D01*
X85093714Y-88778095D01*
X85141333Y-88730476D01*
X85188952Y-88635238D01*
X85188952Y-88444761D01*
X85236571Y-88349523D01*
X85284190Y-88301904D01*
X85379428Y-88254285D01*
X85569904Y-88254285D01*
X85665142Y-88301904D01*
X85712761Y-88349523D01*
X85760380Y-88444761D01*
X85760380Y-88635238D01*
X85712761Y-88730476D01*
X85665142Y-88778095D01*
X85569904Y-88825714D01*
X85379428Y-88825714D01*
X85284190Y-88778095D01*
X85236571Y-88730476D01*
X85188952Y-88635238D01*
%TO.C,D6*%
X96174380Y-87301904D02*
X95174380Y-87301904D01*
X95174380Y-87540000D01*
X95222000Y-87682857D01*
X95317238Y-87778095D01*
X95412476Y-87825714D01*
X95602952Y-87873333D01*
X95745809Y-87873333D01*
X95936285Y-87825714D01*
X96031523Y-87778095D01*
X96126761Y-87682857D01*
X96174380Y-87540000D01*
X96174380Y-87301904D01*
X95174380Y-88730476D02*
X95174380Y-88540000D01*
X95222000Y-88444761D01*
X95269619Y-88397142D01*
X95412476Y-88301904D01*
X95602952Y-88254285D01*
X95983904Y-88254285D01*
X96079142Y-88301904D01*
X96126761Y-88349523D01*
X96174380Y-88444761D01*
X96174380Y-88635238D01*
X96126761Y-88730476D01*
X96079142Y-88778095D01*
X95983904Y-88825714D01*
X95745809Y-88825714D01*
X95650571Y-88778095D01*
X95602952Y-88730476D01*
X95555333Y-88635238D01*
X95555333Y-88444761D01*
X95602952Y-88349523D01*
X95650571Y-88301904D01*
X95745809Y-88254285D01*
%TO.C,D5*%
X105572380Y-87301904D02*
X104572380Y-87301904D01*
X104572380Y-87540000D01*
X104620000Y-87682857D01*
X104715238Y-87778095D01*
X104810476Y-87825714D01*
X105000952Y-87873333D01*
X105143809Y-87873333D01*
X105334285Y-87825714D01*
X105429523Y-87778095D01*
X105524761Y-87682857D01*
X105572380Y-87540000D01*
X105572380Y-87301904D01*
X104572380Y-88778095D02*
X104572380Y-88301904D01*
X105048571Y-88254285D01*
X105000952Y-88301904D01*
X104953333Y-88397142D01*
X104953333Y-88635238D01*
X105000952Y-88730476D01*
X105048571Y-88778095D01*
X105143809Y-88825714D01*
X105381904Y-88825714D01*
X105477142Y-88778095D01*
X105524761Y-88730476D01*
X105572380Y-88635238D01*
X105572380Y-88397142D01*
X105524761Y-88301904D01*
X105477142Y-88254285D01*
%TD*%
%LPC*%
D12*
%TO.C,J6*%
X66294000Y-77216000D03*
%TD*%
%TO.C,J7*%
X135128000Y-74422000D03*
D13*
X135128000Y-76962000D03*
X135128000Y-79502000D03*
X135128000Y-82042000D03*
%TD*%
D14*
%TO.C,D2*%
X65024000Y-109220000D03*
D15*
X70104000Y-109220000D03*
%TD*%
D16*
%TO.C,R20*%
X108966000Y-107950000D03*
X108966000Y-111950000D03*
%TD*%
%TO.C,R19*%
X112268000Y-111950000D03*
X112268000Y-107950000D03*
%TD*%
%TO.C,R18*%
X84836000Y-100298000D03*
X84836000Y-96298000D03*
%TD*%
%TO.C,R17*%
X80518000Y-111982000D03*
X80518000Y-107982000D03*
%TD*%
%TO.C,R16*%
X121666000Y-108458000D03*
X121666000Y-112458000D03*
%TD*%
%TO.C,R15*%
X117856000Y-112522000D03*
X117856000Y-108522000D03*
%TD*%
%TO.C,R14*%
X79756000Y-100298000D03*
X79756000Y-96298000D03*
%TD*%
%TO.C,R13*%
X74676000Y-96298000D03*
X74676000Y-100298000D03*
%TD*%
%TO.C,R12*%
X89916000Y-100330000D03*
X89916000Y-96330000D03*
%TD*%
%TO.C,R11*%
X84328000Y-111950000D03*
X84328000Y-107950000D03*
%TD*%
%TO.C,R10*%
X93726000Y-100330000D03*
X93726000Y-96330000D03*
%TD*%
%TO.C,R9*%
X91694000Y-111950000D03*
X91694000Y-107950000D03*
%TD*%
%TO.C,R8*%
X98044000Y-86614000D03*
X98044000Y-82614000D03*
%TD*%
%TO.C,R7*%
X88138000Y-111950000D03*
X88138000Y-107950000D03*
%TD*%
D17*
%TO.C,D12*%
X108966000Y-91440000D03*
X108966000Y-84640000D03*
%TD*%
%TO.C,D11*%
X88646000Y-91440000D03*
X88646000Y-84640000D03*
%TD*%
%TO.C,D10*%
X114554000Y-91440000D03*
X114554000Y-84640000D03*
%TD*%
%TO.C,D9*%
X76962000Y-91440000D03*
X76962000Y-84640000D03*
%TD*%
%TO.C,D8*%
X83058000Y-91440000D03*
X83058000Y-84640000D03*
%TD*%
%TO.C,D6*%
X93472000Y-91440000D03*
X93472000Y-84640000D03*
%TD*%
%TO.C,D5*%
X102870000Y-91440000D03*
X102870000Y-84640000D03*
%TD*%
D18*
%TO.C,D4*%
X105410000Y-107950000D03*
D19*
X105410000Y-110490000D03*
%TD*%
D18*
%TO.C,D3*%
X100330000Y-107950000D03*
D19*
X100330000Y-110490000D03*
%TD*%
D20*
%TO.C,Q2*%
X106426000Y-96266000D03*
D21*
X106426000Y-98806000D03*
X106426000Y-101346000D03*
%TD*%
D20*
%TO.C,Q1*%
X99314000Y-96266000D03*
D21*
X99314000Y-98806000D03*
X99314000Y-101346000D03*
%TD*%
D22*
%TO.C,U2*%
X64516000Y-103632000D03*
X67056000Y-103632000D03*
X69596000Y-103632000D03*
X72136000Y-103632000D03*
%TD*%
D23*
%TO.C,U3*%
X121412000Y-103886000D03*
X123952000Y-103886000D03*
X126492000Y-103886000D03*
X129032000Y-103886000D03*
X131572000Y-103886000D03*
G36*
G01*
X134874000Y-103267000D02*
X134874000Y-104505000D01*
G75*
G02*
X134493000Y-104886000I-381000J0D01*
G01*
X133731000Y-104886000D01*
G75*
G02*
X133350000Y-104505000I0J381000D01*
G01*
X133350000Y-103267000D01*
G75*
G02*
X133731000Y-102886000I381000J0D01*
G01*
X134493000Y-102886000D01*
G75*
G02*
X134874000Y-103267000I0J-381000D01*
G01*
G37*
%TD*%
D24*
%TO.C,J5*%
X127762000Y-116586000D03*
D25*
X130262000Y-116586000D03*
X132762000Y-116586000D03*
%TD*%
D24*
%TO.C,J4*%
X112776000Y-116586000D03*
D25*
X115276000Y-116586000D03*
X117776000Y-116586000D03*
X120276000Y-116586000D03*
%TD*%
D24*
%TO.C,J3*%
X100330000Y-116586000D03*
D25*
X102830000Y-116586000D03*
X105330000Y-116586000D03*
%TD*%
D24*
%TO.C,J2*%
X82804000Y-116586000D03*
D25*
X85304000Y-116586000D03*
X87804000Y-116586000D03*
X90304000Y-116586000D03*
X92804000Y-116586000D03*
%TD*%
D24*
%TO.C,J1*%
X65024000Y-116586000D03*
D25*
X67524000Y-116586000D03*
X70024000Y-116586000D03*
X72524000Y-116586000D03*
X75024000Y-116586000D03*
%TD*%
D26*
%TO.C,U1*%
X113030000Y-69342000D03*
X113030000Y-54102000D03*
X110490000Y-69342000D03*
X110490000Y-54102000D03*
X107950000Y-69342000D03*
X107950000Y-54102000D03*
X105410000Y-69342000D03*
X105410000Y-54102000D03*
X102870000Y-69342000D03*
X102870000Y-54102000D03*
X100330000Y-69342000D03*
X100330000Y-54102000D03*
X97790000Y-69342000D03*
X97790000Y-54102000D03*
X95250000Y-69342000D03*
X95250000Y-54102000D03*
X92710000Y-69342000D03*
X92710000Y-54102000D03*
X90170000Y-69342000D03*
X90170000Y-54102000D03*
X87630000Y-69342000D03*
X87630000Y-54102000D03*
X85090000Y-69342000D03*
X85090000Y-54102000D03*
X82550000Y-69342000D03*
X82550000Y-54102000D03*
X80010000Y-69342000D03*
X80010000Y-54102000D03*
X77470000Y-69342000D03*
X77470000Y-54102000D03*
X74930000Y-69342000D03*
X74930000Y-54102000D03*
X72390000Y-69342000D03*
X72390000Y-54102000D03*
X69850000Y-69342000D03*
X69850000Y-54102000D03*
X67310000Y-69342000D03*
X67310000Y-54102000D03*
D12*
X64770000Y-69342000D03*
D26*
X64770000Y-54102000D03*
X109220000Y-57912000D03*
X109220000Y-60452000D03*
X109220000Y-62992000D03*
X109220000Y-65532000D03*
%TD*%
M02*
