%TF.GenerationSoftware,KiCad,Pcbnew,(6.0.4)*%
%TF.CreationDate,2022-04-25T23:59:20+02:00*%
%TF.ProjectId,BoostController,426f6f73-7443-46f6-9e74-726f6c6c6572,rev?*%
%TF.SameCoordinates,Original*%
%TF.FileFunction,Paste,Bot*%
%TF.FilePolarity,Positive*%
%FSLAX46Y46*%
G04 Gerber Fmt 4.6, Leading zero omitted, Abs format (unit mm)*
G04 Created by KiCad (PCBNEW (6.0.4)) date 2022-04-25 23:59:20*
%MOMM*%
%LPD*%
G01*
G04 APERTURE LIST*
G04 Aperture macros list*
%AMRoundRect*
0 Rectangle with rounded corners*
0 $1 Rounding radius*
0 $2 $3 $4 $5 $6 $7 $8 $9 X,Y pos of 4 corners*
0 Add a 4 corners polygon primitive as box body*
4,1,4,$2,$3,$4,$5,$6,$7,$8,$9,$2,$3,0*
0 Add four circle primitives for the rounded corners*
1,1,$1+$1,$2,$3*
1,1,$1+$1,$4,$5*
1,1,$1+$1,$6,$7*
1,1,$1+$1,$8,$9*
0 Add four rect primitives between the rounded corners*
20,1,$1+$1,$2,$3,$4,$5,0*
20,1,$1+$1,$4,$5,$6,$7,0*
20,1,$1+$1,$6,$7,$8,$9,0*
20,1,$1+$1,$8,$9,$2,$3,0*%
G04 Aperture macros list end*
%ADD10R,2.700000X3.500000*%
%ADD11RoundRect,0.250000X-0.625000X0.400000X-0.625000X-0.400000X0.625000X-0.400000X0.625000X0.400000X0*%
%ADD12RoundRect,0.250000X0.625000X-0.400000X0.625000X0.400000X-0.625000X0.400000X-0.625000X-0.400000X0*%
G04 APERTURE END LIST*
D10*
%TO.C,D12*%
X108966000Y-91440000D03*
X108966000Y-84640000D03*
%TD*%
D11*
%TO.C,R20*%
X108966000Y-111500000D03*
X108966000Y-108400000D03*
%TD*%
D12*
%TO.C,R19*%
X112268000Y-111500000D03*
X112268000Y-108400000D03*
%TD*%
%TO.C,R18*%
X84836000Y-99848000D03*
X84836000Y-96748000D03*
%TD*%
%TO.C,R17*%
X80518000Y-111532000D03*
X80518000Y-108432000D03*
%TD*%
D11*
%TO.C,R16*%
X121666000Y-108908000D03*
X121666000Y-112008000D03*
%TD*%
D12*
%TO.C,R15*%
X117856000Y-112072000D03*
X117856000Y-108972000D03*
%TD*%
%TO.C,R14*%
X79756000Y-99848000D03*
X79756000Y-96748000D03*
%TD*%
D11*
%TO.C,R13*%
X74676000Y-96748000D03*
X74676000Y-99848000D03*
%TD*%
D12*
%TO.C,R12*%
X89916000Y-99880000D03*
X89916000Y-96780000D03*
%TD*%
%TO.C,R11*%
X84328000Y-111500000D03*
X84328000Y-108400000D03*
%TD*%
%TO.C,R10*%
X93726000Y-99880000D03*
X93726000Y-96780000D03*
%TD*%
%TO.C,R9*%
X91694000Y-111500000D03*
X91694000Y-108400000D03*
%TD*%
%TO.C,R8*%
X98044000Y-86164000D03*
X98044000Y-83064000D03*
%TD*%
%TO.C,R7*%
X88138000Y-111500000D03*
X88138000Y-108400000D03*
%TD*%
D10*
%TO.C,D11*%
X88646000Y-91440000D03*
X88646000Y-84640000D03*
%TD*%
%TO.C,D10*%
X114554000Y-91440000D03*
X114554000Y-84640000D03*
%TD*%
%TO.C,D9*%
X76962000Y-91440000D03*
X76962000Y-84640000D03*
%TD*%
%TO.C,D8*%
X83058000Y-91440000D03*
X83058000Y-84640000D03*
%TD*%
%TO.C,D6*%
X93472000Y-91440000D03*
X93472000Y-84640000D03*
%TD*%
%TO.C,D5*%
X102870000Y-91440000D03*
X102870000Y-84640000D03*
%TD*%
M02*
