%TF.GenerationSoftware,KiCad,Pcbnew,(6.0.4)*%
%TF.CreationDate,2022-04-21T00:14:10+02:00*%
%TF.ProjectId,BoostController,426f6f73-7443-46f6-9e74-726f6c6c6572,rev?*%
%TF.SameCoordinates,Original*%
%TF.FileFunction,Legend,Top*%
%TF.FilePolarity,Positive*%
%FSLAX46Y46*%
G04 Gerber Fmt 4.6, Leading zero omitted, Abs format (unit mm)*
G04 Created by KiCad (PCBNEW (6.0.4)) date 2022-04-21 00:14:10*
%MOMM*%
%LPD*%
G01*
G04 APERTURE LIST*
G04 Aperture macros list*
%AMRoundRect*
0 Rectangle with rounded corners*
0 $1 Rounding radius*
0 $2 $3 $4 $5 $6 $7 $8 $9 X,Y pos of 4 corners*
0 Add a 4 corners polygon primitive as box body*
4,1,4,$2,$3,$4,$5,$6,$7,$8,$9,$2,$3,0*
0 Add four circle primitives for the rounded corners*
1,1,$1+$1,$2,$3*
1,1,$1+$1,$4,$5*
1,1,$1+$1,$6,$7*
1,1,$1+$1,$8,$9*
0 Add four rect primitives between the rounded corners*
20,1,$1+$1,$2,$3,$4,$5,0*
20,1,$1+$1,$4,$5,$6,$7,0*
20,1,$1+$1,$6,$7,$8,$9,0*
20,1,$1+$1,$8,$9,$2,$3,0*%
G04 Aperture macros list end*
%ADD10C,0.150000*%
%ADD11C,0.120000*%
%ADD12C,0.010000*%
%ADD13R,1.750000X1.750000*%
%ADD14C,1.750000*%
%ADD15R,1.700000X1.700000*%
%ADD16C,1.700000*%
%ADD17R,2.700000X3.500000*%
%ADD18R,1.700000X2.000000*%
%ADD19R,2.400000X2.400000*%
%ADD20O,2.400000X2.400000*%
%ADD21C,1.524000*%
%ADD22R,1.800000X1.800000*%
%ADD23O,1.800000X1.800000*%
%ADD24R,2.200000X2.200000*%
%ADD25O,2.200000X2.200000*%
%ADD26R,0.900000X0.800000*%
%ADD27RoundRect,0.381000X0.381000X0.619000X-0.381000X0.619000X-0.381000X-0.619000X0.381000X-0.619000X0*%
%ADD28O,1.524000X2.000000*%
%ADD29O,1.700000X1.700000*%
%ADD30C,3.000000*%
%ADD31RoundRect,0.250000X-0.625000X0.400000X-0.625000X-0.400000X0.625000X-0.400000X0.625000X0.400000X0*%
G04 APERTURE END LIST*
D10*
X130587904Y-81748380D02*
X131206952Y-81748380D01*
X130873619Y-82129333D01*
X131016476Y-82129333D01*
X131111714Y-82176952D01*
X131159333Y-82224571D01*
X131206952Y-82319809D01*
X131206952Y-82557904D01*
X131159333Y-82653142D01*
X131111714Y-82700761D01*
X131016476Y-82748380D01*
X130730761Y-82748380D01*
X130635523Y-82700761D01*
X130587904Y-82653142D01*
X131492666Y-81748380D02*
X131826000Y-82748380D01*
X132159333Y-81748380D01*
X132397428Y-81748380D02*
X133016476Y-81748380D01*
X132683142Y-82129333D01*
X132826000Y-82129333D01*
X132921238Y-82176952D01*
X132968857Y-82224571D01*
X133016476Y-82319809D01*
X133016476Y-82557904D01*
X132968857Y-82653142D01*
X132921238Y-82700761D01*
X132826000Y-82748380D01*
X132540285Y-82748380D01*
X132445047Y-82700761D01*
X132397428Y-82653142D01*
X130810095Y-74176000D02*
X130714857Y-74128380D01*
X130572000Y-74128380D01*
X130429142Y-74176000D01*
X130333904Y-74271238D01*
X130286285Y-74366476D01*
X130238666Y-74556952D01*
X130238666Y-74699809D01*
X130286285Y-74890285D01*
X130333904Y-74985523D01*
X130429142Y-75080761D01*
X130572000Y-75128380D01*
X130667238Y-75128380D01*
X130810095Y-75080761D01*
X130857714Y-75033142D01*
X130857714Y-74699809D01*
X130667238Y-74699809D01*
X131286285Y-75128380D02*
X131286285Y-74128380D01*
X131857714Y-75128380D01*
X131857714Y-74128380D01*
X132333904Y-75128380D02*
X132333904Y-74128380D01*
X132572000Y-74128380D01*
X132714857Y-74176000D01*
X132810095Y-74271238D01*
X132857714Y-74366476D01*
X132905333Y-74556952D01*
X132905333Y-74699809D01*
X132857714Y-74890285D01*
X132810095Y-74985523D01*
X132714857Y-75080761D01*
X132572000Y-75128380D01*
X132333904Y-75128380D01*
X130214857Y-79906761D02*
X130357714Y-79954380D01*
X130595809Y-79954380D01*
X130691047Y-79906761D01*
X130738666Y-79859142D01*
X130786285Y-79763904D01*
X130786285Y-79668666D01*
X130738666Y-79573428D01*
X130691047Y-79525809D01*
X130595809Y-79478190D01*
X130405333Y-79430571D01*
X130310095Y-79382952D01*
X130262476Y-79335333D01*
X130214857Y-79240095D01*
X130214857Y-79144857D01*
X130262476Y-79049619D01*
X130310095Y-79002000D01*
X130405333Y-78954380D01*
X130643428Y-78954380D01*
X130786285Y-79002000D01*
X131119619Y-78954380D02*
X131357714Y-79954380D01*
X131548190Y-79240095D01*
X131738666Y-79954380D01*
X131976761Y-78954380D01*
X132357714Y-79954380D02*
X132357714Y-78954380D01*
X132595809Y-78954380D01*
X132738666Y-79002000D01*
X132833904Y-79097238D01*
X132881523Y-79192476D01*
X132929142Y-79382952D01*
X132929142Y-79525809D01*
X132881523Y-79716285D01*
X132833904Y-79811523D01*
X132738666Y-79906761D01*
X132595809Y-79954380D01*
X132357714Y-79954380D01*
X130976761Y-77319142D02*
X130929142Y-77366761D01*
X130786285Y-77414380D01*
X130691047Y-77414380D01*
X130548190Y-77366761D01*
X130452952Y-77271523D01*
X130405333Y-77176285D01*
X130357714Y-76985809D01*
X130357714Y-76842952D01*
X130405333Y-76652476D01*
X130452952Y-76557238D01*
X130548190Y-76462000D01*
X130691047Y-76414380D01*
X130786285Y-76414380D01*
X130929142Y-76462000D01*
X130976761Y-76509619D01*
X131881523Y-77414380D02*
X131405333Y-77414380D01*
X131405333Y-76414380D01*
X132214857Y-77414380D02*
X132214857Y-76414380D01*
X132786285Y-77414380D02*
X132357714Y-76842952D01*
X132786285Y-76414380D02*
X132214857Y-76985809D01*
X120381047Y-58205714D02*
X120666761Y-58348571D01*
X120762000Y-58491428D01*
X120857238Y-58777142D01*
X120857238Y-59205714D01*
X120762000Y-59491428D01*
X120666761Y-59634285D01*
X120476285Y-59777142D01*
X119714380Y-59777142D01*
X119714380Y-56777142D01*
X120381047Y-56777142D01*
X120571523Y-56920000D01*
X120666761Y-57062857D01*
X120762000Y-57348571D01*
X120762000Y-57634285D01*
X120666761Y-57920000D01*
X120571523Y-58062857D01*
X120381047Y-58205714D01*
X119714380Y-58205714D01*
X122857238Y-59491428D02*
X122762000Y-59634285D01*
X122476285Y-59777142D01*
X122285809Y-59777142D01*
X122000095Y-59634285D01*
X121809619Y-59348571D01*
X121714380Y-59062857D01*
X121619142Y-58491428D01*
X121619142Y-58062857D01*
X121714380Y-57491428D01*
X121809619Y-57205714D01*
X122000095Y-56920000D01*
X122285809Y-56777142D01*
X122476285Y-56777142D01*
X122762000Y-56920000D01*
X122857238Y-57062857D01*
X126381047Y-59777142D02*
X125714380Y-58348571D01*
X125238190Y-59777142D02*
X125238190Y-56777142D01*
X126000095Y-56777142D01*
X126190571Y-56920000D01*
X126285809Y-57062857D01*
X126381047Y-57348571D01*
X126381047Y-57777142D01*
X126285809Y-58062857D01*
X126190571Y-58205714D01*
X126000095Y-58348571D01*
X125238190Y-58348571D01*
X128000095Y-59634285D02*
X127809619Y-59777142D01*
X127428666Y-59777142D01*
X127238190Y-59634285D01*
X127142952Y-59348571D01*
X127142952Y-58205714D01*
X127238190Y-57920000D01*
X127428666Y-57777142D01*
X127809619Y-57777142D01*
X128000095Y-57920000D01*
X128095333Y-58205714D01*
X128095333Y-58491428D01*
X127142952Y-58777142D01*
X128762000Y-57777142D02*
X129238190Y-59777142D01*
X129714380Y-57777142D01*
X133047714Y-59777142D02*
X131904857Y-59777142D01*
X132476285Y-59777142D02*
X132476285Y-56777142D01*
X132285809Y-57205714D01*
X132095333Y-57491428D01*
X131904857Y-57634285D01*
X133904857Y-59491428D02*
X134000095Y-59634285D01*
X133904857Y-59777142D01*
X133809619Y-59634285D01*
X133904857Y-59491428D01*
X133904857Y-59777142D01*
X134762000Y-57062857D02*
X134857238Y-56920000D01*
X135047714Y-56777142D01*
X135523904Y-56777142D01*
X135714380Y-56920000D01*
X135809619Y-57062857D01*
X135904857Y-57348571D01*
X135904857Y-57634285D01*
X135809619Y-58062857D01*
X134666761Y-59777142D01*
X135904857Y-59777142D01*
%TO.C,U1*%
X60412380Y-62483904D02*
X61221904Y-62483904D01*
X61317142Y-62436285D01*
X61364761Y-62388666D01*
X61412380Y-62293428D01*
X61412380Y-62102952D01*
X61364761Y-62007714D01*
X61317142Y-61960095D01*
X61221904Y-61912476D01*
X60412380Y-61912476D01*
X61412380Y-60912476D02*
X61412380Y-61483904D01*
X61412380Y-61198190D02*
X60412380Y-61198190D01*
X60555238Y-61293428D01*
X60650476Y-61388666D01*
X60698095Y-61483904D01*
X110994285Y-60856761D02*
X111122857Y-60904380D01*
X111337142Y-60904380D01*
X111422857Y-60856761D01*
X111465714Y-60809142D01*
X111508571Y-60713904D01*
X111508571Y-60618666D01*
X111465714Y-60523428D01*
X111422857Y-60475809D01*
X111337142Y-60428190D01*
X111165714Y-60380571D01*
X111080000Y-60332952D01*
X111037142Y-60285333D01*
X110994285Y-60190095D01*
X110994285Y-60094857D01*
X111037142Y-59999619D01*
X111080000Y-59952000D01*
X111165714Y-59904380D01*
X111380000Y-59904380D01*
X111508571Y-59952000D01*
X111808571Y-59904380D02*
X112022857Y-60904380D01*
X112194285Y-60190095D01*
X112365714Y-60904380D01*
X112580000Y-59904380D01*
X113437142Y-60809142D02*
X113394285Y-60856761D01*
X113265714Y-60904380D01*
X113180000Y-60904380D01*
X113051428Y-60856761D01*
X112965714Y-60761523D01*
X112922857Y-60666285D01*
X112880000Y-60475809D01*
X112880000Y-60332952D01*
X112922857Y-60142476D01*
X112965714Y-60047238D01*
X113051428Y-59952000D01*
X113180000Y-59904380D01*
X113265714Y-59904380D01*
X113394285Y-59952000D01*
X113437142Y-59999619D01*
X114251428Y-60904380D02*
X113822857Y-60904380D01*
X113822857Y-59904380D01*
X114551428Y-60904380D02*
X114551428Y-59904380D01*
X115065714Y-60904380D02*
X114680000Y-60332952D01*
X115065714Y-59904380D02*
X114551428Y-60475809D01*
X111153714Y-64984380D02*
X111710857Y-64984380D01*
X111410857Y-65365333D01*
X111539428Y-65365333D01*
X111625142Y-65412952D01*
X111668000Y-65460571D01*
X111710857Y-65555809D01*
X111710857Y-65793904D01*
X111668000Y-65889142D01*
X111625142Y-65936761D01*
X111539428Y-65984380D01*
X111282285Y-65984380D01*
X111196571Y-65936761D01*
X111153714Y-65889142D01*
X111968000Y-64984380D02*
X112268000Y-65984380D01*
X112568000Y-64984380D01*
X112782285Y-64984380D02*
X113339428Y-64984380D01*
X113039428Y-65365333D01*
X113168000Y-65365333D01*
X113253714Y-65412952D01*
X113296571Y-65460571D01*
X113339428Y-65555809D01*
X113339428Y-65793904D01*
X113296571Y-65889142D01*
X113253714Y-65936761D01*
X113168000Y-65984380D01*
X112910857Y-65984380D01*
X112825142Y-65936761D01*
X112782285Y-65889142D01*
X111582285Y-57412000D02*
X111496571Y-57364380D01*
X111368000Y-57364380D01*
X111239428Y-57412000D01*
X111153714Y-57507238D01*
X111110857Y-57602476D01*
X111068000Y-57792952D01*
X111068000Y-57935809D01*
X111110857Y-58126285D01*
X111153714Y-58221523D01*
X111239428Y-58316761D01*
X111368000Y-58364380D01*
X111453714Y-58364380D01*
X111582285Y-58316761D01*
X111625142Y-58269142D01*
X111625142Y-57935809D01*
X111453714Y-57935809D01*
X112010857Y-58364380D02*
X112010857Y-57364380D01*
X112525142Y-58364380D01*
X112525142Y-57364380D01*
X112953714Y-58364380D02*
X112953714Y-57364380D01*
X113168000Y-57364380D01*
X113296571Y-57412000D01*
X113382285Y-57507238D01*
X113425142Y-57602476D01*
X113468000Y-57792952D01*
X113468000Y-57935809D01*
X113425142Y-58126285D01*
X113382285Y-58221523D01*
X113296571Y-58316761D01*
X113168000Y-58364380D01*
X112953714Y-58364380D01*
X111025142Y-63396761D02*
X111153714Y-63444380D01*
X111368000Y-63444380D01*
X111453714Y-63396761D01*
X111496571Y-63349142D01*
X111539428Y-63253904D01*
X111539428Y-63158666D01*
X111496571Y-63063428D01*
X111453714Y-63015809D01*
X111368000Y-62968190D01*
X111196571Y-62920571D01*
X111110857Y-62872952D01*
X111068000Y-62825333D01*
X111025142Y-62730095D01*
X111025142Y-62634857D01*
X111068000Y-62539619D01*
X111110857Y-62492000D01*
X111196571Y-62444380D01*
X111410857Y-62444380D01*
X111539428Y-62492000D01*
X111839428Y-62444380D02*
X112053714Y-63444380D01*
X112225142Y-62730095D01*
X112396571Y-63444380D01*
X112610857Y-62444380D01*
X113125142Y-62444380D02*
X113296571Y-62444380D01*
X113382285Y-62492000D01*
X113468000Y-62587238D01*
X113510857Y-62777714D01*
X113510857Y-63111047D01*
X113468000Y-63301523D01*
X113382285Y-63396761D01*
X113296571Y-63444380D01*
X113125142Y-63444380D01*
X113039428Y-63396761D01*
X112953714Y-63301523D01*
X112910857Y-63111047D01*
X112910857Y-62777714D01*
X112953714Y-62587238D01*
X113039428Y-62492000D01*
X113125142Y-62444380D01*
%TO.C,D7*%
X81224380Y-79732095D02*
X80224380Y-79732095D01*
X80224380Y-79494000D01*
X80272000Y-79351142D01*
X80367238Y-79255904D01*
X80462476Y-79208285D01*
X80652952Y-79160666D01*
X80795809Y-79160666D01*
X80986285Y-79208285D01*
X81081523Y-79255904D01*
X81176761Y-79351142D01*
X81224380Y-79494000D01*
X81224380Y-79732095D01*
X80224380Y-78827333D02*
X80224380Y-78160666D01*
X81224380Y-78589238D01*
%TO.C,R1*%
X82566380Y-96210666D02*
X82090190Y-96544000D01*
X82566380Y-96782095D02*
X81566380Y-96782095D01*
X81566380Y-96401142D01*
X81614000Y-96305904D01*
X81661619Y-96258285D01*
X81756857Y-96210666D01*
X81899714Y-96210666D01*
X81994952Y-96258285D01*
X82042571Y-96305904D01*
X82090190Y-96401142D01*
X82090190Y-96782095D01*
X82566380Y-95258285D02*
X82566380Y-95829714D01*
X82566380Y-95544000D02*
X81566380Y-95544000D01*
X81709238Y-95639238D01*
X81804476Y-95734476D01*
X81852095Y-95829714D01*
%TO.C,J1*%
X60880666Y-114260380D02*
X60880666Y-114974666D01*
X60833047Y-115117523D01*
X60737809Y-115212761D01*
X60594952Y-115260380D01*
X60499714Y-115260380D01*
X61880666Y-115260380D02*
X61309238Y-115260380D01*
X61594952Y-115260380D02*
X61594952Y-114260380D01*
X61499714Y-114403238D01*
X61404476Y-114498476D01*
X61309238Y-114546095D01*
X62754761Y-113228380D02*
X62754761Y-112228380D01*
X63135714Y-112228380D01*
X63230952Y-112276000D01*
X63278571Y-112323619D01*
X63326190Y-112418857D01*
X63326190Y-112561714D01*
X63278571Y-112656952D01*
X63230952Y-112704571D01*
X63135714Y-112752190D01*
X62754761Y-112752190D01*
X63659523Y-112228380D02*
X63897619Y-113228380D01*
X64088095Y-112514095D01*
X64278571Y-113228380D01*
X64516666Y-112228380D01*
X64897619Y-112847428D02*
X65659523Y-112847428D01*
X66707142Y-113228380D02*
X66373809Y-112752190D01*
X66135714Y-113228380D02*
X66135714Y-112228380D01*
X66516666Y-112228380D01*
X66611904Y-112276000D01*
X66659523Y-112323619D01*
X66707142Y-112418857D01*
X66707142Y-112561714D01*
X66659523Y-112656952D01*
X66611904Y-112704571D01*
X66516666Y-112752190D01*
X66135714Y-112752190D01*
X67135714Y-113228380D02*
X67135714Y-112228380D01*
X67516666Y-112228380D01*
X67611904Y-112276000D01*
X67659523Y-112323619D01*
X67707142Y-112418857D01*
X67707142Y-112561714D01*
X67659523Y-112656952D01*
X67611904Y-112704571D01*
X67516666Y-112752190D01*
X67135714Y-112752190D01*
X68135714Y-113228380D02*
X68135714Y-112228380D01*
X68469047Y-112942666D01*
X68802380Y-112228380D01*
X68802380Y-113228380D01*
X69278571Y-112847428D02*
X70040476Y-112847428D01*
X70469047Y-113180761D02*
X70611904Y-113228380D01*
X70850000Y-113228380D01*
X70945238Y-113180761D01*
X70992857Y-113133142D01*
X71040476Y-113037904D01*
X71040476Y-112942666D01*
X70992857Y-112847428D01*
X70945238Y-112799809D01*
X70850000Y-112752190D01*
X70659523Y-112704571D01*
X70564285Y-112656952D01*
X70516666Y-112609333D01*
X70469047Y-112514095D01*
X70469047Y-112418857D01*
X70516666Y-112323619D01*
X70564285Y-112276000D01*
X70659523Y-112228380D01*
X70897619Y-112228380D01*
X71040476Y-112276000D01*
X71469047Y-113228380D02*
X71469047Y-112228380D01*
X71850000Y-112228380D01*
X71945238Y-112276000D01*
X71992857Y-112323619D01*
X72040476Y-112418857D01*
X72040476Y-112561714D01*
X71992857Y-112656952D01*
X71945238Y-112704571D01*
X71850000Y-112752190D01*
X71469047Y-112752190D01*
X72469047Y-113228380D02*
X72469047Y-112228380D01*
X72707142Y-112228380D01*
X72850000Y-112276000D01*
X72945238Y-112371238D01*
X72992857Y-112466476D01*
X73040476Y-112656952D01*
X73040476Y-112799809D01*
X72992857Y-112990285D01*
X72945238Y-113085523D01*
X72850000Y-113180761D01*
X72707142Y-113228380D01*
X72469047Y-113228380D01*
X73469047Y-112847428D02*
X74230952Y-112847428D01*
X74564285Y-112228380D02*
X75135714Y-112228380D01*
X74850000Y-113228380D02*
X74850000Y-112228380D01*
X75469047Y-113228380D02*
X75469047Y-112228380D01*
X75850000Y-112228380D01*
X75945238Y-112276000D01*
X75992857Y-112323619D01*
X76040476Y-112418857D01*
X76040476Y-112561714D01*
X75992857Y-112656952D01*
X75945238Y-112704571D01*
X75850000Y-112752190D01*
X75469047Y-112752190D01*
X76421428Y-113180761D02*
X76564285Y-113228380D01*
X76802380Y-113228380D01*
X76897619Y-113180761D01*
X76945238Y-113133142D01*
X76992857Y-113037904D01*
X76992857Y-112942666D01*
X76945238Y-112847428D01*
X76897619Y-112799809D01*
X76802380Y-112752190D01*
X76611904Y-112704571D01*
X76516666Y-112656952D01*
X76469047Y-112609333D01*
X76421428Y-112514095D01*
X76421428Y-112418857D01*
X76469047Y-112323619D01*
X76516666Y-112276000D01*
X76611904Y-112228380D01*
X76850000Y-112228380D01*
X76992857Y-112276000D01*
%TO.C,D1*%
X85288380Y-79732095D02*
X84288380Y-79732095D01*
X84288380Y-79494000D01*
X84336000Y-79351142D01*
X84431238Y-79255904D01*
X84526476Y-79208285D01*
X84716952Y-79160666D01*
X84859809Y-79160666D01*
X85050285Y-79208285D01*
X85145523Y-79255904D01*
X85240761Y-79351142D01*
X85288380Y-79494000D01*
X85288380Y-79732095D01*
X85288380Y-78208285D02*
X85288380Y-78779714D01*
X85288380Y-78494000D02*
X84288380Y-78494000D01*
X84431238Y-78589238D01*
X84526476Y-78684476D01*
X84574095Y-78779714D01*
%TO.C,R2*%
X87320380Y-96210666D02*
X86844190Y-96544000D01*
X87320380Y-96782095D02*
X86320380Y-96782095D01*
X86320380Y-96401142D01*
X86368000Y-96305904D01*
X86415619Y-96258285D01*
X86510857Y-96210666D01*
X86653714Y-96210666D01*
X86748952Y-96258285D01*
X86796571Y-96305904D01*
X86844190Y-96401142D01*
X86844190Y-96782095D01*
X86415619Y-95829714D02*
X86368000Y-95782095D01*
X86320380Y-95686857D01*
X86320380Y-95448761D01*
X86368000Y-95353523D01*
X86415619Y-95305904D01*
X86510857Y-95258285D01*
X86606095Y-95258285D01*
X86748952Y-95305904D01*
X87320380Y-95877333D01*
X87320380Y-95258285D01*
%TO.C,J2*%
X78660666Y-114006380D02*
X78660666Y-114720666D01*
X78613047Y-114863523D01*
X78517809Y-114958761D01*
X78374952Y-115006380D01*
X78279714Y-115006380D01*
X79089238Y-114101619D02*
X79136857Y-114054000D01*
X79232095Y-114006380D01*
X79470190Y-114006380D01*
X79565428Y-114054000D01*
X79613047Y-114101619D01*
X79660666Y-114196857D01*
X79660666Y-114292095D01*
X79613047Y-114434952D01*
X79041619Y-115006380D01*
X79660666Y-115006380D01*
X82217333Y-112482380D02*
X82407809Y-112482380D01*
X82503047Y-112530000D01*
X82598285Y-112625238D01*
X82645904Y-112815714D01*
X82645904Y-113149047D01*
X82598285Y-113339523D01*
X82503047Y-113434761D01*
X82407809Y-113482380D01*
X82217333Y-113482380D01*
X82122095Y-113434761D01*
X82026857Y-113339523D01*
X81979238Y-113149047D01*
X81979238Y-112815714D01*
X82026857Y-112625238D01*
X82122095Y-112530000D01*
X82217333Y-112482380D01*
X83074476Y-113482380D02*
X83074476Y-112482380D01*
X84026857Y-113482380D02*
X83550666Y-113482380D01*
X83550666Y-112482380D01*
X84360190Y-113101428D02*
X85122095Y-113101428D01*
X85503047Y-112482380D02*
X85741142Y-113482380D01*
X85931619Y-112768095D01*
X86122095Y-113482380D01*
X86360190Y-112482380D01*
X86693523Y-113196666D02*
X87169714Y-113196666D01*
X86598285Y-113482380D02*
X86931619Y-112482380D01*
X87264952Y-113482380D01*
X87455428Y-112482380D02*
X88026857Y-112482380D01*
X87741142Y-113482380D02*
X87741142Y-112482380D01*
X88360190Y-112958571D02*
X88693523Y-112958571D01*
X88836380Y-113482380D02*
X88360190Y-113482380D01*
X88360190Y-112482380D01*
X88836380Y-112482380D01*
X89836380Y-113482380D02*
X89503047Y-113006190D01*
X89264952Y-113482380D02*
X89264952Y-112482380D01*
X89645904Y-112482380D01*
X89741142Y-112530000D01*
X89788761Y-112577619D01*
X89836380Y-112672857D01*
X89836380Y-112815714D01*
X89788761Y-112910952D01*
X89741142Y-112958571D01*
X89645904Y-113006190D01*
X89264952Y-113006190D01*
X90264952Y-113101428D02*
X91026857Y-113101428D01*
X91455428Y-113196666D02*
X91931619Y-113196666D01*
X91360190Y-113482380D02*
X91693523Y-112482380D01*
X92026857Y-113482380D01*
X92693523Y-112958571D02*
X92360190Y-112958571D01*
X92360190Y-113482380D02*
X92360190Y-112482380D01*
X92836380Y-112482380D01*
X93788761Y-113482380D02*
X93455428Y-113006190D01*
X93217333Y-113482380D02*
X93217333Y-112482380D01*
X93598285Y-112482380D01*
X93693523Y-112530000D01*
X93741142Y-112577619D01*
X93788761Y-112672857D01*
X93788761Y-112815714D01*
X93741142Y-112910952D01*
X93693523Y-112958571D01*
X93598285Y-113006190D01*
X93217333Y-113006190D01*
%TO.C,J3*%
X96186666Y-114006380D02*
X96186666Y-114720666D01*
X96139047Y-114863523D01*
X96043809Y-114958761D01*
X95900952Y-115006380D01*
X95805714Y-115006380D01*
X96567619Y-114006380D02*
X97186666Y-114006380D01*
X96853333Y-114387333D01*
X96996190Y-114387333D01*
X97091428Y-114434952D01*
X97139047Y-114482571D01*
X97186666Y-114577809D01*
X97186666Y-114815904D01*
X97139047Y-114911142D01*
X97091428Y-114958761D01*
X96996190Y-115006380D01*
X96710476Y-115006380D01*
X96615238Y-114958761D01*
X96567619Y-114911142D01*
X99052571Y-112482380D02*
X99290666Y-113482380D01*
X99481142Y-112768095D01*
X99671619Y-113482380D01*
X99909714Y-112482380D01*
X100814476Y-112530000D02*
X100719238Y-112482380D01*
X100576380Y-112482380D01*
X100433523Y-112530000D01*
X100338285Y-112625238D01*
X100290666Y-112720476D01*
X100243047Y-112910952D01*
X100243047Y-113053809D01*
X100290666Y-113244285D01*
X100338285Y-113339523D01*
X100433523Y-113434761D01*
X100576380Y-113482380D01*
X100671619Y-113482380D01*
X100814476Y-113434761D01*
X100862095Y-113387142D01*
X100862095Y-113053809D01*
X100671619Y-113053809D01*
X101290666Y-113101428D02*
X102052571Y-113101428D01*
X102862095Y-112958571D02*
X102528761Y-112958571D01*
X102528761Y-113482380D02*
X102528761Y-112482380D01*
X103004952Y-112482380D01*
X103385904Y-113482380D02*
X103385904Y-112482380D01*
X103766857Y-112482380D01*
X103862095Y-112530000D01*
X103909714Y-112577619D01*
X103957333Y-112672857D01*
X103957333Y-112815714D01*
X103909714Y-112910952D01*
X103862095Y-112958571D01*
X103766857Y-113006190D01*
X103385904Y-113006190D01*
X104385904Y-112482380D02*
X104385904Y-113291904D01*
X104433523Y-113387142D01*
X104481142Y-113434761D01*
X104576380Y-113482380D01*
X104766857Y-113482380D01*
X104862095Y-113434761D01*
X104909714Y-113387142D01*
X104957333Y-113291904D01*
X104957333Y-112482380D01*
X105433523Y-113482380D02*
X105433523Y-112482380D01*
X105766857Y-113196666D01*
X106100190Y-112482380D01*
X106100190Y-113482380D01*
X106576380Y-113482380D02*
X106576380Y-112482380D01*
X106957333Y-112482380D01*
X107052571Y-112530000D01*
X107100190Y-112577619D01*
X107147809Y-112672857D01*
X107147809Y-112815714D01*
X107100190Y-112910952D01*
X107052571Y-112958571D01*
X106957333Y-113006190D01*
X106576380Y-113006190D01*
%TO.C,J4*%
X108632666Y-114006380D02*
X108632666Y-114720666D01*
X108585047Y-114863523D01*
X108489809Y-114958761D01*
X108346952Y-115006380D01*
X108251714Y-115006380D01*
X109537428Y-114339714D02*
X109537428Y-115006380D01*
X109299333Y-113958761D02*
X109061238Y-114673047D01*
X109680285Y-114673047D01*
X112093904Y-112974380D02*
X112093904Y-111974380D01*
X112427238Y-112688666D01*
X112760571Y-111974380D01*
X112760571Y-112974380D01*
X113189142Y-112688666D02*
X113665333Y-112688666D01*
X113093904Y-112974380D02*
X113427238Y-111974380D01*
X113760571Y-112974380D01*
X114093904Y-112974380D02*
X114093904Y-111974380D01*
X114474857Y-111974380D01*
X114570095Y-112022000D01*
X114617714Y-112069619D01*
X114665333Y-112164857D01*
X114665333Y-112307714D01*
X114617714Y-112402952D01*
X114570095Y-112450571D01*
X114474857Y-112498190D01*
X114093904Y-112498190D01*
X115093904Y-112593428D02*
X115855809Y-112593428D01*
X116665333Y-112450571D02*
X116332000Y-112450571D01*
X116332000Y-112974380D02*
X116332000Y-111974380D01*
X116808190Y-111974380D01*
X117189142Y-112974380D02*
X117189142Y-111974380D01*
X117570095Y-111974380D01*
X117665333Y-112022000D01*
X117712952Y-112069619D01*
X117760571Y-112164857D01*
X117760571Y-112307714D01*
X117712952Y-112402952D01*
X117665333Y-112450571D01*
X117570095Y-112498190D01*
X117189142Y-112498190D01*
X118760571Y-112974380D02*
X118427238Y-112498190D01*
X118189142Y-112974380D02*
X118189142Y-111974380D01*
X118570095Y-111974380D01*
X118665333Y-112022000D01*
X118712952Y-112069619D01*
X118760571Y-112164857D01*
X118760571Y-112307714D01*
X118712952Y-112402952D01*
X118665333Y-112450571D01*
X118570095Y-112498190D01*
X118189142Y-112498190D01*
X119189142Y-112450571D02*
X119522476Y-112450571D01*
X119665333Y-112974380D02*
X119189142Y-112974380D01*
X119189142Y-111974380D01*
X119665333Y-111974380D01*
X120046285Y-112926761D02*
X120189142Y-112974380D01*
X120427238Y-112974380D01*
X120522476Y-112926761D01*
X120570095Y-112879142D01*
X120617714Y-112783904D01*
X120617714Y-112688666D01*
X120570095Y-112593428D01*
X120522476Y-112545809D01*
X120427238Y-112498190D01*
X120236761Y-112450571D01*
X120141523Y-112402952D01*
X120093904Y-112355333D01*
X120046285Y-112260095D01*
X120046285Y-112164857D01*
X120093904Y-112069619D01*
X120141523Y-112022000D01*
X120236761Y-111974380D01*
X120474857Y-111974380D01*
X120617714Y-112022000D01*
%TO.C,J5*%
X123618666Y-114006380D02*
X123618666Y-114720666D01*
X123571047Y-114863523D01*
X123475809Y-114958761D01*
X123332952Y-115006380D01*
X123237714Y-115006380D01*
X124571047Y-114006380D02*
X124094857Y-114006380D01*
X124047238Y-114482571D01*
X124094857Y-114434952D01*
X124190095Y-114387333D01*
X124428190Y-114387333D01*
X124523428Y-114434952D01*
X124571047Y-114482571D01*
X124618666Y-114577809D01*
X124618666Y-114815904D01*
X124571047Y-114911142D01*
X124523428Y-114958761D01*
X124428190Y-115006380D01*
X124190095Y-115006380D01*
X124094857Y-114958761D01*
X124047238Y-114911142D01*
X129619142Y-112879142D02*
X129571523Y-112926761D01*
X129428666Y-112974380D01*
X129333428Y-112974380D01*
X129190571Y-112926761D01*
X129095333Y-112831523D01*
X129047714Y-112736285D01*
X129000095Y-112545809D01*
X129000095Y-112402952D01*
X129047714Y-112212476D01*
X129095333Y-112117238D01*
X129190571Y-112022000D01*
X129333428Y-111974380D01*
X129428666Y-111974380D01*
X129571523Y-112022000D01*
X129619142Y-112069619D01*
X130000095Y-112688666D02*
X130476285Y-112688666D01*
X129904857Y-112974380D02*
X130238190Y-111974380D01*
X130571523Y-112974380D01*
X130904857Y-112974380D02*
X130904857Y-111974380D01*
X131476285Y-112974380D01*
X131476285Y-111974380D01*
%TO.C,D2*%
X66825904Y-106812380D02*
X66825904Y-105812380D01*
X67064000Y-105812380D01*
X67206857Y-105860000D01*
X67302095Y-105955238D01*
X67349714Y-106050476D01*
X67397333Y-106240952D01*
X67397333Y-106383809D01*
X67349714Y-106574285D01*
X67302095Y-106669523D01*
X67206857Y-106764761D01*
X67064000Y-106812380D01*
X66825904Y-106812380D01*
X67778285Y-105907619D02*
X67825904Y-105860000D01*
X67921142Y-105812380D01*
X68159238Y-105812380D01*
X68254476Y-105860000D01*
X68302095Y-105907619D01*
X68349714Y-106002857D01*
X68349714Y-106098095D01*
X68302095Y-106240952D01*
X67730666Y-106812380D01*
X68349714Y-106812380D01*
%TO.C,U2*%
X63754095Y-100798380D02*
X63754095Y-101607904D01*
X63801714Y-101703142D01*
X63849333Y-101750761D01*
X63944571Y-101798380D01*
X64135047Y-101798380D01*
X64230285Y-101750761D01*
X64277904Y-101703142D01*
X64325523Y-101607904D01*
X64325523Y-100798380D01*
X64754095Y-100893619D02*
X64801714Y-100846000D01*
X64896952Y-100798380D01*
X65135047Y-100798380D01*
X65230285Y-100846000D01*
X65277904Y-100893619D01*
X65325523Y-100988857D01*
X65325523Y-101084095D01*
X65277904Y-101226952D01*
X64706476Y-101798380D01*
X65325523Y-101798380D01*
%TO.C,Q1*%
X103481619Y-98901238D02*
X103434000Y-98996476D01*
X103338761Y-99091714D01*
X103195904Y-99234571D01*
X103148285Y-99329809D01*
X103148285Y-99425047D01*
X103386380Y-99377428D02*
X103338761Y-99472666D01*
X103243523Y-99567904D01*
X103053047Y-99615523D01*
X102719714Y-99615523D01*
X102529238Y-99567904D01*
X102434000Y-99472666D01*
X102386380Y-99377428D01*
X102386380Y-99186952D01*
X102434000Y-99091714D01*
X102529238Y-98996476D01*
X102719714Y-98948857D01*
X103053047Y-98948857D01*
X103243523Y-98996476D01*
X103338761Y-99091714D01*
X103386380Y-99186952D01*
X103386380Y-99377428D01*
X103386380Y-97996476D02*
X103386380Y-98567904D01*
X103386380Y-98282190D02*
X102386380Y-98282190D01*
X102529238Y-98377428D01*
X102624476Y-98472666D01*
X102672095Y-98567904D01*
%TO.C,Q2*%
X110593619Y-98901238D02*
X110546000Y-98996476D01*
X110450761Y-99091714D01*
X110307904Y-99234571D01*
X110260285Y-99329809D01*
X110260285Y-99425047D01*
X110498380Y-99377428D02*
X110450761Y-99472666D01*
X110355523Y-99567904D01*
X110165047Y-99615523D01*
X109831714Y-99615523D01*
X109641238Y-99567904D01*
X109546000Y-99472666D01*
X109498380Y-99377428D01*
X109498380Y-99186952D01*
X109546000Y-99091714D01*
X109641238Y-98996476D01*
X109831714Y-98948857D01*
X110165047Y-98948857D01*
X110355523Y-98996476D01*
X110450761Y-99091714D01*
X110498380Y-99186952D01*
X110498380Y-99377428D01*
X109593619Y-98567904D02*
X109546000Y-98520285D01*
X109498380Y-98425047D01*
X109498380Y-98186952D01*
X109546000Y-98091714D01*
X109593619Y-98044095D01*
X109688857Y-97996476D01*
X109784095Y-97996476D01*
X109926952Y-98044095D01*
X110498380Y-98615523D01*
X110498380Y-97996476D01*
%TO.C,R3*%
X94614380Y-83256666D02*
X94138190Y-83590000D01*
X94614380Y-83828095D02*
X93614380Y-83828095D01*
X93614380Y-83447142D01*
X93662000Y-83351904D01*
X93709619Y-83304285D01*
X93804857Y-83256666D01*
X93947714Y-83256666D01*
X94042952Y-83304285D01*
X94090571Y-83351904D01*
X94138190Y-83447142D01*
X94138190Y-83828095D01*
X93614380Y-82923333D02*
X93614380Y-82304285D01*
X93995333Y-82637619D01*
X93995333Y-82494761D01*
X94042952Y-82399523D01*
X94090571Y-82351904D01*
X94185809Y-82304285D01*
X94423904Y-82304285D01*
X94519142Y-82351904D01*
X94566761Y-82399523D01*
X94614380Y-82494761D01*
X94614380Y-82780476D01*
X94566761Y-82875714D01*
X94519142Y-82923333D01*
%TO.C,R4*%
X99440380Y-83256666D02*
X98964190Y-83590000D01*
X99440380Y-83828095D02*
X98440380Y-83828095D01*
X98440380Y-83447142D01*
X98488000Y-83351904D01*
X98535619Y-83304285D01*
X98630857Y-83256666D01*
X98773714Y-83256666D01*
X98868952Y-83304285D01*
X98916571Y-83351904D01*
X98964190Y-83447142D01*
X98964190Y-83828095D01*
X98773714Y-82399523D02*
X99440380Y-82399523D01*
X98392761Y-82637619D02*
X99107047Y-82875714D01*
X99107047Y-82256666D01*
%TO.C,R5*%
X104520380Y-83256666D02*
X104044190Y-83590000D01*
X104520380Y-83828095D02*
X103520380Y-83828095D01*
X103520380Y-83447142D01*
X103568000Y-83351904D01*
X103615619Y-83304285D01*
X103710857Y-83256666D01*
X103853714Y-83256666D01*
X103948952Y-83304285D01*
X103996571Y-83351904D01*
X104044190Y-83447142D01*
X104044190Y-83828095D01*
X103520380Y-82351904D02*
X103520380Y-82828095D01*
X103996571Y-82875714D01*
X103948952Y-82828095D01*
X103901333Y-82732857D01*
X103901333Y-82494761D01*
X103948952Y-82399523D01*
X103996571Y-82351904D01*
X104091809Y-82304285D01*
X104329904Y-82304285D01*
X104425142Y-82351904D01*
X104472761Y-82399523D01*
X104520380Y-82494761D01*
X104520380Y-82732857D01*
X104472761Y-82828095D01*
X104425142Y-82875714D01*
%TO.C,R6*%
X109600380Y-83256666D02*
X109124190Y-83590000D01*
X109600380Y-83828095D02*
X108600380Y-83828095D01*
X108600380Y-83447142D01*
X108648000Y-83351904D01*
X108695619Y-83304285D01*
X108790857Y-83256666D01*
X108933714Y-83256666D01*
X109028952Y-83304285D01*
X109076571Y-83351904D01*
X109124190Y-83447142D01*
X109124190Y-83828095D01*
X108600380Y-82399523D02*
X108600380Y-82590000D01*
X108648000Y-82685238D01*
X108695619Y-82732857D01*
X108838476Y-82828095D01*
X109028952Y-82875714D01*
X109409904Y-82875714D01*
X109505142Y-82828095D01*
X109552761Y-82780476D01*
X109600380Y-82685238D01*
X109600380Y-82494761D01*
X109552761Y-82399523D01*
X109505142Y-82351904D01*
X109409904Y-82304285D01*
X109171809Y-82304285D01*
X109076571Y-82351904D01*
X109028952Y-82399523D01*
X108981333Y-82494761D01*
X108981333Y-82685238D01*
X109028952Y-82780476D01*
X109076571Y-82828095D01*
X109171809Y-82875714D01*
%TO.C,D4*%
X108148380Y-111482095D02*
X107148380Y-111482095D01*
X107148380Y-111244000D01*
X107196000Y-111101142D01*
X107291238Y-111005904D01*
X107386476Y-110958285D01*
X107576952Y-110910666D01*
X107719809Y-110910666D01*
X107910285Y-110958285D01*
X108005523Y-111005904D01*
X108100761Y-111101142D01*
X108148380Y-111244000D01*
X108148380Y-111482095D01*
X107481714Y-110053523D02*
X108148380Y-110053523D01*
X107100761Y-110291619D02*
X107815047Y-110529714D01*
X107815047Y-109910666D01*
%TO.C,D3*%
X103068380Y-111482095D02*
X102068380Y-111482095D01*
X102068380Y-111244000D01*
X102116000Y-111101142D01*
X102211238Y-111005904D01*
X102306476Y-110958285D01*
X102496952Y-110910666D01*
X102639809Y-110910666D01*
X102830285Y-110958285D01*
X102925523Y-111005904D01*
X103020761Y-111101142D01*
X103068380Y-111244000D01*
X103068380Y-111482095D01*
X102068380Y-110577333D02*
X102068380Y-109958285D01*
X102449333Y-110291619D01*
X102449333Y-110148761D01*
X102496952Y-110053523D01*
X102544571Y-110005904D01*
X102639809Y-109958285D01*
X102877904Y-109958285D01*
X102973142Y-110005904D01*
X103020761Y-110053523D01*
X103068380Y-110148761D01*
X103068380Y-110434476D01*
X103020761Y-110529714D01*
X102973142Y-110577333D01*
%TO.C,Q4*%
X104790759Y-93217619D02*
X104695521Y-93170000D01*
X104600283Y-93074761D01*
X104457426Y-92931904D01*
X104362188Y-92884285D01*
X104266950Y-92884285D01*
X104314569Y-93122380D02*
X104219331Y-93074761D01*
X104124093Y-92979523D01*
X104076474Y-92789047D01*
X104076474Y-92455714D01*
X104124093Y-92265238D01*
X104219331Y-92170000D01*
X104314569Y-92122380D01*
X104505045Y-92122380D01*
X104600283Y-92170000D01*
X104695521Y-92265238D01*
X104743140Y-92455714D01*
X104743140Y-92789047D01*
X104695521Y-92979523D01*
X104600283Y-93074761D01*
X104505045Y-93122380D01*
X104314569Y-93122380D01*
X105600283Y-92455714D02*
X105600283Y-93122380D01*
X105362188Y-92074761D02*
X105124093Y-92789047D01*
X105743140Y-92789047D01*
%TO.C,Q3*%
X98472763Y-93217619D02*
X98377525Y-93170000D01*
X98282287Y-93074761D01*
X98139430Y-92931904D01*
X98044192Y-92884285D01*
X97948954Y-92884285D01*
X97996573Y-93122380D02*
X97901335Y-93074761D01*
X97806097Y-92979523D01*
X97758478Y-92789047D01*
X97758478Y-92455714D01*
X97806097Y-92265238D01*
X97901335Y-92170000D01*
X97996573Y-92122380D01*
X98187049Y-92122380D01*
X98282287Y-92170000D01*
X98377525Y-92265238D01*
X98425144Y-92455714D01*
X98425144Y-92789047D01*
X98377525Y-92979523D01*
X98282287Y-93074761D01*
X98187049Y-93122380D01*
X97996573Y-93122380D01*
X98758478Y-92122380D02*
X99377525Y-92122380D01*
X99044192Y-92503333D01*
X99187049Y-92503333D01*
X99282287Y-92550952D01*
X99329906Y-92598571D01*
X99377525Y-92693809D01*
X99377525Y-92931904D01*
X99329906Y-93027142D01*
X99282287Y-93074761D01*
X99187049Y-93122380D01*
X98901335Y-93122380D01*
X98806097Y-93074761D01*
X98758478Y-93027142D01*
%TO.C,U3*%
X128778095Y-106640380D02*
X128778095Y-107449904D01*
X128825714Y-107545142D01*
X128873333Y-107592761D01*
X128968571Y-107640380D01*
X129159047Y-107640380D01*
X129254285Y-107592761D01*
X129301904Y-107545142D01*
X129349523Y-107449904D01*
X129349523Y-106640380D01*
X129730476Y-106640380D02*
X130349523Y-106640380D01*
X130016190Y-107021333D01*
X130159047Y-107021333D01*
X130254285Y-107068952D01*
X130301904Y-107116571D01*
X130349523Y-107211809D01*
X130349523Y-107449904D01*
X130301904Y-107545142D01*
X130254285Y-107592761D01*
X130159047Y-107640380D01*
X129873333Y-107640380D01*
X129778095Y-107592761D01*
X129730476Y-107545142D01*
%TO.C,J7*%
X134794666Y-71544380D02*
X134794666Y-72258666D01*
X134747047Y-72401523D01*
X134651809Y-72496761D01*
X134508952Y-72544380D01*
X134413714Y-72544380D01*
X135175619Y-71544380D02*
X135842285Y-71544380D01*
X135413714Y-72544380D01*
X133342285Y-84824380D02*
X133342285Y-83824380D01*
X133723238Y-83824380D01*
X133818476Y-83872000D01*
X133866095Y-83919619D01*
X133913714Y-84014857D01*
X133913714Y-84157714D01*
X133866095Y-84252952D01*
X133818476Y-84300571D01*
X133723238Y-84348190D01*
X133342285Y-84348190D01*
X134913714Y-84824380D02*
X134580380Y-84348190D01*
X134342285Y-84824380D02*
X134342285Y-83824380D01*
X134723238Y-83824380D01*
X134818476Y-83872000D01*
X134866095Y-83919619D01*
X134913714Y-84014857D01*
X134913714Y-84157714D01*
X134866095Y-84252952D01*
X134818476Y-84300571D01*
X134723238Y-84348190D01*
X134342285Y-84348190D01*
X135532761Y-83824380D02*
X135723238Y-83824380D01*
X135818476Y-83872000D01*
X135913714Y-83967238D01*
X135961333Y-84157714D01*
X135961333Y-84491047D01*
X135913714Y-84681523D01*
X135818476Y-84776761D01*
X135723238Y-84824380D01*
X135532761Y-84824380D01*
X135437523Y-84776761D01*
X135342285Y-84681523D01*
X135294666Y-84491047D01*
X135294666Y-84157714D01*
X135342285Y-83967238D01*
X135437523Y-83872000D01*
X135532761Y-83824380D01*
X136913714Y-83872000D02*
X136818476Y-83824380D01*
X136675619Y-83824380D01*
X136532761Y-83872000D01*
X136437523Y-83967238D01*
X136389904Y-84062476D01*
X136342285Y-84252952D01*
X136342285Y-84395809D01*
X136389904Y-84586285D01*
X136437523Y-84681523D01*
X136532761Y-84776761D01*
X136675619Y-84824380D01*
X136770857Y-84824380D01*
X136913714Y-84776761D01*
X136961333Y-84729142D01*
X136961333Y-84395809D01*
X136770857Y-84395809D01*
%TO.C,TP2*%
X109934666Y-106100571D02*
X109601333Y-106100571D01*
X109601333Y-106624380D02*
X109601333Y-105624380D01*
X110077523Y-105624380D01*
X110220380Y-106719619D02*
X110982285Y-106719619D01*
X111220380Y-106624380D02*
X111220380Y-105624380D01*
X111601333Y-105624380D01*
X111696571Y-105672000D01*
X111744190Y-105719619D01*
X111791809Y-105814857D01*
X111791809Y-105957714D01*
X111744190Y-106052952D01*
X111696571Y-106100571D01*
X111601333Y-106148190D01*
X111220380Y-106148190D01*
X112220380Y-105624380D02*
X112220380Y-106433904D01*
X112268000Y-106529142D01*
X112315619Y-106576761D01*
X112410857Y-106624380D01*
X112601333Y-106624380D01*
X112696571Y-106576761D01*
X112744190Y-106529142D01*
X112791809Y-106433904D01*
X112791809Y-105624380D01*
X113268000Y-106624380D02*
X113268000Y-105624380D01*
X113601333Y-106338666D01*
X113934666Y-105624380D01*
X113934666Y-106624380D01*
X114410857Y-106624380D02*
X114410857Y-105624380D01*
X114791809Y-105624380D01*
X114887047Y-105672000D01*
X114934666Y-105719619D01*
X114982285Y-105814857D01*
X114982285Y-105957714D01*
X114934666Y-106052952D01*
X114887047Y-106100571D01*
X114791809Y-106148190D01*
X114410857Y-106148190D01*
%TO.C,TP3*%
X93297714Y-77684380D02*
X93535809Y-78684380D01*
X93726285Y-77970095D01*
X93916761Y-78684380D01*
X94154857Y-77684380D01*
X94297714Y-78779619D02*
X95059619Y-78779619D01*
X95154857Y-77684380D02*
X95726285Y-77684380D01*
X95440571Y-78684380D02*
X95440571Y-77684380D01*
X96059619Y-78160571D02*
X96392952Y-78160571D01*
X96535809Y-78684380D02*
X96059619Y-78684380D01*
X96059619Y-77684380D01*
X96535809Y-77684380D01*
X96964380Y-78684380D02*
X96964380Y-77684380D01*
X97297714Y-78398666D01*
X97631047Y-77684380D01*
X97631047Y-78684380D01*
X98107238Y-78684380D02*
X98107238Y-77684380D01*
X98488190Y-77684380D01*
X98583428Y-77732000D01*
X98631047Y-77779619D01*
X98678666Y-77874857D01*
X98678666Y-78017714D01*
X98631047Y-78112952D01*
X98583428Y-78160571D01*
X98488190Y-78208190D01*
X98107238Y-78208190D01*
%TO.C,TP4*%
X90527333Y-85970666D02*
X91003523Y-85970666D01*
X90432095Y-86256380D02*
X90765428Y-85256380D01*
X91098761Y-86256380D01*
X91765428Y-85732571D02*
X91432095Y-85732571D01*
X91432095Y-86256380D02*
X91432095Y-85256380D01*
X91908285Y-85256380D01*
X92860666Y-86256380D02*
X92527333Y-85780190D01*
X92289238Y-86256380D02*
X92289238Y-85256380D01*
X92670190Y-85256380D01*
X92765428Y-85304000D01*
X92813047Y-85351619D01*
X92860666Y-85446857D01*
X92860666Y-85589714D01*
X92813047Y-85684952D01*
X92765428Y-85732571D01*
X92670190Y-85780190D01*
X92289238Y-85780190D01*
%TO.C,TP5*%
X89543238Y-96226380D02*
X89733714Y-96226380D01*
X89828952Y-96274000D01*
X89924190Y-96369238D01*
X89971809Y-96559714D01*
X89971809Y-96893047D01*
X89924190Y-97083523D01*
X89828952Y-97178761D01*
X89733714Y-97226380D01*
X89543238Y-97226380D01*
X89448000Y-97178761D01*
X89352761Y-97083523D01*
X89305142Y-96893047D01*
X89305142Y-96559714D01*
X89352761Y-96369238D01*
X89448000Y-96274000D01*
X89543238Y-96226380D01*
X90162285Y-97321619D02*
X90924190Y-97321619D01*
X91162285Y-97226380D02*
X91162285Y-96226380D01*
X91543238Y-96226380D01*
X91638476Y-96274000D01*
X91686095Y-96321619D01*
X91733714Y-96416857D01*
X91733714Y-96559714D01*
X91686095Y-96654952D01*
X91638476Y-96702571D01*
X91543238Y-96750190D01*
X91162285Y-96750190D01*
X92733714Y-97226380D02*
X92400380Y-96750190D01*
X92162285Y-97226380D02*
X92162285Y-96226380D01*
X92543238Y-96226380D01*
X92638476Y-96274000D01*
X92686095Y-96321619D01*
X92733714Y-96416857D01*
X92733714Y-96559714D01*
X92686095Y-96654952D01*
X92638476Y-96702571D01*
X92543238Y-96750190D01*
X92162285Y-96750190D01*
X93162285Y-96702571D02*
X93495619Y-96702571D01*
X93638476Y-97226380D02*
X93162285Y-97226380D01*
X93162285Y-96226380D01*
X93638476Y-96226380D01*
X94019428Y-97178761D02*
X94162285Y-97226380D01*
X94400380Y-97226380D01*
X94495619Y-97178761D01*
X94543238Y-97131142D01*
X94590857Y-97035904D01*
X94590857Y-96940666D01*
X94543238Y-96845428D01*
X94495619Y-96797809D01*
X94400380Y-96750190D01*
X94209904Y-96702571D01*
X94114666Y-96654952D01*
X94067047Y-96607333D01*
X94019428Y-96512095D01*
X94019428Y-96416857D01*
X94067047Y-96321619D01*
X94114666Y-96274000D01*
X94209904Y-96226380D01*
X94448000Y-96226380D01*
X94590857Y-96274000D01*
%TO.C,TP6*%
X76970095Y-101052380D02*
X77541523Y-101052380D01*
X77255809Y-102052380D02*
X77255809Y-101052380D01*
X77874857Y-102052380D02*
X77874857Y-101052380D01*
X78255809Y-101052380D01*
X78351047Y-101100000D01*
X78398666Y-101147619D01*
X78446285Y-101242857D01*
X78446285Y-101385714D01*
X78398666Y-101480952D01*
X78351047Y-101528571D01*
X78255809Y-101576190D01*
X77874857Y-101576190D01*
X78827238Y-102004761D02*
X78970095Y-102052380D01*
X79208190Y-102052380D01*
X79303428Y-102004761D01*
X79351047Y-101957142D01*
X79398666Y-101861904D01*
X79398666Y-101766666D01*
X79351047Y-101671428D01*
X79303428Y-101623809D01*
X79208190Y-101576190D01*
X79017714Y-101528571D01*
X78922476Y-101480952D01*
X78874857Y-101433333D01*
X78827238Y-101338095D01*
X78827238Y-101242857D01*
X78874857Y-101147619D01*
X78922476Y-101100000D01*
X79017714Y-101052380D01*
X79255809Y-101052380D01*
X79398666Y-101100000D01*
%TO.C,TP7*%
X116959333Y-79938571D02*
X116626000Y-79938571D01*
X116626000Y-80462380D02*
X116626000Y-79462380D01*
X117102190Y-79462380D01*
X117245047Y-80557619D02*
X118006952Y-80557619D01*
X118245047Y-80462380D02*
X118245047Y-79462380D01*
X118626000Y-79462380D01*
X118721238Y-79510000D01*
X118768857Y-79557619D01*
X118816476Y-79652857D01*
X118816476Y-79795714D01*
X118768857Y-79890952D01*
X118721238Y-79938571D01*
X118626000Y-79986190D01*
X118245047Y-79986190D01*
X119816476Y-80462380D02*
X119483142Y-79986190D01*
X119245047Y-80462380D02*
X119245047Y-79462380D01*
X119626000Y-79462380D01*
X119721238Y-79510000D01*
X119768857Y-79557619D01*
X119816476Y-79652857D01*
X119816476Y-79795714D01*
X119768857Y-79890952D01*
X119721238Y-79938571D01*
X119626000Y-79986190D01*
X119245047Y-79986190D01*
X120245047Y-79938571D02*
X120578380Y-79938571D01*
X120721238Y-80462380D02*
X120245047Y-80462380D01*
X120245047Y-79462380D01*
X120721238Y-79462380D01*
X121102190Y-80414761D02*
X121245047Y-80462380D01*
X121483142Y-80462380D01*
X121578380Y-80414761D01*
X121626000Y-80367142D01*
X121673619Y-80271904D01*
X121673619Y-80176666D01*
X121626000Y-80081428D01*
X121578380Y-80033809D01*
X121483142Y-79986190D01*
X121292666Y-79938571D01*
X121197428Y-79890952D01*
X121149809Y-79843333D01*
X121102190Y-79748095D01*
X121102190Y-79652857D01*
X121149809Y-79557619D01*
X121197428Y-79510000D01*
X121292666Y-79462380D01*
X121530761Y-79462380D01*
X121673619Y-79510000D01*
%TO.C,TP8*%
X81185047Y-109434380D02*
X81375523Y-109434380D01*
X81470761Y-109482000D01*
X81566000Y-109577238D01*
X81613619Y-109767714D01*
X81613619Y-110101047D01*
X81566000Y-110291523D01*
X81470761Y-110386761D01*
X81375523Y-110434380D01*
X81185047Y-110434380D01*
X81089809Y-110386761D01*
X80994571Y-110291523D01*
X80946952Y-110101047D01*
X80946952Y-109767714D01*
X80994571Y-109577238D01*
X81089809Y-109482000D01*
X81185047Y-109434380D01*
X81804095Y-110529619D02*
X82566000Y-110529619D01*
X82661238Y-109434380D02*
X83232666Y-109434380D01*
X82946952Y-110434380D02*
X82946952Y-109434380D01*
X83566000Y-109910571D02*
X83899333Y-109910571D01*
X84042190Y-110434380D02*
X83566000Y-110434380D01*
X83566000Y-109434380D01*
X84042190Y-109434380D01*
X84470761Y-110434380D02*
X84470761Y-109434380D01*
X84804095Y-110148666D01*
X85137428Y-109434380D01*
X85137428Y-110434380D01*
X85613619Y-110434380D02*
X85613619Y-109434380D01*
X85994571Y-109434380D01*
X86089809Y-109482000D01*
X86137428Y-109529619D01*
X86185047Y-109624857D01*
X86185047Y-109767714D01*
X86137428Y-109862952D01*
X86089809Y-109910571D01*
X85994571Y-109958190D01*
X85613619Y-109958190D01*
%TO.C,TP9*%
X115832095Y-106370380D02*
X115832095Y-105370380D01*
X116165428Y-106084666D01*
X116498761Y-105370380D01*
X116498761Y-106370380D01*
X116927333Y-106084666D02*
X117403523Y-106084666D01*
X116832095Y-106370380D02*
X117165428Y-105370380D01*
X117498761Y-106370380D01*
X117832095Y-106370380D02*
X117832095Y-105370380D01*
X118213047Y-105370380D01*
X118308285Y-105418000D01*
X118355904Y-105465619D01*
X118403523Y-105560857D01*
X118403523Y-105703714D01*
X118355904Y-105798952D01*
X118308285Y-105846571D01*
X118213047Y-105894190D01*
X117832095Y-105894190D01*
%TO.C,J6*%
X65960666Y-74338380D02*
X65960666Y-75052666D01*
X65913047Y-75195523D01*
X65817809Y-75290761D01*
X65674952Y-75338380D01*
X65579714Y-75338380D01*
X66865428Y-74338380D02*
X66674952Y-74338380D01*
X66579714Y-74386000D01*
X66532095Y-74433619D01*
X66436857Y-74576476D01*
X66389238Y-74766952D01*
X66389238Y-75147904D01*
X66436857Y-75243142D01*
X66484476Y-75290761D01*
X66579714Y-75338380D01*
X66770190Y-75338380D01*
X66865428Y-75290761D01*
X66913047Y-75243142D01*
X66960666Y-75147904D01*
X66960666Y-74909809D01*
X66913047Y-74814571D01*
X66865428Y-74766952D01*
X66770190Y-74719333D01*
X66579714Y-74719333D01*
X66484476Y-74766952D01*
X66436857Y-74814571D01*
X66389238Y-74909809D01*
X64270190Y-79046000D02*
X64174952Y-78998380D01*
X64032095Y-78998380D01*
X63889238Y-79046000D01*
X63794000Y-79141238D01*
X63746380Y-79236476D01*
X63698761Y-79426952D01*
X63698761Y-79569809D01*
X63746380Y-79760285D01*
X63794000Y-79855523D01*
X63889238Y-79950761D01*
X64032095Y-79998380D01*
X64127333Y-79998380D01*
X64270190Y-79950761D01*
X64317809Y-79903142D01*
X64317809Y-79569809D01*
X64127333Y-79569809D01*
X64746380Y-79998380D02*
X64746380Y-78998380D01*
X65317809Y-79998380D01*
X65317809Y-78998380D01*
X65794000Y-79998380D02*
X65794000Y-78998380D01*
X66032095Y-78998380D01*
X66174952Y-79046000D01*
X66270190Y-79141238D01*
X66317809Y-79236476D01*
X66365428Y-79426952D01*
X66365428Y-79569809D01*
X66317809Y-79760285D01*
X66270190Y-79855523D01*
X66174952Y-79950761D01*
X66032095Y-79998380D01*
X65794000Y-79998380D01*
X66555904Y-80093619D02*
X67317809Y-80093619D01*
X67413047Y-78998380D02*
X67984476Y-78998380D01*
X67698761Y-79998380D02*
X67698761Y-78998380D01*
X68317809Y-79998380D02*
X68317809Y-78998380D01*
X68698761Y-78998380D01*
X68794000Y-79046000D01*
X68841619Y-79093619D01*
X68889238Y-79188857D01*
X68889238Y-79331714D01*
X68841619Y-79426952D01*
X68794000Y-79474571D01*
X68698761Y-79522190D01*
X68317809Y-79522190D01*
%TO.C,TP1*%
X90686095Y-106688380D02*
X91257523Y-106688380D01*
X90971809Y-107688380D02*
X90971809Y-106688380D01*
X91590857Y-107688380D02*
X91590857Y-106688380D01*
X91971809Y-106688380D01*
X92067047Y-106736000D01*
X92114666Y-106783619D01*
X92162285Y-106878857D01*
X92162285Y-107021714D01*
X92114666Y-107116952D01*
X92067047Y-107164571D01*
X91971809Y-107212190D01*
X91590857Y-107212190D01*
X93114666Y-107688380D02*
X92543238Y-107688380D01*
X92828952Y-107688380D02*
X92828952Y-106688380D01*
X92733714Y-106831238D01*
X92638476Y-106926476D01*
X92543238Y-106974095D01*
%TO.C,D13*%
X74112380Y-81732285D02*
X73112380Y-81732285D01*
X73112380Y-81494190D01*
X73160000Y-81351333D01*
X73255238Y-81256095D01*
X73350476Y-81208476D01*
X73540952Y-81160857D01*
X73683809Y-81160857D01*
X73874285Y-81208476D01*
X73969523Y-81256095D01*
X74064761Y-81351333D01*
X74112380Y-81494190D01*
X74112380Y-81732285D01*
X74112380Y-80208476D02*
X74112380Y-80779904D01*
X74112380Y-80494190D02*
X73112380Y-80494190D01*
X73255238Y-80589428D01*
X73350476Y-80684666D01*
X73398095Y-80779904D01*
X73112380Y-79875142D02*
X73112380Y-79256095D01*
X73493333Y-79589428D01*
X73493333Y-79446571D01*
X73540952Y-79351333D01*
X73588571Y-79303714D01*
X73683809Y-79256095D01*
X73921904Y-79256095D01*
X74017142Y-79303714D01*
X74064761Y-79351333D01*
X74112380Y-79446571D01*
X74112380Y-79732285D01*
X74064761Y-79827523D01*
X74017142Y-79875142D01*
%TO.C,R21*%
X78472380Y-96654857D02*
X77996190Y-96988190D01*
X78472380Y-97226285D02*
X77472380Y-97226285D01*
X77472380Y-96845333D01*
X77520000Y-96750095D01*
X77567619Y-96702476D01*
X77662857Y-96654857D01*
X77805714Y-96654857D01*
X77900952Y-96702476D01*
X77948571Y-96750095D01*
X77996190Y-96845333D01*
X77996190Y-97226285D01*
X77567619Y-96273904D02*
X77520000Y-96226285D01*
X77472380Y-96131047D01*
X77472380Y-95892952D01*
X77520000Y-95797714D01*
X77567619Y-95750095D01*
X77662857Y-95702476D01*
X77758095Y-95702476D01*
X77900952Y-95750095D01*
X78472380Y-96321523D01*
X78472380Y-95702476D01*
X78472380Y-94750095D02*
X78472380Y-95321523D01*
X78472380Y-95035809D02*
X77472380Y-95035809D01*
X77615238Y-95131047D01*
X77710476Y-95226285D01*
X77758095Y-95321523D01*
D11*
%TO.C,U1*%
X71831801Y-60503802D02*
X72468198Y-60503802D01*
X84039539Y-63072427D02*
X84746646Y-62365320D01*
X75290000Y-57682000D02*
X75290000Y-58882000D01*
X89642563Y-62670611D02*
X89617809Y-62744911D01*
X89647886Y-62453826D02*
X89747084Y-62365780D01*
X114360000Y-70672000D02*
X66040000Y-70672000D01*
X88519023Y-64915314D02*
X88614210Y-65010501D01*
X87475506Y-63736863D02*
X87452842Y-63743601D01*
X104422807Y-65514900D02*
X104422809Y-65514282D01*
X62950000Y-58262729D02*
X62950000Y-58007073D01*
X87575073Y-56567044D02*
X88282180Y-57274151D01*
X75960000Y-59652000D02*
X70880000Y-59652000D01*
X72084503Y-62093000D02*
X72129375Y-62093000D01*
X88885962Y-64929974D02*
X88904959Y-64823602D01*
X104422804Y-57713334D02*
X104422809Y-57714282D01*
X89677552Y-62839419D02*
X89717725Y-62845953D01*
X84958778Y-59183339D02*
X85665885Y-59890446D01*
X72468198Y-57963802D02*
X72468198Y-58600199D01*
X90013232Y-62809185D02*
X89881107Y-62921199D01*
X88248652Y-64444582D02*
X88640132Y-64166138D01*
X87618751Y-63543549D02*
X87623606Y-63603848D01*
X84018829Y-61537502D02*
X84018829Y-61637502D01*
X87787205Y-56354912D02*
X87575073Y-56567044D01*
X89434246Y-62028351D02*
X89416296Y-62052861D01*
X88614210Y-65010501D02*
X88519023Y-65105689D01*
X77548198Y-60503802D02*
X77548198Y-61140199D01*
X90615632Y-66254407D02*
X89908526Y-65547300D01*
X90262079Y-66607961D02*
X89554972Y-65900854D01*
X89647886Y-62453826D02*
X89747084Y-62365780D01*
X77548198Y-61140199D02*
X76911801Y-61140199D01*
X62604789Y-58622000D02*
X62950000Y-58622000D01*
X63049936Y-64918411D02*
X68060000Y-64918411D01*
X88954165Y-64480171D02*
X88519023Y-64915314D01*
X89743074Y-62549013D02*
X89642563Y-62670611D01*
X87646081Y-63490158D02*
X87628131Y-63514668D01*
X89334915Y-62413244D02*
X89430102Y-62508431D01*
X87080099Y-57062019D02*
X86867967Y-57274151D01*
X71831801Y-57963802D02*
X72468198Y-57963802D01*
X89617809Y-62744911D02*
X89622479Y-62783944D01*
X78500000Y-61792000D02*
X78500000Y-57312000D01*
X88493372Y-61455505D02*
X88450075Y-61516718D01*
X72468198Y-58600199D02*
X71831801Y-58600199D01*
X85665885Y-58476233D02*
X85453753Y-58688365D01*
X89916132Y-62428223D02*
X89812677Y-62486183D01*
X86372992Y-57769126D02*
X86160860Y-57981258D01*
X90172241Y-62465974D02*
X90177266Y-62531406D01*
X74371801Y-60503802D02*
X75008198Y-60503802D01*
X86867967Y-65900854D02*
X87080099Y-66112986D01*
X93090506Y-59395471D02*
X92383399Y-60102578D01*
X63050000Y-58522000D02*
X63049936Y-58525590D01*
X89559465Y-62553541D02*
X89647886Y-62453826D01*
X89295926Y-62561231D02*
X89195259Y-62540734D01*
X90757054Y-66112986D02*
X90049947Y-65405879D01*
X87433652Y-66466539D02*
X88140759Y-65759432D01*
X93939034Y-62931005D02*
X93231928Y-62223899D01*
X90049947Y-66820093D02*
X89342840Y-66112986D01*
X89550680Y-62914571D02*
X89509572Y-62862267D01*
X89494603Y-62669430D02*
X89559465Y-62553541D01*
X88505568Y-61799824D02*
X88488639Y-61641333D01*
X90403500Y-56708466D02*
X89696394Y-57415572D01*
X87419692Y-60783584D02*
X87378154Y-60656632D01*
X90059976Y-63396670D02*
X89912839Y-63249534D01*
X89642563Y-62670611D02*
X89617809Y-62744911D01*
X90969186Y-57274151D02*
X90262079Y-57981258D01*
X88225782Y-61159565D02*
X88299327Y-61146486D01*
X84605225Y-59536893D02*
X85312332Y-60244000D01*
X90538356Y-62814391D02*
X90096415Y-63256333D01*
X93444060Y-63425980D02*
X92736953Y-62718873D01*
X91322739Y-65547300D02*
X91110607Y-65759432D01*
X87787205Y-56354912D02*
X88494312Y-57062019D01*
X85453753Y-64486640D02*
X86160860Y-63779533D01*
X62543395Y-58872000D02*
X62543395Y-64572000D01*
X89411770Y-62142041D02*
X89477696Y-62243266D01*
X87601144Y-63793462D02*
X87522287Y-63741778D01*
X90177266Y-62531406D02*
X90163761Y-62595729D01*
X89550680Y-62914571D02*
X89509572Y-62862267D01*
X87646081Y-63490158D02*
X87628131Y-63514668D01*
X86514413Y-65547300D02*
X87221520Y-64840194D01*
X89509572Y-62862267D02*
X89484728Y-62800652D01*
X75072277Y-64334467D02*
X75072277Y-66134467D01*
X88896718Y-65121245D02*
X88893080Y-65059476D01*
X86160860Y-57981258D02*
X86867967Y-58688365D01*
X93585481Y-59890446D02*
X93797613Y-60102578D01*
X75290000Y-58882000D02*
X71550000Y-58882000D01*
X89912839Y-63249534D02*
X90443169Y-62719203D01*
X87507762Y-64023038D02*
X87407095Y-64002541D01*
X89812677Y-62486183D02*
X89743074Y-62549013D01*
X89183210Y-65008377D02*
X89193743Y-64917815D01*
X89862190Y-62300767D02*
X89926539Y-62285116D01*
X75860000Y-62092000D02*
X76260000Y-62092000D01*
X92171267Y-58476233D02*
X92383399Y-58688365D01*
X88868576Y-56687755D02*
X84018829Y-61537502D01*
X90470365Y-63616685D02*
X90572352Y-63514699D01*
X87129758Y-63476449D02*
X87199996Y-63433109D01*
X77548198Y-57963802D02*
X77548198Y-58600199D01*
X89747084Y-62365780D02*
X89862190Y-62300767D01*
X63500000Y-52832000D02*
X114300000Y-52832000D01*
X87845911Y-60992231D02*
X88281054Y-60557088D01*
X87662336Y-63188342D02*
X87614104Y-63236573D01*
X89509572Y-62862267D02*
X89484728Y-62800652D01*
X88968576Y-56687755D02*
X93818324Y-61537502D01*
X89919107Y-62712936D02*
X90016368Y-62593238D01*
X93585481Y-63284559D02*
X92878374Y-62577452D01*
X90262079Y-56567044D02*
X89554972Y-57274151D01*
X90096415Y-63256333D02*
X90205200Y-63365118D01*
X88893080Y-65059476D02*
X88888084Y-64987003D01*
X76422277Y-64334467D02*
X76422277Y-66134467D01*
X89881107Y-62921199D02*
X89757840Y-62977463D01*
X92029846Y-58334811D02*
X91322739Y-59041918D01*
X63044425Y-65418411D02*
X68050000Y-65418411D01*
X85100200Y-59041918D02*
X85807306Y-59749025D01*
X88493372Y-61455505D02*
X88450075Y-61516718D01*
X84605225Y-63638112D02*
X85312332Y-62931005D01*
X90053696Y-62312965D02*
X90105445Y-62354283D01*
X88968576Y-66487250D02*
X93818324Y-61637502D01*
X88646234Y-61786997D02*
X88708229Y-61881745D01*
X71550000Y-60222000D02*
X75290000Y-60222000D01*
X99792588Y-58534050D02*
X99792588Y-64834050D01*
X93818324Y-61637502D02*
X93818324Y-61537502D01*
X87655536Y-60992231D02*
X87750724Y-60897044D01*
X87819140Y-60653551D02*
X87419692Y-60783584D01*
X75672277Y-64234467D02*
X76322277Y-64234467D01*
X88381128Y-63907134D02*
X88473979Y-63999985D01*
X75960000Y-57112000D02*
X75960000Y-59652000D01*
X74371801Y-57963802D02*
X75008198Y-57963802D01*
X88328648Y-64724939D02*
X88423835Y-64820126D01*
X62562892Y-65759488D02*
X62879153Y-65480834D01*
X88225782Y-61159565D02*
X88299327Y-61146486D01*
X86372992Y-57769126D02*
X87080099Y-58476233D01*
X90572352Y-63514699D02*
X90409173Y-63351520D01*
X93797613Y-63072427D02*
X93585481Y-63284559D01*
X88488639Y-61641333D02*
X88625152Y-61644414D01*
X87750724Y-60897044D02*
X87845911Y-60992231D01*
X89039237Y-61326488D02*
X89168337Y-61417175D01*
X77548198Y-58600199D02*
X76911801Y-58600199D01*
X89358996Y-62548921D02*
X89295926Y-62561231D01*
X90969186Y-65900854D02*
X90262079Y-65193747D01*
X63041500Y-58025573D02*
X63049669Y-58030514D01*
X101022809Y-57614282D02*
X104322809Y-57614282D01*
X92383399Y-58688365D02*
X91676293Y-59395471D01*
X87080099Y-57062019D02*
X87787205Y-57769126D01*
X92736953Y-64133087D02*
X92029846Y-63425980D01*
X86019438Y-65052326D02*
X86726545Y-64345219D01*
X89559465Y-62553541D02*
X89647886Y-62453826D01*
X66040000Y-68012000D02*
X114360000Y-68012000D01*
X94151166Y-62718873D02*
X93444060Y-62011767D01*
X88515729Y-61362888D02*
X88493372Y-61455505D01*
X70822277Y-64234467D02*
X71472277Y-64234467D01*
X91322739Y-57627704D02*
X90615632Y-58334811D01*
X87031400Y-63454888D02*
X87077327Y-63479702D01*
X89416296Y-62052861D02*
X89406916Y-62081742D01*
X62750469Y-65594216D02*
X62587578Y-65409341D01*
X87289978Y-63246665D02*
X87138478Y-63261950D01*
X63050000Y-64922000D02*
X63049936Y-64918411D01*
X92029846Y-64840194D02*
X91817714Y-65052326D01*
X71472277Y-66234467D02*
X70822277Y-66234467D01*
X87138478Y-63261950D02*
X87032569Y-63314975D01*
X76911801Y-60503802D02*
X77548198Y-60503802D01*
X88736594Y-64262600D02*
X88116707Y-64703373D01*
X100912809Y-59114282D02*
X100912809Y-58614282D01*
X87308782Y-62834788D02*
X87662336Y-63188342D01*
X84039539Y-60102578D02*
X84746646Y-60809685D01*
X115475000Y-50347000D02*
X115475000Y-73097000D01*
X85100200Y-64133087D02*
X85312332Y-64345219D01*
X87289978Y-63246665D02*
X87138478Y-63261950D01*
X92878374Y-63991666D02*
X92171267Y-63284559D01*
X63041500Y-65418428D02*
X63049669Y-65413487D01*
X92524821Y-64345219D02*
X91817714Y-63638112D01*
X86514413Y-65547300D02*
X86726545Y-65759432D01*
X89416296Y-62052861D02*
X89406916Y-62081742D01*
X87378154Y-60656632D02*
X87652243Y-60567393D01*
X89295926Y-62561231D02*
X89195259Y-62540734D01*
X71831801Y-58600199D02*
X71831801Y-57963802D01*
X100922809Y-65514282D02*
X100922811Y-65514900D01*
X70929500Y-59452000D02*
X75960000Y-59452000D01*
X89480244Y-62734391D02*
X89494603Y-62669430D01*
X84018829Y-61637502D02*
X88868576Y-66487250D01*
X62400000Y-58872000D02*
X62400000Y-64572000D01*
X63028825Y-58583536D02*
X63028825Y-64860465D01*
X87077327Y-63479702D02*
X87129758Y-63476449D01*
X87077327Y-63479702D02*
X87129758Y-63476449D01*
X100217588Y-64834050D02*
X100217588Y-58534050D01*
X88724058Y-61297128D02*
X88615031Y-61359392D01*
X87787205Y-66820093D02*
X88494312Y-66112986D01*
X89926539Y-62285116D02*
X89992564Y-62287874D01*
X89406916Y-62081742D02*
X89411770Y-62142041D01*
X72001170Y-62093000D02*
X72035124Y-62093000D01*
X89241006Y-62281794D02*
X89221667Y-62295322D01*
X87618751Y-63543549D02*
X87623606Y-63603848D01*
X75860000Y-62092000D02*
X70980000Y-62092000D01*
X62950000Y-65181272D02*
X62950000Y-65436928D01*
X87986037Y-60566543D02*
X87897483Y-60624341D01*
X86726545Y-65759432D02*
X87433652Y-65052326D01*
X89633010Y-62969224D02*
X89550680Y-62914571D01*
X71272003Y-62093000D02*
X71461106Y-62093000D01*
X71831801Y-61140199D02*
X71831801Y-60503802D01*
X89677552Y-62839419D02*
X89717725Y-62845953D01*
X87407095Y-64002541D02*
X87341290Y-63955153D01*
X87575073Y-66607961D02*
X88282180Y-65900854D01*
X63049936Y-58525590D02*
X68060000Y-58525590D01*
X89494603Y-62669430D02*
X89559465Y-62553541D01*
X90031859Y-62481962D02*
X90010682Y-62449895D01*
X88233460Y-64820126D02*
X88328648Y-64724939D01*
X93090506Y-63779533D02*
X92383399Y-63072427D01*
X88896692Y-65199920D02*
X88896718Y-65121245D01*
X89484728Y-62800652D02*
X89480244Y-62734391D01*
X88423835Y-64820126D02*
X88858978Y-64384984D01*
X87570832Y-64010729D02*
X87507762Y-64023038D01*
X63500000Y-55372000D02*
X63500000Y-52832000D01*
X91110607Y-65759432D02*
X90403500Y-65052326D01*
X87601144Y-63793462D02*
X87522287Y-63741778D01*
X70980000Y-57012000D02*
X75860000Y-57012000D01*
X71550000Y-58882000D02*
X71550000Y-57682000D01*
X89310451Y-62279971D02*
X89263670Y-62275056D01*
X84251671Y-59890446D02*
X84039539Y-60102578D01*
X88145603Y-61209271D02*
X88225782Y-61159565D01*
X92171267Y-64698772D02*
X91464161Y-63991666D01*
X93231928Y-59536893D02*
X93444060Y-59749025D01*
X89389308Y-62331655D02*
X89310451Y-62279971D01*
X68060000Y-58271989D02*
X68060000Y-65172012D01*
X88281054Y-60557088D02*
X88376241Y-60652276D01*
X87689532Y-63705073D02*
X87601144Y-63793462D01*
X89434246Y-62028351D02*
X89416296Y-62052861D01*
X63050000Y-58032104D02*
X63050000Y-58522000D01*
X62604789Y-64822000D02*
X62950000Y-64822000D01*
X89039237Y-61326488D02*
X89168337Y-61417175D01*
X71572277Y-64334467D02*
X71572277Y-66134467D01*
X88609323Y-61973214D02*
X88505568Y-61799824D01*
X71550000Y-57682000D02*
X75290000Y-57682000D01*
X93585481Y-59890446D02*
X92878374Y-60597553D01*
X86867967Y-57274151D02*
X87575073Y-57981258D01*
X87522287Y-63741778D02*
X87475506Y-63736863D01*
X70572277Y-63584467D02*
X70572277Y-66884467D01*
X92878374Y-59183339D02*
X93090506Y-59395471D01*
X89793989Y-62818153D02*
X89919107Y-62712936D01*
X62715241Y-58147143D02*
X62400000Y-57869388D01*
X89183210Y-65008377D02*
X89193743Y-64917815D01*
X94151166Y-62718873D02*
X93939034Y-62931005D01*
X63440000Y-70672000D02*
X63440000Y-69342000D01*
X87941099Y-61277793D02*
X87655536Y-60992231D01*
X88868576Y-56687755D02*
X88968576Y-56687755D01*
X88266818Y-64113657D02*
X87775052Y-64361718D01*
X88896718Y-65121245D02*
X88893080Y-65059476D01*
X89812677Y-62486183D02*
X89743074Y-62549013D01*
X86514413Y-57627704D02*
X87221520Y-58334811D01*
X87221520Y-66254407D02*
X87433652Y-66466539D01*
X90031859Y-62481962D02*
X90010682Y-62449895D01*
X91817714Y-58122679D02*
X92029846Y-58334811D01*
X90105445Y-62354283D02*
X90146557Y-62405582D01*
X88519023Y-65105689D02*
X88233460Y-64820126D01*
X92171267Y-58476233D02*
X91464161Y-59183339D01*
X93231928Y-59536893D02*
X92524821Y-60244000D01*
X70879000Y-60010528D02*
X70879000Y-60199631D01*
X90016368Y-62593238D02*
X90038209Y-62519879D01*
X74371801Y-61140199D02*
X74371801Y-60503802D01*
X87407095Y-64002541D02*
X87341290Y-63955153D01*
X88036286Y-61182606D02*
X87941099Y-61277793D01*
X88515729Y-61362888D02*
X88493372Y-61455505D01*
X115475000Y-73097000D02*
X62325000Y-73097000D01*
X84393093Y-63425980D02*
X84605225Y-63638112D01*
X87138478Y-63261950D02*
X87032569Y-63314975D01*
X85807306Y-64840194D02*
X86514413Y-64133087D01*
X70722277Y-66134467D02*
X70722277Y-64334467D01*
X89757840Y-62977463D02*
X89633010Y-62969224D01*
X88145603Y-61209271D02*
X88225782Y-61159565D01*
X71550000Y-61422000D02*
X71550000Y-60222000D01*
X87641938Y-63970239D02*
X87570832Y-64010729D01*
X89480244Y-62734391D02*
X89494603Y-62669430D01*
X88892121Y-65216259D02*
X88896692Y-65199920D01*
X89881107Y-62921199D02*
X89757840Y-62977463D01*
X89919107Y-62712936D02*
X90016368Y-62593238D01*
X89862190Y-62300767D02*
X89926539Y-62285116D01*
X88896692Y-65199920D02*
X88896718Y-65121245D01*
X90146557Y-62405582D02*
X90172241Y-62465974D01*
X90013232Y-62809185D02*
X89881107Y-62921199D01*
X72072277Y-66134467D02*
X72072277Y-64334467D01*
X89643531Y-62817047D02*
X89677552Y-62839419D01*
X86726545Y-57415572D02*
X87433652Y-58122679D01*
X90163761Y-62595729D02*
X90100602Y-62710685D01*
X86867967Y-65900854D02*
X87575073Y-65193747D01*
X86160860Y-65193747D02*
X86867967Y-64486640D01*
X84958778Y-59183339D02*
X84746646Y-59395471D01*
X114300000Y-55372000D02*
X63500000Y-55372000D01*
X75960000Y-59652000D02*
X75960000Y-61992000D01*
X84746646Y-63779533D02*
X84958778Y-63991666D01*
X87475506Y-63736863D02*
X87452842Y-63743601D01*
X101022190Y-65614280D02*
X101022809Y-65614282D01*
X90443169Y-62719203D02*
X90538356Y-62814391D01*
X85807306Y-58334811D02*
X86514413Y-59041918D01*
X87907103Y-63759466D02*
X87811916Y-63664279D01*
X88888084Y-64987003D02*
X88885962Y-64929974D01*
X87221520Y-66254407D02*
X87928627Y-65547300D01*
X76572277Y-66884467D02*
X76572277Y-63584467D01*
X89622479Y-62783944D02*
X89643531Y-62817047D01*
X75008198Y-57963802D02*
X75008198Y-58600199D01*
X87199996Y-63433109D02*
X87295184Y-63528297D01*
X88904959Y-64823602D02*
X88952784Y-64753517D01*
X92383399Y-64486640D02*
X91676293Y-63779533D01*
X62750469Y-57849785D02*
X62587578Y-58034660D01*
X91676293Y-57981258D02*
X90969186Y-58688365D01*
X90100602Y-62710685D02*
X90013232Y-62809185D01*
X92736953Y-59041918D02*
X92029846Y-59749025D01*
X87452842Y-63743601D02*
X87433503Y-63757129D01*
X90177266Y-62531406D02*
X90163761Y-62595729D01*
X91464161Y-65405879D02*
X90757054Y-64698772D01*
X70880000Y-61992000D02*
X70880000Y-57112000D01*
X87080099Y-66112986D02*
X87787205Y-65405879D01*
X89757840Y-62977463D02*
X89633010Y-62969224D01*
X63050000Y-65172012D02*
X63045785Y-65172012D01*
X90146557Y-62405582D02*
X90172241Y-62465974D01*
X87775052Y-64361718D02*
X87677209Y-64263875D01*
X76911801Y-58600199D02*
X76911801Y-57963802D01*
X91110607Y-57415572D02*
X90403500Y-58122679D01*
X63044425Y-58025590D02*
X68050000Y-58025590D01*
X85665885Y-58476233D02*
X86372992Y-59183339D01*
X89184597Y-64883068D02*
X89164300Y-64853485D01*
X83685986Y-60456132D02*
X84393093Y-61163238D01*
X110550000Y-66862000D02*
X110550000Y-56582000D01*
X87575073Y-66607961D02*
X87787205Y-66820093D01*
X89411770Y-62142041D02*
X89477696Y-62243266D01*
X87628131Y-63514668D02*
X87618751Y-63543549D01*
X91676293Y-65193747D02*
X91464161Y-65405879D01*
X72468198Y-61140199D02*
X71831801Y-61140199D01*
X107890000Y-66862000D02*
X110550000Y-66862000D01*
X87129758Y-63476449D02*
X87199996Y-63433109D01*
X85453753Y-64486640D02*
X85665885Y-64698772D01*
X87897483Y-60624341D02*
X87819140Y-60653551D01*
X87452842Y-63743601D02*
X87433503Y-63757129D01*
X83685986Y-62718873D02*
X84393093Y-62011767D01*
X87220394Y-62923177D02*
X87308782Y-62834788D01*
X89430102Y-62508431D02*
X89358996Y-62548921D01*
X88615031Y-61359392D02*
X88515729Y-61362888D01*
X75008198Y-60503802D02*
X75008198Y-61140199D01*
X88880119Y-65234128D02*
X88892121Y-65216259D01*
X89622479Y-62783944D02*
X89643531Y-62817047D01*
X89747084Y-62365780D02*
X89862190Y-62300767D01*
X93939034Y-60244000D02*
X93231928Y-60951106D01*
X62325000Y-73097000D02*
X62325000Y-50347000D01*
X85100200Y-64133087D02*
X85807306Y-63425980D01*
X63044425Y-58025590D02*
X63041500Y-58025573D01*
X63049669Y-58030514D02*
X63050000Y-58032104D01*
X110550000Y-56582000D02*
X107890000Y-56582000D01*
X87986037Y-60566543D02*
X87897483Y-60624341D01*
X100912809Y-64114282D02*
X100912809Y-64614282D01*
X88841449Y-61292773D02*
X89039237Y-61326488D01*
X95692588Y-64834050D02*
X95692588Y-58534050D01*
X88376241Y-60652276D02*
X87941099Y-61087419D01*
X89695267Y-62297659D02*
X89600080Y-62202472D01*
X89617809Y-62744911D02*
X89622479Y-62783944D01*
X86019438Y-58122679D02*
X86726545Y-58829786D01*
X84746646Y-59395471D02*
X85453753Y-60102578D01*
X101022809Y-65614282D02*
X104322809Y-65614282D01*
X90307187Y-63453507D02*
X90470365Y-63616685D01*
X88968576Y-66487250D02*
X88868576Y-66487250D01*
X90667539Y-63419511D02*
X90905508Y-63181542D01*
X85807306Y-64840194D02*
X86019438Y-65052326D01*
X64770000Y-70672000D02*
X63440000Y-70672000D01*
X89184597Y-64883068D02*
X89164300Y-64853485D01*
X76911801Y-61140199D02*
X76911801Y-60503802D01*
X90038209Y-62519879D02*
X90031859Y-62481962D01*
X88858978Y-64384984D02*
X88954165Y-64480171D01*
X91676293Y-65193747D02*
X90969186Y-64486640D01*
X94151166Y-60456132D02*
X93444060Y-61163238D01*
X86372992Y-65405879D02*
X87080099Y-64698772D01*
X89916132Y-62428223D02*
X89812677Y-62486183D01*
X88880119Y-65234128D02*
X88892121Y-65216259D01*
X78200000Y-62092000D02*
X78500000Y-61792000D01*
X86019438Y-58122679D02*
X85807306Y-58334811D01*
X90053696Y-62312965D02*
X90105445Y-62354283D01*
X87507762Y-64023038D02*
X87407095Y-64002541D01*
X88892121Y-65216259D02*
X88896692Y-65199920D01*
X90969186Y-65900854D02*
X90757054Y-66112986D01*
X88609323Y-61973214D02*
X88505568Y-61799824D01*
X88214231Y-63740238D02*
X87935893Y-64131823D01*
X87522287Y-63741778D02*
X87475506Y-63736863D01*
X70672277Y-66984467D02*
X76472277Y-66984467D01*
X89389308Y-62331655D02*
X89310451Y-62279971D01*
X92524821Y-58829786D02*
X91817714Y-59536893D01*
X90163761Y-62595729D02*
X90100602Y-62710685D01*
X75008198Y-58600199D02*
X74371801Y-58600199D01*
X89743074Y-62549013D02*
X89642563Y-62670611D01*
X114360000Y-68012000D02*
X114360000Y-70672000D01*
X62400000Y-57869388D02*
X62562892Y-57684513D01*
X85665885Y-64698772D02*
X86372992Y-63991666D01*
X90757054Y-57062019D02*
X90049947Y-57769126D01*
X84746646Y-63779533D02*
X85453753Y-63072427D01*
X92029846Y-64840194D02*
X91322739Y-64133087D01*
X90049947Y-56354912D02*
X90262079Y-56567044D01*
X87546751Y-63875051D02*
X87641938Y-63970239D01*
X88841449Y-61292773D02*
X89039237Y-61326488D01*
X88724058Y-61297128D02*
X88615031Y-61359392D01*
X76322277Y-66234467D02*
X75672277Y-66234467D01*
X62562892Y-57684513D02*
X62879153Y-57963167D01*
X74371801Y-58600199D02*
X74371801Y-57963802D01*
X88888084Y-64987003D02*
X88885962Y-64929974D01*
X87623606Y-63603848D02*
X87689532Y-63705073D01*
X92878374Y-59183339D02*
X92171267Y-59890446D01*
X88625152Y-61644414D02*
X88646234Y-61786997D01*
X83898118Y-62931005D02*
X84605225Y-62223899D01*
X87677209Y-64263875D02*
X88117875Y-63643882D01*
X62543395Y-58872000D02*
X62400000Y-58872000D01*
X89633010Y-62969224D02*
X89550680Y-62914571D01*
X89195259Y-62540734D02*
X89129455Y-62493346D01*
X93090506Y-63779533D02*
X92878374Y-63991666D01*
X76911801Y-57963802D02*
X77548198Y-57963802D01*
X90100602Y-62710685D02*
X90013232Y-62809185D01*
X89430102Y-62508431D02*
X89358996Y-62548921D01*
X90757054Y-57062019D02*
X90969186Y-57274151D01*
X84958778Y-63991666D02*
X85665885Y-63284559D01*
X89926539Y-62285116D02*
X89992564Y-62287874D01*
X63050000Y-58271989D02*
X63045785Y-58271989D01*
X90470365Y-63807060D02*
X90211999Y-63548694D01*
X87623606Y-63603848D02*
X87689532Y-63705073D01*
X91817714Y-58122679D02*
X91110607Y-58829786D01*
X89484728Y-62800652D02*
X89480244Y-62734391D01*
X87570832Y-64010729D02*
X87507762Y-64023038D01*
X72172277Y-64234467D02*
X74972277Y-64234467D01*
X90049947Y-56354912D02*
X89342840Y-57062019D01*
X101831767Y-65321226D02*
X101831767Y-65507812D01*
X88644275Y-65089222D02*
X88780576Y-65095278D01*
X100922811Y-57713663D02*
X100922809Y-57714282D01*
X87614104Y-63236573D02*
X87289978Y-63246665D01*
X88904959Y-64823602D02*
X88952784Y-64753517D01*
X90504361Y-63256333D02*
X90667539Y-63419511D01*
X91464161Y-57769126D02*
X90757054Y-58476233D01*
X88640132Y-64166138D02*
X88736594Y-64262600D01*
X87221520Y-56920598D02*
X87928627Y-57627704D01*
X92383399Y-64486640D02*
X92171267Y-64698772D01*
X76260000Y-57012000D02*
X75860000Y-57012000D01*
X89263670Y-62275056D02*
X89241006Y-62281794D01*
X83898118Y-60244000D02*
X83685986Y-60456132D01*
X90016368Y-62593238D02*
X90038209Y-62519879D01*
X93797613Y-63072427D02*
X93090506Y-62365320D01*
X89195259Y-62540734D02*
X89129455Y-62493346D01*
X71572277Y-64334467D02*
X71472277Y-64234467D01*
X90905508Y-63181542D02*
X91000695Y-63276730D01*
X89406916Y-62081742D02*
X89411770Y-62142041D01*
X87935893Y-64131823D02*
X88381128Y-63907134D01*
X87280098Y-63109727D02*
X87398870Y-63101653D01*
X85453753Y-58688365D02*
X86160860Y-59395471D01*
X100922809Y-65514282D02*
X100922809Y-57714282D01*
X76260000Y-62092000D02*
X78200000Y-62092000D01*
X85312332Y-58829786D02*
X86019438Y-59536893D01*
X93444060Y-63425980D02*
X93231928Y-63638112D01*
X84251671Y-59890446D02*
X84958778Y-60597553D01*
X88473979Y-63999985D02*
X88248652Y-64444582D01*
X104422809Y-57714282D02*
X104422807Y-57713663D01*
X87398870Y-63101653D02*
X87220394Y-62923177D01*
X85312332Y-64345219D02*
X86019438Y-63638112D01*
X88838049Y-61431517D02*
X88841449Y-61292773D01*
X63050000Y-65411897D02*
X63050000Y-64922000D01*
X75572277Y-66134467D02*
X75572277Y-64334467D01*
X87433652Y-56708466D02*
X87221520Y-56920598D01*
X62325000Y-50347000D02*
X115475000Y-50347000D01*
X83685986Y-62718873D02*
X83898118Y-62931005D01*
X90172241Y-62465974D02*
X90177266Y-62531406D01*
X101022809Y-57614282D02*
X101022190Y-57614283D01*
X89717725Y-62845953D02*
X89793989Y-62818153D01*
X62400000Y-65574613D02*
X62562892Y-65759488D01*
X114300000Y-52832000D02*
X114300000Y-55372000D01*
X68050000Y-58025590D02*
X68050000Y-65418411D01*
X88625152Y-61644414D02*
X88646234Y-61786997D01*
X89358996Y-62548921D02*
X89295926Y-62561231D01*
X62715241Y-65296858D02*
X62400000Y-65574613D01*
X84251671Y-63284559D02*
X84958778Y-62577452D01*
X88615031Y-61359392D02*
X88515729Y-61362888D01*
X75008198Y-61140199D02*
X74371801Y-61140199D01*
X90615632Y-66254407D02*
X90403500Y-66466539D01*
X88646234Y-61786997D02*
X88708229Y-61881745D01*
X104422809Y-65514282D02*
X104422809Y-57714282D01*
X89193743Y-64917815D02*
X89184597Y-64883068D01*
X75290000Y-60222000D02*
X75290000Y-61422000D01*
X88505568Y-61799824D02*
X88488639Y-61641333D01*
X92524821Y-58829786D02*
X92736953Y-59041918D01*
X89793989Y-62818153D02*
X89919107Y-62712936D01*
X63049669Y-65413487D02*
X63050000Y-65411897D01*
X90205200Y-63365118D02*
X90059976Y-63396670D01*
X63044425Y-65418411D02*
X63041500Y-65418428D01*
X72468198Y-60503802D02*
X72468198Y-61140199D01*
X76472277Y-63484467D02*
X70672277Y-63484467D01*
X89317174Y-65041841D02*
X89183210Y-65008377D01*
X87641938Y-63970239D02*
X87570832Y-64010729D01*
X92736953Y-64133087D02*
X92524821Y-64345219D01*
X86160860Y-65193747D02*
X86372992Y-65405879D01*
X87433652Y-56708466D02*
X88140759Y-57415572D01*
X62543395Y-64572000D02*
X62400000Y-64572000D01*
X84605225Y-59536893D02*
X84393093Y-59749025D01*
X85312332Y-58829786D02*
X85100200Y-59041918D01*
X90211999Y-63548694D02*
X90307187Y-63453507D01*
X93797613Y-60102578D02*
X93090506Y-60809685D01*
X62885431Y-64822000D02*
X62885431Y-58622000D01*
X91817714Y-65052326D02*
X91110607Y-64345219D01*
X90105445Y-62354283D02*
X90146557Y-62405582D01*
X90615632Y-56920598D02*
X89908526Y-57627704D01*
X91464161Y-57769126D02*
X91676293Y-57981258D01*
X93231928Y-63638112D02*
X92524821Y-62931005D01*
X93939034Y-60244000D02*
X94151166Y-60456132D01*
X89717725Y-62845953D02*
X89793989Y-62818153D01*
X87941099Y-61087419D02*
X88036286Y-61182606D01*
X93444060Y-59749025D02*
X92736953Y-60456132D01*
X107890000Y-56582000D02*
X107890000Y-66862000D01*
X88017907Y-64604574D02*
X88266818Y-64113657D01*
X87897483Y-60624341D02*
X87819140Y-60653551D01*
X78200000Y-57012000D02*
X76260000Y-57012000D01*
X103313851Y-65530200D02*
X102031767Y-65530200D01*
X90038209Y-62519879D02*
X90031859Y-62481962D01*
X88893080Y-65059476D02*
X88888084Y-64987003D01*
X88117875Y-63643882D02*
X88214231Y-63740238D01*
X84393093Y-59749025D02*
X85100200Y-60456132D01*
X91322739Y-65547300D02*
X90615632Y-64840194D01*
X83898118Y-60244000D02*
X84605225Y-60951106D01*
X90403500Y-66466539D02*
X89696394Y-65759432D01*
X86726545Y-57415572D02*
X86514413Y-57627704D01*
X91000695Y-63276730D02*
X90470365Y-63807060D01*
X78500000Y-57312000D02*
X78200000Y-57012000D01*
X90409173Y-63351520D02*
X90504361Y-63256333D01*
X90262079Y-66607961D02*
X90049947Y-66820093D01*
X89310451Y-62279971D02*
X89263670Y-62275056D01*
X91110607Y-57415572D02*
X91322739Y-57627704D01*
X95267588Y-58534050D02*
X95267588Y-64834050D01*
X103513851Y-65507812D02*
X103513851Y-65321226D01*
X88116707Y-64703373D02*
X88017907Y-64604574D01*
X89477696Y-62243266D02*
X89389308Y-62331655D01*
X70572378Y-63579983D02*
X70572277Y-63584467D01*
X89643531Y-62817047D02*
X89677552Y-62839419D01*
X89241006Y-62281794D02*
X89221667Y-62295322D01*
X84039539Y-63072427D02*
X84251671Y-63284559D01*
X75290000Y-61422000D02*
X71550000Y-61422000D01*
X89263670Y-62275056D02*
X89241006Y-62281794D01*
X66040000Y-70672000D02*
X66040000Y-68012000D01*
X87031400Y-63454888D02*
X87077327Y-63479702D01*
X88885962Y-64929974D02*
X88904959Y-64823602D01*
X90403500Y-56708466D02*
X90615632Y-56920598D01*
X89193743Y-64917815D02*
X89184597Y-64883068D01*
X89992564Y-62287874D02*
X90053696Y-62312965D01*
X84393093Y-63425980D02*
X85100200Y-62718873D01*
X74972277Y-66234467D02*
X72172277Y-66234467D01*
X87628131Y-63514668D02*
X87618751Y-63543549D01*
X89992564Y-62287874D02*
X90053696Y-62312965D01*
X102231767Y-64921226D02*
X103113851Y-64921226D01*
X95692588Y-64834050D02*
G75*
G03*
X99792588Y-64834050I2050000J0D01*
G01*
X88610517Y-61049685D02*
G75*
G03*
X88452413Y-61038443I-84117J-65615D01*
G01*
X63045785Y-65172040D02*
G75*
G03*
X62715241Y-65296858I-85J-499860D01*
G01*
X87907423Y-63406231D02*
G75*
G03*
X87551851Y-63394014I-183653J-164639D01*
G01*
X75959999Y-57112000D02*
G75*
G03*
X75860000Y-57012001I-99999J0D01*
G01*
X88704718Y-60953565D02*
G75*
G03*
X88363706Y-60936776I-178068J-145195D01*
G01*
X88979871Y-65324745D02*
G75*
G03*
X89032355Y-65004977I-286071J211145D01*
G01*
X70822277Y-64234477D02*
G75*
G03*
X70722277Y-64334467I23J-100023D01*
G01*
X89068686Y-61877175D02*
G75*
G03*
X89073574Y-61512787I-167586J184475D01*
G01*
X71472277Y-66234477D02*
G75*
G03*
X71572277Y-66134467I23J99977D01*
G01*
X89164092Y-61972157D02*
G75*
G03*
X89168337Y-61417175I-254892J279457D01*
G01*
X76322277Y-66234477D02*
G75*
G03*
X76422277Y-66134467I23J99977D01*
G01*
X100217592Y-58534050D02*
G75*
G03*
X95267588Y-58534050I-2475002J0D01*
G01*
X76472277Y-66984477D02*
G75*
G03*
X76572277Y-66884467I23J99977D01*
G01*
X89221689Y-62295344D02*
G75*
G03*
X89225280Y-62398796I49911J-50056D01*
G01*
X89053507Y-64843186D02*
G75*
G03*
X89032355Y-65004977I183093J-106214D01*
G01*
X89600037Y-62202433D02*
G75*
G03*
X89595193Y-62034407I-88437J81533D01*
G01*
X89340018Y-61932212D02*
G75*
G03*
X89302513Y-62166032I131982J-141088D01*
G01*
X62715233Y-58147152D02*
G75*
G03*
X63045785Y-58271989I330567J375252D01*
G01*
X88644313Y-65089230D02*
G75*
G03*
X88706211Y-65320073I253787J-55670D01*
G01*
X62879160Y-57963159D02*
G75*
G03*
X63041500Y-58025573I165240J187459D01*
G01*
X88365860Y-61294549D02*
G75*
G03*
X88245359Y-61299891I-57760J-58851D01*
G01*
X87987858Y-60236666D02*
G75*
G03*
X87660423Y-60239442I-162358J-161834D01*
G01*
X70880000Y-61992000D02*
G75*
G03*
X70980000Y-62092000I100000J0D01*
G01*
X103513854Y-65321226D02*
G75*
G03*
X103113851Y-64921226I-400004J-4D01*
G01*
X87894419Y-60333719D02*
G75*
G03*
X87750192Y-60340048I-69019J-73681D01*
G01*
X88724039Y-61297109D02*
G75*
G03*
X88704722Y-60953562I-156639J163509D01*
G01*
X87551853Y-63394017D02*
G75*
G03*
X87514349Y-63627839I131947J-141083D01*
G01*
X70722233Y-66134467D02*
G75*
G03*
X70822277Y-66234467I100067J67D01*
G01*
X88452372Y-61038405D02*
G75*
G03*
X88459744Y-61198116I80828J-76295D01*
G01*
X72172277Y-64234477D02*
G75*
G03*
X72072277Y-64334467I23J-100023D01*
G01*
X88802459Y-65225949D02*
G75*
G03*
X88880119Y-65234128I42941J34949D01*
G01*
X76422233Y-64334467D02*
G75*
G03*
X76322277Y-64234467I-99933J67D01*
G01*
X70980000Y-57012000D02*
G75*
G03*
X70880000Y-57112000I0J-100000D01*
G01*
X88245381Y-61299915D02*
G75*
G03*
X88245253Y-61418769I54019J-59485D01*
G01*
X87807062Y-63496185D02*
G75*
G03*
X87646082Y-63490158I-83362J-73715D01*
G01*
X88459709Y-61198145D02*
G75*
G03*
X88620265Y-61210546I86391J72945D01*
G01*
X88620262Y-61210543D02*
G75*
G03*
X88610491Y-61049705I-81862J75743D01*
G01*
X88361709Y-61414757D02*
G75*
G03*
X88365831Y-61294579I-55309J62057D01*
G01*
X88145563Y-61209229D02*
G75*
G03*
X88147727Y-61511619I144237J-150171D01*
G01*
X101831767Y-65507812D02*
G75*
G03*
X102031767Y-65530200I150633J441112D01*
G01*
X63049936Y-64918411D02*
G75*
G03*
X62950001Y-64822000I-99936J-3589D01*
G01*
X76572233Y-63584467D02*
G75*
G03*
X76472277Y-63484467I-99933J67D01*
G01*
X70672277Y-63484477D02*
G75*
G03*
X70572277Y-63584467I23J-100023D01*
G01*
X75860000Y-62092000D02*
G75*
G03*
X75960000Y-61992000I0J100000D01*
G01*
X87745174Y-60483601D02*
G75*
G03*
X87886174Y-60476029I66826J72201D01*
G01*
X88708230Y-61881744D02*
G75*
G03*
X89068688Y-61877177I178020J176644D01*
G01*
X88363711Y-60936781D02*
G75*
G03*
X88299327Y-61146485I158889J-163519D01*
G01*
X87986027Y-60566533D02*
G75*
G03*
X87987843Y-60236680I-163727J165833D01*
G01*
X101022190Y-57614310D02*
G75*
G03*
X100922810Y-57713663I610J-99990D01*
G01*
X89073561Y-61512801D02*
G75*
G03*
X88838049Y-61431517I-203261J-207099D01*
G01*
X89262997Y-64761799D02*
G75*
G03*
X88952785Y-64753517I-158957J-140091D01*
G01*
X88706205Y-65320077D02*
G75*
G03*
X88979874Y-65324748I139125J131867D01*
G01*
X70572273Y-66884467D02*
G75*
G03*
X70672277Y-66984467I100067J67D01*
G01*
X88609332Y-61973205D02*
G75*
G03*
X89164087Y-61972151I276868J268405D01*
G01*
X89695581Y-61944428D02*
G75*
G03*
X89340015Y-61932208I-183651J-164642D01*
G01*
X87437108Y-63860611D02*
G75*
G03*
X87546751Y-63875051I64492J66211D01*
G01*
X62399999Y-64572000D02*
G75*
G03*
X62604788Y-64822001I229941J-20520D01*
G01*
X75072233Y-64334467D02*
G75*
G03*
X74972277Y-64234467I-99933J67D01*
G01*
X86930785Y-63544666D02*
G75*
G03*
X87295184Y-63528297I174515J179266D01*
G01*
X87811868Y-63664235D02*
G75*
G03*
X87807029Y-63496214I-88368J81535D01*
G01*
X88780618Y-65095293D02*
G75*
G03*
X88802461Y-65225948I127082J-45907D01*
G01*
X87750212Y-60340070D02*
G75*
G03*
X87745200Y-60483573I65588J-74130D01*
G01*
X89317134Y-65041823D02*
G75*
G03*
X89262993Y-64761802I-229234J100923D01*
G01*
X86930671Y-63226462D02*
G75*
G03*
X86930794Y-63544658I156129J-159038D01*
G01*
X87660425Y-60239445D02*
G75*
G03*
X87652243Y-60567393I155475J-167955D01*
G01*
X89595166Y-62034430D02*
G75*
G03*
X89434245Y-62028351I-83366J-73870D01*
G01*
X87280099Y-63109700D02*
G75*
G03*
X86930688Y-63226480I-22499J-513800D01*
G01*
X87032594Y-63315003D02*
G75*
G03*
X87031400Y-63454887I64406J-70497D01*
G01*
X62950000Y-58622001D02*
G75*
G03*
X63049937Y-58525590I0J100001D01*
G01*
X99792592Y-58534050D02*
G75*
G03*
X95692588Y-58534050I-2050002J0D01*
G01*
X89225291Y-62398784D02*
G75*
G03*
X89334915Y-62413244I64509J66284D01*
G01*
X100922820Y-65514900D02*
G75*
G03*
X101022189Y-65614280I99980J600D01*
G01*
X89695278Y-62297671D02*
G75*
G03*
X89695586Y-61944425I-169378J176771D01*
G01*
X88245281Y-61418740D02*
G75*
G03*
X88361688Y-61414732I56319J56740D01*
G01*
X87332260Y-63667997D02*
G75*
G03*
X87341290Y-63955154I145250J-139153D01*
G01*
X75672277Y-64234477D02*
G75*
G03*
X75572277Y-64334467I23J-100023D01*
G01*
X75572233Y-66134467D02*
G75*
G03*
X75672277Y-66234467I100067J67D01*
G01*
X103313850Y-65530210D02*
G75*
G03*
X103513851Y-65507812I51350J445610D01*
G01*
X62748187Y-58622034D02*
G75*
G03*
X62543395Y-58872000I25013J-229366D01*
G01*
X89164307Y-64853479D02*
G75*
G03*
X89053497Y-64843180I-60607J-50821D01*
G01*
X62604793Y-58622039D02*
G75*
G03*
X62400001Y-58872000I25007J-229361D01*
G01*
X87514363Y-63627802D02*
G75*
G03*
X87332261Y-63667997I-59663J-162298D01*
G01*
X87433517Y-63757143D02*
G75*
G03*
X87437116Y-63860603I49883J-50057D01*
G01*
X90010681Y-62449896D02*
G75*
G03*
X89916132Y-62428224I-64681J-65104D01*
G01*
X89120376Y-62206143D02*
G75*
G03*
X89129455Y-62493345I145124J-139157D01*
G01*
X72072233Y-66134467D02*
G75*
G03*
X72172277Y-66234467I100067J67D01*
G01*
X62543397Y-64572000D02*
G75*
G03*
X62748182Y-64822000I229953J-20510D01*
G01*
X87886152Y-60476004D02*
G75*
G03*
X87894461Y-60333674I-66752J75304D01*
G01*
X95267588Y-64834050D02*
G75*
G03*
X100217588Y-64834050I2475000J0D01*
G01*
X63041500Y-65418402D02*
G75*
G03*
X62879153Y-65480834I3000J-250098D01*
G01*
X74972277Y-66234477D02*
G75*
G03*
X75072277Y-66134467I23J99977D01*
G01*
X102231767Y-64921227D02*
G75*
G03*
X101831767Y-65321226I-67J-399933D01*
G01*
X88147750Y-61511599D02*
G75*
G03*
X88450076Y-61516718I153550J138399D01*
G01*
X104323428Y-65614307D02*
G75*
G03*
X104422807Y-65514901I-628J100007D01*
G01*
X104422816Y-57713663D02*
G75*
G03*
X104323428Y-57614284I-100016J-637D01*
G01*
X87907107Y-63759470D02*
G75*
G03*
X87907421Y-63406231I-169307J176770D01*
G01*
X89302511Y-62166038D02*
G75*
G03*
X89120425Y-62206190I-59711J-162162D01*
G01*
X103098685Y-58562855D02*
G75*
G03*
X103098685Y-58562855I-425876J0D01*
G01*
X93168576Y-61587502D02*
G75*
G03*
X93168576Y-61587502I-250000J0D01*
G01*
%TO.C,D7*%
X79272000Y-90898000D02*
X82272000Y-90898000D01*
X79272000Y-82198000D02*
X79272000Y-90898000D01*
X82272000Y-90898000D02*
X82272000Y-82198000D01*
%TO.C,R1*%
X81334000Y-95044000D02*
X81334000Y-97044000D01*
X79194000Y-97044000D02*
X79194000Y-95044000D01*
%TO.C,J1*%
X77624000Y-114136000D02*
X76424000Y-114136000D01*
X63624000Y-118636000D02*
X70024000Y-118636000D01*
X65024000Y-115086000D02*
X64724000Y-114486000D01*
X65324000Y-114486000D02*
X65024000Y-115086000D01*
X70024000Y-125936000D02*
X77624000Y-125936000D01*
X62424000Y-114136000D02*
X63624000Y-114136000D01*
X77624000Y-125936000D02*
X77624000Y-114136000D01*
X62424000Y-125936000D02*
X62424000Y-114136000D01*
X76424000Y-114136000D02*
X76424000Y-118636000D01*
X63624000Y-114136000D02*
X63624000Y-118636000D01*
X64724000Y-114486000D02*
X65324000Y-114486000D01*
X76424000Y-118636000D02*
X70024000Y-118636000D01*
X70024000Y-125936000D02*
X62424000Y-125936000D01*
%TO.C,D1*%
X83336000Y-82198000D02*
X83336000Y-90898000D01*
X86336000Y-90898000D02*
X86336000Y-82198000D01*
X83336000Y-90898000D02*
X86336000Y-90898000D01*
%TO.C,R2*%
X83766000Y-97044000D02*
X83766000Y-95044000D01*
X85906000Y-95044000D02*
X85906000Y-97044000D01*
%TO.C,J2*%
X81404000Y-114136000D02*
X81404000Y-118636000D01*
X95404000Y-125936000D02*
X95404000Y-114136000D01*
X87804000Y-125936000D02*
X95404000Y-125936000D01*
X87804000Y-125936000D02*
X80204000Y-125936000D01*
X82804000Y-115086000D02*
X82504000Y-114486000D01*
X95404000Y-114136000D02*
X94204000Y-114136000D01*
X81404000Y-118636000D02*
X87804000Y-118636000D01*
X94204000Y-114136000D02*
X94204000Y-118636000D01*
X82504000Y-114486000D02*
X83104000Y-114486000D01*
X94204000Y-118636000D02*
X87804000Y-118636000D01*
X80204000Y-125936000D02*
X80204000Y-114136000D01*
X83104000Y-114486000D02*
X82804000Y-115086000D01*
X80204000Y-114136000D02*
X81404000Y-114136000D01*
%TO.C,J3*%
X106730000Y-114136000D02*
X106730000Y-118636000D01*
X106730000Y-118636000D02*
X102830000Y-118636000D01*
X107930000Y-125936000D02*
X107930000Y-114136000D01*
X98930000Y-114136000D02*
X98930000Y-118636000D01*
X100630000Y-114486000D02*
X100330000Y-115086000D01*
X97730000Y-114136000D02*
X98930000Y-114136000D01*
X100330000Y-115086000D02*
X100030000Y-114486000D01*
X102830000Y-125936000D02*
X97730000Y-125936000D01*
X102830000Y-125936000D02*
X107930000Y-125936000D01*
X100030000Y-114486000D02*
X100630000Y-114486000D01*
X98930000Y-118636000D02*
X102830000Y-118636000D01*
X97730000Y-125936000D02*
X97730000Y-114136000D01*
X107930000Y-114136000D02*
X106730000Y-114136000D01*
%TO.C,J4*%
X112776000Y-115086000D02*
X112476000Y-114486000D01*
X110176000Y-125936000D02*
X110176000Y-114136000D01*
X110176000Y-114136000D02*
X111376000Y-114136000D01*
X122876000Y-114136000D02*
X121676000Y-114136000D01*
X113076000Y-114486000D02*
X112776000Y-115086000D01*
X121676000Y-114136000D02*
X121676000Y-118636000D01*
X122876000Y-125936000D02*
X122876000Y-114136000D01*
X121676000Y-118636000D02*
X116526000Y-118636000D01*
X116526000Y-125936000D02*
X122876000Y-125936000D01*
X111376000Y-114136000D02*
X111376000Y-118636000D01*
X116526000Y-125936000D02*
X110176000Y-125936000D01*
X112476000Y-114486000D02*
X113076000Y-114486000D01*
X111376000Y-118636000D02*
X116526000Y-118636000D01*
%TO.C,J5*%
X134162000Y-118636000D02*
X130262000Y-118636000D01*
X135362000Y-125936000D02*
X135362000Y-114136000D01*
X135362000Y-114136000D02*
X134162000Y-114136000D01*
X134162000Y-114136000D02*
X134162000Y-118636000D01*
X127462000Y-114486000D02*
X128062000Y-114486000D01*
X130262000Y-125936000D02*
X135362000Y-125936000D01*
X126362000Y-118636000D02*
X130262000Y-118636000D01*
X125162000Y-125936000D02*
X125162000Y-114136000D01*
X126362000Y-114136000D02*
X126362000Y-118636000D01*
X125162000Y-114136000D02*
X126362000Y-114136000D01*
X130262000Y-125936000D02*
X125162000Y-125936000D01*
X128062000Y-114486000D02*
X127762000Y-115086000D01*
X127762000Y-115086000D02*
X127462000Y-114486000D01*
%TO.C,D2*%
X68156667Y-110109000D02*
X66971333Y-109220000D01*
X66971333Y-108331000D02*
X66971333Y-110109000D01*
X68156667Y-108331000D02*
X68156667Y-110109000D01*
X66884000Y-109220000D02*
X68604000Y-109220000D01*
X66971333Y-109220000D02*
X68156667Y-108331000D01*
X66884000Y-109220000D02*
G75*
G03*
X66884000Y-109220000I-1860000J0D01*
G01*
%TO.C,U2*%
X63246000Y-84836000D02*
X63246000Y-104902000D01*
X69342000Y-98806000D02*
X64008000Y-98806000D01*
X73406000Y-104902000D02*
X73406000Y-84836000D01*
X72644000Y-86614000D02*
X70612000Y-86614000D01*
X73152000Y-88138000D02*
X70104000Y-88138000D01*
X71628000Y-87630000D02*
X71628000Y-85598000D01*
X69342000Y-98806000D02*
X69342000Y-92964000D01*
X70104000Y-88138000D02*
X70104000Y-85090000D01*
X70104000Y-85090000D02*
X73152000Y-85090000D01*
X64008000Y-92964000D02*
X69342000Y-92964000D01*
X64008000Y-98806000D02*
X64008000Y-92964000D01*
X73152000Y-85090000D02*
X73152000Y-88138000D01*
X63246000Y-104902000D02*
X73406000Y-104902000D01*
X73406000Y-84836000D02*
X63246000Y-84836000D01*
X72898000Y-86614000D02*
G75*
G03*
X72898000Y-86614000I-1270000J0D01*
G01*
%TO.C,Q1*%
X101934000Y-93686000D02*
X101934000Y-103926000D01*
X101934000Y-93686000D02*
X97293000Y-93686000D01*
X101934000Y-100657000D02*
X100424000Y-100657000D01*
X101934000Y-103926000D02*
X97293000Y-103926000D01*
X97293000Y-93686000D02*
X97293000Y-103926000D01*
X100424000Y-93686000D02*
X100424000Y-103926000D01*
X101934000Y-96956000D02*
X100424000Y-96956000D01*
%TO.C,Q2*%
X109046000Y-96956000D02*
X107536000Y-96956000D01*
X104405000Y-93686000D02*
X104405000Y-103926000D01*
X109046000Y-93686000D02*
X109046000Y-103926000D01*
X109046000Y-103926000D02*
X104405000Y-103926000D01*
X109046000Y-100657000D02*
X107536000Y-100657000D01*
X109046000Y-93686000D02*
X104405000Y-93686000D01*
X107536000Y-93686000D02*
X107536000Y-103926000D01*
%TO.C,R3*%
X94942000Y-84090000D02*
X94942000Y-82090000D01*
X97082000Y-82090000D02*
X97082000Y-84090000D01*
%TO.C,R4*%
X101908000Y-82090000D02*
X101908000Y-84090000D01*
X99768000Y-84090000D02*
X99768000Y-82090000D01*
%TO.C,R5*%
X104848000Y-84090000D02*
X104848000Y-82090000D01*
X106988000Y-82090000D02*
X106988000Y-84090000D01*
%TO.C,R6*%
X109928000Y-84090000D02*
X109928000Y-82090000D01*
X112068000Y-82090000D02*
X112068000Y-84090000D01*
%TO.C,D4*%
X103685500Y-109347000D02*
X104130000Y-109939667D01*
X104130000Y-109939667D02*
X103241000Y-109939667D01*
X104130000Y-109347000D02*
X103241000Y-109347000D01*
X103241000Y-109939667D02*
X103685500Y-109347000D01*
X106510000Y-109207516D02*
G75*
G03*
X104276495Y-109177401I-1100000J1257516D01*
G01*
%TO.C,D3*%
X99050000Y-109347000D02*
X98161000Y-109347000D01*
X98605500Y-109347000D02*
X99050000Y-109939667D01*
X99050000Y-109939667D02*
X98161000Y-109939667D01*
X98161000Y-109939667D02*
X98605500Y-109347000D01*
X101430000Y-109207516D02*
G75*
G03*
X99196495Y-109177401I-1100000J1257516D01*
G01*
%TO.C,Q4*%
X104125998Y-91750000D02*
X106285998Y-91750000D01*
X104125998Y-88590000D02*
X104125998Y-89520000D01*
X104125998Y-91750000D02*
X104125998Y-90820000D01*
X104125998Y-88590000D02*
X105585998Y-88590000D01*
%TO.C,Q3*%
X97808002Y-88590000D02*
X99268002Y-88590000D01*
X97808002Y-91750000D02*
X97808002Y-90820000D01*
X97808002Y-91750000D02*
X99968002Y-91750000D01*
X97808002Y-88590000D02*
X97808002Y-89520000D01*
%TO.C,U3*%
X119634000Y-86614000D02*
X135890000Y-86614000D01*
X119634000Y-105664000D02*
X119634000Y-86614000D01*
X135890000Y-105664000D02*
X119634000Y-105664000D01*
X135890000Y-86614000D02*
X135890000Y-105664000D01*
X135382000Y-89408000D02*
G75*
G03*
X135382000Y-89408000I-2286000J0D01*
G01*
X124714000Y-89408000D02*
G75*
G03*
X124714000Y-89408000I-2286000J0D01*
G01*
%TO.C,J7*%
X133798000Y-74422000D02*
X133798000Y-73092000D01*
X133798000Y-73092000D02*
X135128000Y-73092000D01*
X136458000Y-75692000D02*
X136458000Y-83372000D01*
X133798000Y-75692000D02*
X136458000Y-75692000D01*
X133798000Y-83372000D02*
X136458000Y-83372000D01*
X133798000Y-75692000D02*
X133798000Y-83372000D01*
%TO.C,J6*%
X64964000Y-75886000D02*
X66294000Y-75886000D01*
X64964000Y-77216000D02*
X64964000Y-75886000D01*
X64964000Y-78486000D02*
X67624000Y-78486000D01*
X64964000Y-78546000D02*
X67624000Y-78546000D01*
X64964000Y-78486000D02*
X64964000Y-78546000D01*
X67624000Y-78486000D02*
X67624000Y-78546000D01*
%TO.C,Ref\u002A\u002A*%
G36*
X126041567Y-74817287D02*
G01*
X125756199Y-74586968D01*
X125445402Y-74336612D01*
X125109949Y-74066846D01*
X124750614Y-73778297D01*
X124368170Y-73471593D01*
X123963390Y-73147361D01*
X123908826Y-73103682D01*
X123576678Y-72837812D01*
X123253347Y-72578997D01*
X122940384Y-72328478D01*
X122639339Y-72087497D01*
X122351763Y-71857296D01*
X122079206Y-71639114D01*
X121823219Y-71434194D01*
X121585353Y-71243777D01*
X121367157Y-71069103D01*
X121170182Y-70911415D01*
X120995979Y-70771953D01*
X120846099Y-70651958D01*
X120722091Y-70552672D01*
X120625506Y-70475336D01*
X120557894Y-70421191D01*
X120520807Y-70391479D01*
X120513814Y-70385864D01*
X120509009Y-70364922D01*
X120496447Y-70305101D01*
X120476654Y-70209037D01*
X120450161Y-70079364D01*
X120417495Y-69918719D01*
X120379185Y-69729736D01*
X120335760Y-69515050D01*
X120287748Y-69277298D01*
X120235677Y-69019114D01*
X120180077Y-68743134D01*
X120121477Y-68451993D01*
X120060403Y-68148327D01*
X119997386Y-67834770D01*
X119932954Y-67513959D01*
X119867635Y-67188528D01*
X119801958Y-66861113D01*
X119736452Y-66534349D01*
X119671645Y-66210872D01*
X119608065Y-65893316D01*
X119546242Y-65584318D01*
X119486703Y-65286513D01*
X119429978Y-65002535D01*
X119376596Y-64735021D01*
X119327083Y-64486605D01*
X119281970Y-64259924D01*
X119241785Y-64057611D01*
X119207057Y-63882304D01*
X119194939Y-63820890D01*
X119737930Y-63820890D01*
X119740542Y-63842694D01*
X119751060Y-63903213D01*
X119768928Y-63999681D01*
X119793590Y-64129333D01*
X119824490Y-64289405D01*
X119861073Y-64477130D01*
X119902781Y-64689746D01*
X119949060Y-64924486D01*
X119999354Y-65178585D01*
X120053106Y-65449280D01*
X120109760Y-65733804D01*
X120168762Y-66029393D01*
X120229555Y-66333282D01*
X120291582Y-66642706D01*
X120354289Y-66954900D01*
X120417119Y-67267099D01*
X120479517Y-67576538D01*
X120540926Y-67880453D01*
X120600790Y-68176078D01*
X120658555Y-68460649D01*
X120713663Y-68731400D01*
X120765559Y-68985567D01*
X120813687Y-69220384D01*
X120857491Y-69433087D01*
X120896415Y-69620911D01*
X120929904Y-69781091D01*
X120957401Y-69910862D01*
X120978351Y-70007459D01*
X120992198Y-70068117D01*
X120998352Y-70090042D01*
X121016834Y-70105266D01*
X121066757Y-70145632D01*
X121146498Y-70209838D01*
X121254438Y-70296587D01*
X121388956Y-70404579D01*
X121548429Y-70532515D01*
X121731237Y-70679095D01*
X121935759Y-70843022D01*
X122160373Y-71022995D01*
X122403459Y-71217715D01*
X122663396Y-71425884D01*
X122938562Y-71646202D01*
X123227336Y-71877371D01*
X123528098Y-72118091D01*
X123839225Y-72367062D01*
X124157691Y-72621861D01*
X127295493Y-75132143D01*
X127300835Y-70740038D01*
X127301280Y-70311857D01*
X127301565Y-69894927D01*
X127301694Y-69491225D01*
X127301672Y-69102727D01*
X127301504Y-68731408D01*
X127301195Y-68379243D01*
X127300750Y-68048210D01*
X127300172Y-67740283D01*
X127299468Y-67457439D01*
X127298641Y-67201653D01*
X127297696Y-66974901D01*
X127296639Y-66779159D01*
X127295474Y-66616403D01*
X127294205Y-66488609D01*
X127292837Y-66397752D01*
X127291376Y-66345808D01*
X127290251Y-66333595D01*
X127268445Y-66325145D01*
X127208961Y-66304233D01*
X127114194Y-66271656D01*
X126986541Y-66228210D01*
X126828394Y-66174693D01*
X126642150Y-66111902D01*
X126430203Y-66040632D01*
X126194947Y-65961681D01*
X125938778Y-65875845D01*
X125664091Y-65783922D01*
X125373280Y-65686708D01*
X125068740Y-65584999D01*
X124752866Y-65479594D01*
X124428053Y-65371287D01*
X124096695Y-65260877D01*
X123761188Y-65149160D01*
X123423927Y-65036933D01*
X123087305Y-64924992D01*
X122753719Y-64814135D01*
X122425562Y-64705157D01*
X122105230Y-64598856D01*
X121795117Y-64496029D01*
X121497619Y-64397473D01*
X121215130Y-64303983D01*
X120950045Y-64216358D01*
X120704759Y-64135393D01*
X120481666Y-64061886D01*
X120283162Y-63996633D01*
X120111641Y-63940431D01*
X119969498Y-63894077D01*
X119859128Y-63858368D01*
X119782926Y-63834100D01*
X119743287Y-63822070D01*
X119737930Y-63820890D01*
X119194939Y-63820890D01*
X119178313Y-63736636D01*
X119156083Y-63623244D01*
X119140895Y-63544762D01*
X119133278Y-63503827D01*
X119132608Y-63499690D01*
X119132616Y-63498778D01*
X120511576Y-63498778D01*
X120531255Y-63506703D01*
X120588638Y-63527119D01*
X120681247Y-63559200D01*
X120806602Y-63602118D01*
X120962224Y-63655047D01*
X121145634Y-63717158D01*
X121354353Y-63787626D01*
X121585902Y-63865623D01*
X121837801Y-63950322D01*
X122107572Y-64040896D01*
X122392735Y-64136518D01*
X122690811Y-64236361D01*
X122999322Y-64339598D01*
X123315787Y-64445401D01*
X123637728Y-64552945D01*
X123962666Y-64661401D01*
X124288121Y-64769943D01*
X124611614Y-64877744D01*
X124930667Y-64983976D01*
X125242800Y-65087813D01*
X125545534Y-65188427D01*
X125836390Y-65284992D01*
X126112888Y-65376681D01*
X126372550Y-65462665D01*
X126612896Y-65542120D01*
X126831448Y-65614216D01*
X127025725Y-65678128D01*
X127193250Y-65733028D01*
X127331542Y-65778089D01*
X127438123Y-65812484D01*
X127510514Y-65835386D01*
X127546235Y-65845968D01*
X127549422Y-65846617D01*
X127573698Y-65840200D01*
X127636057Y-65821040D01*
X127734434Y-65789816D01*
X127866763Y-65747208D01*
X128030978Y-65693895D01*
X128225014Y-65630556D01*
X128446804Y-65557871D01*
X128694283Y-65476519D01*
X128965385Y-65387180D01*
X129258044Y-65290533D01*
X129570196Y-65187257D01*
X129899773Y-65078031D01*
X130244710Y-64963535D01*
X130602942Y-64844449D01*
X130972402Y-64721452D01*
X131100130Y-64678889D01*
X131472298Y-64554780D01*
X131833504Y-64434209D01*
X132181715Y-64317859D01*
X132514896Y-64206415D01*
X132831013Y-64100561D01*
X133128030Y-64000981D01*
X133403914Y-63908361D01*
X133656630Y-63823383D01*
X133884144Y-63746733D01*
X134084420Y-63679095D01*
X134255425Y-63621152D01*
X134395124Y-63573591D01*
X134501482Y-63537094D01*
X134572465Y-63512346D01*
X134606039Y-63500032D01*
X134608576Y-63498778D01*
X134588054Y-63494203D01*
X134527921Y-63483063D01*
X134430330Y-63465722D01*
X134297433Y-63442544D01*
X134131381Y-63413897D01*
X133934326Y-63380143D01*
X133708420Y-63341649D01*
X133455815Y-63298780D01*
X133178663Y-63251901D01*
X132879116Y-63201377D01*
X132559325Y-63147573D01*
X132221442Y-63090854D01*
X131867620Y-63031585D01*
X131500009Y-62970132D01*
X131120763Y-62906859D01*
X131084326Y-62900786D01*
X127560076Y-62313495D01*
X124035826Y-62900786D01*
X123655589Y-62964212D01*
X123286785Y-63025854D01*
X122931565Y-63085345D01*
X122592081Y-63142321D01*
X122270484Y-63196417D01*
X121968928Y-63247267D01*
X121689563Y-63294507D01*
X121434541Y-63337772D01*
X121206015Y-63376696D01*
X121006136Y-63410914D01*
X120837056Y-63440061D01*
X120700927Y-63463771D01*
X120599900Y-63481681D01*
X120536128Y-63493424D01*
X120511763Y-63498636D01*
X120511576Y-63498778D01*
X119132616Y-63498778D01*
X119132928Y-63465677D01*
X119153425Y-63446031D01*
X119204431Y-63431818D01*
X119213139Y-63430044D01*
X119301118Y-63412424D01*
X119315666Y-63287074D01*
X119328958Y-63207868D01*
X119347353Y-63164522D01*
X119365270Y-63151876D01*
X119389376Y-63147461D01*
X119453221Y-63136443D01*
X119554783Y-63119162D01*
X119692042Y-63095955D01*
X119862974Y-63067161D01*
X120065560Y-63033118D01*
X120297777Y-62994164D01*
X120557605Y-62950639D01*
X120843021Y-62902879D01*
X121152004Y-62851225D01*
X121482532Y-62796013D01*
X121832585Y-62737583D01*
X122200140Y-62676273D01*
X122583177Y-62612422D01*
X122979673Y-62546367D01*
X123387607Y-62478447D01*
X123485493Y-62462155D01*
X127570660Y-61782284D01*
X135783326Y-63151218D01*
X135800929Y-63281771D01*
X135818532Y-63412325D01*
X135906762Y-63429995D01*
X135962248Y-63444158D01*
X135985974Y-63462621D01*
X135988262Y-63494289D01*
X135987545Y-63499690D01*
X135981959Y-63530547D01*
X135968668Y-63599627D01*
X135948198Y-63704296D01*
X135921078Y-63841918D01*
X135887838Y-64009857D01*
X135849005Y-64205478D01*
X135805108Y-64426146D01*
X135756677Y-64669226D01*
X135704239Y-64932081D01*
X135648323Y-65212078D01*
X135589457Y-65506580D01*
X135528171Y-65812952D01*
X135464992Y-66128559D01*
X135400450Y-66450766D01*
X135335073Y-66776936D01*
X135269389Y-67104436D01*
X135203928Y-67430628D01*
X135139217Y-67752879D01*
X135075786Y-68068552D01*
X135014162Y-68375013D01*
X134954875Y-68669626D01*
X134898454Y-68949755D01*
X134845425Y-69212766D01*
X134796319Y-69456023D01*
X134751664Y-69676890D01*
X134711989Y-69872733D01*
X134677821Y-70040916D01*
X134649691Y-70178803D01*
X134628125Y-70283760D01*
X134613653Y-70353150D01*
X134606804Y-70384339D01*
X134606339Y-70385864D01*
X134589241Y-70399570D01*
X134540640Y-70438483D01*
X134462085Y-70501362D01*
X134355127Y-70586965D01*
X134221317Y-70694051D01*
X134062207Y-70821380D01*
X133879347Y-70967710D01*
X133674287Y-71131800D01*
X133448579Y-71312410D01*
X133203774Y-71508299D01*
X132941422Y-71718225D01*
X132663074Y-71940947D01*
X132370282Y-72175225D01*
X132064595Y-72419818D01*
X131747565Y-72673484D01*
X131420743Y-72934982D01*
X131211326Y-73102541D01*
X130802262Y-73430018D01*
X130415812Y-73739752D01*
X130052725Y-74031138D01*
X129713748Y-74303567D01*
X129399631Y-74556433D01*
X129111120Y-74789130D01*
X128848966Y-75001051D01*
X128613915Y-75191590D01*
X128406716Y-75360139D01*
X128228117Y-75506093D01*
X128078867Y-75628844D01*
X127959713Y-75727786D01*
X127871404Y-75802312D01*
X127814689Y-75851815D01*
X127790315Y-75875690D01*
X127789644Y-75876717D01*
X127725429Y-75957329D01*
X127642615Y-76005928D01*
X127550169Y-76019397D01*
X127457058Y-75994619D01*
X127454353Y-75993255D01*
X127392278Y-75948253D01*
X127340988Y-75889834D01*
X127337936Y-75884966D01*
X127316238Y-75863214D01*
X127262150Y-75815778D01*
X127176444Y-75743286D01*
X127059895Y-75646365D01*
X126913276Y-75525643D01*
X126737360Y-75381747D01*
X126532920Y-75215304D01*
X126440955Y-75140697D01*
X127813976Y-75140697D01*
X130941401Y-72640282D01*
X131261006Y-72384726D01*
X131572000Y-72136000D01*
X131872749Y-71895413D01*
X132161617Y-71664276D01*
X132436969Y-71443900D01*
X132697170Y-71235593D01*
X132940585Y-71040667D01*
X133165577Y-70860432D01*
X133370513Y-70696198D01*
X133553756Y-70549275D01*
X133713671Y-70420973D01*
X133848623Y-70312603D01*
X133956977Y-70225475D01*
X134037097Y-70160900D01*
X134087349Y-70120186D01*
X134105964Y-70104774D01*
X134113237Y-70089902D01*
X134124173Y-70054770D01*
X134139085Y-69997889D01*
X134158286Y-69917766D01*
X134182088Y-69812910D01*
X134210803Y-69681830D01*
X134244744Y-69523034D01*
X134284224Y-69335031D01*
X134329555Y-69116330D01*
X134381050Y-68865440D01*
X134439021Y-68580869D01*
X134503781Y-68261125D01*
X134575643Y-67904719D01*
X134654918Y-67510157D01*
X134741919Y-67075949D01*
X134767162Y-66949786D01*
X134838406Y-66593259D01*
X134907237Y-66248116D01*
X134973208Y-65916632D01*
X135035872Y-65601082D01*
X135094781Y-65303740D01*
X135149488Y-65026880D01*
X135199547Y-64772778D01*
X135244510Y-64543709D01*
X135283929Y-64341946D01*
X135317359Y-64169765D01*
X135344351Y-64029440D01*
X135364459Y-63923246D01*
X135377235Y-63853457D01*
X135382232Y-63822349D01*
X135382222Y-63820890D01*
X135361541Y-63826555D01*
X135302675Y-63844984D01*
X135207589Y-63875527D01*
X135078250Y-63917535D01*
X134916625Y-63970358D01*
X134724680Y-64033347D01*
X134504382Y-64105852D01*
X134257698Y-64187226D01*
X133986593Y-64276818D01*
X133693035Y-64373979D01*
X133378990Y-64478059D01*
X133046425Y-64588410D01*
X132697305Y-64704383D01*
X132333599Y-64825327D01*
X131957271Y-64950594D01*
X131598941Y-65069983D01*
X127824660Y-66328077D01*
X127813976Y-75140697D01*
X126440955Y-75140697D01*
X126300732Y-75026942D01*
X126041567Y-74817287D01*
G37*
D12*
X126041567Y-74817287D02*
X125756199Y-74586968D01*
X125445402Y-74336612D01*
X125109949Y-74066846D01*
X124750614Y-73778297D01*
X124368170Y-73471593D01*
X123963390Y-73147361D01*
X123908826Y-73103682D01*
X123576678Y-72837812D01*
X123253347Y-72578997D01*
X122940384Y-72328478D01*
X122639339Y-72087497D01*
X122351763Y-71857296D01*
X122079206Y-71639114D01*
X121823219Y-71434194D01*
X121585353Y-71243777D01*
X121367157Y-71069103D01*
X121170182Y-70911415D01*
X120995979Y-70771953D01*
X120846099Y-70651958D01*
X120722091Y-70552672D01*
X120625506Y-70475336D01*
X120557894Y-70421191D01*
X120520807Y-70391479D01*
X120513814Y-70385864D01*
X120509009Y-70364922D01*
X120496447Y-70305101D01*
X120476654Y-70209037D01*
X120450161Y-70079364D01*
X120417495Y-69918719D01*
X120379185Y-69729736D01*
X120335760Y-69515050D01*
X120287748Y-69277298D01*
X120235677Y-69019114D01*
X120180077Y-68743134D01*
X120121477Y-68451993D01*
X120060403Y-68148327D01*
X119997386Y-67834770D01*
X119932954Y-67513959D01*
X119867635Y-67188528D01*
X119801958Y-66861113D01*
X119736452Y-66534349D01*
X119671645Y-66210872D01*
X119608065Y-65893316D01*
X119546242Y-65584318D01*
X119486703Y-65286513D01*
X119429978Y-65002535D01*
X119376596Y-64735021D01*
X119327083Y-64486605D01*
X119281970Y-64259924D01*
X119241785Y-64057611D01*
X119207057Y-63882304D01*
X119194939Y-63820890D01*
X119737930Y-63820890D01*
X119740542Y-63842694D01*
X119751060Y-63903213D01*
X119768928Y-63999681D01*
X119793590Y-64129333D01*
X119824490Y-64289405D01*
X119861073Y-64477130D01*
X119902781Y-64689746D01*
X119949060Y-64924486D01*
X119999354Y-65178585D01*
X120053106Y-65449280D01*
X120109760Y-65733804D01*
X120168762Y-66029393D01*
X120229555Y-66333282D01*
X120291582Y-66642706D01*
X120354289Y-66954900D01*
X120417119Y-67267099D01*
X120479517Y-67576538D01*
X120540926Y-67880453D01*
X120600790Y-68176078D01*
X120658555Y-68460649D01*
X120713663Y-68731400D01*
X120765559Y-68985567D01*
X120813687Y-69220384D01*
X120857491Y-69433087D01*
X120896415Y-69620911D01*
X120929904Y-69781091D01*
X120957401Y-69910862D01*
X120978351Y-70007459D01*
X120992198Y-70068117D01*
X120998352Y-70090042D01*
X121016834Y-70105266D01*
X121066757Y-70145632D01*
X121146498Y-70209838D01*
X121254438Y-70296587D01*
X121388956Y-70404579D01*
X121548429Y-70532515D01*
X121731237Y-70679095D01*
X121935759Y-70843022D01*
X122160373Y-71022995D01*
X122403459Y-71217715D01*
X122663396Y-71425884D01*
X122938562Y-71646202D01*
X123227336Y-71877371D01*
X123528098Y-72118091D01*
X123839225Y-72367062D01*
X124157691Y-72621861D01*
X127295493Y-75132143D01*
X127300835Y-70740038D01*
X127301280Y-70311857D01*
X127301565Y-69894927D01*
X127301694Y-69491225D01*
X127301672Y-69102727D01*
X127301504Y-68731408D01*
X127301195Y-68379243D01*
X127300750Y-68048210D01*
X127300172Y-67740283D01*
X127299468Y-67457439D01*
X127298641Y-67201653D01*
X127297696Y-66974901D01*
X127296639Y-66779159D01*
X127295474Y-66616403D01*
X127294205Y-66488609D01*
X127292837Y-66397752D01*
X127291376Y-66345808D01*
X127290251Y-66333595D01*
X127268445Y-66325145D01*
X127208961Y-66304233D01*
X127114194Y-66271656D01*
X126986541Y-66228210D01*
X126828394Y-66174693D01*
X126642150Y-66111902D01*
X126430203Y-66040632D01*
X126194947Y-65961681D01*
X125938778Y-65875845D01*
X125664091Y-65783922D01*
X125373280Y-65686708D01*
X125068740Y-65584999D01*
X124752866Y-65479594D01*
X124428053Y-65371287D01*
X124096695Y-65260877D01*
X123761188Y-65149160D01*
X123423927Y-65036933D01*
X123087305Y-64924992D01*
X122753719Y-64814135D01*
X122425562Y-64705157D01*
X122105230Y-64598856D01*
X121795117Y-64496029D01*
X121497619Y-64397473D01*
X121215130Y-64303983D01*
X120950045Y-64216358D01*
X120704759Y-64135393D01*
X120481666Y-64061886D01*
X120283162Y-63996633D01*
X120111641Y-63940431D01*
X119969498Y-63894077D01*
X119859128Y-63858368D01*
X119782926Y-63834100D01*
X119743287Y-63822070D01*
X119737930Y-63820890D01*
X119194939Y-63820890D01*
X119178313Y-63736636D01*
X119156083Y-63623244D01*
X119140895Y-63544762D01*
X119133278Y-63503827D01*
X119132608Y-63499690D01*
X119132616Y-63498778D01*
X120511576Y-63498778D01*
X120531255Y-63506703D01*
X120588638Y-63527119D01*
X120681247Y-63559200D01*
X120806602Y-63602118D01*
X120962224Y-63655047D01*
X121145634Y-63717158D01*
X121354353Y-63787626D01*
X121585902Y-63865623D01*
X121837801Y-63950322D01*
X122107572Y-64040896D01*
X122392735Y-64136518D01*
X122690811Y-64236361D01*
X122999322Y-64339598D01*
X123315787Y-64445401D01*
X123637728Y-64552945D01*
X123962666Y-64661401D01*
X124288121Y-64769943D01*
X124611614Y-64877744D01*
X124930667Y-64983976D01*
X125242800Y-65087813D01*
X125545534Y-65188427D01*
X125836390Y-65284992D01*
X126112888Y-65376681D01*
X126372550Y-65462665D01*
X126612896Y-65542120D01*
X126831448Y-65614216D01*
X127025725Y-65678128D01*
X127193250Y-65733028D01*
X127331542Y-65778089D01*
X127438123Y-65812484D01*
X127510514Y-65835386D01*
X127546235Y-65845968D01*
X127549422Y-65846617D01*
X127573698Y-65840200D01*
X127636057Y-65821040D01*
X127734434Y-65789816D01*
X127866763Y-65747208D01*
X128030978Y-65693895D01*
X128225014Y-65630556D01*
X128446804Y-65557871D01*
X128694283Y-65476519D01*
X128965385Y-65387180D01*
X129258044Y-65290533D01*
X129570196Y-65187257D01*
X129899773Y-65078031D01*
X130244710Y-64963535D01*
X130602942Y-64844449D01*
X130972402Y-64721452D01*
X131100130Y-64678889D01*
X131472298Y-64554780D01*
X131833504Y-64434209D01*
X132181715Y-64317859D01*
X132514896Y-64206415D01*
X132831013Y-64100561D01*
X133128030Y-64000981D01*
X133403914Y-63908361D01*
X133656630Y-63823383D01*
X133884144Y-63746733D01*
X134084420Y-63679095D01*
X134255425Y-63621152D01*
X134395124Y-63573591D01*
X134501482Y-63537094D01*
X134572465Y-63512346D01*
X134606039Y-63500032D01*
X134608576Y-63498778D01*
X134588054Y-63494203D01*
X134527921Y-63483063D01*
X134430330Y-63465722D01*
X134297433Y-63442544D01*
X134131381Y-63413897D01*
X133934326Y-63380143D01*
X133708420Y-63341649D01*
X133455815Y-63298780D01*
X133178663Y-63251901D01*
X132879116Y-63201377D01*
X132559325Y-63147573D01*
X132221442Y-63090854D01*
X131867620Y-63031585D01*
X131500009Y-62970132D01*
X131120763Y-62906859D01*
X131084326Y-62900786D01*
X127560076Y-62313495D01*
X124035826Y-62900786D01*
X123655589Y-62964212D01*
X123286785Y-63025854D01*
X122931565Y-63085345D01*
X122592081Y-63142321D01*
X122270484Y-63196417D01*
X121968928Y-63247267D01*
X121689563Y-63294507D01*
X121434541Y-63337772D01*
X121206015Y-63376696D01*
X121006136Y-63410914D01*
X120837056Y-63440061D01*
X120700927Y-63463771D01*
X120599900Y-63481681D01*
X120536128Y-63493424D01*
X120511763Y-63498636D01*
X120511576Y-63498778D01*
X119132616Y-63498778D01*
X119132928Y-63465677D01*
X119153425Y-63446031D01*
X119204431Y-63431818D01*
X119213139Y-63430044D01*
X119301118Y-63412424D01*
X119315666Y-63287074D01*
X119328958Y-63207868D01*
X119347353Y-63164522D01*
X119365270Y-63151876D01*
X119389376Y-63147461D01*
X119453221Y-63136443D01*
X119554783Y-63119162D01*
X119692042Y-63095955D01*
X119862974Y-63067161D01*
X120065560Y-63033118D01*
X120297777Y-62994164D01*
X120557605Y-62950639D01*
X120843021Y-62902879D01*
X121152004Y-62851225D01*
X121482532Y-62796013D01*
X121832585Y-62737583D01*
X122200140Y-62676273D01*
X122583177Y-62612422D01*
X122979673Y-62546367D01*
X123387607Y-62478447D01*
X123485493Y-62462155D01*
X127570660Y-61782284D01*
X135783326Y-63151218D01*
X135800929Y-63281771D01*
X135818532Y-63412325D01*
X135906762Y-63429995D01*
X135962248Y-63444158D01*
X135985974Y-63462621D01*
X135988262Y-63494289D01*
X135987545Y-63499690D01*
X135981959Y-63530547D01*
X135968668Y-63599627D01*
X135948198Y-63704296D01*
X135921078Y-63841918D01*
X135887838Y-64009857D01*
X135849005Y-64205478D01*
X135805108Y-64426146D01*
X135756677Y-64669226D01*
X135704239Y-64932081D01*
X135648323Y-65212078D01*
X135589457Y-65506580D01*
X135528171Y-65812952D01*
X135464992Y-66128559D01*
X135400450Y-66450766D01*
X135335073Y-66776936D01*
X135269389Y-67104436D01*
X135203928Y-67430628D01*
X135139217Y-67752879D01*
X135075786Y-68068552D01*
X135014162Y-68375013D01*
X134954875Y-68669626D01*
X134898454Y-68949755D01*
X134845425Y-69212766D01*
X134796319Y-69456023D01*
X134751664Y-69676890D01*
X134711989Y-69872733D01*
X134677821Y-70040916D01*
X134649691Y-70178803D01*
X134628125Y-70283760D01*
X134613653Y-70353150D01*
X134606804Y-70384339D01*
X134606339Y-70385864D01*
X134589241Y-70399570D01*
X134540640Y-70438483D01*
X134462085Y-70501362D01*
X134355127Y-70586965D01*
X134221317Y-70694051D01*
X134062207Y-70821380D01*
X133879347Y-70967710D01*
X133674287Y-71131800D01*
X133448579Y-71312410D01*
X133203774Y-71508299D01*
X132941422Y-71718225D01*
X132663074Y-71940947D01*
X132370282Y-72175225D01*
X132064595Y-72419818D01*
X131747565Y-72673484D01*
X131420743Y-72934982D01*
X131211326Y-73102541D01*
X130802262Y-73430018D01*
X130415812Y-73739752D01*
X130052725Y-74031138D01*
X129713748Y-74303567D01*
X129399631Y-74556433D01*
X129111120Y-74789130D01*
X128848966Y-75001051D01*
X128613915Y-75191590D01*
X128406716Y-75360139D01*
X128228117Y-75506093D01*
X128078867Y-75628844D01*
X127959713Y-75727786D01*
X127871404Y-75802312D01*
X127814689Y-75851815D01*
X127790315Y-75875690D01*
X127789644Y-75876717D01*
X127725429Y-75957329D01*
X127642615Y-76005928D01*
X127550169Y-76019397D01*
X127457058Y-75994619D01*
X127454353Y-75993255D01*
X127392278Y-75948253D01*
X127340988Y-75889834D01*
X127337936Y-75884966D01*
X127316238Y-75863214D01*
X127262150Y-75815778D01*
X127176444Y-75743286D01*
X127059895Y-75646365D01*
X126913276Y-75525643D01*
X126737360Y-75381747D01*
X126532920Y-75215304D01*
X126440955Y-75140697D01*
X127813976Y-75140697D01*
X130941401Y-72640282D01*
X131261006Y-72384726D01*
X131572000Y-72136000D01*
X131872749Y-71895413D01*
X132161617Y-71664276D01*
X132436969Y-71443900D01*
X132697170Y-71235593D01*
X132940585Y-71040667D01*
X133165577Y-70860432D01*
X133370513Y-70696198D01*
X133553756Y-70549275D01*
X133713671Y-70420973D01*
X133848623Y-70312603D01*
X133956977Y-70225475D01*
X134037097Y-70160900D01*
X134087349Y-70120186D01*
X134105964Y-70104774D01*
X134113237Y-70089902D01*
X134124173Y-70054770D01*
X134139085Y-69997889D01*
X134158286Y-69917766D01*
X134182088Y-69812910D01*
X134210803Y-69681830D01*
X134244744Y-69523034D01*
X134284224Y-69335031D01*
X134329555Y-69116330D01*
X134381050Y-68865440D01*
X134439021Y-68580869D01*
X134503781Y-68261125D01*
X134575643Y-67904719D01*
X134654918Y-67510157D01*
X134741919Y-67075949D01*
X134767162Y-66949786D01*
X134838406Y-66593259D01*
X134907237Y-66248116D01*
X134973208Y-65916632D01*
X135035872Y-65601082D01*
X135094781Y-65303740D01*
X135149488Y-65026880D01*
X135199547Y-64772778D01*
X135244510Y-64543709D01*
X135283929Y-64341946D01*
X135317359Y-64169765D01*
X135344351Y-64029440D01*
X135364459Y-63923246D01*
X135377235Y-63853457D01*
X135382232Y-63822349D01*
X135382222Y-63820890D01*
X135361541Y-63826555D01*
X135302675Y-63844984D01*
X135207589Y-63875527D01*
X135078250Y-63917535D01*
X134916625Y-63970358D01*
X134724680Y-64033347D01*
X134504382Y-64105852D01*
X134257698Y-64187226D01*
X133986593Y-64276818D01*
X133693035Y-64373979D01*
X133378990Y-64478059D01*
X133046425Y-64588410D01*
X132697305Y-64704383D01*
X132333599Y-64825327D01*
X131957271Y-64950594D01*
X131598941Y-65069983D01*
X127824660Y-66328077D01*
X127813976Y-75140697D01*
X126440955Y-75140697D01*
X126300732Y-75026942D01*
X126041567Y-74817287D01*
G36*
X121805448Y-50410586D02*
G01*
X121874109Y-50418358D01*
X121928068Y-50434534D01*
X121974823Y-50458037D01*
X122065314Y-50528916D01*
X122117857Y-50611677D01*
X122132649Y-50699839D01*
X122109887Y-50786922D01*
X122049766Y-50866445D01*
X121960593Y-50927888D01*
X121875186Y-50957991D01*
X121769023Y-50976921D01*
X121661650Y-50982469D01*
X121572614Y-50972426D01*
X121570750Y-50971946D01*
X121449226Y-50925395D01*
X121359410Y-50860202D01*
X121303789Y-50780341D01*
X121284845Y-50689785D01*
X121305062Y-50592508D01*
X121317186Y-50566323D01*
X121378260Y-50491978D01*
X121472773Y-50441332D01*
X121601560Y-50414049D01*
X121708334Y-50408671D01*
X121805448Y-50410586D01*
G37*
X121805448Y-50410586D02*
X121874109Y-50418358D01*
X121928068Y-50434534D01*
X121974823Y-50458037D01*
X122065314Y-50528916D01*
X122117857Y-50611677D01*
X122132649Y-50699839D01*
X122109887Y-50786922D01*
X122049766Y-50866445D01*
X121960593Y-50927888D01*
X121875186Y-50957991D01*
X121769023Y-50976921D01*
X121661650Y-50982469D01*
X121572614Y-50972426D01*
X121570750Y-50971946D01*
X121449226Y-50925395D01*
X121359410Y-50860202D01*
X121303789Y-50780341D01*
X121284845Y-50689785D01*
X121305062Y-50592508D01*
X121317186Y-50566323D01*
X121378260Y-50491978D01*
X121472773Y-50441332D01*
X121601560Y-50414049D01*
X121708334Y-50408671D01*
X121805448Y-50410586D01*
G36*
X119812963Y-50250679D02*
G01*
X119916728Y-50047316D01*
X120056862Y-49861957D01*
X120231711Y-49696228D01*
X120439617Y-49551758D01*
X120678926Y-49430177D01*
X120883351Y-49353246D01*
X120948194Y-49332076D01*
X121007012Y-49313335D01*
X121062678Y-49296874D01*
X121118062Y-49282545D01*
X121176037Y-49270201D01*
X121239475Y-49259694D01*
X121311248Y-49250876D01*
X121394228Y-49243600D01*
X121491286Y-49237716D01*
X121605296Y-49233079D01*
X121739127Y-49229539D01*
X121895654Y-49226949D01*
X122077746Y-49225162D01*
X122288278Y-49224028D01*
X122530119Y-49223402D01*
X122806144Y-49223134D01*
X123119222Y-49223077D01*
X123412250Y-49223084D01*
X123748642Y-49223121D01*
X124045396Y-49223267D01*
X124305207Y-49223570D01*
X124530772Y-49224080D01*
X124724787Y-49224846D01*
X124889945Y-49225917D01*
X125028944Y-49227342D01*
X125144479Y-49229170D01*
X125239245Y-49231451D01*
X125315938Y-49234234D01*
X125377253Y-49237569D01*
X125425887Y-49241504D01*
X125464534Y-49246088D01*
X125495890Y-49251371D01*
X125522651Y-49257402D01*
X125539500Y-49261928D01*
X125674967Y-49309223D01*
X125811597Y-49372679D01*
X125935547Y-49444998D01*
X126032976Y-49518879D01*
X126041176Y-49526499D01*
X126067572Y-49554735D01*
X126118993Y-49612691D01*
X126193173Y-49697724D01*
X126287844Y-49807193D01*
X126400740Y-49938455D01*
X126529595Y-50088867D01*
X126672142Y-50255789D01*
X126826115Y-50436577D01*
X126989246Y-50628589D01*
X127159270Y-50829184D01*
X127201634Y-50879238D01*
X128280584Y-52154393D01*
X128291167Y-51006238D01*
X128293507Y-50756519D01*
X128295654Y-50545515D01*
X128297774Y-50369609D01*
X128300033Y-50225183D01*
X128302595Y-50108621D01*
X128305628Y-50016305D01*
X128309295Y-49944619D01*
X128313763Y-49889945D01*
X128319197Y-49848666D01*
X128325763Y-49817166D01*
X128333627Y-49791827D01*
X128342953Y-49769033D01*
X128348336Y-49757201D01*
X128409985Y-49657137D01*
X128499962Y-49553591D01*
X128606871Y-49457719D01*
X128719318Y-49380673D01*
X128749831Y-49364201D01*
X128839139Y-49321541D01*
X128922414Y-49288455D01*
X129007023Y-49263750D01*
X129100332Y-49246235D01*
X129209708Y-49234715D01*
X129342518Y-49227999D01*
X129506128Y-49224895D01*
X129614084Y-49224289D01*
X129802708Y-49224949D01*
X129955983Y-49228671D01*
X130080845Y-49236446D01*
X130184226Y-49249265D01*
X130273062Y-49268118D01*
X130354287Y-49293997D01*
X130434834Y-49327892D01*
X130475489Y-49347398D01*
X130516291Y-49371285D01*
X130588129Y-49417508D01*
X130687623Y-49483747D01*
X130811398Y-49567681D01*
X130956074Y-49666992D01*
X131118276Y-49779358D01*
X131294625Y-49902459D01*
X131481744Y-50033976D01*
X131676255Y-50171589D01*
X131704236Y-50191459D01*
X131895727Y-50327264D01*
X132077254Y-50455535D01*
X132245843Y-50574202D01*
X132398522Y-50681196D01*
X132532321Y-50774446D01*
X132644267Y-50851883D01*
X132731388Y-50911438D01*
X132790713Y-50951040D01*
X132819269Y-50968621D01*
X132821220Y-50969334D01*
X132841686Y-50957377D01*
X132893864Y-50922795D01*
X132974983Y-50867520D01*
X133082270Y-50793483D01*
X133212956Y-50702615D01*
X133364268Y-50596850D01*
X133533437Y-50478117D01*
X133717690Y-50348350D01*
X133914256Y-50209480D01*
X134096781Y-50080170D01*
X134302135Y-49934904D01*
X134497875Y-49797222D01*
X134681207Y-49669043D01*
X134849336Y-49552281D01*
X134999469Y-49448855D01*
X135128810Y-49360680D01*
X135234567Y-49289675D01*
X135313943Y-49237755D01*
X135364146Y-49206837D01*
X135382000Y-49198531D01*
X135410998Y-49213308D01*
X135466755Y-49248547D01*
X135544082Y-49300483D01*
X135637790Y-49365355D01*
X135742690Y-49439398D01*
X135853592Y-49518849D01*
X135965308Y-49599945D01*
X136072647Y-49678921D01*
X136170422Y-49752016D01*
X136253442Y-49815465D01*
X136316518Y-49865506D01*
X136354462Y-49898374D01*
X136363053Y-49910022D01*
X136343200Y-49924567D01*
X136291543Y-49961535D01*
X136210872Y-50018949D01*
X136103977Y-50094832D01*
X135973649Y-50187209D01*
X135822678Y-50294101D01*
X135653854Y-50413533D01*
X135469966Y-50543526D01*
X135273807Y-50682106D01*
X135106834Y-50800000D01*
X134902785Y-50944074D01*
X134708770Y-51081139D01*
X134527572Y-51209221D01*
X134361979Y-51326349D01*
X134214776Y-51430549D01*
X134088748Y-51519848D01*
X133986682Y-51592275D01*
X133911363Y-51645856D01*
X133865578Y-51678619D01*
X133852036Y-51688557D01*
X133866042Y-51702891D01*
X133911914Y-51739561D01*
X133986890Y-51796550D01*
X134088212Y-51871840D01*
X134213118Y-51963414D01*
X134358847Y-52069253D01*
X134522640Y-52187341D01*
X134701735Y-52315659D01*
X134893372Y-52452189D01*
X135010911Y-52535571D01*
X135209051Y-52676091D01*
X135396689Y-52809513D01*
X135571018Y-52933821D01*
X135729230Y-53046996D01*
X135868521Y-53147020D01*
X135986081Y-53231874D01*
X136079104Y-53299539D01*
X136144784Y-53347998D01*
X136180312Y-53375233D01*
X136185998Y-53380508D01*
X136169352Y-53395775D01*
X136123193Y-53431276D01*
X136052872Y-53483234D01*
X135963743Y-53547869D01*
X135861156Y-53621406D01*
X135750464Y-53700067D01*
X135637018Y-53780074D01*
X135526172Y-53857649D01*
X135423276Y-53929016D01*
X135333684Y-53990397D01*
X135262746Y-54038015D01*
X135215815Y-54068091D01*
X135199228Y-54076967D01*
X135177694Y-54066170D01*
X135124603Y-54032777D01*
X135042858Y-53978780D01*
X134935363Y-53906171D01*
X134805019Y-53816943D01*
X134654731Y-53713088D01*
X134487400Y-53596599D01*
X134305931Y-53469468D01*
X134113225Y-53333688D01*
X134013042Y-53262806D01*
X133815586Y-53123247D01*
X133627779Y-52991162D01*
X133452541Y-52868563D01*
X133292793Y-52757465D01*
X133151458Y-52659879D01*
X133031457Y-52577818D01*
X132935710Y-52513296D01*
X132867139Y-52468325D01*
X132828665Y-52444917D01*
X132821648Y-52441929D01*
X132799196Y-52453874D01*
X132745188Y-52488367D01*
X132662548Y-52543396D01*
X132554200Y-52616948D01*
X132423068Y-52707009D01*
X132272075Y-52811569D01*
X132104146Y-52928613D01*
X131922205Y-53056129D01*
X131729176Y-53192104D01*
X131631188Y-53261381D01*
X131433940Y-53400691D01*
X131246479Y-53532486D01*
X131071712Y-53654761D01*
X130912547Y-53765510D01*
X130771890Y-53862728D01*
X130652650Y-53944409D01*
X130557734Y-54008548D01*
X130490050Y-54053138D01*
X130452504Y-54076174D01*
X130445964Y-54078985D01*
X130421893Y-54066609D01*
X130368414Y-54032728D01*
X130290417Y-53980649D01*
X130192792Y-53913681D01*
X130080427Y-53835133D01*
X129973917Y-53759546D01*
X129529417Y-53441956D01*
X129523559Y-53750812D01*
X129517702Y-54059667D01*
X128365250Y-54057005D01*
X127127000Y-52592126D01*
X125888750Y-51127248D01*
X125883315Y-52593457D01*
X125877879Y-54059667D01*
X124651453Y-54059667D01*
X124639917Y-50574109D01*
X124580008Y-50487671D01*
X124486382Y-50384069D01*
X124359192Y-50297013D01*
X124245742Y-50243367D01*
X124221095Y-50233614D01*
X124196211Y-50225305D01*
X124167612Y-50218303D01*
X124131819Y-50212473D01*
X124085354Y-50207679D01*
X124024741Y-50203786D01*
X123946500Y-50200658D01*
X123847155Y-50198160D01*
X123723228Y-50196155D01*
X123571240Y-50194508D01*
X123387714Y-50193083D01*
X123169172Y-50191745D01*
X122912137Y-50190358D01*
X122883084Y-50190206D01*
X122604974Y-50188885D01*
X122365694Y-50188171D01*
X122161741Y-50188241D01*
X121989614Y-50189274D01*
X121845811Y-50191447D01*
X121726829Y-50194937D01*
X121629168Y-50199921D01*
X121549324Y-50206579D01*
X121483797Y-50215086D01*
X121429083Y-50225620D01*
X121381683Y-50238360D01*
X121338093Y-50253482D01*
X121295934Y-50270683D01*
X121209702Y-50318699D01*
X121122149Y-50385471D01*
X121046841Y-50459312D01*
X120997880Y-50527483D01*
X120973061Y-50611102D01*
X120970150Y-50708866D01*
X120989126Y-50798710D01*
X120998169Y-50819076D01*
X121062224Y-50905389D01*
X121159255Y-50987954D01*
X121279997Y-51060242D01*
X121415184Y-51115726D01*
X121422584Y-51118076D01*
X121472003Y-51126904D01*
X121561758Y-51135016D01*
X121692261Y-51142432D01*
X121863929Y-51149172D01*
X122077176Y-51155257D01*
X122279834Y-51159702D01*
X122482916Y-51163803D01*
X122648865Y-51167592D01*
X122782876Y-51171438D01*
X122890144Y-51175708D01*
X122975863Y-51180769D01*
X123045228Y-51186988D01*
X123103433Y-51194734D01*
X123155675Y-51204372D01*
X123207147Y-51216272D01*
X123255062Y-51228674D01*
X123548772Y-51323385D01*
X123808489Y-51442606D01*
X124035053Y-51586791D01*
X124225304Y-51752314D01*
X124378662Y-51934737D01*
X124491980Y-52127711D01*
X124565269Y-52328079D01*
X124598542Y-52532685D01*
X124591811Y-52738375D01*
X124545089Y-52941992D01*
X124458387Y-53140380D01*
X124331718Y-53330383D01*
X124218659Y-53457328D01*
X124033963Y-53620640D01*
X123830083Y-53756365D01*
X123601366Y-53867508D01*
X123342161Y-53957075D01*
X123214911Y-53990934D01*
X122988917Y-54046284D01*
X121427875Y-54054214D01*
X119866834Y-54062144D01*
X119866834Y-53977775D01*
X119858814Y-53911058D01*
X119829211Y-53865167D01*
X119812143Y-53850386D01*
X119774966Y-53809547D01*
X119774191Y-53780058D01*
X119792477Y-53756223D01*
X119833854Y-53705459D01*
X119893939Y-53633044D01*
X119968346Y-53544255D01*
X120052691Y-53444368D01*
X120073215Y-53420167D01*
X120355501Y-53087584D01*
X121608709Y-53081380D01*
X121878505Y-53080072D01*
X122109493Y-53078799D01*
X122305193Y-53077221D01*
X122469130Y-53075002D01*
X122604825Y-53071801D01*
X122715801Y-53067282D01*
X122805580Y-53061105D01*
X122877686Y-53052933D01*
X122935640Y-53042426D01*
X122982965Y-53029248D01*
X123023184Y-53013058D01*
X123059820Y-52993520D01*
X123096394Y-52970294D01*
X123136429Y-52943042D01*
X123150765Y-52933269D01*
X123259963Y-52840458D01*
X123329234Y-52740139D01*
X123359525Y-52635819D01*
X123351781Y-52531005D01*
X123306950Y-52429206D01*
X123225979Y-52333930D01*
X123109814Y-52248684D01*
X122959403Y-52176978D01*
X122945194Y-52171665D01*
X122909838Y-52159534D01*
X122873291Y-52149569D01*
X122830801Y-52141447D01*
X122777614Y-52134843D01*
X122708980Y-52129435D01*
X122620147Y-52124899D01*
X122506363Y-52120911D01*
X122362875Y-52117149D01*
X122184932Y-52113290D01*
X122047000Y-52110545D01*
X121826987Y-52105983D01*
X121643841Y-52101231D01*
X121492100Y-52095622D01*
X121366300Y-52088490D01*
X121260978Y-52079166D01*
X121170671Y-52066985D01*
X121089915Y-52051279D01*
X121013249Y-52031381D01*
X120935208Y-52006625D01*
X120850329Y-51976343D01*
X120802916Y-51958657D01*
X120557144Y-51849670D01*
X120339526Y-51719366D01*
X120151882Y-51570308D01*
X119996029Y-51405060D01*
X119873786Y-51226186D01*
X119786971Y-51036248D01*
X119737402Y-50837811D01*
X119726899Y-50633437D01*
X119728213Y-50622897D01*
X120061691Y-50622897D01*
X120062709Y-50767014D01*
X120085822Y-50892859D01*
X120135205Y-51014967D01*
X120210498Y-51141116D01*
X120333313Y-51290221D01*
X120492009Y-51426543D01*
X120681177Y-51546656D01*
X120895411Y-51647133D01*
X121129305Y-51724547D01*
X121132432Y-51725382D01*
X121188408Y-51739832D01*
X121240252Y-51751626D01*
X121293223Y-51761142D01*
X121352581Y-51768758D01*
X121423585Y-51774854D01*
X121511494Y-51779808D01*
X121621568Y-51783998D01*
X121759066Y-51787803D01*
X121929248Y-51791603D01*
X122099917Y-51795039D01*
X122317602Y-51799600D01*
X122497969Y-51804342D01*
X122646034Y-51809913D01*
X122766808Y-51816961D01*
X122865306Y-51826131D01*
X122946542Y-51838072D01*
X123015530Y-51853430D01*
X123077282Y-51872853D01*
X123136812Y-51896988D01*
X123199135Y-51926481D01*
X123227188Y-51940540D01*
X123393470Y-52045056D01*
X123524169Y-52172400D01*
X123615996Y-52315617D01*
X123671506Y-52472674D01*
X123686326Y-52632348D01*
X123660363Y-52789450D01*
X123626213Y-52878124D01*
X123552514Y-52995405D01*
X123447665Y-53109626D01*
X123322247Y-53210589D01*
X123214793Y-53274670D01*
X123161526Y-53301050D01*
X123111862Y-53323540D01*
X123062041Y-53342453D01*
X123008304Y-53358103D01*
X122946891Y-53370803D01*
X122874045Y-53380867D01*
X122786006Y-53388610D01*
X122679014Y-53394343D01*
X122549311Y-53398383D01*
X122393138Y-53401041D01*
X122206735Y-53402632D01*
X121986344Y-53403469D01*
X121728205Y-53403867D01*
X121666000Y-53403926D01*
X120512417Y-53404978D01*
X120380125Y-53562487D01*
X120323624Y-53630826D01*
X120279156Y-53686645D01*
X120252650Y-53722387D01*
X120247834Y-53731081D01*
X120268268Y-53734335D01*
X120326648Y-53737039D01*
X120418590Y-53739213D01*
X120539710Y-53740876D01*
X120685625Y-53742048D01*
X120851952Y-53742747D01*
X121034305Y-53742994D01*
X121228302Y-53742807D01*
X121429559Y-53742206D01*
X121633693Y-53741210D01*
X121836319Y-53739839D01*
X122033053Y-53738111D01*
X122219513Y-53736046D01*
X122391314Y-53733664D01*
X122544073Y-53730984D01*
X122673406Y-53728025D01*
X122774930Y-53724806D01*
X122844260Y-53721347D01*
X122865422Y-53719540D01*
X123121937Y-53676158D01*
X123363455Y-53606237D01*
X123585699Y-53512267D01*
X123784391Y-53396743D01*
X123955255Y-53262158D01*
X124094012Y-53111005D01*
X124196385Y-52945777D01*
X124197683Y-52943076D01*
X124245754Y-52802727D01*
X124267766Y-52646345D01*
X124262939Y-52489441D01*
X124230498Y-52347526D01*
X124227876Y-52340409D01*
X124138789Y-52162946D01*
X124011433Y-52002022D01*
X123845473Y-51857315D01*
X123640574Y-51728501D01*
X123539250Y-51677367D01*
X123443866Y-51633294D01*
X123357723Y-51596802D01*
X123275444Y-51567078D01*
X123191651Y-51543310D01*
X123100967Y-51524685D01*
X122998015Y-51510390D01*
X122877416Y-51499612D01*
X122733794Y-51491539D01*
X122561771Y-51485357D01*
X122355970Y-51480254D01*
X122216334Y-51477417D01*
X122001622Y-51473066D01*
X121824190Y-51468680D01*
X121678987Y-51463593D01*
X121560965Y-51457135D01*
X121465072Y-51448639D01*
X121386262Y-51437437D01*
X121319482Y-51422861D01*
X121259685Y-51404243D01*
X121201820Y-51380915D01*
X121140838Y-51352209D01*
X121094500Y-51329016D01*
X120939985Y-51231684D01*
X120815173Y-51113559D01*
X120722096Y-50979443D01*
X120662785Y-50834140D01*
X120639271Y-50682453D01*
X120653585Y-50529185D01*
X120699724Y-50395467D01*
X120770481Y-50282299D01*
X120870302Y-50170622D01*
X120987203Y-50072276D01*
X121092988Y-50007016D01*
X121171969Y-49972607D01*
X121270615Y-49937312D01*
X121364499Y-49909615D01*
X121400038Y-49901071D01*
X121436974Y-49893803D01*
X121478877Y-49887709D01*
X121529321Y-49882688D01*
X121591875Y-49878640D01*
X121670113Y-49875462D01*
X121767607Y-49873053D01*
X121887926Y-49871313D01*
X122034645Y-49870140D01*
X122211333Y-49869432D01*
X122421563Y-49869089D01*
X122668908Y-49869010D01*
X122796511Y-49869034D01*
X123079114Y-49869198D01*
X123322903Y-49869707D01*
X123531398Y-49870848D01*
X123708119Y-49872910D01*
X123856585Y-49876182D01*
X123980315Y-49880950D01*
X124082831Y-49887504D01*
X124167650Y-49896131D01*
X124238293Y-49907120D01*
X124298279Y-49920758D01*
X124351129Y-49937334D01*
X124400361Y-49957136D01*
X124449495Y-49980452D01*
X124502051Y-50007570D01*
X124504491Y-50008852D01*
X124665111Y-50111856D01*
X124795278Y-50234553D01*
X124889986Y-50372056D01*
X124902779Y-50397784D01*
X124957417Y-50514250D01*
X124963220Y-52128209D01*
X124969022Y-53742167D01*
X125560422Y-53742167D01*
X125571250Y-50244035D01*
X128533024Y-53742167D01*
X129201334Y-53742167D01*
X129201385Y-52554651D01*
X129522480Y-52554651D01*
X129522898Y-52745934D01*
X129523831Y-52904511D01*
X129525312Y-53032787D01*
X129527374Y-53133169D01*
X129530051Y-53208063D01*
X129533375Y-53259874D01*
X129537379Y-53291010D01*
X129542096Y-53303877D01*
X129545155Y-53303930D01*
X129566656Y-53288468D01*
X129619760Y-53250680D01*
X129701496Y-53192670D01*
X129808893Y-53116541D01*
X129938982Y-53024398D01*
X130088792Y-52918344D01*
X130255352Y-52800483D01*
X130435692Y-52672919D01*
X130626841Y-52537755D01*
X130689261Y-52493627D01*
X130881972Y-52356992D01*
X131063656Y-52227390D01*
X131231483Y-52106890D01*
X131382620Y-51997565D01*
X131514238Y-51901483D01*
X131623506Y-51820715D01*
X131707592Y-51757332D01*
X131763666Y-51713405D01*
X131788897Y-51691003D01*
X131789928Y-51688639D01*
X131767034Y-51671410D01*
X131713265Y-51632542D01*
X131632352Y-51574665D01*
X131528024Y-51500407D01*
X131404014Y-51412399D01*
X131264050Y-51313270D01*
X131111863Y-51205649D01*
X130951184Y-51092167D01*
X130785743Y-50975452D01*
X130619270Y-50858135D01*
X130455495Y-50742844D01*
X130298150Y-50632209D01*
X130150964Y-50528860D01*
X130017668Y-50435426D01*
X129901991Y-50354537D01*
X129807665Y-50288822D01*
X129738420Y-50240911D01*
X129697986Y-50213434D01*
X129689469Y-50208031D01*
X129632686Y-50191475D01*
X129586578Y-50190154D01*
X129529417Y-50196750D01*
X129523988Y-51760497D01*
X129523058Y-52064338D01*
X129522545Y-52328254D01*
X129522480Y-52554651D01*
X129201385Y-52554651D01*
X129201413Y-51916542D01*
X129201451Y-51596432D01*
X129201576Y-51315926D01*
X129201848Y-51072292D01*
X129202327Y-50862801D01*
X129203071Y-50684721D01*
X129204142Y-50535323D01*
X129205598Y-50411877D01*
X129207498Y-50311652D01*
X129209904Y-50231917D01*
X129212875Y-50169942D01*
X129216469Y-50122998D01*
X129220748Y-50088353D01*
X129225770Y-50063277D01*
X129231596Y-50045041D01*
X129238285Y-50030913D01*
X129242810Y-50023153D01*
X129297522Y-49955862D01*
X129369381Y-49911628D01*
X129466067Y-49887306D01*
X129592917Y-49879754D01*
X129707009Y-49884040D01*
X129789922Y-49898725D01*
X129836334Y-49916752D01*
X129867535Y-49935975D01*
X129928681Y-49976760D01*
X130016435Y-50036739D01*
X130127459Y-50113540D01*
X130258415Y-50204796D01*
X130405966Y-50308135D01*
X130566773Y-50421188D01*
X130737499Y-50541586D01*
X130914806Y-50666959D01*
X131095357Y-50794938D01*
X131275813Y-50923152D01*
X131452837Y-51049231D01*
X131623091Y-51170808D01*
X131783238Y-51285510D01*
X131929940Y-51390970D01*
X132059858Y-51484817D01*
X132169655Y-51564682D01*
X132255994Y-51628195D01*
X132315537Y-51672986D01*
X132344946Y-51696685D01*
X132347509Y-51699584D01*
X132331693Y-51715069D01*
X132284039Y-51752829D01*
X132207359Y-51810815D01*
X132104463Y-51886977D01*
X131978162Y-51979267D01*
X131831267Y-52085637D01*
X131666590Y-52204039D01*
X131486941Y-52332422D01*
X131295131Y-52468740D01*
X131190172Y-52543031D01*
X130992981Y-52682628D01*
X130806308Y-52815198D01*
X130632981Y-52938707D01*
X130475825Y-53051122D01*
X130337668Y-53150408D01*
X130221335Y-53234531D01*
X130129653Y-53301456D01*
X130065449Y-53349150D01*
X130031548Y-53375579D01*
X130026834Y-53380258D01*
X130043191Y-53398079D01*
X130086698Y-53433129D01*
X130149009Y-53479566D01*
X130221778Y-53531550D01*
X130296660Y-53583242D01*
X130365307Y-53628802D01*
X130419374Y-53662389D01*
X130450514Y-53678163D01*
X130453288Y-53678667D01*
X130473895Y-53666731D01*
X130526104Y-53632262D01*
X130607021Y-53577272D01*
X130713757Y-53503771D01*
X130843418Y-53413768D01*
X130993112Y-53309276D01*
X131159949Y-53192303D01*
X131341035Y-53064861D01*
X131533480Y-52928960D01*
X131632001Y-52859214D01*
X131829287Y-52719778D01*
X132016926Y-52587817D01*
X132191996Y-52465347D01*
X132351571Y-52354382D01*
X132492727Y-52256938D01*
X132612539Y-52175028D01*
X132708084Y-52110667D01*
X132776436Y-52065870D01*
X132814671Y-52042651D01*
X132821516Y-52039762D01*
X132843987Y-52051715D01*
X132898002Y-52086229D01*
X132980637Y-52141291D01*
X133088968Y-52214886D01*
X133220070Y-52304998D01*
X133371018Y-52409615D01*
X133538889Y-52526720D01*
X133720758Y-52654299D01*
X133913700Y-52790338D01*
X134011031Y-52859214D01*
X134208065Y-52998570D01*
X134395210Y-53130459D01*
X134569569Y-53252872D01*
X134728247Y-53363797D01*
X134868347Y-53461222D01*
X134986972Y-53543138D01*
X135081227Y-53607532D01*
X135148214Y-53652394D01*
X135185039Y-53675714D01*
X135191211Y-53678667D01*
X135216933Y-53667136D01*
X135267111Y-53636474D01*
X135333399Y-53592580D01*
X135407449Y-53541350D01*
X135480912Y-53488683D01*
X135545441Y-53440476D01*
X135592689Y-53402627D01*
X135614307Y-53381034D01*
X135614834Y-53379377D01*
X135597994Y-53364948D01*
X135549361Y-53328191D01*
X135471762Y-53271139D01*
X135368023Y-53195827D01*
X135240972Y-53104288D01*
X135093436Y-52998555D01*
X134928242Y-52880664D01*
X134748218Y-52752646D01*
X134556189Y-52616537D01*
X134451623Y-52542597D01*
X134254537Y-52402982D01*
X134068136Y-52270219D01*
X133895230Y-52146357D01*
X133738630Y-52033446D01*
X133601149Y-51933531D01*
X133485598Y-51848663D01*
X133394788Y-51780890D01*
X133331531Y-51732259D01*
X133298639Y-51704818D01*
X133294473Y-51699584D01*
X133312326Y-51684171D01*
X133362026Y-51646337D01*
X133440830Y-51588063D01*
X133545990Y-51511332D01*
X133674764Y-51418124D01*
X133824406Y-51310421D01*
X133992171Y-51190205D01*
X134175315Y-51059456D01*
X134371092Y-50920158D01*
X134547553Y-50794976D01*
X134751917Y-50650020D01*
X134945971Y-50512032D01*
X135126978Y-50382982D01*
X135292199Y-50264838D01*
X135438895Y-50159569D01*
X135564327Y-50069144D01*
X135665759Y-49995531D01*
X135740451Y-49940699D01*
X135785664Y-49906617D01*
X135798886Y-49895393D01*
X135784247Y-49878260D01*
X135742248Y-49843724D01*
X135681000Y-49797484D01*
X135608616Y-49745243D01*
X135533208Y-49692700D01*
X135462888Y-49645556D01*
X135405767Y-49609514D01*
X135369958Y-49590273D01*
X135362554Y-49588747D01*
X135343693Y-49601640D01*
X135293048Y-49637078D01*
X135213367Y-49693122D01*
X135107398Y-49767829D01*
X134977890Y-49859259D01*
X134827590Y-49965470D01*
X134659248Y-50084522D01*
X134475610Y-50214473D01*
X134279426Y-50353382D01*
X134096404Y-50483039D01*
X133891199Y-50628248D01*
X133695886Y-50766075D01*
X133513234Y-50894590D01*
X133346011Y-51011863D01*
X133196986Y-51115964D01*
X133068928Y-51204963D01*
X132964604Y-51276931D01*
X132886783Y-51329937D01*
X132838234Y-51362052D01*
X132821894Y-51371500D01*
X132801629Y-51359547D01*
X132749685Y-51324991D01*
X132668864Y-51269788D01*
X132561969Y-51195893D01*
X132431802Y-51105262D01*
X132281165Y-50999849D01*
X132112861Y-50881611D01*
X131929693Y-50752503D01*
X131734463Y-50614480D01*
X131578073Y-50503637D01*
X131332721Y-50329457D01*
X131119087Y-50177929D01*
X130934196Y-50047449D01*
X130775072Y-49936413D01*
X130638737Y-49843218D01*
X130522217Y-49766260D01*
X130422535Y-49703935D01*
X130336714Y-49654639D01*
X130261778Y-49616768D01*
X130194751Y-49588719D01*
X130132657Y-49568887D01*
X130072519Y-49555669D01*
X130011362Y-49547461D01*
X129946208Y-49542659D01*
X129874083Y-49539659D01*
X129792008Y-49536858D01*
X129783417Y-49536537D01*
X129530060Y-49533703D01*
X129313250Y-49546256D01*
X129129860Y-49574815D01*
X128976762Y-49619998D01*
X128850829Y-49682424D01*
X128778737Y-49735363D01*
X128747512Y-49761466D01*
X128720377Y-49784654D01*
X128697043Y-49807930D01*
X128677226Y-49834294D01*
X128660636Y-49866747D01*
X128646988Y-49908289D01*
X128635994Y-49961923D01*
X128627368Y-50030648D01*
X128620822Y-50117465D01*
X128616069Y-50225376D01*
X128612823Y-50357382D01*
X128610795Y-50516482D01*
X128609700Y-50705679D01*
X128609251Y-50927972D01*
X128609159Y-51186363D01*
X128609139Y-51483853D01*
X128609132Y-51508676D01*
X128608667Y-53032269D01*
X128547451Y-52969176D01*
X128525244Y-52944254D01*
X128477682Y-52889320D01*
X128406738Y-52806691D01*
X128314386Y-52698687D01*
X128202598Y-52567625D01*
X128073348Y-52415824D01*
X127928609Y-52245602D01*
X127770355Y-52059277D01*
X127600559Y-51859167D01*
X127421193Y-51647591D01*
X127234232Y-51426867D01*
X127160485Y-51339750D01*
X126929475Y-51067302D01*
X126715475Y-50815891D01*
X126519560Y-50586755D01*
X126342807Y-50381131D01*
X126186294Y-50200258D01*
X126051097Y-50045372D01*
X125938293Y-49917711D01*
X125848958Y-49818514D01*
X125784169Y-49749017D01*
X125745003Y-49710458D01*
X125738082Y-49704873D01*
X125664635Y-49660916D01*
X125572828Y-49616891D01*
X125500507Y-49588751D01*
X125359584Y-49541173D01*
X123592167Y-49534291D01*
X123240554Y-49533228D01*
X122916332Y-49532870D01*
X122621340Y-49533204D01*
X122357411Y-49534215D01*
X122126382Y-49535889D01*
X121930089Y-49538214D01*
X121770368Y-49541175D01*
X121649054Y-49544758D01*
X121567984Y-49548949D01*
X121560167Y-49549566D01*
X121258820Y-49590096D01*
X120988345Y-49658855D01*
X120747691Y-49756266D01*
X120535809Y-49882756D01*
X120352939Y-50037455D01*
X120237459Y-50163284D01*
X120155200Y-50280123D01*
X120101367Y-50397610D01*
X120071166Y-50525382D01*
X120061691Y-50622897D01*
X119728213Y-50622897D01*
X119747225Y-50470416D01*
X119812963Y-50250679D01*
G37*
X119812963Y-50250679D02*
X119916728Y-50047316D01*
X120056862Y-49861957D01*
X120231711Y-49696228D01*
X120439617Y-49551758D01*
X120678926Y-49430177D01*
X120883351Y-49353246D01*
X120948194Y-49332076D01*
X121007012Y-49313335D01*
X121062678Y-49296874D01*
X121118062Y-49282545D01*
X121176037Y-49270201D01*
X121239475Y-49259694D01*
X121311248Y-49250876D01*
X121394228Y-49243600D01*
X121491286Y-49237716D01*
X121605296Y-49233079D01*
X121739127Y-49229539D01*
X121895654Y-49226949D01*
X122077746Y-49225162D01*
X122288278Y-49224028D01*
X122530119Y-49223402D01*
X122806144Y-49223134D01*
X123119222Y-49223077D01*
X123412250Y-49223084D01*
X123748642Y-49223121D01*
X124045396Y-49223267D01*
X124305207Y-49223570D01*
X124530772Y-49224080D01*
X124724787Y-49224846D01*
X124889945Y-49225917D01*
X125028944Y-49227342D01*
X125144479Y-49229170D01*
X125239245Y-49231451D01*
X125315938Y-49234234D01*
X125377253Y-49237569D01*
X125425887Y-49241504D01*
X125464534Y-49246088D01*
X125495890Y-49251371D01*
X125522651Y-49257402D01*
X125539500Y-49261928D01*
X125674967Y-49309223D01*
X125811597Y-49372679D01*
X125935547Y-49444998D01*
X126032976Y-49518879D01*
X126041176Y-49526499D01*
X126067572Y-49554735D01*
X126118993Y-49612691D01*
X126193173Y-49697724D01*
X126287844Y-49807193D01*
X126400740Y-49938455D01*
X126529595Y-50088867D01*
X126672142Y-50255789D01*
X126826115Y-50436577D01*
X126989246Y-50628589D01*
X127159270Y-50829184D01*
X127201634Y-50879238D01*
X128280584Y-52154393D01*
X128291167Y-51006238D01*
X128293507Y-50756519D01*
X128295654Y-50545515D01*
X128297774Y-50369609D01*
X128300033Y-50225183D01*
X128302595Y-50108621D01*
X128305628Y-50016305D01*
X128309295Y-49944619D01*
X128313763Y-49889945D01*
X128319197Y-49848666D01*
X128325763Y-49817166D01*
X128333627Y-49791827D01*
X128342953Y-49769033D01*
X128348336Y-49757201D01*
X128409985Y-49657137D01*
X128499962Y-49553591D01*
X128606871Y-49457719D01*
X128719318Y-49380673D01*
X128749831Y-49364201D01*
X128839139Y-49321541D01*
X128922414Y-49288455D01*
X129007023Y-49263750D01*
X129100332Y-49246235D01*
X129209708Y-49234715D01*
X129342518Y-49227999D01*
X129506128Y-49224895D01*
X129614084Y-49224289D01*
X129802708Y-49224949D01*
X129955983Y-49228671D01*
X130080845Y-49236446D01*
X130184226Y-49249265D01*
X130273062Y-49268118D01*
X130354287Y-49293997D01*
X130434834Y-49327892D01*
X130475489Y-49347398D01*
X130516291Y-49371285D01*
X130588129Y-49417508D01*
X130687623Y-49483747D01*
X130811398Y-49567681D01*
X130956074Y-49666992D01*
X131118276Y-49779358D01*
X131294625Y-49902459D01*
X131481744Y-50033976D01*
X131676255Y-50171589D01*
X131704236Y-50191459D01*
X131895727Y-50327264D01*
X132077254Y-50455535D01*
X132245843Y-50574202D01*
X132398522Y-50681196D01*
X132532321Y-50774446D01*
X132644267Y-50851883D01*
X132731388Y-50911438D01*
X132790713Y-50951040D01*
X132819269Y-50968621D01*
X132821220Y-50969334D01*
X132841686Y-50957377D01*
X132893864Y-50922795D01*
X132974983Y-50867520D01*
X133082270Y-50793483D01*
X133212956Y-50702615D01*
X133364268Y-50596850D01*
X133533437Y-50478117D01*
X133717690Y-50348350D01*
X133914256Y-50209480D01*
X134096781Y-50080170D01*
X134302135Y-49934904D01*
X134497875Y-49797222D01*
X134681207Y-49669043D01*
X134849336Y-49552281D01*
X134999469Y-49448855D01*
X135128810Y-49360680D01*
X135234567Y-49289675D01*
X135313943Y-49237755D01*
X135364146Y-49206837D01*
X135382000Y-49198531D01*
X135410998Y-49213308D01*
X135466755Y-49248547D01*
X135544082Y-49300483D01*
X135637790Y-49365355D01*
X135742690Y-49439398D01*
X135853592Y-49518849D01*
X135965308Y-49599945D01*
X136072647Y-49678921D01*
X136170422Y-49752016D01*
X136253442Y-49815465D01*
X136316518Y-49865506D01*
X136354462Y-49898374D01*
X136363053Y-49910022D01*
X136343200Y-49924567D01*
X136291543Y-49961535D01*
X136210872Y-50018949D01*
X136103977Y-50094832D01*
X135973649Y-50187209D01*
X135822678Y-50294101D01*
X135653854Y-50413533D01*
X135469966Y-50543526D01*
X135273807Y-50682106D01*
X135106834Y-50800000D01*
X134902785Y-50944074D01*
X134708770Y-51081139D01*
X134527572Y-51209221D01*
X134361979Y-51326349D01*
X134214776Y-51430549D01*
X134088748Y-51519848D01*
X133986682Y-51592275D01*
X133911363Y-51645856D01*
X133865578Y-51678619D01*
X133852036Y-51688557D01*
X133866042Y-51702891D01*
X133911914Y-51739561D01*
X133986890Y-51796550D01*
X134088212Y-51871840D01*
X134213118Y-51963414D01*
X134358847Y-52069253D01*
X134522640Y-52187341D01*
X134701735Y-52315659D01*
X134893372Y-52452189D01*
X135010911Y-52535571D01*
X135209051Y-52676091D01*
X135396689Y-52809513D01*
X135571018Y-52933821D01*
X135729230Y-53046996D01*
X135868521Y-53147020D01*
X135986081Y-53231874D01*
X136079104Y-53299539D01*
X136144784Y-53347998D01*
X136180312Y-53375233D01*
X136185998Y-53380508D01*
X136169352Y-53395775D01*
X136123193Y-53431276D01*
X136052872Y-53483234D01*
X135963743Y-53547869D01*
X135861156Y-53621406D01*
X135750464Y-53700067D01*
X135637018Y-53780074D01*
X135526172Y-53857649D01*
X135423276Y-53929016D01*
X135333684Y-53990397D01*
X135262746Y-54038015D01*
X135215815Y-54068091D01*
X135199228Y-54076967D01*
X135177694Y-54066170D01*
X135124603Y-54032777D01*
X135042858Y-53978780D01*
X134935363Y-53906171D01*
X134805019Y-53816943D01*
X134654731Y-53713088D01*
X134487400Y-53596599D01*
X134305931Y-53469468D01*
X134113225Y-53333688D01*
X134013042Y-53262806D01*
X133815586Y-53123247D01*
X133627779Y-52991162D01*
X133452541Y-52868563D01*
X133292793Y-52757465D01*
X133151458Y-52659879D01*
X133031457Y-52577818D01*
X132935710Y-52513296D01*
X132867139Y-52468325D01*
X132828665Y-52444917D01*
X132821648Y-52441929D01*
X132799196Y-52453874D01*
X132745188Y-52488367D01*
X132662548Y-52543396D01*
X132554200Y-52616948D01*
X132423068Y-52707009D01*
X132272075Y-52811569D01*
X132104146Y-52928613D01*
X131922205Y-53056129D01*
X131729176Y-53192104D01*
X131631188Y-53261381D01*
X131433940Y-53400691D01*
X131246479Y-53532486D01*
X131071712Y-53654761D01*
X130912547Y-53765510D01*
X130771890Y-53862728D01*
X130652650Y-53944409D01*
X130557734Y-54008548D01*
X130490050Y-54053138D01*
X130452504Y-54076174D01*
X130445964Y-54078985D01*
X130421893Y-54066609D01*
X130368414Y-54032728D01*
X130290417Y-53980649D01*
X130192792Y-53913681D01*
X130080427Y-53835133D01*
X129973917Y-53759546D01*
X129529417Y-53441956D01*
X129523559Y-53750812D01*
X129517702Y-54059667D01*
X128365250Y-54057005D01*
X127127000Y-52592126D01*
X125888750Y-51127248D01*
X125883315Y-52593457D01*
X125877879Y-54059667D01*
X124651453Y-54059667D01*
X124639917Y-50574109D01*
X124580008Y-50487671D01*
X124486382Y-50384069D01*
X124359192Y-50297013D01*
X124245742Y-50243367D01*
X124221095Y-50233614D01*
X124196211Y-50225305D01*
X124167612Y-50218303D01*
X124131819Y-50212473D01*
X124085354Y-50207679D01*
X124024741Y-50203786D01*
X123946500Y-50200658D01*
X123847155Y-50198160D01*
X123723228Y-50196155D01*
X123571240Y-50194508D01*
X123387714Y-50193083D01*
X123169172Y-50191745D01*
X122912137Y-50190358D01*
X122883084Y-50190206D01*
X122604974Y-50188885D01*
X122365694Y-50188171D01*
X122161741Y-50188241D01*
X121989614Y-50189274D01*
X121845811Y-50191447D01*
X121726829Y-50194937D01*
X121629168Y-50199921D01*
X121549324Y-50206579D01*
X121483797Y-50215086D01*
X121429083Y-50225620D01*
X121381683Y-50238360D01*
X121338093Y-50253482D01*
X121295934Y-50270683D01*
X121209702Y-50318699D01*
X121122149Y-50385471D01*
X121046841Y-50459312D01*
X120997880Y-50527483D01*
X120973061Y-50611102D01*
X120970150Y-50708866D01*
X120989126Y-50798710D01*
X120998169Y-50819076D01*
X121062224Y-50905389D01*
X121159255Y-50987954D01*
X121279997Y-51060242D01*
X121415184Y-51115726D01*
X121422584Y-51118076D01*
X121472003Y-51126904D01*
X121561758Y-51135016D01*
X121692261Y-51142432D01*
X121863929Y-51149172D01*
X122077176Y-51155257D01*
X122279834Y-51159702D01*
X122482916Y-51163803D01*
X122648865Y-51167592D01*
X122782876Y-51171438D01*
X122890144Y-51175708D01*
X122975863Y-51180769D01*
X123045228Y-51186988D01*
X123103433Y-51194734D01*
X123155675Y-51204372D01*
X123207147Y-51216272D01*
X123255062Y-51228674D01*
X123548772Y-51323385D01*
X123808489Y-51442606D01*
X124035053Y-51586791D01*
X124225304Y-51752314D01*
X124378662Y-51934737D01*
X124491980Y-52127711D01*
X124565269Y-52328079D01*
X124598542Y-52532685D01*
X124591811Y-52738375D01*
X124545089Y-52941992D01*
X124458387Y-53140380D01*
X124331718Y-53330383D01*
X124218659Y-53457328D01*
X124033963Y-53620640D01*
X123830083Y-53756365D01*
X123601366Y-53867508D01*
X123342161Y-53957075D01*
X123214911Y-53990934D01*
X122988917Y-54046284D01*
X121427875Y-54054214D01*
X119866834Y-54062144D01*
X119866834Y-53977775D01*
X119858814Y-53911058D01*
X119829211Y-53865167D01*
X119812143Y-53850386D01*
X119774966Y-53809547D01*
X119774191Y-53780058D01*
X119792477Y-53756223D01*
X119833854Y-53705459D01*
X119893939Y-53633044D01*
X119968346Y-53544255D01*
X120052691Y-53444368D01*
X120073215Y-53420167D01*
X120355501Y-53087584D01*
X121608709Y-53081380D01*
X121878505Y-53080072D01*
X122109493Y-53078799D01*
X122305193Y-53077221D01*
X122469130Y-53075002D01*
X122604825Y-53071801D01*
X122715801Y-53067282D01*
X122805580Y-53061105D01*
X122877686Y-53052933D01*
X122935640Y-53042426D01*
X122982965Y-53029248D01*
X123023184Y-53013058D01*
X123059820Y-52993520D01*
X123096394Y-52970294D01*
X123136429Y-52943042D01*
X123150765Y-52933269D01*
X123259963Y-52840458D01*
X123329234Y-52740139D01*
X123359525Y-52635819D01*
X123351781Y-52531005D01*
X123306950Y-52429206D01*
X123225979Y-52333930D01*
X123109814Y-52248684D01*
X122959403Y-52176978D01*
X122945194Y-52171665D01*
X122909838Y-52159534D01*
X122873291Y-52149569D01*
X122830801Y-52141447D01*
X122777614Y-52134843D01*
X122708980Y-52129435D01*
X122620147Y-52124899D01*
X122506363Y-52120911D01*
X122362875Y-52117149D01*
X122184932Y-52113290D01*
X122047000Y-52110545D01*
X121826987Y-52105983D01*
X121643841Y-52101231D01*
X121492100Y-52095622D01*
X121366300Y-52088490D01*
X121260978Y-52079166D01*
X121170671Y-52066985D01*
X121089915Y-52051279D01*
X121013249Y-52031381D01*
X120935208Y-52006625D01*
X120850329Y-51976343D01*
X120802916Y-51958657D01*
X120557144Y-51849670D01*
X120339526Y-51719366D01*
X120151882Y-51570308D01*
X119996029Y-51405060D01*
X119873786Y-51226186D01*
X119786971Y-51036248D01*
X119737402Y-50837811D01*
X119726899Y-50633437D01*
X119728213Y-50622897D01*
X120061691Y-50622897D01*
X120062709Y-50767014D01*
X120085822Y-50892859D01*
X120135205Y-51014967D01*
X120210498Y-51141116D01*
X120333313Y-51290221D01*
X120492009Y-51426543D01*
X120681177Y-51546656D01*
X120895411Y-51647133D01*
X121129305Y-51724547D01*
X121132432Y-51725382D01*
X121188408Y-51739832D01*
X121240252Y-51751626D01*
X121293223Y-51761142D01*
X121352581Y-51768758D01*
X121423585Y-51774854D01*
X121511494Y-51779808D01*
X121621568Y-51783998D01*
X121759066Y-51787803D01*
X121929248Y-51791603D01*
X122099917Y-51795039D01*
X122317602Y-51799600D01*
X122497969Y-51804342D01*
X122646034Y-51809913D01*
X122766808Y-51816961D01*
X122865306Y-51826131D01*
X122946542Y-51838072D01*
X123015530Y-51853430D01*
X123077282Y-51872853D01*
X123136812Y-51896988D01*
X123199135Y-51926481D01*
X123227188Y-51940540D01*
X123393470Y-52045056D01*
X123524169Y-52172400D01*
X123615996Y-52315617D01*
X123671506Y-52472674D01*
X123686326Y-52632348D01*
X123660363Y-52789450D01*
X123626213Y-52878124D01*
X123552514Y-52995405D01*
X123447665Y-53109626D01*
X123322247Y-53210589D01*
X123214793Y-53274670D01*
X123161526Y-53301050D01*
X123111862Y-53323540D01*
X123062041Y-53342453D01*
X123008304Y-53358103D01*
X122946891Y-53370803D01*
X122874045Y-53380867D01*
X122786006Y-53388610D01*
X122679014Y-53394343D01*
X122549311Y-53398383D01*
X122393138Y-53401041D01*
X122206735Y-53402632D01*
X121986344Y-53403469D01*
X121728205Y-53403867D01*
X121666000Y-53403926D01*
X120512417Y-53404978D01*
X120380125Y-53562487D01*
X120323624Y-53630826D01*
X120279156Y-53686645D01*
X120252650Y-53722387D01*
X120247834Y-53731081D01*
X120268268Y-53734335D01*
X120326648Y-53737039D01*
X120418590Y-53739213D01*
X120539710Y-53740876D01*
X120685625Y-53742048D01*
X120851952Y-53742747D01*
X121034305Y-53742994D01*
X121228302Y-53742807D01*
X121429559Y-53742206D01*
X121633693Y-53741210D01*
X121836319Y-53739839D01*
X122033053Y-53738111D01*
X122219513Y-53736046D01*
X122391314Y-53733664D01*
X122544073Y-53730984D01*
X122673406Y-53728025D01*
X122774930Y-53724806D01*
X122844260Y-53721347D01*
X122865422Y-53719540D01*
X123121937Y-53676158D01*
X123363455Y-53606237D01*
X123585699Y-53512267D01*
X123784391Y-53396743D01*
X123955255Y-53262158D01*
X124094012Y-53111005D01*
X124196385Y-52945777D01*
X124197683Y-52943076D01*
X124245754Y-52802727D01*
X124267766Y-52646345D01*
X124262939Y-52489441D01*
X124230498Y-52347526D01*
X124227876Y-52340409D01*
X124138789Y-52162946D01*
X124011433Y-52002022D01*
X123845473Y-51857315D01*
X123640574Y-51728501D01*
X123539250Y-51677367D01*
X123443866Y-51633294D01*
X123357723Y-51596802D01*
X123275444Y-51567078D01*
X123191651Y-51543310D01*
X123100967Y-51524685D01*
X122998015Y-51510390D01*
X122877416Y-51499612D01*
X122733794Y-51491539D01*
X122561771Y-51485357D01*
X122355970Y-51480254D01*
X122216334Y-51477417D01*
X122001622Y-51473066D01*
X121824190Y-51468680D01*
X121678987Y-51463593D01*
X121560965Y-51457135D01*
X121465072Y-51448639D01*
X121386262Y-51437437D01*
X121319482Y-51422861D01*
X121259685Y-51404243D01*
X121201820Y-51380915D01*
X121140838Y-51352209D01*
X121094500Y-51329016D01*
X120939985Y-51231684D01*
X120815173Y-51113559D01*
X120722096Y-50979443D01*
X120662785Y-50834140D01*
X120639271Y-50682453D01*
X120653585Y-50529185D01*
X120699724Y-50395467D01*
X120770481Y-50282299D01*
X120870302Y-50170622D01*
X120987203Y-50072276D01*
X121092988Y-50007016D01*
X121171969Y-49972607D01*
X121270615Y-49937312D01*
X121364499Y-49909615D01*
X121400038Y-49901071D01*
X121436974Y-49893803D01*
X121478877Y-49887709D01*
X121529321Y-49882688D01*
X121591875Y-49878640D01*
X121670113Y-49875462D01*
X121767607Y-49873053D01*
X121887926Y-49871313D01*
X122034645Y-49870140D01*
X122211333Y-49869432D01*
X122421563Y-49869089D01*
X122668908Y-49869010D01*
X122796511Y-49869034D01*
X123079114Y-49869198D01*
X123322903Y-49869707D01*
X123531398Y-49870848D01*
X123708119Y-49872910D01*
X123856585Y-49876182D01*
X123980315Y-49880950D01*
X124082831Y-49887504D01*
X124167650Y-49896131D01*
X124238293Y-49907120D01*
X124298279Y-49920758D01*
X124351129Y-49937334D01*
X124400361Y-49957136D01*
X124449495Y-49980452D01*
X124502051Y-50007570D01*
X124504491Y-50008852D01*
X124665111Y-50111856D01*
X124795278Y-50234553D01*
X124889986Y-50372056D01*
X124902779Y-50397784D01*
X124957417Y-50514250D01*
X124963220Y-52128209D01*
X124969022Y-53742167D01*
X125560422Y-53742167D01*
X125571250Y-50244035D01*
X128533024Y-53742167D01*
X129201334Y-53742167D01*
X129201385Y-52554651D01*
X129522480Y-52554651D01*
X129522898Y-52745934D01*
X129523831Y-52904511D01*
X129525312Y-53032787D01*
X129527374Y-53133169D01*
X129530051Y-53208063D01*
X129533375Y-53259874D01*
X129537379Y-53291010D01*
X129542096Y-53303877D01*
X129545155Y-53303930D01*
X129566656Y-53288468D01*
X129619760Y-53250680D01*
X129701496Y-53192670D01*
X129808893Y-53116541D01*
X129938982Y-53024398D01*
X130088792Y-52918344D01*
X130255352Y-52800483D01*
X130435692Y-52672919D01*
X130626841Y-52537755D01*
X130689261Y-52493627D01*
X130881972Y-52356992D01*
X131063656Y-52227390D01*
X131231483Y-52106890D01*
X131382620Y-51997565D01*
X131514238Y-51901483D01*
X131623506Y-51820715D01*
X131707592Y-51757332D01*
X131763666Y-51713405D01*
X131788897Y-51691003D01*
X131789928Y-51688639D01*
X131767034Y-51671410D01*
X131713265Y-51632542D01*
X131632352Y-51574665D01*
X131528024Y-51500407D01*
X131404014Y-51412399D01*
X131264050Y-51313270D01*
X131111863Y-51205649D01*
X130951184Y-51092167D01*
X130785743Y-50975452D01*
X130619270Y-50858135D01*
X130455495Y-50742844D01*
X130298150Y-50632209D01*
X130150964Y-50528860D01*
X130017668Y-50435426D01*
X129901991Y-50354537D01*
X129807665Y-50288822D01*
X129738420Y-50240911D01*
X129697986Y-50213434D01*
X129689469Y-50208031D01*
X129632686Y-50191475D01*
X129586578Y-50190154D01*
X129529417Y-50196750D01*
X129523988Y-51760497D01*
X129523058Y-52064338D01*
X129522545Y-52328254D01*
X129522480Y-52554651D01*
X129201385Y-52554651D01*
X129201413Y-51916542D01*
X129201451Y-51596432D01*
X129201576Y-51315926D01*
X129201848Y-51072292D01*
X129202327Y-50862801D01*
X129203071Y-50684721D01*
X129204142Y-50535323D01*
X129205598Y-50411877D01*
X129207498Y-50311652D01*
X129209904Y-50231917D01*
X129212875Y-50169942D01*
X129216469Y-50122998D01*
X129220748Y-50088353D01*
X129225770Y-50063277D01*
X129231596Y-50045041D01*
X129238285Y-50030913D01*
X129242810Y-50023153D01*
X129297522Y-49955862D01*
X129369381Y-49911628D01*
X129466067Y-49887306D01*
X129592917Y-49879754D01*
X129707009Y-49884040D01*
X129789922Y-49898725D01*
X129836334Y-49916752D01*
X129867535Y-49935975D01*
X129928681Y-49976760D01*
X130016435Y-50036739D01*
X130127459Y-50113540D01*
X130258415Y-50204796D01*
X130405966Y-50308135D01*
X130566773Y-50421188D01*
X130737499Y-50541586D01*
X130914806Y-50666959D01*
X131095357Y-50794938D01*
X131275813Y-50923152D01*
X131452837Y-51049231D01*
X131623091Y-51170808D01*
X131783238Y-51285510D01*
X131929940Y-51390970D01*
X132059858Y-51484817D01*
X132169655Y-51564682D01*
X132255994Y-51628195D01*
X132315537Y-51672986D01*
X132344946Y-51696685D01*
X132347509Y-51699584D01*
X132331693Y-51715069D01*
X132284039Y-51752829D01*
X132207359Y-51810815D01*
X132104463Y-51886977D01*
X131978162Y-51979267D01*
X131831267Y-52085637D01*
X131666590Y-52204039D01*
X131486941Y-52332422D01*
X131295131Y-52468740D01*
X131190172Y-52543031D01*
X130992981Y-52682628D01*
X130806308Y-52815198D01*
X130632981Y-52938707D01*
X130475825Y-53051122D01*
X130337668Y-53150408D01*
X130221335Y-53234531D01*
X130129653Y-53301456D01*
X130065449Y-53349150D01*
X130031548Y-53375579D01*
X130026834Y-53380258D01*
X130043191Y-53398079D01*
X130086698Y-53433129D01*
X130149009Y-53479566D01*
X130221778Y-53531550D01*
X130296660Y-53583242D01*
X130365307Y-53628802D01*
X130419374Y-53662389D01*
X130450514Y-53678163D01*
X130453288Y-53678667D01*
X130473895Y-53666731D01*
X130526104Y-53632262D01*
X130607021Y-53577272D01*
X130713757Y-53503771D01*
X130843418Y-53413768D01*
X130993112Y-53309276D01*
X131159949Y-53192303D01*
X131341035Y-53064861D01*
X131533480Y-52928960D01*
X131632001Y-52859214D01*
X131829287Y-52719778D01*
X132016926Y-52587817D01*
X132191996Y-52465347D01*
X132351571Y-52354382D01*
X132492727Y-52256938D01*
X132612539Y-52175028D01*
X132708084Y-52110667D01*
X132776436Y-52065870D01*
X132814671Y-52042651D01*
X132821516Y-52039762D01*
X132843987Y-52051715D01*
X132898002Y-52086229D01*
X132980637Y-52141291D01*
X133088968Y-52214886D01*
X133220070Y-52304998D01*
X133371018Y-52409615D01*
X133538889Y-52526720D01*
X133720758Y-52654299D01*
X133913700Y-52790338D01*
X134011031Y-52859214D01*
X134208065Y-52998570D01*
X134395210Y-53130459D01*
X134569569Y-53252872D01*
X134728247Y-53363797D01*
X134868347Y-53461222D01*
X134986972Y-53543138D01*
X135081227Y-53607532D01*
X135148214Y-53652394D01*
X135185039Y-53675714D01*
X135191211Y-53678667D01*
X135216933Y-53667136D01*
X135267111Y-53636474D01*
X135333399Y-53592580D01*
X135407449Y-53541350D01*
X135480912Y-53488683D01*
X135545441Y-53440476D01*
X135592689Y-53402627D01*
X135614307Y-53381034D01*
X135614834Y-53379377D01*
X135597994Y-53364948D01*
X135549361Y-53328191D01*
X135471762Y-53271139D01*
X135368023Y-53195827D01*
X135240972Y-53104288D01*
X135093436Y-52998555D01*
X134928242Y-52880664D01*
X134748218Y-52752646D01*
X134556189Y-52616537D01*
X134451623Y-52542597D01*
X134254537Y-52402982D01*
X134068136Y-52270219D01*
X133895230Y-52146357D01*
X133738630Y-52033446D01*
X133601149Y-51933531D01*
X133485598Y-51848663D01*
X133394788Y-51780890D01*
X133331531Y-51732259D01*
X133298639Y-51704818D01*
X133294473Y-51699584D01*
X133312326Y-51684171D01*
X133362026Y-51646337D01*
X133440830Y-51588063D01*
X133545990Y-51511332D01*
X133674764Y-51418124D01*
X133824406Y-51310421D01*
X133992171Y-51190205D01*
X134175315Y-51059456D01*
X134371092Y-50920158D01*
X134547553Y-50794976D01*
X134751917Y-50650020D01*
X134945971Y-50512032D01*
X135126978Y-50382982D01*
X135292199Y-50264838D01*
X135438895Y-50159569D01*
X135564327Y-50069144D01*
X135665759Y-49995531D01*
X135740451Y-49940699D01*
X135785664Y-49906617D01*
X135798886Y-49895393D01*
X135784247Y-49878260D01*
X135742248Y-49843724D01*
X135681000Y-49797484D01*
X135608616Y-49745243D01*
X135533208Y-49692700D01*
X135462888Y-49645556D01*
X135405767Y-49609514D01*
X135369958Y-49590273D01*
X135362554Y-49588747D01*
X135343693Y-49601640D01*
X135293048Y-49637078D01*
X135213367Y-49693122D01*
X135107398Y-49767829D01*
X134977890Y-49859259D01*
X134827590Y-49965470D01*
X134659248Y-50084522D01*
X134475610Y-50214473D01*
X134279426Y-50353382D01*
X134096404Y-50483039D01*
X133891199Y-50628248D01*
X133695886Y-50766075D01*
X133513234Y-50894590D01*
X133346011Y-51011863D01*
X133196986Y-51115964D01*
X133068928Y-51204963D01*
X132964604Y-51276931D01*
X132886783Y-51329937D01*
X132838234Y-51362052D01*
X132821894Y-51371500D01*
X132801629Y-51359547D01*
X132749685Y-51324991D01*
X132668864Y-51269788D01*
X132561969Y-51195893D01*
X132431802Y-51105262D01*
X132281165Y-50999849D01*
X132112861Y-50881611D01*
X131929693Y-50752503D01*
X131734463Y-50614480D01*
X131578073Y-50503637D01*
X131332721Y-50329457D01*
X131119087Y-50177929D01*
X130934196Y-50047449D01*
X130775072Y-49936413D01*
X130638737Y-49843218D01*
X130522217Y-49766260D01*
X130422535Y-49703935D01*
X130336714Y-49654639D01*
X130261778Y-49616768D01*
X130194751Y-49588719D01*
X130132657Y-49568887D01*
X130072519Y-49555669D01*
X130011362Y-49547461D01*
X129946208Y-49542659D01*
X129874083Y-49539659D01*
X129792008Y-49536858D01*
X129783417Y-49536537D01*
X129530060Y-49533703D01*
X129313250Y-49546256D01*
X129129860Y-49574815D01*
X128976762Y-49619998D01*
X128850829Y-49682424D01*
X128778737Y-49735363D01*
X128747512Y-49761466D01*
X128720377Y-49784654D01*
X128697043Y-49807930D01*
X128677226Y-49834294D01*
X128660636Y-49866747D01*
X128646988Y-49908289D01*
X128635994Y-49961923D01*
X128627368Y-50030648D01*
X128620822Y-50117465D01*
X128616069Y-50225376D01*
X128612823Y-50357382D01*
X128610795Y-50516482D01*
X128609700Y-50705679D01*
X128609251Y-50927972D01*
X128609159Y-51186363D01*
X128609139Y-51483853D01*
X128609132Y-51508676D01*
X128608667Y-53032269D01*
X128547451Y-52969176D01*
X128525244Y-52944254D01*
X128477682Y-52889320D01*
X128406738Y-52806691D01*
X128314386Y-52698687D01*
X128202598Y-52567625D01*
X128073348Y-52415824D01*
X127928609Y-52245602D01*
X127770355Y-52059277D01*
X127600559Y-51859167D01*
X127421193Y-51647591D01*
X127234232Y-51426867D01*
X127160485Y-51339750D01*
X126929475Y-51067302D01*
X126715475Y-50815891D01*
X126519560Y-50586755D01*
X126342807Y-50381131D01*
X126186294Y-50200258D01*
X126051097Y-50045372D01*
X125938293Y-49917711D01*
X125848958Y-49818514D01*
X125784169Y-49749017D01*
X125745003Y-49710458D01*
X125738082Y-49704873D01*
X125664635Y-49660916D01*
X125572828Y-49616891D01*
X125500507Y-49588751D01*
X125359584Y-49541173D01*
X123592167Y-49534291D01*
X123240554Y-49533228D01*
X122916332Y-49532870D01*
X122621340Y-49533204D01*
X122357411Y-49534215D01*
X122126382Y-49535889D01*
X121930089Y-49538214D01*
X121770368Y-49541175D01*
X121649054Y-49544758D01*
X121567984Y-49548949D01*
X121560167Y-49549566D01*
X121258820Y-49590096D01*
X120988345Y-49658855D01*
X120747691Y-49756266D01*
X120535809Y-49882756D01*
X120352939Y-50037455D01*
X120237459Y-50163284D01*
X120155200Y-50280123D01*
X120101367Y-50397610D01*
X120071166Y-50525382D01*
X120061691Y-50622897D01*
X119728213Y-50622897D01*
X119747225Y-50470416D01*
X119812963Y-50250679D01*
D11*
%TO.C,D13*%
X77700000Y-90898000D02*
X77700000Y-82198000D01*
X74700000Y-82198000D02*
X74700000Y-90898000D01*
X74700000Y-90898000D02*
X77700000Y-90898000D01*
%TO.C,R21*%
X75290000Y-95284936D02*
X75290000Y-96739064D01*
X77110000Y-95284936D02*
X77110000Y-96739064D01*
%TD*%
D13*
%TO.C,J1*%
X65024000Y-116586000D03*
D14*
X67524000Y-116586000D03*
X70024000Y-116586000D03*
X72524000Y-116586000D03*
X75024000Y-116586000D03*
%TD*%
D13*
%TO.C,J2*%
X82804000Y-116586000D03*
D14*
X85304000Y-116586000D03*
X87804000Y-116586000D03*
X90304000Y-116586000D03*
X92804000Y-116586000D03*
%TD*%
D13*
%TO.C,J3*%
X100330000Y-116586000D03*
D14*
X102830000Y-116586000D03*
X105330000Y-116586000D03*
%TD*%
D13*
%TO.C,J4*%
X112776000Y-116586000D03*
D14*
X115276000Y-116586000D03*
X117776000Y-116586000D03*
X120276000Y-116586000D03*
%TD*%
D13*
%TO.C,J5*%
X127762000Y-116586000D03*
D14*
X130262000Y-116586000D03*
X132762000Y-116586000D03*
%TD*%
%LPC*%
D15*
%TO.C,U1*%
X64770000Y-69342000D03*
D16*
X67310000Y-69342000D03*
X69850000Y-69342000D03*
X72390000Y-69342000D03*
X74930000Y-69342000D03*
X77470000Y-69342000D03*
X80010000Y-69342000D03*
X82550000Y-69342000D03*
X85090000Y-69342000D03*
X87630000Y-69342000D03*
X90170000Y-69342000D03*
X92710000Y-69342000D03*
X95250000Y-69342000D03*
X97790000Y-69342000D03*
X100330000Y-69342000D03*
X102870000Y-69342000D03*
X105410000Y-69342000D03*
X107950000Y-69342000D03*
X110490000Y-69342000D03*
X113030000Y-69342000D03*
X113030000Y-54102000D03*
X110490000Y-54102000D03*
X107950000Y-54102000D03*
X105410000Y-54102000D03*
X102870000Y-54102000D03*
X100330000Y-54102000D03*
X97790000Y-54102000D03*
X95250000Y-54102000D03*
X92710000Y-54102000D03*
X90170000Y-54102000D03*
X87630000Y-54102000D03*
X85090000Y-54102000D03*
X82550000Y-54102000D03*
X80010000Y-54102000D03*
X77470000Y-54102000D03*
X74930000Y-54102000D03*
X72390000Y-54102000D03*
X69850000Y-54102000D03*
X67310000Y-54102000D03*
X64770000Y-54102000D03*
X109220000Y-57912000D03*
X109220000Y-60452000D03*
X109220000Y-62992000D03*
X109220000Y-65532000D03*
%TD*%
D17*
%TO.C,D7*%
X80772000Y-88998000D03*
X80772000Y-82198000D03*
%TD*%
D18*
%TO.C,R1*%
X80264000Y-94044000D03*
X80264000Y-98044000D03*
%TD*%
D13*
%TO.C,J1*%
X65024000Y-116586000D03*
D14*
X67524000Y-116586000D03*
X70024000Y-116586000D03*
X72524000Y-116586000D03*
X75024000Y-116586000D03*
%TD*%
D17*
%TO.C,D1*%
X84836000Y-88998000D03*
X84836000Y-82198000D03*
%TD*%
D18*
%TO.C,R2*%
X84836000Y-98044000D03*
X84836000Y-94044000D03*
%TD*%
D13*
%TO.C,J2*%
X82804000Y-116586000D03*
D14*
X85304000Y-116586000D03*
X87804000Y-116586000D03*
X90304000Y-116586000D03*
X92804000Y-116586000D03*
%TD*%
D13*
%TO.C,J3*%
X100330000Y-116586000D03*
D14*
X102830000Y-116586000D03*
X105330000Y-116586000D03*
%TD*%
D13*
%TO.C,J4*%
X112776000Y-116586000D03*
D14*
X115276000Y-116586000D03*
X117776000Y-116586000D03*
X120276000Y-116586000D03*
%TD*%
D13*
%TO.C,J5*%
X127762000Y-116586000D03*
D14*
X130262000Y-116586000D03*
X132762000Y-116586000D03*
%TD*%
D19*
%TO.C,D2*%
X65024000Y-109220000D03*
D20*
X70104000Y-109220000D03*
%TD*%
D21*
%TO.C,U2*%
X72136000Y-103632000D03*
X69596000Y-103632000D03*
X67056000Y-103632000D03*
X64516000Y-103632000D03*
%TD*%
D22*
%TO.C,Q1*%
X99314000Y-96266000D03*
D23*
X99314000Y-98806000D03*
X99314000Y-101346000D03*
%TD*%
D22*
%TO.C,Q2*%
X106426000Y-96266000D03*
D23*
X106426000Y-98806000D03*
X106426000Y-101346000D03*
%TD*%
D18*
%TO.C,R3*%
X96012000Y-85090000D03*
X96012000Y-81090000D03*
%TD*%
%TO.C,R4*%
X100838000Y-85090000D03*
X100838000Y-81090000D03*
%TD*%
%TO.C,R5*%
X105918000Y-85090000D03*
X105918000Y-81090000D03*
%TD*%
%TO.C,R6*%
X110998000Y-85090000D03*
X110998000Y-81090000D03*
%TD*%
D24*
%TO.C,D4*%
X105410000Y-107950000D03*
D25*
X105410000Y-110490000D03*
%TD*%
D24*
%TO.C,D3*%
X100330000Y-107950000D03*
D25*
X100330000Y-110490000D03*
%TD*%
D26*
%TO.C,Q4*%
X105885998Y-91120000D03*
X105885998Y-89220000D03*
X103885998Y-90170000D03*
%TD*%
%TO.C,Q3*%
X99568002Y-91120000D03*
X99568002Y-89220000D03*
X97568002Y-90170000D03*
%TD*%
D27*
%TO.C,U3*%
X134112000Y-103886000D03*
D28*
X131572000Y-103886000D03*
X129032000Y-103886000D03*
X126492000Y-103886000D03*
X123952000Y-103886000D03*
X121412000Y-103886000D03*
%TD*%
D15*
%TO.C,J7*%
X135128000Y-74422000D03*
D29*
X135128000Y-76962000D03*
X135128000Y-79502000D03*
X135128000Y-82042000D03*
%TD*%
D30*
%TO.C,TP2*%
X112268000Y-108966000D03*
%TD*%
%TO.C,TP3*%
X96012000Y-75692000D03*
%TD*%
%TO.C,TP4*%
X91694000Y-82804000D03*
%TD*%
%TO.C,TP5*%
X91694000Y-99060000D03*
%TD*%
%TO.C,TP6*%
X78232000Y-104394000D03*
%TD*%
%TO.C,TP7*%
X119126000Y-82550000D03*
%TD*%
%TO.C,TP8*%
X79502000Y-108712000D03*
%TD*%
%TO.C,TP9*%
X117094000Y-108966000D03*
%TD*%
D15*
%TO.C,J6*%
X66294000Y-77216000D03*
%TD*%
D30*
%TO.C,TP1*%
X91948000Y-110236000D03*
%TD*%
D17*
%TO.C,D13*%
X76200000Y-88998000D03*
X76200000Y-82198000D03*
%TD*%
D31*
%TO.C,R21*%
X76200000Y-94462000D03*
X76200000Y-97562000D03*
%TD*%
M02*
