%TF.GenerationSoftware,KiCad,Pcbnew,(6.0.4)*%
%TF.CreationDate,2022-04-21T00:14:10+02:00*%
%TF.ProjectId,BoostController,426f6f73-7443-46f6-9e74-726f6c6c6572,rev?*%
%TF.SameCoordinates,Original*%
%TF.FileFunction,Paste,Bot*%
%TF.FilePolarity,Positive*%
%FSLAX46Y46*%
G04 Gerber Fmt 4.6, Leading zero omitted, Abs format (unit mm)*
G04 Created by KiCad (PCBNEW (6.0.4)) date 2022-04-21 00:14:10*
%MOMM*%
%LPD*%
G01*
G04 APERTURE LIST*
%ADD10R,2.700000X3.500000*%
%ADD11R,1.700000X2.000000*%
G04 APERTURE END LIST*
D10*
%TO.C,D5*%
X102870000Y-91440000D03*
X102870000Y-84640000D03*
%TD*%
%TO.C,D6*%
X93472000Y-91440000D03*
X93472000Y-84640000D03*
%TD*%
%TO.C,D8*%
X83058000Y-91440000D03*
X83058000Y-84640000D03*
%TD*%
%TO.C,D9*%
X76962000Y-91440000D03*
X76962000Y-84640000D03*
%TD*%
%TO.C,D10*%
X114554000Y-91440000D03*
X114554000Y-84640000D03*
%TD*%
%TO.C,D11*%
X88646000Y-91440000D03*
X88646000Y-84640000D03*
%TD*%
%TO.C,D12*%
X108966000Y-91440000D03*
X108966000Y-84640000D03*
%TD*%
D11*
%TO.C,R7*%
X88138000Y-111950000D03*
X88138000Y-107950000D03*
%TD*%
%TO.C,R8*%
X98044000Y-86614000D03*
X98044000Y-82614000D03*
%TD*%
%TO.C,R9*%
X91694000Y-111950000D03*
X91694000Y-107950000D03*
%TD*%
%TO.C,R10*%
X93726000Y-100330000D03*
X93726000Y-96330000D03*
%TD*%
%TO.C,R12*%
X89916000Y-100330000D03*
X89916000Y-96330000D03*
%TD*%
%TO.C,R13*%
X74676000Y-96298000D03*
X74676000Y-100298000D03*
%TD*%
%TO.C,R14*%
X79756000Y-100298000D03*
X79756000Y-96298000D03*
%TD*%
%TO.C,R15*%
X117856000Y-112522000D03*
X117856000Y-108522000D03*
%TD*%
%TO.C,R16*%
X121666000Y-108458000D03*
X121666000Y-112458000D03*
%TD*%
%TO.C,R17*%
X80518000Y-111982000D03*
X80518000Y-107982000D03*
%TD*%
%TO.C,R18*%
X84836000Y-100298000D03*
X84836000Y-96298000D03*
%TD*%
%TO.C,R19*%
X112268000Y-111950000D03*
X112268000Y-107950000D03*
%TD*%
%TO.C,R20*%
X108966000Y-107950000D03*
X108966000Y-111950000D03*
%TD*%
%TO.C,R11*%
X84328000Y-111950000D03*
X84328000Y-107950000D03*
%TD*%
M02*
