%FSLAX45Y45*%
G04 Gerber Fmt 4.5, Leading zero omitted, Abs format (unit mm)*
G04 Created by KiCad (PCBNEW (5.1.10)-1) date 2021-11-13 18:45:40*
%MOMM*%
%LPD*%
G01*
G04 APERTURE LIST*
%TA.AperFunction,Profile*%
%ADD10C,0.050000*%
%TD*%
%ADD11C,0.200000*%
%ADD12C,0.300000*%
G04 APERTURE END LIST*
D10*
X5842000Y-4445000D02*
X14020800Y-4445000D01*
X5842000Y-12446000D02*
X5842000Y-4445000D01*
X14020800Y-12446000D02*
X14020800Y-4445000D01*
X5842000Y-12446000D02*
X14020800Y-12446000D01*
D11*
D12*
X6125928Y-12914214D02*
X6125928Y-12614214D01*
X6197357Y-12614214D01*
X6240214Y-12628500D01*
X6268786Y-12657071D01*
X6283071Y-12685643D01*
X6297357Y-12742786D01*
X6297357Y-12785643D01*
X6283071Y-12842786D01*
X6268786Y-12871357D01*
X6240214Y-12899929D01*
X6197357Y-12914214D01*
X6125928Y-12914214D01*
X6425928Y-12914214D02*
X6425928Y-12714214D01*
X6425928Y-12771357D02*
X6440214Y-12742786D01*
X6454500Y-12728500D01*
X6483071Y-12714214D01*
X6511643Y-12714214D01*
X6611643Y-12914214D02*
X6611643Y-12714214D01*
X6611643Y-12614214D02*
X6597357Y-12628500D01*
X6611643Y-12642786D01*
X6625928Y-12628500D01*
X6611643Y-12614214D01*
X6611643Y-12642786D01*
X6797357Y-12914214D02*
X6768786Y-12899929D01*
X6754500Y-12871357D01*
X6754500Y-12614214D01*
X6954500Y-12914214D02*
X6925928Y-12899929D01*
X6911643Y-12871357D01*
X6911643Y-12614214D01*
X7297357Y-12914214D02*
X7297357Y-12614214D01*
X7397357Y-12828500D01*
X7497357Y-12614214D01*
X7497357Y-12914214D01*
X7768786Y-12914214D02*
X7768786Y-12757071D01*
X7754500Y-12728500D01*
X7725928Y-12714214D01*
X7668786Y-12714214D01*
X7640214Y-12728500D01*
X7768786Y-12899929D02*
X7740214Y-12914214D01*
X7668786Y-12914214D01*
X7640214Y-12899929D01*
X7625928Y-12871357D01*
X7625928Y-12842786D01*
X7640214Y-12814214D01*
X7668786Y-12799929D01*
X7740214Y-12799929D01*
X7768786Y-12785643D01*
X7911643Y-12714214D02*
X7911643Y-13014214D01*
X7911643Y-12728500D02*
X7940214Y-12714214D01*
X7997357Y-12714214D01*
X8025928Y-12728500D01*
X8040214Y-12742786D01*
X8054500Y-12771357D01*
X8054500Y-12857071D01*
X8040214Y-12885643D01*
X8025928Y-12899929D01*
X7997357Y-12914214D01*
X7940214Y-12914214D01*
X7911643Y-12899929D01*
X8183071Y-12885643D02*
X8197357Y-12899929D01*
X8183071Y-12914214D01*
X8168786Y-12899929D01*
X8183071Y-12885643D01*
X8183071Y-12914214D01*
X8183071Y-12728500D02*
X8197357Y-12742786D01*
X8183071Y-12757071D01*
X8168786Y-12742786D01*
X8183071Y-12728500D01*
X8183071Y-12757071D01*
M02*
