M48
; DRILL file {KiCad (6.0.4)} date Sun May 15 18:51:50 2022
; FORMAT={-:-/ absolute / metric / decimal}
; #@! TF.CreationDate,2022-05-15T18:51:50+02:00
; #@! TF.GenerationSoftware,Kicad,Pcbnew,(6.0.4)
; #@! TF.FileFunction,Plated,1,2,PTH
FMAT,2
METRIC
; #@! TA.AperFunction,Plated,PTH,ViaDrill
T1C0.400
; #@! TA.AperFunction,Plated,PTH,ComponentDrill
T2C0.762
; #@! TA.AperFunction,Plated,PTH,ComponentDrill
T3C0.950
; #@! TA.AperFunction,Plated,PTH,ViaDrill
T4C1.000
; #@! TA.AperFunction,Plated,PTH,ComponentDrill
T5C1.000
; #@! TA.AperFunction,Plated,PTH,ComponentDrill
T6C1.100
%
G90
G05
T1
X71.12Y-81.819
X72.39Y-56.388
X74.93Y-102.108
X76.708Y-102.108
X77.47Y-60.96
X78.232Y-94.488
X81.534Y-93.472
X82.296Y-94.488
X82.296Y-107.95
X82.374Y-89.584
X83.058Y-100.33
X84.836Y-105.156
X86.106Y-92.202
X86.106Y-107.95
X87.376Y-59.69
X87.413Y-101.854
X88.138Y-105.918
X90.678Y-90.424
X91.186Y-92.202
X92.456Y-88.9
X93.472Y-63.246
X93.472Y-107.696
X95.25Y-78.232
X95.504Y-101.854
X98.044Y-84.836
X98.552Y-59.69
X105.918Y-77.216
X107.95Y-80.772
X109.982Y-105.918
X110.236Y-77.978
X111.252Y-99.314
X116.586Y-78.232
X117.856Y-106.172
X119.888Y-72.136
X119.888Y-75.184
X122.428Y-76.2
T2
X64.516Y-103.632
X67.056Y-103.632
X69.596Y-103.632
X72.136Y-103.632
X121.412Y-103.886
X123.952Y-103.886
X126.492Y-103.886
X129.032Y-103.886
X131.572Y-103.886
X134.112Y-103.886
T3
X65.024Y-116.586
X67.524Y-116.586
X70.024Y-116.586
X72.524Y-116.586
X75.024Y-116.586
X82.804Y-116.586
X85.304Y-116.586
X87.804Y-116.586
X90.304Y-116.586
X92.804Y-116.586
X100.33Y-116.586
X102.83Y-116.586
X105.33Y-116.586
X112.776Y-116.586
X115.276Y-116.586
X117.776Y-116.586
X120.276Y-116.586
X127.762Y-116.586
X130.262Y-116.586
X132.762Y-116.586
T4
X76.2Y-77.216
X95.758Y-96.266
X96.52Y-112.522
X96.52Y-120.396
X102.87Y-112.522
X114.511Y-103.531
X123.952Y-84.582
T5
X64.77Y-54.102
X64.77Y-69.342
X66.294Y-77.216
X67.31Y-54.102
X67.31Y-69.342
X69.85Y-54.102
X69.85Y-69.342
X72.39Y-54.102
X72.39Y-69.342
X74.93Y-54.102
X74.93Y-69.342
X77.47Y-54.102
X77.47Y-69.342
X80.01Y-54.102
X80.01Y-69.342
X82.55Y-54.102
X82.55Y-69.342
X85.09Y-54.102
X85.09Y-69.342
X87.63Y-54.102
X87.63Y-69.342
X90.17Y-54.102
X90.17Y-69.342
X92.71Y-54.102
X92.71Y-69.342
X95.25Y-54.102
X95.25Y-69.342
X97.79Y-54.102
X97.79Y-69.342
X100.33Y-54.102
X100.33Y-69.342
X102.87Y-54.102
X102.87Y-69.342
X105.41Y-54.102
X105.41Y-69.342
X107.95Y-54.102
X107.95Y-69.342
X109.22Y-57.912
X109.22Y-60.452
X109.22Y-62.992
X109.22Y-65.532
X110.49Y-54.102
X110.49Y-69.342
X113.03Y-54.102
X113.03Y-69.342
X127.762Y-76.962
X127.762Y-79.502
X127.762Y-82.042
X135.128Y-74.422
X135.128Y-76.962
X135.128Y-79.502
X135.128Y-82.042
T6
X65.024Y-109.22
X70.104Y-109.22
X99.314Y-96.266
X99.314Y-98.806
X99.314Y-101.346
X100.203Y-106.574
X100.203Y-109.114
X105.537Y-106.574
X105.537Y-109.114
X106.426Y-96.266
X106.426Y-98.806
X106.426Y-101.346
T0
M30
