%FSLAX45Y45*%
G04 Gerber Fmt 4.5, Leading zero omitted, Abs format (unit mm)*
G04 Created by KiCad (PCBNEW (5.1.10)-1) date 2021-11-13 18:45:40*
%MOMM*%
%LPD*%
G01*
G04 APERTURE LIST*
%TA.AperFunction,Profile*%
%ADD10C,0.050000*%
%TD*%
%ADD11C,0.200000*%
%ADD12C,0.300000*%
G04 APERTURE END LIST*
D10*
X5842000Y-4445000D02*
X14020800Y-4445000D01*
X5842000Y-12446000D02*
X5842000Y-4445000D01*
X14020800Y-12446000D02*
X14020800Y-4445000D01*
X5842000Y-12446000D02*
X14020800Y-12446000D01*
D11*
X7092000Y-8161900D02*
X7132000Y-8201900D01*
X7132000Y-8161900D02*
X7092000Y-8201900D01*
X7092000Y-9606600D02*
X7132000Y-9646600D01*
X7132000Y-9606600D02*
X7092000Y-9646600D01*
X7219000Y-5618800D02*
X7259000Y-5658800D01*
X7259000Y-5618800D02*
X7219000Y-5658800D01*
X7650800Y-10190800D02*
X7690800Y-10230800D01*
X7690800Y-10190800D02*
X7650800Y-10230800D01*
X7727000Y-6076000D02*
X7767000Y-6116000D01*
X7767000Y-6076000D02*
X7727000Y-6116000D01*
X8209600Y-9428800D02*
X8249600Y-9468800D01*
X8249600Y-9428800D02*
X8209600Y-9468800D01*
X8209600Y-10775000D02*
X8249600Y-10815000D01*
X8249600Y-10775000D02*
X8209600Y-10815000D01*
X8260400Y-10013000D02*
X8300400Y-10053000D01*
X8300400Y-10013000D02*
X8260400Y-10053000D01*
X8463600Y-10495600D02*
X8503600Y-10535600D01*
X8503600Y-10495600D02*
X8463600Y-10535600D01*
X8590600Y-9200200D02*
X8630600Y-9240200D01*
X8630600Y-9200200D02*
X8590600Y-9240200D01*
X8590600Y-10775000D02*
X8630600Y-10815000D01*
X8630600Y-10775000D02*
X8590600Y-10815000D01*
X8717600Y-5949000D02*
X8757600Y-5989000D01*
X8757600Y-5949000D02*
X8717600Y-5989000D01*
X8721299Y-10165400D02*
X8761299Y-10205400D01*
X8761299Y-10165400D02*
X8721299Y-10205400D01*
X8793800Y-10571800D02*
X8833800Y-10611800D01*
X8833800Y-10571800D02*
X8793800Y-10611800D01*
X9047800Y-9022400D02*
X9087800Y-9062400D01*
X9087800Y-9022400D02*
X9047800Y-9062400D01*
X9098600Y-9200200D02*
X9138600Y-9240200D01*
X9138600Y-9200200D02*
X9098600Y-9240200D01*
X9225600Y-8870000D02*
X9265600Y-8910000D01*
X9265600Y-8870000D02*
X9225600Y-8910000D01*
X9327200Y-6304600D02*
X9367200Y-6344600D01*
X9367200Y-6304600D02*
X9327200Y-6344600D01*
X9327200Y-10749600D02*
X9367200Y-10789600D01*
X9367200Y-10749600D02*
X9327200Y-10789600D01*
X9505000Y-7803200D02*
X9545000Y-7843200D01*
X9545000Y-7803200D02*
X9505000Y-7843200D01*
X9530400Y-10165400D02*
X9570400Y-10205400D01*
X9570400Y-10165400D02*
X9530400Y-10205400D01*
X9784400Y-8463600D02*
X9824400Y-8503600D01*
X9824400Y-8463600D02*
X9784400Y-8503600D01*
X9835200Y-5949000D02*
X9875200Y-5989000D01*
X9875200Y-5949000D02*
X9835200Y-5989000D01*
X9911400Y-8438200D02*
X9951400Y-8478200D01*
X9951400Y-8438200D02*
X9911400Y-8478200D01*
X10571800Y-7701600D02*
X10611800Y-7741600D01*
X10611800Y-7701600D02*
X10571800Y-7741600D01*
X10978200Y-10571800D02*
X11018200Y-10611800D01*
X11018200Y-10571800D02*
X10978200Y-10611800D01*
X11029000Y-9428800D02*
X11069000Y-9468800D01*
X11069000Y-9428800D02*
X11029000Y-9468800D01*
X11232200Y-8997000D02*
X11272200Y-9037000D01*
X11272200Y-8997000D02*
X11232200Y-9037000D01*
X11740200Y-9124000D02*
X11780200Y-9164000D01*
X11780200Y-9124000D02*
X11740200Y-9164000D01*
X11765600Y-10597200D02*
X11805600Y-10637200D01*
X11805600Y-10597200D02*
X11765600Y-10637200D01*
X11968800Y-7498400D02*
X12008800Y-7538400D01*
X12008800Y-7498400D02*
X11968800Y-7538400D01*
X12222800Y-7600000D02*
X12262800Y-7640000D01*
X12262800Y-7600000D02*
X12222800Y-7640000D01*
X6489700Y-10363200D02*
G75*
G03*
X6489700Y-10363200I-38100J0D01*
G01*
X6743700Y-10363200D02*
G75*
G03*
X6743700Y-10363200I-38100J0D01*
G01*
X6997700Y-10363200D02*
G75*
G03*
X6997700Y-10363200I-38100J0D01*
G01*
X7251700Y-10363200D02*
G75*
G03*
X7251700Y-10363200I-38100J0D01*
G01*
X12179300Y-10388600D02*
G75*
G03*
X12179300Y-10388600I-38100J0D01*
G01*
X12433300Y-10388600D02*
G75*
G03*
X12433300Y-10388600I-38100J0D01*
G01*
X12687300Y-10388600D02*
G75*
G03*
X12687300Y-10388600I-38100J0D01*
G01*
X12941300Y-10388600D02*
G75*
G03*
X12941300Y-10388600I-38100J0D01*
G01*
X13195300Y-10388600D02*
G75*
G03*
X13195300Y-10388600I-38100J0D01*
G01*
X13449300Y-10388600D02*
G75*
G03*
X13449300Y-10388600I-38100J0D01*
G01*
X6477000Y-5360200D02*
X6477000Y-5460200D01*
X6427000Y-5410200D02*
X6527000Y-5410200D01*
X6477000Y-6884200D02*
X6477000Y-6984200D01*
X6427000Y-6934200D02*
X6527000Y-6934200D01*
X6502400Y-11608600D02*
X6502400Y-11708600D01*
X6452400Y-11658600D02*
X6552400Y-11658600D01*
X6629400Y-7671600D02*
X6629400Y-7771600D01*
X6579400Y-7721600D02*
X6679400Y-7721600D01*
X6731000Y-5360200D02*
X6731000Y-5460200D01*
X6681000Y-5410200D02*
X6781000Y-5410200D01*
X6731000Y-6884200D02*
X6731000Y-6984200D01*
X6681000Y-6934200D02*
X6781000Y-6934200D01*
X6752400Y-11608600D02*
X6752400Y-11708600D01*
X6702400Y-11658600D02*
X6802400Y-11658600D01*
X6985000Y-5360200D02*
X6985000Y-5460200D01*
X6935000Y-5410200D02*
X7035000Y-5410200D01*
X6985000Y-6884200D02*
X6985000Y-6984200D01*
X6935000Y-6934200D02*
X7035000Y-6934200D01*
X7002400Y-11608600D02*
X7002400Y-11708600D01*
X6952400Y-11658600D02*
X7052400Y-11658600D01*
X7239000Y-5360200D02*
X7239000Y-5460200D01*
X7189000Y-5410200D02*
X7289000Y-5410200D01*
X7239000Y-6884200D02*
X7239000Y-6984200D01*
X7189000Y-6934200D02*
X7289000Y-6934200D01*
X7252400Y-11608600D02*
X7252400Y-11708600D01*
X7202400Y-11658600D02*
X7302400Y-11658600D01*
X7493000Y-5360200D02*
X7493000Y-5460200D01*
X7443000Y-5410200D02*
X7543000Y-5410200D01*
X7493000Y-6884200D02*
X7493000Y-6984200D01*
X7443000Y-6934200D02*
X7543000Y-6934200D01*
X7502400Y-11608600D02*
X7502400Y-11708600D01*
X7452400Y-11658600D02*
X7552400Y-11658600D01*
X7747000Y-5360200D02*
X7747000Y-5460200D01*
X7697000Y-5410200D02*
X7797000Y-5410200D01*
X7747000Y-6884200D02*
X7747000Y-6984200D01*
X7697000Y-6934200D02*
X7797000Y-6934200D01*
X8001000Y-5360200D02*
X8001000Y-5460200D01*
X7951000Y-5410200D02*
X8051000Y-5410200D01*
X8001000Y-6884200D02*
X8001000Y-6984200D01*
X7951000Y-6934200D02*
X8051000Y-6934200D01*
X8255000Y-5360200D02*
X8255000Y-5460200D01*
X8205000Y-5410200D02*
X8305000Y-5410200D01*
X8255000Y-6884200D02*
X8255000Y-6984200D01*
X8205000Y-6934200D02*
X8305000Y-6934200D01*
X8280400Y-11608600D02*
X8280400Y-11708600D01*
X8230400Y-11658600D02*
X8330400Y-11658600D01*
X8509000Y-5360200D02*
X8509000Y-5460200D01*
X8459000Y-5410200D02*
X8559000Y-5410200D01*
X8509000Y-6884200D02*
X8509000Y-6984200D01*
X8459000Y-6934200D02*
X8559000Y-6934200D01*
X8530400Y-11608600D02*
X8530400Y-11708600D01*
X8480400Y-11658600D02*
X8580400Y-11658600D01*
X8763000Y-5360200D02*
X8763000Y-5460200D01*
X8713000Y-5410200D02*
X8813000Y-5410200D01*
X8763000Y-6884200D02*
X8763000Y-6984200D01*
X8713000Y-6934200D02*
X8813000Y-6934200D01*
X8780400Y-11608600D02*
X8780400Y-11708600D01*
X8730400Y-11658600D02*
X8830400Y-11658600D01*
X9017000Y-5360200D02*
X9017000Y-5460200D01*
X8967000Y-5410200D02*
X9067000Y-5410200D01*
X9017000Y-6884200D02*
X9017000Y-6984200D01*
X8967000Y-6934200D02*
X9067000Y-6934200D01*
X9030400Y-11608600D02*
X9030400Y-11708600D01*
X8980400Y-11658600D02*
X9080400Y-11658600D01*
X9271000Y-5360200D02*
X9271000Y-5460200D01*
X9221000Y-5410200D02*
X9321000Y-5410200D01*
X9271000Y-6884200D02*
X9271000Y-6984200D01*
X9221000Y-6934200D02*
X9321000Y-6934200D01*
X9280400Y-11608600D02*
X9280400Y-11708600D01*
X9230400Y-11658600D02*
X9330400Y-11658600D01*
X9525000Y-5360200D02*
X9525000Y-5460200D01*
X9475000Y-5410200D02*
X9575000Y-5410200D01*
X9525000Y-6884200D02*
X9525000Y-6984200D01*
X9475000Y-6934200D02*
X9575000Y-6934200D01*
X9575800Y-9576600D02*
X9575800Y-9676600D01*
X9525800Y-9626600D02*
X9625800Y-9626600D01*
X9652000Y-11989600D02*
X9652000Y-12089600D01*
X9602000Y-12039600D02*
X9702000Y-12039600D01*
X9779000Y-5360200D02*
X9779000Y-5460200D01*
X9729000Y-5410200D02*
X9829000Y-5410200D01*
X9779000Y-6884200D02*
X9779000Y-6984200D01*
X9729000Y-6934200D02*
X9829000Y-6934200D01*
X9931400Y-9576600D02*
X9931400Y-9676600D01*
X9881400Y-9626600D02*
X9981400Y-9626600D01*
X9931400Y-9830600D02*
X9931400Y-9930600D01*
X9881400Y-9880600D02*
X9981400Y-9880600D01*
X9931400Y-10084600D02*
X9931400Y-10184600D01*
X9881400Y-10134600D02*
X9981400Y-10134600D01*
X10033000Y-5360200D02*
X10033000Y-5460200D01*
X9983000Y-5410200D02*
X10083000Y-5410200D01*
X10033000Y-6884200D02*
X10033000Y-6984200D01*
X9983000Y-6934200D02*
X10083000Y-6934200D01*
X10033000Y-11608600D02*
X10033000Y-11708600D01*
X9983000Y-11658600D02*
X10083000Y-11658600D01*
X10283000Y-11608600D02*
X10283000Y-11708600D01*
X10233000Y-11658600D02*
X10333000Y-11658600D01*
X10287000Y-5360200D02*
X10287000Y-5460200D01*
X10237000Y-5410200D02*
X10337000Y-5410200D01*
X10287000Y-6884200D02*
X10287000Y-6984200D01*
X10237000Y-6934200D02*
X10337000Y-6934200D01*
X10533000Y-11608600D02*
X10533000Y-11708600D01*
X10483000Y-11658600D02*
X10583000Y-11658600D01*
X10541000Y-5360200D02*
X10541000Y-5460200D01*
X10491000Y-5410200D02*
X10591000Y-5410200D01*
X10541000Y-6884200D02*
X10541000Y-6984200D01*
X10491000Y-6934200D02*
X10591000Y-6934200D01*
X10642600Y-9576600D02*
X10642600Y-9676600D01*
X10592600Y-9626600D02*
X10692600Y-9626600D01*
X10642600Y-9830600D02*
X10642600Y-9930600D01*
X10592600Y-9880600D02*
X10692600Y-9880600D01*
X10642600Y-10084600D02*
X10642600Y-10184600D01*
X10592600Y-10134600D02*
X10692600Y-10134600D01*
X10795000Y-5360200D02*
X10795000Y-5460200D01*
X10745000Y-5410200D02*
X10845000Y-5410200D01*
X10795000Y-6884200D02*
X10795000Y-6984200D01*
X10745000Y-6934200D02*
X10845000Y-6934200D01*
X10922000Y-5741200D02*
X10922000Y-5841200D01*
X10872000Y-5791200D02*
X10972000Y-5791200D01*
X10922000Y-5995200D02*
X10922000Y-6095200D01*
X10872000Y-6045200D02*
X10972000Y-6045200D01*
X10922000Y-6249200D02*
X10922000Y-6349200D01*
X10872000Y-6299200D02*
X10972000Y-6299200D01*
X10922000Y-6503200D02*
X10922000Y-6603200D01*
X10872000Y-6553200D02*
X10972000Y-6553200D01*
X11049000Y-5360200D02*
X11049000Y-5460200D01*
X10999000Y-5410200D02*
X11099000Y-5410200D01*
X11049000Y-6884200D02*
X11049000Y-6984200D01*
X10999000Y-6934200D02*
X11099000Y-6934200D01*
X11277600Y-11608600D02*
X11277600Y-11708600D01*
X11227600Y-11658600D02*
X11327600Y-11658600D01*
X11303000Y-5360200D02*
X11303000Y-5460200D01*
X11253000Y-5410200D02*
X11353000Y-5410200D01*
X11303000Y-6884200D02*
X11303000Y-6984200D01*
X11253000Y-6934200D02*
X11353000Y-6934200D01*
X11404600Y-10313200D02*
X11404600Y-10413200D01*
X11354600Y-10363200D02*
X11454600Y-10363200D01*
X11527600Y-11608600D02*
X11527600Y-11708600D01*
X11477600Y-11658600D02*
X11577600Y-11658600D01*
X11777600Y-11608600D02*
X11777600Y-11708600D01*
X11727600Y-11658600D02*
X11827600Y-11658600D01*
X12027600Y-11608600D02*
X12027600Y-11708600D01*
X11977600Y-11658600D02*
X12077600Y-11658600D01*
X12776200Y-11608600D02*
X12776200Y-11708600D01*
X12726200Y-11658600D02*
X12826200Y-11658600D01*
X13026200Y-11608600D02*
X13026200Y-11708600D01*
X12976200Y-11658600D02*
X13076200Y-11658600D01*
X13276200Y-11608600D02*
X13276200Y-11708600D01*
X13226200Y-11658600D02*
X13326200Y-11658600D01*
X13512800Y-7392200D02*
X13512800Y-7492200D01*
X13462800Y-7442200D02*
X13562800Y-7442200D01*
X13512800Y-7646200D02*
X13512800Y-7746200D01*
X13462800Y-7696200D02*
X13562800Y-7696200D01*
X13512800Y-7900200D02*
X13512800Y-8000200D01*
X13462800Y-7950200D02*
X13562800Y-7950200D01*
X13512800Y-8154200D02*
X13512800Y-8254200D01*
X13462800Y-8204200D02*
X13562800Y-8204200D01*
X10071891Y-10833891D02*
X10071891Y-10756109D01*
X9994109Y-10756109D01*
X9994109Y-10833891D01*
X10071891Y-10833891D01*
X10071891Y-11087891D02*
X10071891Y-11010109D01*
X9994109Y-11010109D01*
X9994109Y-11087891D01*
X10071891Y-11087891D01*
X10579891Y-10833891D02*
X10579891Y-10756109D01*
X10502109Y-10756109D01*
X10502109Y-10833891D01*
X10579891Y-10833891D01*
X10579891Y-11087891D02*
X10579891Y-11010109D01*
X10502109Y-11010109D01*
X10502109Y-11087891D01*
X10579891Y-11087891D01*
X6502400Y-10982000D02*
X6562400Y-10922000D01*
X6502400Y-10862000D01*
X6442400Y-10922000D01*
X6502400Y-10982000D01*
X7010400Y-10982000D02*
X7070400Y-10922000D01*
X7010400Y-10862000D01*
X6950400Y-10922000D01*
X7010400Y-10982000D01*
D12*
X6125928Y-12914214D02*
X6125928Y-12614214D01*
X6197357Y-12614214D01*
X6240214Y-12628500D01*
X6268786Y-12657071D01*
X6283071Y-12685643D01*
X6297357Y-12742786D01*
X6297357Y-12785643D01*
X6283071Y-12842786D01*
X6268786Y-12871357D01*
X6240214Y-12899929D01*
X6197357Y-12914214D01*
X6125928Y-12914214D01*
X6425928Y-12914214D02*
X6425928Y-12714214D01*
X6425928Y-12771357D02*
X6440214Y-12742786D01*
X6454500Y-12728500D01*
X6483071Y-12714214D01*
X6511643Y-12714214D01*
X6611643Y-12914214D02*
X6611643Y-12714214D01*
X6611643Y-12614214D02*
X6597357Y-12628500D01*
X6611643Y-12642786D01*
X6625928Y-12628500D01*
X6611643Y-12614214D01*
X6611643Y-12642786D01*
X6797357Y-12914214D02*
X6768786Y-12899929D01*
X6754500Y-12871357D01*
X6754500Y-12614214D01*
X6954500Y-12914214D02*
X6925928Y-12899929D01*
X6911643Y-12871357D01*
X6911643Y-12614214D01*
X7297357Y-12914214D02*
X7297357Y-12614214D01*
X7397357Y-12828500D01*
X7497357Y-12614214D01*
X7497357Y-12914214D01*
X7768786Y-12914214D02*
X7768786Y-12757071D01*
X7754500Y-12728500D01*
X7725928Y-12714214D01*
X7668786Y-12714214D01*
X7640214Y-12728500D01*
X7768786Y-12899929D02*
X7740214Y-12914214D01*
X7668786Y-12914214D01*
X7640214Y-12899929D01*
X7625928Y-12871357D01*
X7625928Y-12842786D01*
X7640214Y-12814214D01*
X7668786Y-12799929D01*
X7740214Y-12799929D01*
X7768786Y-12785643D01*
X7911643Y-12714214D02*
X7911643Y-13014214D01*
X7911643Y-12728500D02*
X7940214Y-12714214D01*
X7997357Y-12714214D01*
X8025928Y-12728500D01*
X8040214Y-12742786D01*
X8054500Y-12771357D01*
X8054500Y-12857071D01*
X8040214Y-12885643D01*
X8025928Y-12899929D01*
X7997357Y-12914214D01*
X7940214Y-12914214D01*
X7911643Y-12899929D01*
X8183071Y-12885643D02*
X8197357Y-12899929D01*
X8183071Y-12914214D01*
X8168786Y-12899929D01*
X8183071Y-12885643D01*
X8183071Y-12914214D01*
X8183071Y-12728500D02*
X8197357Y-12742786D01*
X8183071Y-12757071D01*
X8168786Y-12742786D01*
X8183071Y-12728500D01*
X8183071Y-12757071D01*
X5799500Y-13388500D02*
X5839500Y-13428500D01*
X5839500Y-13388500D02*
X5799500Y-13428500D01*
X6183071Y-13244214D02*
X6211643Y-13244214D01*
X6240214Y-13258500D01*
X6254500Y-13272786D01*
X6268786Y-13301357D01*
X6283071Y-13358500D01*
X6283071Y-13429929D01*
X6268786Y-13487071D01*
X6254500Y-13515643D01*
X6240214Y-13529929D01*
X6211643Y-13544214D01*
X6183071Y-13544214D01*
X6154500Y-13529929D01*
X6140214Y-13515643D01*
X6125928Y-13487071D01*
X6111643Y-13429929D01*
X6111643Y-13358500D01*
X6125928Y-13301357D01*
X6140214Y-13272786D01*
X6154500Y-13258500D01*
X6183071Y-13244214D01*
X6411643Y-13515643D02*
X6425928Y-13529929D01*
X6411643Y-13544214D01*
X6397357Y-13529929D01*
X6411643Y-13515643D01*
X6411643Y-13544214D01*
X6683071Y-13344214D02*
X6683071Y-13544214D01*
X6611643Y-13229929D02*
X6540214Y-13444214D01*
X6725928Y-13444214D01*
X6897357Y-13244214D02*
X6925928Y-13244214D01*
X6954500Y-13258500D01*
X6968786Y-13272786D01*
X6983071Y-13301357D01*
X6997357Y-13358500D01*
X6997357Y-13429929D01*
X6983071Y-13487071D01*
X6968786Y-13515643D01*
X6954500Y-13529929D01*
X6925928Y-13544214D01*
X6897357Y-13544214D01*
X6868786Y-13529929D01*
X6854500Y-13515643D01*
X6840214Y-13487071D01*
X6825928Y-13429929D01*
X6825928Y-13358500D01*
X6840214Y-13301357D01*
X6854500Y-13272786D01*
X6868786Y-13258500D01*
X6897357Y-13244214D01*
X7183071Y-13244214D02*
X7211643Y-13244214D01*
X7240214Y-13258500D01*
X7254500Y-13272786D01*
X7268786Y-13301357D01*
X7283071Y-13358500D01*
X7283071Y-13429929D01*
X7268786Y-13487071D01*
X7254500Y-13515643D01*
X7240214Y-13529929D01*
X7211643Y-13544214D01*
X7183071Y-13544214D01*
X7154500Y-13529929D01*
X7140214Y-13515643D01*
X7125928Y-13487071D01*
X7111643Y-13429929D01*
X7111643Y-13358500D01*
X7125928Y-13301357D01*
X7140214Y-13272786D01*
X7154500Y-13258500D01*
X7183071Y-13244214D01*
X7411643Y-13544214D02*
X7411643Y-13344214D01*
X7411643Y-13372786D02*
X7425928Y-13358500D01*
X7454500Y-13344214D01*
X7497357Y-13344214D01*
X7525928Y-13358500D01*
X7540214Y-13387071D01*
X7540214Y-13544214D01*
X7540214Y-13387071D02*
X7554500Y-13358500D01*
X7583071Y-13344214D01*
X7625928Y-13344214D01*
X7654500Y-13358500D01*
X7668786Y-13387071D01*
X7668786Y-13544214D01*
X7811643Y-13544214D02*
X7811643Y-13344214D01*
X7811643Y-13372786D02*
X7825928Y-13358500D01*
X7854500Y-13344214D01*
X7897357Y-13344214D01*
X7925928Y-13358500D01*
X7940214Y-13387071D01*
X7940214Y-13544214D01*
X7940214Y-13387071D02*
X7954500Y-13358500D01*
X7983071Y-13344214D01*
X8025928Y-13344214D01*
X8054500Y-13358500D01*
X8068786Y-13387071D01*
X8068786Y-13544214D01*
X8654500Y-13229929D02*
X8397357Y-13615643D01*
X9040214Y-13244214D02*
X9068786Y-13244214D01*
X9097357Y-13258500D01*
X9111643Y-13272786D01*
X9125928Y-13301357D01*
X9140214Y-13358500D01*
X9140214Y-13429929D01*
X9125928Y-13487071D01*
X9111643Y-13515643D01*
X9097357Y-13529929D01*
X9068786Y-13544214D01*
X9040214Y-13544214D01*
X9011643Y-13529929D01*
X8997357Y-13515643D01*
X8983071Y-13487071D01*
X8968786Y-13429929D01*
X8968786Y-13358500D01*
X8983071Y-13301357D01*
X8997357Y-13272786D01*
X9011643Y-13258500D01*
X9040214Y-13244214D01*
X9268786Y-13515643D02*
X9283071Y-13529929D01*
X9268786Y-13544214D01*
X9254500Y-13529929D01*
X9268786Y-13515643D01*
X9268786Y-13544214D01*
X9468786Y-13244214D02*
X9497357Y-13244214D01*
X9525928Y-13258500D01*
X9540214Y-13272786D01*
X9554500Y-13301357D01*
X9568786Y-13358500D01*
X9568786Y-13429929D01*
X9554500Y-13487071D01*
X9540214Y-13515643D01*
X9525928Y-13529929D01*
X9497357Y-13544214D01*
X9468786Y-13544214D01*
X9440214Y-13529929D01*
X9425928Y-13515643D01*
X9411643Y-13487071D01*
X9397357Y-13429929D01*
X9397357Y-13358500D01*
X9411643Y-13301357D01*
X9425928Y-13272786D01*
X9440214Y-13258500D01*
X9468786Y-13244214D01*
X9854500Y-13544214D02*
X9683071Y-13544214D01*
X9768786Y-13544214D02*
X9768786Y-13244214D01*
X9740214Y-13287071D01*
X9711643Y-13315643D01*
X9683071Y-13329929D01*
X10125928Y-13244214D02*
X9983071Y-13244214D01*
X9968786Y-13387071D01*
X9983071Y-13372786D01*
X10011643Y-13358500D01*
X10083071Y-13358500D01*
X10111643Y-13372786D01*
X10125928Y-13387071D01*
X10140214Y-13415643D01*
X10140214Y-13487071D01*
X10125928Y-13515643D01*
X10111643Y-13529929D01*
X10083071Y-13544214D01*
X10011643Y-13544214D01*
X9983071Y-13529929D01*
X9968786Y-13515643D01*
X10240214Y-13244214D02*
X10440214Y-13244214D01*
X10311643Y-13544214D01*
X10540214Y-13244214D02*
X10540214Y-13301357D01*
X10654500Y-13244214D02*
X10654500Y-13301357D01*
X11097357Y-13658500D02*
X11083071Y-13644214D01*
X11054500Y-13601357D01*
X11040214Y-13572786D01*
X11025928Y-13529929D01*
X11011643Y-13458500D01*
X11011643Y-13401357D01*
X11025928Y-13329929D01*
X11040214Y-13287071D01*
X11054500Y-13258500D01*
X11083071Y-13215643D01*
X11097357Y-13201357D01*
X11183071Y-13244214D02*
X11368786Y-13244214D01*
X11268786Y-13358500D01*
X11311643Y-13358500D01*
X11340214Y-13372786D01*
X11354500Y-13387071D01*
X11368786Y-13415643D01*
X11368786Y-13487071D01*
X11354500Y-13515643D01*
X11340214Y-13529929D01*
X11311643Y-13544214D01*
X11225928Y-13544214D01*
X11197357Y-13529929D01*
X11183071Y-13515643D01*
X11483071Y-13272786D02*
X11497357Y-13258500D01*
X11525928Y-13244214D01*
X11597357Y-13244214D01*
X11625928Y-13258500D01*
X11640214Y-13272786D01*
X11654500Y-13301357D01*
X11654500Y-13329929D01*
X11640214Y-13372786D01*
X11468786Y-13544214D01*
X11654500Y-13544214D01*
X12011643Y-13544214D02*
X12011643Y-13244214D01*
X12140214Y-13544214D02*
X12140214Y-13387071D01*
X12125928Y-13358500D01*
X12097357Y-13344214D01*
X12054500Y-13344214D01*
X12025928Y-13358500D01*
X12011643Y-13372786D01*
X12325928Y-13544214D02*
X12297357Y-13529929D01*
X12283071Y-13515643D01*
X12268786Y-13487071D01*
X12268786Y-13401357D01*
X12283071Y-13372786D01*
X12297357Y-13358500D01*
X12325928Y-13344214D01*
X12368786Y-13344214D01*
X12397357Y-13358500D01*
X12411643Y-13372786D01*
X12425928Y-13401357D01*
X12425928Y-13487071D01*
X12411643Y-13515643D01*
X12397357Y-13529929D01*
X12368786Y-13544214D01*
X12325928Y-13544214D01*
X12597357Y-13544214D02*
X12568786Y-13529929D01*
X12554500Y-13501357D01*
X12554500Y-13244214D01*
X12825928Y-13529929D02*
X12797357Y-13544214D01*
X12740214Y-13544214D01*
X12711643Y-13529929D01*
X12697357Y-13501357D01*
X12697357Y-13387071D01*
X12711643Y-13358500D01*
X12740214Y-13344214D01*
X12797357Y-13344214D01*
X12825928Y-13358500D01*
X12840214Y-13387071D01*
X12840214Y-13415643D01*
X12697357Y-13444214D01*
X12954500Y-13529929D02*
X12983071Y-13544214D01*
X13040214Y-13544214D01*
X13068786Y-13529929D01*
X13083071Y-13501357D01*
X13083071Y-13487071D01*
X13068786Y-13458500D01*
X13040214Y-13444214D01*
X12997357Y-13444214D01*
X12968786Y-13429929D01*
X12954500Y-13401357D01*
X12954500Y-13387071D01*
X12968786Y-13358500D01*
X12997357Y-13344214D01*
X13040214Y-13344214D01*
X13068786Y-13358500D01*
X13183071Y-13658500D02*
X13197357Y-13644214D01*
X13225928Y-13601357D01*
X13240214Y-13572786D01*
X13254500Y-13529929D01*
X13268786Y-13458500D01*
X13268786Y-13401357D01*
X13254500Y-13329929D01*
X13240214Y-13287071D01*
X13225928Y-13258500D01*
X13197357Y-13215643D01*
X13183071Y-13201357D01*
X5839500Y-13804500D02*
G75*
G03*
X5839500Y-13804500I-38100J0D01*
G01*
X6183071Y-13640214D02*
X6211643Y-13640214D01*
X6240214Y-13654500D01*
X6254500Y-13668786D01*
X6268786Y-13697357D01*
X6283071Y-13754500D01*
X6283071Y-13825929D01*
X6268786Y-13883071D01*
X6254500Y-13911643D01*
X6240214Y-13925929D01*
X6211643Y-13940214D01*
X6183071Y-13940214D01*
X6154500Y-13925929D01*
X6140214Y-13911643D01*
X6125928Y-13883071D01*
X6111643Y-13825929D01*
X6111643Y-13754500D01*
X6125928Y-13697357D01*
X6140214Y-13668786D01*
X6154500Y-13654500D01*
X6183071Y-13640214D01*
X6411643Y-13911643D02*
X6425928Y-13925929D01*
X6411643Y-13940214D01*
X6397357Y-13925929D01*
X6411643Y-13911643D01*
X6411643Y-13940214D01*
X6525928Y-13640214D02*
X6725928Y-13640214D01*
X6597357Y-13940214D01*
X6968786Y-13640214D02*
X6911643Y-13640214D01*
X6883071Y-13654500D01*
X6868786Y-13668786D01*
X6840214Y-13711643D01*
X6825928Y-13768786D01*
X6825928Y-13883071D01*
X6840214Y-13911643D01*
X6854500Y-13925929D01*
X6883071Y-13940214D01*
X6940214Y-13940214D01*
X6968786Y-13925929D01*
X6983071Y-13911643D01*
X6997357Y-13883071D01*
X6997357Y-13811643D01*
X6983071Y-13783071D01*
X6968786Y-13768786D01*
X6940214Y-13754500D01*
X6883071Y-13754500D01*
X6854500Y-13768786D01*
X6840214Y-13783071D01*
X6825928Y-13811643D01*
X7111643Y-13668786D02*
X7125928Y-13654500D01*
X7154500Y-13640214D01*
X7225928Y-13640214D01*
X7254500Y-13654500D01*
X7268786Y-13668786D01*
X7283071Y-13697357D01*
X7283071Y-13725929D01*
X7268786Y-13768786D01*
X7097357Y-13940214D01*
X7283071Y-13940214D01*
X7411643Y-13940214D02*
X7411643Y-13740214D01*
X7411643Y-13768786D02*
X7425928Y-13754500D01*
X7454500Y-13740214D01*
X7497357Y-13740214D01*
X7525928Y-13754500D01*
X7540214Y-13783071D01*
X7540214Y-13940214D01*
X7540214Y-13783071D02*
X7554500Y-13754500D01*
X7583071Y-13740214D01*
X7625928Y-13740214D01*
X7654500Y-13754500D01*
X7668786Y-13783071D01*
X7668786Y-13940214D01*
X7811643Y-13940214D02*
X7811643Y-13740214D01*
X7811643Y-13768786D02*
X7825928Y-13754500D01*
X7854500Y-13740214D01*
X7897357Y-13740214D01*
X7925928Y-13754500D01*
X7940214Y-13783071D01*
X7940214Y-13940214D01*
X7940214Y-13783071D02*
X7954500Y-13754500D01*
X7983071Y-13740214D01*
X8025928Y-13740214D01*
X8054500Y-13754500D01*
X8068786Y-13783071D01*
X8068786Y-13940214D01*
X8654500Y-13625929D02*
X8397357Y-14011643D01*
X9040214Y-13640214D02*
X9068786Y-13640214D01*
X9097357Y-13654500D01*
X9111643Y-13668786D01*
X9125928Y-13697357D01*
X9140214Y-13754500D01*
X9140214Y-13825929D01*
X9125928Y-13883071D01*
X9111643Y-13911643D01*
X9097357Y-13925929D01*
X9068786Y-13940214D01*
X9040214Y-13940214D01*
X9011643Y-13925929D01*
X8997357Y-13911643D01*
X8983071Y-13883071D01*
X8968786Y-13825929D01*
X8968786Y-13754500D01*
X8983071Y-13697357D01*
X8997357Y-13668786D01*
X9011643Y-13654500D01*
X9040214Y-13640214D01*
X9268786Y-13911643D02*
X9283071Y-13925929D01*
X9268786Y-13940214D01*
X9254500Y-13925929D01*
X9268786Y-13911643D01*
X9268786Y-13940214D01*
X9468786Y-13640214D02*
X9497357Y-13640214D01*
X9525928Y-13654500D01*
X9540214Y-13668786D01*
X9554500Y-13697357D01*
X9568786Y-13754500D01*
X9568786Y-13825929D01*
X9554500Y-13883071D01*
X9540214Y-13911643D01*
X9525928Y-13925929D01*
X9497357Y-13940214D01*
X9468786Y-13940214D01*
X9440214Y-13925929D01*
X9425928Y-13911643D01*
X9411643Y-13883071D01*
X9397357Y-13825929D01*
X9397357Y-13754500D01*
X9411643Y-13697357D01*
X9425928Y-13668786D01*
X9440214Y-13654500D01*
X9468786Y-13640214D01*
X9668786Y-13640214D02*
X9854500Y-13640214D01*
X9754500Y-13754500D01*
X9797357Y-13754500D01*
X9825928Y-13768786D01*
X9840214Y-13783071D01*
X9854500Y-13811643D01*
X9854500Y-13883071D01*
X9840214Y-13911643D01*
X9825928Y-13925929D01*
X9797357Y-13940214D01*
X9711643Y-13940214D01*
X9683071Y-13925929D01*
X9668786Y-13911643D01*
X10040214Y-13640214D02*
X10068786Y-13640214D01*
X10097357Y-13654500D01*
X10111643Y-13668786D01*
X10125928Y-13697357D01*
X10140214Y-13754500D01*
X10140214Y-13825929D01*
X10125928Y-13883071D01*
X10111643Y-13911643D01*
X10097357Y-13925929D01*
X10068786Y-13940214D01*
X10040214Y-13940214D01*
X10011643Y-13925929D01*
X9997357Y-13911643D01*
X9983071Y-13883071D01*
X9968786Y-13825929D01*
X9968786Y-13754500D01*
X9983071Y-13697357D01*
X9997357Y-13668786D01*
X10011643Y-13654500D01*
X10040214Y-13640214D01*
X10325928Y-13640214D02*
X10354500Y-13640214D01*
X10383071Y-13654500D01*
X10397357Y-13668786D01*
X10411643Y-13697357D01*
X10425928Y-13754500D01*
X10425928Y-13825929D01*
X10411643Y-13883071D01*
X10397357Y-13911643D01*
X10383071Y-13925929D01*
X10354500Y-13940214D01*
X10325928Y-13940214D01*
X10297357Y-13925929D01*
X10283071Y-13911643D01*
X10268786Y-13883071D01*
X10254500Y-13825929D01*
X10254500Y-13754500D01*
X10268786Y-13697357D01*
X10283071Y-13668786D01*
X10297357Y-13654500D01*
X10325928Y-13640214D01*
X10540214Y-13640214D02*
X10540214Y-13697357D01*
X10654500Y-13640214D02*
X10654500Y-13697357D01*
X11097357Y-14054500D02*
X11083071Y-14040214D01*
X11054500Y-13997357D01*
X11040214Y-13968786D01*
X11025928Y-13925929D01*
X11011643Y-13854500D01*
X11011643Y-13797357D01*
X11025928Y-13725929D01*
X11040214Y-13683071D01*
X11054500Y-13654500D01*
X11083071Y-13611643D01*
X11097357Y-13597357D01*
X11368786Y-13940214D02*
X11197357Y-13940214D01*
X11283071Y-13940214D02*
X11283071Y-13640214D01*
X11254500Y-13683071D01*
X11225928Y-13711643D01*
X11197357Y-13725929D01*
X11554500Y-13640214D02*
X11583071Y-13640214D01*
X11611643Y-13654500D01*
X11625928Y-13668786D01*
X11640214Y-13697357D01*
X11654500Y-13754500D01*
X11654500Y-13825929D01*
X11640214Y-13883071D01*
X11625928Y-13911643D01*
X11611643Y-13925929D01*
X11583071Y-13940214D01*
X11554500Y-13940214D01*
X11525928Y-13925929D01*
X11511643Y-13911643D01*
X11497357Y-13883071D01*
X11483071Y-13825929D01*
X11483071Y-13754500D01*
X11497357Y-13697357D01*
X11511643Y-13668786D01*
X11525928Y-13654500D01*
X11554500Y-13640214D01*
X12011643Y-13940214D02*
X12011643Y-13640214D01*
X12140214Y-13940214D02*
X12140214Y-13783071D01*
X12125928Y-13754500D01*
X12097357Y-13740214D01*
X12054500Y-13740214D01*
X12025928Y-13754500D01*
X12011643Y-13768786D01*
X12325928Y-13940214D02*
X12297357Y-13925929D01*
X12283071Y-13911643D01*
X12268786Y-13883071D01*
X12268786Y-13797357D01*
X12283071Y-13768786D01*
X12297357Y-13754500D01*
X12325928Y-13740214D01*
X12368786Y-13740214D01*
X12397357Y-13754500D01*
X12411643Y-13768786D01*
X12425928Y-13797357D01*
X12425928Y-13883071D01*
X12411643Y-13911643D01*
X12397357Y-13925929D01*
X12368786Y-13940214D01*
X12325928Y-13940214D01*
X12597357Y-13940214D02*
X12568786Y-13925929D01*
X12554500Y-13897357D01*
X12554500Y-13640214D01*
X12825928Y-13925929D02*
X12797357Y-13940214D01*
X12740214Y-13940214D01*
X12711643Y-13925929D01*
X12697357Y-13897357D01*
X12697357Y-13783071D01*
X12711643Y-13754500D01*
X12740214Y-13740214D01*
X12797357Y-13740214D01*
X12825928Y-13754500D01*
X12840214Y-13783071D01*
X12840214Y-13811643D01*
X12697357Y-13840214D01*
X12954500Y-13925929D02*
X12983071Y-13940214D01*
X13040214Y-13940214D01*
X13068786Y-13925929D01*
X13083071Y-13897357D01*
X13083071Y-13883071D01*
X13068786Y-13854500D01*
X13040214Y-13840214D01*
X12997357Y-13840214D01*
X12968786Y-13825929D01*
X12954500Y-13797357D01*
X12954500Y-13783071D01*
X12968786Y-13754500D01*
X12997357Y-13740214D01*
X13040214Y-13740214D01*
X13068786Y-13754500D01*
X13183071Y-14054500D02*
X13197357Y-14040214D01*
X13225928Y-13997357D01*
X13240214Y-13968786D01*
X13254500Y-13925929D01*
X13268786Y-13854500D01*
X13268786Y-13797357D01*
X13254500Y-13725929D01*
X13240214Y-13683071D01*
X13225928Y-13654500D01*
X13197357Y-13611643D01*
X13183071Y-13597357D01*
X5789500Y-14150500D02*
X5789500Y-14250500D01*
X5739500Y-14200500D02*
X5839500Y-14200500D01*
X6283071Y-14336214D02*
X6111643Y-14336214D01*
X6197357Y-14336214D02*
X6197357Y-14036214D01*
X6168786Y-14079071D01*
X6140214Y-14107643D01*
X6111643Y-14121929D01*
X6411643Y-14307643D02*
X6425928Y-14321929D01*
X6411643Y-14336214D01*
X6397357Y-14321929D01*
X6411643Y-14307643D01*
X6411643Y-14336214D01*
X6611643Y-14036214D02*
X6640214Y-14036214D01*
X6668786Y-14050500D01*
X6683071Y-14064786D01*
X6697357Y-14093357D01*
X6711643Y-14150500D01*
X6711643Y-14221929D01*
X6697357Y-14279071D01*
X6683071Y-14307643D01*
X6668786Y-14321929D01*
X6640214Y-14336214D01*
X6611643Y-14336214D01*
X6583071Y-14321929D01*
X6568786Y-14307643D01*
X6554500Y-14279071D01*
X6540214Y-14221929D01*
X6540214Y-14150500D01*
X6554500Y-14093357D01*
X6568786Y-14064786D01*
X6583071Y-14050500D01*
X6611643Y-14036214D01*
X6897357Y-14036214D02*
X6925928Y-14036214D01*
X6954500Y-14050500D01*
X6968786Y-14064786D01*
X6983071Y-14093357D01*
X6997357Y-14150500D01*
X6997357Y-14221929D01*
X6983071Y-14279071D01*
X6968786Y-14307643D01*
X6954500Y-14321929D01*
X6925928Y-14336214D01*
X6897357Y-14336214D01*
X6868786Y-14321929D01*
X6854500Y-14307643D01*
X6840214Y-14279071D01*
X6825928Y-14221929D01*
X6825928Y-14150500D01*
X6840214Y-14093357D01*
X6854500Y-14064786D01*
X6868786Y-14050500D01*
X6897357Y-14036214D01*
X7183071Y-14036214D02*
X7211643Y-14036214D01*
X7240214Y-14050500D01*
X7254500Y-14064786D01*
X7268786Y-14093357D01*
X7283071Y-14150500D01*
X7283071Y-14221929D01*
X7268786Y-14279071D01*
X7254500Y-14307643D01*
X7240214Y-14321929D01*
X7211643Y-14336214D01*
X7183071Y-14336214D01*
X7154500Y-14321929D01*
X7140214Y-14307643D01*
X7125928Y-14279071D01*
X7111643Y-14221929D01*
X7111643Y-14150500D01*
X7125928Y-14093357D01*
X7140214Y-14064786D01*
X7154500Y-14050500D01*
X7183071Y-14036214D01*
X7411643Y-14336214D02*
X7411643Y-14136214D01*
X7411643Y-14164786D02*
X7425928Y-14150500D01*
X7454500Y-14136214D01*
X7497357Y-14136214D01*
X7525928Y-14150500D01*
X7540214Y-14179071D01*
X7540214Y-14336214D01*
X7540214Y-14179071D02*
X7554500Y-14150500D01*
X7583071Y-14136214D01*
X7625928Y-14136214D01*
X7654500Y-14150500D01*
X7668786Y-14179071D01*
X7668786Y-14336214D01*
X7811643Y-14336214D02*
X7811643Y-14136214D01*
X7811643Y-14164786D02*
X7825928Y-14150500D01*
X7854500Y-14136214D01*
X7897357Y-14136214D01*
X7925928Y-14150500D01*
X7940214Y-14179071D01*
X7940214Y-14336214D01*
X7940214Y-14179071D02*
X7954500Y-14150500D01*
X7983071Y-14136214D01*
X8025928Y-14136214D01*
X8054500Y-14150500D01*
X8068786Y-14179071D01*
X8068786Y-14336214D01*
X8654500Y-14021929D02*
X8397357Y-14407643D01*
X9040214Y-14036214D02*
X9068786Y-14036214D01*
X9097357Y-14050500D01*
X9111643Y-14064786D01*
X9125928Y-14093357D01*
X9140214Y-14150500D01*
X9140214Y-14221929D01*
X9125928Y-14279071D01*
X9111643Y-14307643D01*
X9097357Y-14321929D01*
X9068786Y-14336214D01*
X9040214Y-14336214D01*
X9011643Y-14321929D01*
X8997357Y-14307643D01*
X8983071Y-14279071D01*
X8968786Y-14221929D01*
X8968786Y-14150500D01*
X8983071Y-14093357D01*
X8997357Y-14064786D01*
X9011643Y-14050500D01*
X9040214Y-14036214D01*
X9268786Y-14307643D02*
X9283071Y-14321929D01*
X9268786Y-14336214D01*
X9254500Y-14321929D01*
X9268786Y-14307643D01*
X9268786Y-14336214D01*
X9468786Y-14036214D02*
X9497357Y-14036214D01*
X9525928Y-14050500D01*
X9540214Y-14064786D01*
X9554500Y-14093357D01*
X9568786Y-14150500D01*
X9568786Y-14221929D01*
X9554500Y-14279071D01*
X9540214Y-14307643D01*
X9525928Y-14321929D01*
X9497357Y-14336214D01*
X9468786Y-14336214D01*
X9440214Y-14321929D01*
X9425928Y-14307643D01*
X9411643Y-14279071D01*
X9397357Y-14221929D01*
X9397357Y-14150500D01*
X9411643Y-14093357D01*
X9425928Y-14064786D01*
X9440214Y-14050500D01*
X9468786Y-14036214D01*
X9668786Y-14036214D02*
X9854500Y-14036214D01*
X9754500Y-14150500D01*
X9797357Y-14150500D01*
X9825928Y-14164786D01*
X9840214Y-14179071D01*
X9854500Y-14207643D01*
X9854500Y-14279071D01*
X9840214Y-14307643D01*
X9825928Y-14321929D01*
X9797357Y-14336214D01*
X9711643Y-14336214D01*
X9683071Y-14321929D01*
X9668786Y-14307643D01*
X9997357Y-14336214D02*
X10054500Y-14336214D01*
X10083071Y-14321929D01*
X10097357Y-14307643D01*
X10125928Y-14264786D01*
X10140214Y-14207643D01*
X10140214Y-14093357D01*
X10125928Y-14064786D01*
X10111643Y-14050500D01*
X10083071Y-14036214D01*
X10025928Y-14036214D01*
X9997357Y-14050500D01*
X9983071Y-14064786D01*
X9968786Y-14093357D01*
X9968786Y-14164786D01*
X9983071Y-14193357D01*
X9997357Y-14207643D01*
X10025928Y-14221929D01*
X10083071Y-14221929D01*
X10111643Y-14207643D01*
X10125928Y-14193357D01*
X10140214Y-14164786D01*
X10397357Y-14136214D02*
X10397357Y-14336214D01*
X10325928Y-14021929D02*
X10254500Y-14236214D01*
X10440214Y-14236214D01*
X10540214Y-14036214D02*
X10540214Y-14093357D01*
X10654500Y-14036214D02*
X10654500Y-14093357D01*
X11097357Y-14450500D02*
X11083071Y-14436214D01*
X11054500Y-14393357D01*
X11040214Y-14364786D01*
X11025928Y-14321929D01*
X11011643Y-14250500D01*
X11011643Y-14193357D01*
X11025928Y-14121929D01*
X11040214Y-14079071D01*
X11054500Y-14050500D01*
X11083071Y-14007643D01*
X11097357Y-13993357D01*
X11183071Y-14036214D02*
X11383071Y-14036214D01*
X11254500Y-14336214D01*
X11540214Y-14164786D02*
X11511643Y-14150500D01*
X11497357Y-14136214D01*
X11483071Y-14107643D01*
X11483071Y-14093357D01*
X11497357Y-14064786D01*
X11511643Y-14050500D01*
X11540214Y-14036214D01*
X11597357Y-14036214D01*
X11625928Y-14050500D01*
X11640214Y-14064786D01*
X11654500Y-14093357D01*
X11654500Y-14107643D01*
X11640214Y-14136214D01*
X11625928Y-14150500D01*
X11597357Y-14164786D01*
X11540214Y-14164786D01*
X11511643Y-14179071D01*
X11497357Y-14193357D01*
X11483071Y-14221929D01*
X11483071Y-14279071D01*
X11497357Y-14307643D01*
X11511643Y-14321929D01*
X11540214Y-14336214D01*
X11597357Y-14336214D01*
X11625928Y-14321929D01*
X11640214Y-14307643D01*
X11654500Y-14279071D01*
X11654500Y-14221929D01*
X11640214Y-14193357D01*
X11625928Y-14179071D01*
X11597357Y-14164786D01*
X12011643Y-14336214D02*
X12011643Y-14036214D01*
X12140214Y-14336214D02*
X12140214Y-14179071D01*
X12125928Y-14150500D01*
X12097357Y-14136214D01*
X12054500Y-14136214D01*
X12025928Y-14150500D01*
X12011643Y-14164786D01*
X12325928Y-14336214D02*
X12297357Y-14321929D01*
X12283071Y-14307643D01*
X12268786Y-14279071D01*
X12268786Y-14193357D01*
X12283071Y-14164786D01*
X12297357Y-14150500D01*
X12325928Y-14136214D01*
X12368786Y-14136214D01*
X12397357Y-14150500D01*
X12411643Y-14164786D01*
X12425928Y-14193357D01*
X12425928Y-14279071D01*
X12411643Y-14307643D01*
X12397357Y-14321929D01*
X12368786Y-14336214D01*
X12325928Y-14336214D01*
X12597357Y-14336214D02*
X12568786Y-14321929D01*
X12554500Y-14293357D01*
X12554500Y-14036214D01*
X12825928Y-14321929D02*
X12797357Y-14336214D01*
X12740214Y-14336214D01*
X12711643Y-14321929D01*
X12697357Y-14293357D01*
X12697357Y-14179071D01*
X12711643Y-14150500D01*
X12740214Y-14136214D01*
X12797357Y-14136214D01*
X12825928Y-14150500D01*
X12840214Y-14179071D01*
X12840214Y-14207643D01*
X12697357Y-14236214D01*
X12954500Y-14321929D02*
X12983071Y-14336214D01*
X13040214Y-14336214D01*
X13068786Y-14321929D01*
X13083071Y-14293357D01*
X13083071Y-14279071D01*
X13068786Y-14250500D01*
X13040214Y-14236214D01*
X12997357Y-14236214D01*
X12968786Y-14221929D01*
X12954500Y-14193357D01*
X12954500Y-14179071D01*
X12968786Y-14150500D01*
X12997357Y-14136214D01*
X13040214Y-14136214D01*
X13068786Y-14150500D01*
X13183071Y-14450500D02*
X13197357Y-14436214D01*
X13225928Y-14393357D01*
X13240214Y-14364786D01*
X13254500Y-14321929D01*
X13268786Y-14250500D01*
X13268786Y-14193357D01*
X13254500Y-14121929D01*
X13240214Y-14079071D01*
X13225928Y-14050500D01*
X13197357Y-14007643D01*
X13183071Y-13993357D01*
X5823391Y-14635391D02*
X5823391Y-14557609D01*
X5745609Y-14557609D01*
X5745609Y-14635391D01*
X5823391Y-14635391D01*
X6283071Y-14732214D02*
X6111643Y-14732214D01*
X6197357Y-14732214D02*
X6197357Y-14432214D01*
X6168786Y-14475071D01*
X6140214Y-14503643D01*
X6111643Y-14517929D01*
X6411643Y-14703643D02*
X6425928Y-14717929D01*
X6411643Y-14732214D01*
X6397357Y-14717929D01*
X6411643Y-14703643D01*
X6411643Y-14732214D01*
X6711643Y-14732214D02*
X6540214Y-14732214D01*
X6625928Y-14732214D02*
X6625928Y-14432214D01*
X6597357Y-14475071D01*
X6568786Y-14503643D01*
X6540214Y-14517929D01*
X6897357Y-14432214D02*
X6925928Y-14432214D01*
X6954500Y-14446500D01*
X6968786Y-14460786D01*
X6983071Y-14489357D01*
X6997357Y-14546500D01*
X6997357Y-14617929D01*
X6983071Y-14675071D01*
X6968786Y-14703643D01*
X6954500Y-14717929D01*
X6925928Y-14732214D01*
X6897357Y-14732214D01*
X6868786Y-14717929D01*
X6854500Y-14703643D01*
X6840214Y-14675071D01*
X6825928Y-14617929D01*
X6825928Y-14546500D01*
X6840214Y-14489357D01*
X6854500Y-14460786D01*
X6868786Y-14446500D01*
X6897357Y-14432214D01*
X7183071Y-14432214D02*
X7211643Y-14432214D01*
X7240214Y-14446500D01*
X7254500Y-14460786D01*
X7268786Y-14489357D01*
X7283071Y-14546500D01*
X7283071Y-14617929D01*
X7268786Y-14675071D01*
X7254500Y-14703643D01*
X7240214Y-14717929D01*
X7211643Y-14732214D01*
X7183071Y-14732214D01*
X7154500Y-14717929D01*
X7140214Y-14703643D01*
X7125928Y-14675071D01*
X7111643Y-14617929D01*
X7111643Y-14546500D01*
X7125928Y-14489357D01*
X7140214Y-14460786D01*
X7154500Y-14446500D01*
X7183071Y-14432214D01*
X7411643Y-14732214D02*
X7411643Y-14532214D01*
X7411643Y-14560786D02*
X7425928Y-14546500D01*
X7454500Y-14532214D01*
X7497357Y-14532214D01*
X7525928Y-14546500D01*
X7540214Y-14575071D01*
X7540214Y-14732214D01*
X7540214Y-14575071D02*
X7554500Y-14546500D01*
X7583071Y-14532214D01*
X7625928Y-14532214D01*
X7654500Y-14546500D01*
X7668786Y-14575071D01*
X7668786Y-14732214D01*
X7811643Y-14732214D02*
X7811643Y-14532214D01*
X7811643Y-14560786D02*
X7825928Y-14546500D01*
X7854500Y-14532214D01*
X7897357Y-14532214D01*
X7925928Y-14546500D01*
X7940214Y-14575071D01*
X7940214Y-14732214D01*
X7940214Y-14575071D02*
X7954500Y-14546500D01*
X7983071Y-14532214D01*
X8025928Y-14532214D01*
X8054500Y-14546500D01*
X8068786Y-14575071D01*
X8068786Y-14732214D01*
X8654500Y-14417929D02*
X8397357Y-14803643D01*
X9040214Y-14432214D02*
X9068786Y-14432214D01*
X9097357Y-14446500D01*
X9111643Y-14460786D01*
X9125928Y-14489357D01*
X9140214Y-14546500D01*
X9140214Y-14617929D01*
X9125928Y-14675071D01*
X9111643Y-14703643D01*
X9097357Y-14717929D01*
X9068786Y-14732214D01*
X9040214Y-14732214D01*
X9011643Y-14717929D01*
X8997357Y-14703643D01*
X8983071Y-14675071D01*
X8968786Y-14617929D01*
X8968786Y-14546500D01*
X8983071Y-14489357D01*
X8997357Y-14460786D01*
X9011643Y-14446500D01*
X9040214Y-14432214D01*
X9268786Y-14703643D02*
X9283071Y-14717929D01*
X9268786Y-14732214D01*
X9254500Y-14717929D01*
X9268786Y-14703643D01*
X9268786Y-14732214D01*
X9468786Y-14432214D02*
X9497357Y-14432214D01*
X9525928Y-14446500D01*
X9540214Y-14460786D01*
X9554500Y-14489357D01*
X9568786Y-14546500D01*
X9568786Y-14617929D01*
X9554500Y-14675071D01*
X9540214Y-14703643D01*
X9525928Y-14717929D01*
X9497357Y-14732214D01*
X9468786Y-14732214D01*
X9440214Y-14717929D01*
X9425928Y-14703643D01*
X9411643Y-14675071D01*
X9397357Y-14617929D01*
X9397357Y-14546500D01*
X9411643Y-14489357D01*
X9425928Y-14460786D01*
X9440214Y-14446500D01*
X9468786Y-14432214D01*
X9825928Y-14532214D02*
X9825928Y-14732214D01*
X9754500Y-14417929D02*
X9683071Y-14632214D01*
X9868786Y-14632214D01*
X9954500Y-14432214D02*
X10140214Y-14432214D01*
X10040214Y-14546500D01*
X10083071Y-14546500D01*
X10111643Y-14560786D01*
X10125928Y-14575071D01*
X10140214Y-14603643D01*
X10140214Y-14675071D01*
X10125928Y-14703643D01*
X10111643Y-14717929D01*
X10083071Y-14732214D01*
X9997357Y-14732214D01*
X9968786Y-14717929D01*
X9954500Y-14703643D01*
X10240214Y-14432214D02*
X10425928Y-14432214D01*
X10325928Y-14546500D01*
X10368786Y-14546500D01*
X10397357Y-14560786D01*
X10411643Y-14575071D01*
X10425928Y-14603643D01*
X10425928Y-14675071D01*
X10411643Y-14703643D01*
X10397357Y-14717929D01*
X10368786Y-14732214D01*
X10283071Y-14732214D01*
X10254500Y-14717929D01*
X10240214Y-14703643D01*
X10540214Y-14432214D02*
X10540214Y-14489357D01*
X10654500Y-14432214D02*
X10654500Y-14489357D01*
X11097357Y-14846500D02*
X11083071Y-14832214D01*
X11054500Y-14789357D01*
X11040214Y-14760786D01*
X11025928Y-14717929D01*
X11011643Y-14646500D01*
X11011643Y-14589357D01*
X11025928Y-14517929D01*
X11040214Y-14475071D01*
X11054500Y-14446500D01*
X11083071Y-14403643D01*
X11097357Y-14389357D01*
X11340214Y-14532214D02*
X11340214Y-14732214D01*
X11268786Y-14417929D02*
X11197357Y-14632214D01*
X11383071Y-14632214D01*
X11725928Y-14732214D02*
X11725928Y-14432214D01*
X11854500Y-14732214D02*
X11854500Y-14575071D01*
X11840214Y-14546500D01*
X11811643Y-14532214D01*
X11768786Y-14532214D01*
X11740214Y-14546500D01*
X11725928Y-14560786D01*
X12040214Y-14732214D02*
X12011643Y-14717929D01*
X11997357Y-14703643D01*
X11983071Y-14675071D01*
X11983071Y-14589357D01*
X11997357Y-14560786D01*
X12011643Y-14546500D01*
X12040214Y-14532214D01*
X12083071Y-14532214D01*
X12111643Y-14546500D01*
X12125928Y-14560786D01*
X12140214Y-14589357D01*
X12140214Y-14675071D01*
X12125928Y-14703643D01*
X12111643Y-14717929D01*
X12083071Y-14732214D01*
X12040214Y-14732214D01*
X12311643Y-14732214D02*
X12283071Y-14717929D01*
X12268786Y-14689357D01*
X12268786Y-14432214D01*
X12540214Y-14717929D02*
X12511643Y-14732214D01*
X12454500Y-14732214D01*
X12425928Y-14717929D01*
X12411643Y-14689357D01*
X12411643Y-14575071D01*
X12425928Y-14546500D01*
X12454500Y-14532214D01*
X12511643Y-14532214D01*
X12540214Y-14546500D01*
X12554500Y-14575071D01*
X12554500Y-14603643D01*
X12411643Y-14632214D01*
X12668786Y-14717929D02*
X12697357Y-14732214D01*
X12754500Y-14732214D01*
X12783071Y-14717929D01*
X12797357Y-14689357D01*
X12797357Y-14675071D01*
X12783071Y-14646500D01*
X12754500Y-14632214D01*
X12711643Y-14632214D01*
X12683071Y-14617929D01*
X12668786Y-14589357D01*
X12668786Y-14575071D01*
X12683071Y-14546500D01*
X12711643Y-14532214D01*
X12754500Y-14532214D01*
X12783071Y-14546500D01*
X12897357Y-14846500D02*
X12911643Y-14832214D01*
X12940214Y-14789357D01*
X12954500Y-14760786D01*
X12968786Y-14717929D01*
X12983071Y-14646500D01*
X12983071Y-14589357D01*
X12968786Y-14517929D01*
X12954500Y-14475071D01*
X12940214Y-14446500D01*
X12911643Y-14403643D01*
X12897357Y-14389357D01*
X5779500Y-15052500D02*
X5839500Y-14992500D01*
X5779500Y-14932500D01*
X5719500Y-14992500D01*
X5779500Y-15052500D01*
X6283071Y-15128214D02*
X6111643Y-15128214D01*
X6197357Y-15128214D02*
X6197357Y-14828214D01*
X6168786Y-14871071D01*
X6140214Y-14899643D01*
X6111643Y-14913929D01*
X6411643Y-15099643D02*
X6425928Y-15113929D01*
X6411643Y-15128214D01*
X6397357Y-15113929D01*
X6411643Y-15099643D01*
X6411643Y-15128214D01*
X6540214Y-14856786D02*
X6554500Y-14842500D01*
X6583071Y-14828214D01*
X6654500Y-14828214D01*
X6683071Y-14842500D01*
X6697357Y-14856786D01*
X6711643Y-14885357D01*
X6711643Y-14913929D01*
X6697357Y-14956786D01*
X6525928Y-15128214D01*
X6711643Y-15128214D01*
X6897357Y-14828214D02*
X6925928Y-14828214D01*
X6954500Y-14842500D01*
X6968786Y-14856786D01*
X6983071Y-14885357D01*
X6997357Y-14942500D01*
X6997357Y-15013929D01*
X6983071Y-15071071D01*
X6968786Y-15099643D01*
X6954500Y-15113929D01*
X6925928Y-15128214D01*
X6897357Y-15128214D01*
X6868786Y-15113929D01*
X6854500Y-15099643D01*
X6840214Y-15071071D01*
X6825928Y-15013929D01*
X6825928Y-14942500D01*
X6840214Y-14885357D01*
X6854500Y-14856786D01*
X6868786Y-14842500D01*
X6897357Y-14828214D01*
X7183071Y-14828214D02*
X7211643Y-14828214D01*
X7240214Y-14842500D01*
X7254500Y-14856786D01*
X7268786Y-14885357D01*
X7283071Y-14942500D01*
X7283071Y-15013929D01*
X7268786Y-15071071D01*
X7254500Y-15099643D01*
X7240214Y-15113929D01*
X7211643Y-15128214D01*
X7183071Y-15128214D01*
X7154500Y-15113929D01*
X7140214Y-15099643D01*
X7125928Y-15071071D01*
X7111643Y-15013929D01*
X7111643Y-14942500D01*
X7125928Y-14885357D01*
X7140214Y-14856786D01*
X7154500Y-14842500D01*
X7183071Y-14828214D01*
X7411643Y-15128214D02*
X7411643Y-14928214D01*
X7411643Y-14956786D02*
X7425928Y-14942500D01*
X7454500Y-14928214D01*
X7497357Y-14928214D01*
X7525928Y-14942500D01*
X7540214Y-14971071D01*
X7540214Y-15128214D01*
X7540214Y-14971071D02*
X7554500Y-14942500D01*
X7583071Y-14928214D01*
X7625928Y-14928214D01*
X7654500Y-14942500D01*
X7668786Y-14971071D01*
X7668786Y-15128214D01*
X7811643Y-15128214D02*
X7811643Y-14928214D01*
X7811643Y-14956786D02*
X7825928Y-14942500D01*
X7854500Y-14928214D01*
X7897357Y-14928214D01*
X7925928Y-14942500D01*
X7940214Y-14971071D01*
X7940214Y-15128214D01*
X7940214Y-14971071D02*
X7954500Y-14942500D01*
X7983071Y-14928214D01*
X8025928Y-14928214D01*
X8054500Y-14942500D01*
X8068786Y-14971071D01*
X8068786Y-15128214D01*
X8654500Y-14813929D02*
X8397357Y-15199643D01*
X9040214Y-14828214D02*
X9068786Y-14828214D01*
X9097357Y-14842500D01*
X9111643Y-14856786D01*
X9125928Y-14885357D01*
X9140214Y-14942500D01*
X9140214Y-15013929D01*
X9125928Y-15071071D01*
X9111643Y-15099643D01*
X9097357Y-15113929D01*
X9068786Y-15128214D01*
X9040214Y-15128214D01*
X9011643Y-15113929D01*
X8997357Y-15099643D01*
X8983071Y-15071071D01*
X8968786Y-15013929D01*
X8968786Y-14942500D01*
X8983071Y-14885357D01*
X8997357Y-14856786D01*
X9011643Y-14842500D01*
X9040214Y-14828214D01*
X9268786Y-15099643D02*
X9283071Y-15113929D01*
X9268786Y-15128214D01*
X9254500Y-15113929D01*
X9268786Y-15099643D01*
X9268786Y-15128214D01*
X9468786Y-14828214D02*
X9497357Y-14828214D01*
X9525928Y-14842500D01*
X9540214Y-14856786D01*
X9554500Y-14885357D01*
X9568786Y-14942500D01*
X9568786Y-15013929D01*
X9554500Y-15071071D01*
X9540214Y-15099643D01*
X9525928Y-15113929D01*
X9497357Y-15128214D01*
X9468786Y-15128214D01*
X9440214Y-15113929D01*
X9425928Y-15099643D01*
X9411643Y-15071071D01*
X9397357Y-15013929D01*
X9397357Y-14942500D01*
X9411643Y-14885357D01*
X9425928Y-14856786D01*
X9440214Y-14842500D01*
X9468786Y-14828214D01*
X9825928Y-14928214D02*
X9825928Y-15128214D01*
X9754500Y-14813929D02*
X9683071Y-15028214D01*
X9868786Y-15028214D01*
X9954500Y-14828214D02*
X10154500Y-14828214D01*
X10025928Y-15128214D01*
X10254500Y-14856786D02*
X10268786Y-14842500D01*
X10297357Y-14828214D01*
X10368786Y-14828214D01*
X10397357Y-14842500D01*
X10411643Y-14856786D01*
X10425928Y-14885357D01*
X10425928Y-14913929D01*
X10411643Y-14956786D01*
X10240214Y-15128214D01*
X10425928Y-15128214D01*
X10540214Y-14828214D02*
X10540214Y-14885357D01*
X10654500Y-14828214D02*
X10654500Y-14885357D01*
X11097357Y-15242500D02*
X11083071Y-15228214D01*
X11054500Y-15185357D01*
X11040214Y-15156786D01*
X11025928Y-15113929D01*
X11011643Y-15042500D01*
X11011643Y-14985357D01*
X11025928Y-14913929D01*
X11040214Y-14871071D01*
X11054500Y-14842500D01*
X11083071Y-14799643D01*
X11097357Y-14785357D01*
X11197357Y-14856786D02*
X11211643Y-14842500D01*
X11240214Y-14828214D01*
X11311643Y-14828214D01*
X11340214Y-14842500D01*
X11354500Y-14856786D01*
X11368786Y-14885357D01*
X11368786Y-14913929D01*
X11354500Y-14956786D01*
X11183071Y-15128214D01*
X11368786Y-15128214D01*
X11725928Y-15128214D02*
X11725928Y-14828214D01*
X11854500Y-15128214D02*
X11854500Y-14971071D01*
X11840214Y-14942500D01*
X11811643Y-14928214D01*
X11768786Y-14928214D01*
X11740214Y-14942500D01*
X11725928Y-14956786D01*
X12040214Y-15128214D02*
X12011643Y-15113929D01*
X11997357Y-15099643D01*
X11983071Y-15071071D01*
X11983071Y-14985357D01*
X11997357Y-14956786D01*
X12011643Y-14942500D01*
X12040214Y-14928214D01*
X12083071Y-14928214D01*
X12111643Y-14942500D01*
X12125928Y-14956786D01*
X12140214Y-14985357D01*
X12140214Y-15071071D01*
X12125928Y-15099643D01*
X12111643Y-15113929D01*
X12083071Y-15128214D01*
X12040214Y-15128214D01*
X12311643Y-15128214D02*
X12283071Y-15113929D01*
X12268786Y-15085357D01*
X12268786Y-14828214D01*
X12540214Y-15113929D02*
X12511643Y-15128214D01*
X12454500Y-15128214D01*
X12425928Y-15113929D01*
X12411643Y-15085357D01*
X12411643Y-14971071D01*
X12425928Y-14942500D01*
X12454500Y-14928214D01*
X12511643Y-14928214D01*
X12540214Y-14942500D01*
X12554500Y-14971071D01*
X12554500Y-14999643D01*
X12411643Y-15028214D01*
X12668786Y-15113929D02*
X12697357Y-15128214D01*
X12754500Y-15128214D01*
X12783071Y-15113929D01*
X12797357Y-15085357D01*
X12797357Y-15071071D01*
X12783071Y-15042500D01*
X12754500Y-15028214D01*
X12711643Y-15028214D01*
X12683071Y-15013929D01*
X12668786Y-14985357D01*
X12668786Y-14971071D01*
X12683071Y-14942500D01*
X12711643Y-14928214D01*
X12754500Y-14928214D01*
X12783071Y-14942500D01*
X12897357Y-15242500D02*
X12911643Y-15228214D01*
X12940214Y-15185357D01*
X12954500Y-15156786D01*
X12968786Y-15113929D01*
X12983071Y-15042500D01*
X12983071Y-14985357D01*
X12968786Y-14913929D01*
X12954500Y-14871071D01*
X12940214Y-14842500D01*
X12911643Y-14799643D01*
X12897357Y-14785357D01*
M02*
